<svg xmlns="http://www.w3.org/2000/svg" width="38" height="38" viewBox="0 0 38 38">
    <path fill="#FFF" fill-rule="nonzero" d="M28.6 7H9.4A2.405 2.405 0 0 0 7 9.4v19.2C7 29.922 8.078 31 9.4 31h19.2c1.322 0 2.4-1.078 2.4-2.4V9.4C31 8.078 29.922 7 28.6 7zM14.322 26.2H10.6V15.878h3.722V26.2zM12.4 14.678c-1.078 0-1.8-.717-1.8-1.678 0-.96.722-1.678 1.922-1.678 1.078 0 1.8.717 1.8 1.678 0 .96-.722 1.678-1.922 1.678zm15 11.522h-3.722v-5.64c0-1.56-.956-1.92-1.317-1.92s-1.561.238-1.561 1.92v5.64h-3.722V15.878H20.8v1.444c.478-.844 1.44-1.444 3.24-1.444 1.8 0 3.238 1.444 3.238 4.683V26.2h.122z"/>
</svg>
