<svg xmlns="http://www.w3.org/2000/svg" width="38" height="38" viewBox="0 0 38 38">
    <path fill="#FFF" fill-rule="nonzero" d="M28.6 7H9.4A2.405 2.405 0 0 0 7 9.4v19.2C7 29.922 8.078 31 9.4 31h19.2c1.322 0 2.4-1.078 2.4-2.4V9.4C31 8.078 29.922 7 28.6 7zm-2.878 8.16v.48c0 4.56-3.483 9.838-9.844 9.838-1.917 0-3.717-.6-5.278-1.556h.84c1.56 0 3.12-.6 4.32-1.444-1.56 0-2.76-1.078-3.238-2.4.239 0 .478.122.6.122.356 0 .6 0 .956-.122-1.556-.356-2.756-1.678-2.756-3.356.478.239.956.356 1.556.478-.956-.84-1.556-1.8-1.556-3 0-.6.117-1.2.478-1.678 1.678 2.039 4.2 3.478 7.078 3.6 0-.244-.117-.483-.117-.844a3.483 3.483 0 0 1 3.478-3.478c.961 0 1.922.36 2.522 1.078.839-.117 1.56-.478 2.16-.839-.243.84-.843 1.44-1.56 1.922.717-.122 1.317-.24 2.039-.6a8.15 8.15 0 0 1-1.678 1.8v-.001z"/>
</svg>
