<?xml version="1.0" encoding="UTF-8" standalone="no"?>
<!DOCTYPE svg PUBLIC "-//W3C//DTD SVG 1.1//EN" "http://www.w3.org/Graphics/SVG/1.1/DTD/svg11.dtd">
<svg xmlns="http://www.w3.org/2000/svg" version="1.1" viewBox="0 0 1325 441" width="1325.0pt" height="441.0pt">
<path d="M 0.00 0.00 L 1325.00 0.00 L 1325.00 441.00 L 0.00 441.00 L 0.00 0.00 Z" fill="#ffffff" />
<path d="M 96.18 0.67 C 98.07 1.12 99.89 1.40 101.60 2.37 C 120.31 13.24 138.22 25.26 154.34 39.76 C 153.75 51.19 154.09 62.57 154.04 74.00 C 154.04 111.10 154.04 148.21 154.04 185.31 C 143.99 185.05 134.65 187.45 125.09 190.21 C 122.43 185.09 120.03 180.18 116.28 175.73 C 109.43 167.72 103.06 160.08 93.83 154.65 C 89.38 164.07 87.18 174.78 85.26 184.98 C 83.08 197.89 85.05 210.20 87.23 222.91 C 87.24 224.24 87.23 225.57 87.21 226.89 C 64.42 227.04 41.61 227.09 18.82 226.78 C 23.69 194.97 34.84 164.74 42.40 133.52 C 44.56 124.55 45.11 115.71 46.58 106.63 C 48.82 113.65 50.67 120.61 51.12 128.00 C 51.43 133.20 51.53 138.41 52.03 143.60 C 64.71 132.50 74.02 117.13 80.92 101.90 C 91.41 78.65 97.03 53.46 98.13 28.01 C 98.28 19.01 97.04 9.63 96.18 0.67 Z" fill="#2fa1d7" />
<path d="M 154.34 39.76 C 163.48 47.23 171.85 55.48 180.15 63.85 C 195.19 78.71 208.78 95.96 222.77 111.93 C 224.15 95.13 220.10 80.30 218.21 63.90 C 221.55 67.31 224.48 70.96 227.00 75.01 C 240.60 96.66 252.23 119.56 261.69 143.31 C 270.30 165.09 276.52 187.80 280.10 210.94 C 280.89 216.21 281.81 221.66 281.99 226.97 C 261.62 227.05 241.27 226.65 220.90 227.13 C 221.60 223.41 222.50 219.74 223.08 216.00 C 226.56 195.41 223.36 173.77 215.86 154.38 C 207.32 159.64 200.37 167.33 193.84 174.88 C 190.10 179.14 188.06 185.29 183.76 188.88 C 180.77 189.72 177.05 188.48 174.07 187.81 C 167.53 185.98 160.82 185.32 154.04 185.31 C 154.04 148.21 154.04 111.10 154.04 74.00 C 154.09 62.57 153.75 51.19 154.34 39.76 Z" fill="#c294c5" />
<path d="M 685.58 139.19 C 699.21 139.19 712.85 139.19 726.48 139.19 C 726.48 164.41 726.48 189.64 726.48 214.86 C 733.85 208.10 742.18 202.61 751.85 199.78 C 761.55 197.62 771.67 197.73 781.17 200.75 C 795.48 205.99 805.72 217.86 810.90 231.94 C 816.20 245.80 817.22 261.56 816.10 276.23 C 814.65 291.77 810.23 307.04 800.47 319.48 C 792.05 330.31 779.70 337.87 766.03 339.66 C 755.85 341.09 745.31 340.02 736.37 334.65 C 731.43 331.81 727.91 327.83 723.88 323.93 C 723.22 327.32 722.72 331.07 721.20 334.19 C 719.46 337.53 715.38 337.99 712.03 338.15 C 703.22 338.19 694.41 338.14 685.60 338.16 C 685.54 271.84 685.59 205.51 685.58 139.19 Z" fill="#010101" />
<path d="M 414.46 141.99 C 414.35 147.34 413.66 152.65 413.50 158.00 C 413.42 160.83 413.08 163.49 412.37 166.23 C 405.85 169.73 399.93 168.02 392.87 168.82 C 383.41 169.64 372.37 171.45 365.05 178.02 C 358.23 184.31 357.08 193.62 357.30 202.42 C 386.28 202.43 415.25 202.38 444.23 202.44 C 444.23 248.21 444.23 293.97 444.23 339.73 C 430.60 339.80 416.97 339.74 403.34 339.76 C 403.34 303.34 403.34 266.92 403.34 230.50 C 388.38 230.37 373.41 230.48 358.45 230.44 C 358.43 266.87 358.44 303.30 358.45 339.73 C 344.76 339.79 331.06 339.77 317.37 339.74 C 317.41 303.31 317.33 266.88 317.41 230.45 C 313.02 229.20 308.22 228.85 304.04 227.06 C 301.03 225.71 298.46 223.49 298.22 219.98 C 297.85 214.15 298.17 208.26 298.07 202.41 C 304.49 202.42 310.90 202.41 317.32 202.42 C 317.10 188.78 320.45 174.88 328.98 164.01 C 338.12 152.00 352.75 145.23 367.17 142.05 C 382.68 138.93 398.94 138.98 414.46 141.99 Z" fill="#010101" />
<path d="M 604.97 198.91 C 612.25 198.09 619.68 198.21 626.98 198.86 C 628.68 199.25 630.40 199.55 632.13 199.83 C 643.20 202.33 653.46 207.39 661.30 215.73 C 672.80 227.72 677.72 244.66 677.59 261.00 C 677.52 264.97 677.80 270.14 675.67 273.63 C 674.15 276.09 671.70 276.61 668.99 276.56 C 642.43 276.56 615.84 276.54 589.28 276.57 C 590.20 283.61 591.82 290.90 595.76 296.92 C 599.81 303.36 607.02 307.42 614.40 308.72 C 623.50 310.49 632.72 308.87 641.00 304.84 C 646.92 302.34 652.28 297.56 659.07 298.44 C 662.54 298.55 664.49 301.29 666.53 303.69 C 669.94 308.08 673.54 312.32 676.87 316.77 C 667.74 327.16 655.52 334.06 642.14 337.35 C 628.86 340.53 614.63 341.31 601.22 338.49 C 586.36 335.38 572.71 327.71 563.43 315.55 C 552.61 301.64 548.10 284.45 548.38 267.00 C 547.86 248.87 554.46 230.30 567.44 217.44 C 577.46 207.16 590.81 200.89 604.97 198.91 Z" fill="#010101" />
<path d="M 154.57 200.49 L 154.78 200.65 C 159.60 204.46 164.19 208.13 167.09 213.70 C 163.62 218.84 159.07 222.76 154.17 226.48 C 153.95 217.75 154.00 209.00 154.14 200.27 L 154.57 200.49 Z" fill="#c294c5" />
<path d="M 526.97 199.88 C 534.31 198.77 541.93 198.86 548.38 203.01 C 549.03 206.44 548.42 210.22 548.15 213.68 C 547.00 221.40 547.54 229.74 545.30 237.24 C 543.53 237.98 542.02 238.86 540.03 238.81 C 532.97 238.87 527.02 236.67 519.97 238.52 C 513.78 239.88 509.63 244.31 506.29 249.41 C 504.55 252.24 502.51 255.49 502.70 258.93 C 502.72 285.79 502.71 312.66 502.71 339.53 C 489.07 339.51 475.43 339.60 461.79 339.48 C 461.80 293.73 461.80 247.98 461.79 202.22 C 469.19 202.07 476.60 202.20 484.00 202.14 C 486.71 202.15 489.57 202.07 492.23 202.60 C 494.84 203.42 496.45 205.27 497.23 207.86 C 498.56 212.32 499.30 216.99 499.81 221.61 C 500.25 221.62 500.69 221.64 501.13 221.65 C 506.83 211.95 515.49 202.27 526.97 199.88 Z" fill="#010101" />
<path d="M 906.09 199.79 C 918.51 201.67 930.30 205.80 940.15 213.78 C 953.46 224.32 961.20 239.95 963.51 256.59 C 966.04 274.37 963.74 294.04 954.56 309.74 C 948.03 321.05 937.86 329.92 925.86 335.04 C 911.71 341.29 895.16 342.52 880.00 340.02 C 863.35 337.21 847.90 328.85 837.78 315.13 C 828.22 301.98 824.14 286.13 824.23 270.00 C 824.10 253.89 828.20 238.05 837.83 224.98 C 847.08 212.51 860.94 204.37 876.02 201.14 C 885.97 198.85 895.96 199.14 906.09 199.79 Z" fill="#010101" />
<path d="M 154.14 200.27 C 154.00 209.00 153.95 217.75 154.17 226.48 C 149.66 222.26 145.01 218.63 141.97 213.10 C 145.31 208.10 149.74 204.30 154.14 200.27 Z" fill="#2fa1d7" />
<path d="M 957.79 203.56 C 970.54 203.46 983.28 203.57 996.03 203.50 C 998.87 203.51 1001.42 203.44 1003.90 205.05 C 1005.76 206.40 1007.07 208.71 1008.24 210.66 C 1015.73 223.54 1023.84 236.09 1031.13 249.09 C 1037.69 235.94 1045.66 223.49 1052.68 210.57 C 1054.54 207.08 1056.27 205.38 1059.78 203.55 C 1073.18 203.54 1086.60 203.44 1100.00 203.60 C 1085.79 224.51 1071.51 245.43 1057.19 266.26 C 1055.85 268.12 1056.19 268.78 1057.29 270.61 C 1072.28 294.09 1086.98 317.75 1101.91 341.28 C 1089.61 341.37 1077.30 341.26 1065.00 341.34 C 1061.89 341.30 1058.93 341.45 1056.18 339.73 C 1053.17 337.88 1051.62 335.05 1049.91 332.08 C 1042.32 318.72 1034.25 305.59 1026.92 292.08 C 1025.41 295.44 1023.83 298.75 1021.92 301.90 C 1015.82 312.12 1009.81 322.38 1003.85 332.67 C 1001.09 337.00 997.77 341.52 992.04 341.31 C 980.09 341.29 968.12 341.40 956.16 341.23 C 958.19 336.64 961.10 332.95 963.74 328.67 C 976.46 309.19 988.94 289.56 1001.68 270.09 C 988.39 250.41 975.45 230.51 962.19 210.82 C 960.59 208.48 959.10 206.08 957.79 203.56 Z" fill="#010101" />
<path d="M 1243.42 219.50 C 1248.35 217.77 1253.78 220.18 1256.42 224.54 C 1259.62 229.70 1257.62 236.51 1252.55 239.60 C 1247.36 242.86 1240.40 241.08 1237.35 235.81 C 1233.67 229.85 1236.69 221.54 1243.42 219.50 Z" fill="#010101" />
<path d="M 87.23 222.91 C 87.89 228.12 88.16 233.81 86.89 238.95 C 86.29 240.94 85.83 242.82 83.55 243.38 C 78.05 244.75 71.72 243.82 66.09 243.66 C 67.32 256.85 73.94 268.56 83.35 277.65 C 90.21 284.40 98.42 289.10 107.27 292.72 C 112.30 294.88 117.22 296.92 120.19 301.81 C 123.86 308.10 125.80 315.74 125.71 323.01 C 125.57 329.33 123.57 336.39 118.67 340.68 C 115.89 343.08 112.42 345.00 108.85 345.85 C 106.36 346.11 103.67 345.20 101.24 344.66 C 85.78 340.87 70.25 335.75 56.59 327.42 C 42.75 318.85 31.01 307.67 24.54 292.48 C 19.28 279.78 16.37 265.77 17.00 252.00 C 16.72 243.34 17.22 235.30 18.82 226.78 C 41.61 227.09 64.42 227.04 87.21 226.89 C 87.23 225.57 87.24 224.24 87.23 222.91 Z" fill="#43c1da" />
<path d="M 220.90 227.13 C 241.27 226.65 261.62 227.05 281.99 226.97 C 282.04 235.98 281.96 244.99 282.03 254.00 C 282.11 259.85 280.88 265.22 279.77 270.93 C 277.13 283.99 272.14 297.34 264.08 308.06 C 257.23 317.01 249.08 324.83 238.94 329.93 C 224.90 337.28 208.75 340.84 192.96 341.06 C 188.79 341.09 184.74 340.48 181.91 337.10 C 177.52 331.70 176.30 323.76 176.80 317.00 C 177.29 311.29 178.59 305.00 182.72 300.73 C 186.03 297.11 191.67 295.91 196.13 294.13 C 207.34 289.86 219.57 284.84 227.72 275.72 C 235.95 267.10 241.71 256.46 242.36 244.38 C 236.14 244.06 229.91 243.82 223.68 243.77 C 222.22 238.16 220.61 233.03 220.90 227.13 Z" fill="#f2a72a" />
<path d="M 617.99 226.57 C 625.38 226.79 632.63 229.98 636.66 236.38 C 639.88 241.27 640.82 246.81 640.84 252.58 C 623.87 252.59 606.89 252.61 589.92 252.56 C 590.95 245.97 593.40 238.97 597.95 233.98 C 602.87 228.39 610.78 226.31 617.99 226.57 Z" fill="#ffffff" />
<path d="M 129.47 231.52 C 137.03 236.06 142.28 243.04 145.78 251.03 C 141.19 249.08 137.17 246.59 132.02 246.60 C 124.80 246.59 118.27 247.72 111.05 245.96 C 105.80 244.80 101.37 242.13 97.01 239.10 C 100.73 235.15 104.09 231.36 109.22 229.19 C 115.90 226.45 123.47 227.74 129.47 231.52 Z" fill="#43c1da" />
<path d="M 197.54 228.57 C 203.25 230.36 207.89 234.98 212.10 239.05 C 206.58 242.85 200.70 245.81 193.97 246.66 C 187.47 247.67 181.38 246.22 174.96 246.59 C 170.72 246.80 166.54 249.93 162.85 251.83 C 166.36 243.00 172.43 235.38 180.86 230.85 C 185.91 228.25 191.98 226.76 197.54 228.57 Z" fill="#f2a72a" />
<path d="M 763.98 233.16 C 769.24 237.32 771.60 244.43 772.83 250.79 C 774.70 261.86 774.64 273.18 772.80 284.26 C 771.55 290.83 769.34 297.82 764.86 302.95 C 760.56 307.71 754.34 309.87 748.00 309.78 C 740.07 310.03 731.95 306.94 726.80 300.80 C 726.55 299.94 726.44 299.03 726.47 298.08 C 726.49 279.42 726.48 260.77 726.48 242.12 C 730.74 237.45 735.02 233.24 740.93 230.72 C 748.06 228.42 757.80 228.31 763.98 233.16 Z" fill="#ffffff" />
<path d="M 903.19 230.67 C 909.51 232.76 914.26 236.76 917.21 242.75 C 921.78 252.06 922.35 263.82 922.09 274.03 C 921.78 283.03 920.33 293.52 915.13 301.11 C 910.69 307.79 902.78 310.69 895.00 310.59 C 887.41 310.79 879.54 308.51 874.63 302.43 C 868.92 295.18 867.43 285.99 866.67 277.05 C 866.17 267.82 866.50 257.93 869.05 248.99 C 871.05 242.31 874.58 236.25 880.85 232.79 C 887.90 229.17 895.55 229.01 903.19 230.67 Z" fill="#ffffff" />
<path d="M 1200.38 257.47 C 1207.65 260.85 1212.79 267.53 1214.87 275.19 C 1217.02 282.56 1216.32 289.47 1216.42 297.00 C 1216.43 311.50 1216.41 326.00 1216.43 340.50 C 1213.07 340.42 1209.20 341.02 1205.99 340.02 C 1202.74 338.35 1202.50 332.41 1202.13 329.15 C 1196.41 334.57 1189.90 339.13 1182.12 340.96 C 1174.81 342.53 1165.98 342.48 1159.33 338.66 C 1155.37 336.45 1152.77 333.01 1150.69 329.08 C 1149.25 324.43 1148.84 319.56 1149.70 314.75 C 1151.39 308.07 1156.70 303.48 1162.62 300.47 C 1174.50 294.59 1187.50 293.43 1200.52 292.89 C 1200.41 286.81 1201.11 281.41 1198.49 275.68 C 1196.91 272.00 1193.67 269.40 1189.81 268.42 C 1182.43 266.64 1174.87 268.48 1168.62 272.63 C 1166.08 274.11 1162.86 277.00 1159.76 276.36 C 1156.42 274.92 1154.86 270.89 1153.14 267.93 C 1159.27 262.46 1166.01 258.02 1174.09 256.09 C 1182.97 254.04 1191.92 253.54 1200.38 257.47 Z" fill="#010101" />
<path d="M 1238.75 256.33 C 1244.10 256.29 1249.45 256.30 1254.81 256.31 C 1254.81 284.39 1254.81 312.47 1254.80 340.55 C 1249.45 340.54 1244.10 340.56 1238.75 340.53 C 1238.75 312.46 1238.75 284.39 1238.75 256.33 Z" fill="#010101" />
<path d="M 169.00 271.03 C 165.69 274.50 161.16 279.44 156.11 279.90 C 151.19 278.86 146.98 274.13 143.77 270.53 C 152.27 268.68 160.60 268.63 169.00 271.03 Z" fill="#43c1da" />
<path d="M 1200.51 303.31 C 1200.51 308.87 1200.54 314.43 1200.47 319.99 C 1197.10 323.07 1194.08 326.12 1189.83 328.01 C 1184.31 330.54 1177.30 331.51 1171.50 329.54 C 1164.79 327.12 1162.56 318.18 1166.53 312.52 C 1169.15 309.02 1173.23 307.38 1177.27 306.16 C 1184.91 303.99 1192.59 303.32 1200.51 303.31 Z" fill="#ffffff" />
<path d="M 1119.72 321.06 C 1123.98 318.91 1129.27 320.01 1132.48 323.48 C 1136.00 327.37 1136.38 333.13 1133.27 337.40 C 1129.38 343.05 1120.39 343.36 1116.13 337.96 C 1111.76 332.58 1113.41 324.09 1119.72 321.06 Z" fill="#010101" />
<path d="M 1302.33 374.11 C 1303.29 374.96 1303.97 378.51 1302.26 378.60 C 1301.31 377.38 1301.87 375.44 1302.33 374.11 Z" fill="#cbcbcb" />
<path d="M 885.00 379.00 C 887.00 379.00 889.00 379.00 891.00 379.00 C 890.99 395.47 891.02 411.93 890.99 428.40 C 889.44 428.22 887.62 428.39 886.19 427.74 C 885.80 426.24 885.59 424.67 885.36 423.15 C 883.13 425.18 881.12 427.12 878.18 428.09 C 873.39 429.68 867.78 428.46 864.67 424.32 C 861.16 419.78 860.90 413.55 861.37 408.06 C 862.04 402.66 864.69 397.18 869.93 394.92 C 875.29 392.60 880.63 393.63 885.05 397.29 C 884.95 391.20 885.02 385.10 885.00 379.00 Z" fill="#5e5e5e" />
<path d="M 962.75 379.00 C 964.75 379.00 966.75 379.00 968.75 379.00 C 968.75 395.41 968.76 411.82 968.75 428.23 C 966.75 428.24 964.75 428.25 962.75 428.25 C 962.75 411.84 962.75 395.42 962.75 379.00 Z" fill="#5e5e5e" />
<path d="M 1075.50 379.00 C 1077.50 379.00 1079.50 379.00 1081.50 379.00 C 1081.49 395.42 1081.50 411.84 1081.49 428.25 C 1079.93 428.24 1078.37 428.23 1076.81 428.22 C 1076.46 426.50 1076.13 424.77 1075.82 423.03 C 1073.89 424.86 1072.16 426.67 1069.66 427.73 C 1064.91 429.75 1058.69 428.80 1055.38 424.64 C 1051.74 420.00 1051.35 413.65 1051.87 408.00 C 1052.50 402.51 1055.50 396.98 1060.78 394.76 C 1066.16 392.63 1071.24 393.72 1075.57 397.40 C 1075.44 391.27 1075.52 385.13 1075.50 379.00 Z" fill="#5e5e5e" />
<path d="M 542.48 380.41 C 544.61 380.14 546.80 380.23 548.94 380.21 C 555.35 396.25 561.74 412.30 568.19 428.31 C 566.13 428.28 564.02 428.31 561.98 428.06 C 559.35 424.26 558.28 419.25 556.43 415.01 C 549.28 414.99 542.13 415.00 534.98 415.00 C 533.13 419.20 531.91 423.78 529.69 427.79 C 527.72 428.54 525.28 428.18 523.20 428.31 C 529.14 413.25 535.26 398.27 541.18 383.20 C 541.56 382.24 541.99 381.31 542.48 380.41 Z" fill="#5e5e5e" />
<path d="M 590.36 380.35 C 592.47 380.17 594.63 380.22 596.75 380.22 C 596.75 396.23 596.76 412.23 596.75 428.24 C 594.58 428.24 592.42 428.24 590.25 428.24 C 590.32 412.30 590.09 396.27 590.36 380.35 Z" fill="#5e5e5e" />
<path d="M 642.01 380.25 C 647.36 380.31 652.72 380.12 658.07 380.31 C 662.63 380.53 667.49 381.84 670.65 385.34 C 676.00 391.74 674.88 403.07 667.46 407.47 C 661.46 411.15 654.95 410.14 648.24 410.23 C 648.25 416.24 648.25 422.24 648.25 428.25 C 646.17 428.25 644.09 428.25 642.01 428.25 C 642.00 412.25 642.00 396.25 642.01 380.25 Z" fill="#5e5e5e" />
<path d="M 955.76 385.75 C 954.71 386.76 953.61 389.43 952.05 389.47 C 948.57 387.84 945.80 385.69 941.80 385.41 C 934.99 384.60 928.03 387.64 925.02 394.01 C 921.26 401.82 922.01 413.26 928.71 419.31 C 935.73 425.28 946.31 424.22 952.93 418.10 C 954.08 419.27 955.23 420.43 956.39 421.60 C 953.69 424.11 951.08 426.45 947.48 427.55 C 939.79 429.94 930.60 429.06 924.29 423.74 C 918.27 418.68 915.83 410.60 916.23 402.94 C 916.41 395.68 919.42 388.67 925.30 384.25 C 934.26 377.61 947.47 378.23 955.76 385.75 Z" fill="#5e5e5e" />
<path d="M 1118.16 380.22 C 1124.69 378.72 1130.83 380.41 1135.98 384.56 C 1135.05 386.09 1134.11 387.61 1133.15 389.12 C 1128.51 386.29 1124.36 383.82 1118.72 385.71 C 1114.03 387.17 1111.84 393.74 1115.90 397.10 C 1120.67 400.91 1129.25 401.05 1134.06 405.95 C 1138.50 410.74 1137.29 419.52 1133.01 424.05 C 1128.44 428.84 1121.10 429.65 1114.95 428.06 C 1111.23 427.12 1108.45 424.93 1105.50 422.60 C 1106.63 421.12 1107.75 419.64 1108.87 418.16 C 1111.73 420.09 1114.55 422.46 1118.01 423.13 C 1121.32 423.80 1125.43 423.36 1128.07 421.08 C 1131.09 418.11 1132.11 412.51 1128.41 409.60 C 1123.71 406.09 1116.54 406.06 1111.77 402.24 C 1107.61 398.91 1106.70 392.54 1108.80 387.83 C 1110.50 383.92 1114.04 381.19 1118.16 380.22 Z" fill="#5e5e5e" />
<path d="M 1150.96 383.08 C 1151.01 387.05 1151.00 391.03 1151.00 395.00 C 1154.25 395.00 1157.50 395.00 1160.75 395.00 C 1160.75 396.41 1160.75 397.83 1160.74 399.24 C 1157.50 399.25 1154.25 399.25 1151.01 399.25 C 1151.01 405.51 1150.99 411.77 1150.97 418.03 C 1151.06 419.79 1150.88 422.32 1152.67 423.33 C 1154.93 424.82 1157.21 423.03 1159.39 422.27 C 1160.19 423.48 1160.99 424.70 1161.78 425.91 C 1157.82 428.32 1153.67 429.90 1149.12 427.95 C 1145.98 426.49 1145.14 423.25 1145.03 420.06 C 1144.91 413.13 1145.05 406.20 1145.00 399.28 C 1143.29 399.24 1141.57 399.21 1139.86 399.17 C 1139.81 397.99 1139.75 396.82 1139.70 395.64 C 1141.55 395.39 1143.40 395.14 1145.25 394.89 C 1145.79 391.12 1146.16 387.31 1146.80 383.56 C 1148.18 383.36 1149.58 383.23 1150.96 383.08 Z" fill="#5e5e5e" />
<path d="M 648.35 385.34 C 652.96 385.13 658.12 384.99 662.52 386.53 C 668.92 389.50 669.19 399.66 663.29 403.30 C 659.23 405.90 652.91 405.13 648.25 405.24 C 648.35 398.61 648.05 391.96 648.35 385.34 Z" fill="#ffffff" />
<path d="M 545.71 386.57 C 548.21 394.69 551.76 402.48 554.60 410.49 C 548.63 410.51 542.66 410.50 536.69 410.50 C 539.65 402.51 543.02 394.65 545.71 386.57 Z" fill="#ffffff" />
<path d="M 689.21 394.18 C 695.64 392.81 702.89 394.65 706.56 400.43 C 710.30 406.33 710.40 414.96 707.15 421.09 C 702.06 430.95 685.78 431.34 679.91 422.08 C 676.42 416.49 676.18 408.73 678.70 402.71 C 680.56 398.25 684.53 395.19 689.21 394.18 Z" fill="#5e5e5e" />
<path d="M 712.79 394.16 C 714.71 394.35 717.31 393.90 719.02 394.87 C 720.09 397.29 720.68 399.94 721.45 402.47 C 723.28 408.94 725.49 415.15 726.81 421.75 C 729.43 413.12 732.25 404.54 735.11 396.00 C 735.54 393.42 738.82 394.52 740.68 394.19 C 743.80 403.31 746.77 412.57 749.43 421.83 C 751.33 413.33 754.25 405.05 756.70 396.69 C 757.50 393.09 760.50 394.60 763.25 394.16 C 759.70 405.55 755.95 416.88 752.29 428.24 C 750.46 428.25 748.63 428.26 746.81 428.27 C 743.81 419.32 740.73 410.36 738.10 401.29 C 735.38 410.35 732.27 419.32 729.20 428.26 C 727.42 428.26 725.64 428.25 723.87 428.24 C 720.13 416.90 716.53 405.51 712.79 394.16 Z" fill="#5e5e5e" />
<path d="M 792.95 397.96 C 796.35 401.70 797.10 406.40 796.57 411.29 C 788.57 411.22 780.56 411.24 772.56 411.27 C 773.06 414.67 773.30 417.75 775.48 420.57 C 777.54 423.24 780.76 424.11 784.02 424.03 C 787.73 424.04 790.46 421.88 793.85 420.70 C 794.81 421.63 795.65 422.65 796.51 423.67 C 789.45 429.98 777.06 431.07 770.68 423.26 C 765.90 417.28 765.41 406.97 769.54 400.54 C 774.19 392.76 786.75 391.34 792.95 397.96 Z" fill="#5e5e5e" />
<path d="M 804.36 394.26 C 806.01 394.23 807.69 394.35 809.34 394.46 C 809.50 396.64 809.66 398.82 809.77 401.00 C 811.35 398.57 812.81 395.85 815.56 394.56 C 818.21 393.23 820.65 393.93 823.43 394.25 C 823.22 396.16 823.00 398.07 822.78 399.98 C 819.93 399.77 817.16 399.05 814.54 400.58 C 811.81 402.30 810.13 405.73 810.24 408.94 C 810.20 415.38 810.29 421.82 810.25 428.25 C 808.25 428.25 806.25 428.24 804.25 428.23 C 804.33 416.92 804.08 405.56 804.36 394.26 Z" fill="#5e5e5e" />
<path d="M 851.85 398.13 C 855.21 401.88 855.68 406.38 855.46 411.23 C 847.39 411.30 839.31 411.17 831.23 411.31 C 831.85 414.74 832.04 417.86 834.30 420.68 C 836.64 423.62 840.48 424.30 844.03 423.94 C 847.12 423.61 849.63 421.96 852.29 420.51 C 853.31 421.55 854.29 422.61 855.25 423.71 C 848.64 429.55 837.18 430.99 830.56 424.46 C 824.72 418.71 823.97 407.89 828.03 400.98 C 832.61 392.79 845.52 391.14 851.85 398.13 Z" fill="#5e5e5e" />
<path d="M 987.45 394.45 C 993.77 392.68 1001.28 394.19 1005.29 399.70 C 1009.64 405.75 1009.75 414.81 1006.31 421.29 C 1001.16 431.02 984.76 431.25 979.07 421.97 C 975.96 416.78 975.54 409.94 977.36 404.25 C 978.86 399.48 982.60 395.76 987.45 394.45 Z" fill="#5e5e5e" />
<path d="M 1016.01 394.25 C 1017.92 394.25 1019.84 394.25 1021.75 394.25 C 1021.99 402.41 1021.22 410.79 1022.19 418.89 C 1023.21 424.27 1028.83 424.94 1033.16 423.17 C 1035.51 421.91 1038.73 420.25 1038.26 417.07 C 1038.28 409.46 1038.22 401.85 1038.25 394.24 C 1040.24 394.25 1042.24 394.25 1044.23 394.25 C 1044.27 405.60 1044.24 416.94 1044.25 428.28 C 1042.57 428.24 1040.90 428.21 1039.23 428.17 C 1039.00 426.62 1038.77 425.06 1038.55 423.51 C 1036.25 425.43 1034.22 427.38 1031.25 428.25 C 1027.21 429.36 1022.28 428.91 1019.21 425.78 C 1016.62 423.16 1016.01 419.58 1015.98 416.04 C 1015.98 408.77 1016.01 401.51 1016.01 394.25 Z" fill="#5e5e5e" />
<path d="M 1177.19 394.13 C 1183.60 392.84 1190.89 394.77 1194.42 400.61 C 1198.10 406.46 1198.14 415.66 1194.62 421.59 C 1189.16 430.95 1173.68 431.18 1167.76 422.20 C 1164.11 416.56 1163.92 408.61 1166.54 402.53 C 1168.45 398.05 1172.47 395.08 1177.19 394.13 Z" fill="#5e5e5e" />
<path d="M 1204.77 394.20 C 1206.42 394.26 1208.07 394.32 1209.71 394.40 C 1209.95 396.58 1210.16 398.77 1210.32 400.96 C 1212.04 398.33 1213.34 395.70 1216.41 394.43 C 1218.93 393.31 1221.25 393.96 1223.87 394.25 C 1223.68 396.16 1223.46 398.07 1223.23 399.98 C 1220.60 399.81 1217.88 399.07 1215.44 400.38 C 1212.44 402.09 1210.62 405.51 1210.74 408.95 C 1210.69 415.38 1210.80 421.81 1210.74 428.24 C 1208.75 428.24 1206.75 428.25 1204.75 428.25 C 1204.76 416.90 1204.73 405.55 1204.77 394.20 Z" fill="#5e5e5e" />
<path d="M 1247.61 395.38 C 1252.27 398.30 1252.81 403.02 1253.17 408.05 C 1254.44 408.16 1255.70 408.28 1256.97 408.39 C 1255.65 408.59 1254.33 408.78 1253.00 408.97 C 1252.99 415.46 1253.02 421.95 1252.98 428.43 C 1251.67 428.34 1250.36 428.19 1249.06 427.99 C 1248.03 427.14 1247.98 425.14 1247.50 423.92 C 1242.77 427.90 1237.32 430.18 1231.16 427.94 C 1225.62 425.74 1224.42 417.77 1228.92 413.95 C 1233.69 410.06 1241.18 409.42 1247.09 409.13 C 1246.90 405.41 1247.57 401.39 1243.77 399.25 C 1238.98 397.16 1235.71 399.66 1231.63 401.72 C 1229.64 402.89 1228.67 400.28 1227.56 399.13 C 1233.05 394.36 1240.82 391.71 1247.61 395.38 Z" fill="#5e5e5e" />
<path d="M 1279.26 394.75 C 1283.00 396.21 1286.59 395.74 1290.51 395.75 C 1290.49 396.84 1290.47 397.93 1290.45 399.02 C 1288.87 399.27 1287.29 399.52 1285.71 399.76 C 1286.77 404.16 1287.10 408.26 1283.81 411.79 C 1279.64 416.12 1274.45 415.72 1268.93 415.21 C 1268.11 416.20 1267.30 417.20 1266.48 418.20 C 1267.42 418.95 1268.34 419.94 1269.45 420.43 C 1274.69 421.71 1281.98 420.42 1286.79 423.19 C 1290.82 425.54 1290.85 430.83 1288.35 434.31 C 1285.00 438.88 1279.45 440.48 1274.00 440.52 C 1270.15 440.47 1265.73 439.75 1262.54 437.44 C 1259.88 435.60 1258.51 432.00 1259.82 428.94 C 1260.65 426.83 1263.00 425.69 1264.77 424.46 C 1263.49 423.01 1261.81 422.16 1261.96 419.98 C 1261.89 416.98 1263.96 415.66 1265.84 413.72 C 1264.50 412.52 1263.05 411.38 1262.17 409.78 C 1259.93 405.52 1260.75 399.70 1264.63 396.65 C 1268.65 393.41 1274.51 393.00 1279.26 394.75 Z" fill="#5e5e5e" />
<path d="M 1320.27 397.73 C 1323.86 401.53 1324.40 406.17 1324.25 411.19 C 1316.17 411.33 1308.09 411.18 1300.01 411.29 C 1300.55 414.67 1300.86 418.07 1303.18 420.79 C 1305.39 423.46 1308.70 424.17 1312.02 424.01 C 1315.36 423.86 1318.27 422.02 1321.15 420.51 C 1322.12 421.59 1323.09 422.67 1324.06 423.76 C 1317.31 429.47 1306.21 430.98 1299.40 424.61 C 1293.49 418.85 1292.64 407.80 1296.86 400.86 C 1301.48 392.91 1313.77 391.26 1320.27 397.73 Z" fill="#5e5e5e" />
<path d="M 788.17 399.84 C 790.64 401.70 790.97 404.67 791.79 407.45 C 785.43 407.54 779.06 407.52 772.70 407.47 C 773.60 404.88 774.08 402.13 776.31 400.30 C 779.40 397.72 784.93 397.38 788.17 399.84 Z" fill="#ffffff" />
<path d="M 847.05 399.95 C 849.46 401.90 849.72 404.67 850.50 407.47 C 844.16 407.52 837.82 407.53 831.48 407.46 C 832.03 405.77 832.51 403.96 833.34 402.38 C 835.96 397.85 843.03 396.82 847.05 399.95 Z" fill="#ffffff" />
<path d="M 1075.59 402.05 C 1075.29 407.59 1075.81 413.19 1075.35 418.71 C 1072.85 423.66 1065.38 425.78 1060.97 422.04 C 1058.45 419.65 1057.84 415.29 1057.75 412.00 C 1057.74 407.81 1058.42 402.78 1061.99 400.06 C 1066.43 397.07 1072.08 398.13 1075.59 402.05 Z" fill="#ffffff" />
<path d="M 1270.45 398.54 C 1273.05 397.65 1276.27 397.81 1278.64 399.29 C 1281.81 401.51 1281.95 406.71 1279.55 409.54 C 1276.50 412.48 1270.62 412.51 1267.80 409.23 C 1265.29 405.84 1266.14 400.06 1270.45 398.54 Z" fill="#ffffff" />
<path d="M 1316.88 401.10 C 1318.28 402.79 1318.67 405.40 1319.23 407.48 C 1312.87 407.50 1306.50 407.57 1300.15 407.42 C 1300.69 405.89 1301.17 404.30 1301.88 402.84 C 1304.46 397.50 1313.19 396.45 1316.88 401.10 Z" fill="#ffffff" />
<path d="M 688.46 399.50 C 693.00 397.38 699.47 398.31 701.69 403.33 C 703.79 407.61 703.82 414.55 701.85 418.87 C 699.25 425.72 687.65 425.86 684.78 419.21 C 682.94 415.67 682.97 411.09 683.52 407.24 C 684.03 404.01 685.45 401.06 688.46 399.50 Z" fill="#ffffff" />
<path d="M 873.96 398.83 C 878.52 397.63 881.84 398.77 885.06 402.04 C 884.97 407.70 884.96 413.37 885.07 419.04 C 883.15 420.89 881.34 422.89 878.66 423.57 C 875.28 424.39 871.31 423.82 869.32 420.67 C 867.04 416.79 866.91 411.53 867.62 407.20 C 868.33 403.51 870.09 399.93 873.96 398.83 Z" fill="#ffffff" />
<path d="M 988.25 399.24 C 992.67 397.58 998.69 398.41 1000.86 403.13 C 1003.09 407.58 1003.10 414.51 1001.02 419.02 C 998.34 425.55 987.51 425.80 984.28 419.69 C 982.30 416.33 982.22 411.74 982.66 407.96 C 983.16 404.28 984.61 400.77 988.25 399.24 Z" fill="#ffffff" />
<path d="M 1176.41 399.40 C 1180.44 397.59 1186.29 398.22 1188.80 402.24 C 1191.13 405.83 1191.35 410.87 1190.76 414.98 C 1190.17 418.39 1188.70 421.91 1185.26 423.28 C 1181.68 424.72 1176.46 424.28 1173.81 421.20 C 1170.69 417.41 1170.61 411.82 1171.29 407.20 C 1171.82 403.91 1173.32 400.94 1176.41 399.40 Z" fill="#ffffff" />
<path d="M 1247.02 412.90 C 1246.70 415.80 1248.16 420.43 1245.01 422.00 C 1242.13 424.21 1238.55 425.13 1234.99 424.25 C 1231.49 423.01 1230.76 417.92 1233.82 415.83 C 1237.41 413.40 1242.83 413.29 1247.02 412.90 Z" fill="#ffffff" />
<path d="M 609.49 420.46 C 612.27 419.60 615.10 422.13 614.80 425.00 C 614.58 428.54 609.96 430.09 607.60 427.44 C 605.40 425.17 606.56 421.42 609.49 420.46 Z" fill="#5e5e5e" />
<path d="M 573.40 421.34 C 575.86 419.07 579.95 420.71 580.25 424.00 C 580.90 427.16 577.35 429.72 574.50 428.48 C 571.61 427.33 571.16 423.34 573.40 421.34 Z" fill="#5e5e5e" />
<path d="M 1267.33 426.24 C 1268.04 425.76 1268.89 425.55 1269.89 425.61 C 1273.75 425.75 1277.74 425.87 1281.51 426.74 C 1283.57 427.35 1284.95 428.74 1284.49 431.04 C 1283.71 434.31 1280.02 435.64 1277.03 435.92 C 1273.43 436.21 1268.23 436.35 1265.58 433.41 C 1263.40 430.87 1264.87 427.84 1267.33 426.24 Z" fill="#ffffff" />
</svg>