<svg xmlns="http://www.w3.org/2000/svg" id="Ñëîé_1" x="0" y="0" enable-background="new 0 0 5000 3500" version="1.1" viewBox="0 0 5000 3500" xml:space="preserve"><defs/><style>.st0{fill:#e3e3e3}.st14,.st15,.st16,.st17,.st18,.st19{fill-rule:evenodd;clip-rule:evenodd;fill:#7f7f7f}.st15,.st16,.st17,.st18,.st19{fill:#4b4e56}.st16,.st17,.st18,.st19{fill:#3e0d87}.st17,.st18,.st19{fill:#c2f3ff}.st18,.st19{fill:#fff}.st19{fill:#8c45bc}.st32,.st33,.st34,.st35,.st40,.st44{fill-rule:evenodd;clip-rule:evenodd;fill:#2b45a9}.st33,.st34,.st35,.st40,.st44{fill:#385fc6}.st34,.st35,.st40,.st44{fill:#a9b0b8}.st35,.st40,.st44{fill:#c4ced2}.st40,.st44{fill:#eff7f7}.st44{fill:#191477}.st45,.st47,.st69,.st70,.st72,.st73{fill-rule:evenodd;clip-rule:evenodd;fill:#181343}.st47,.st69,.st70,.st72,.st73{fill:#ff9}.st69,.st70,.st72,.st73{fill:#666}.st70,.st72,.st73{fill:#525b5e}.st72,.st73{fill:#510e9b}.st73{fill:#ead0c3}.st74,.st75,.st76,.st78,.st79,.st80{fill-rule:evenodd;clip-rule:evenodd;fill:#5b13a0}.st75,.st76,.st78,.st79,.st80{fill:#5590e8}.st76,.st78,.st79,.st80{fill:#5ea0f6}.st78,.st79,.st80{fill:#6babef}.st79,.st80{fill:#79b8f7}.st80{fill:#e4c0ae}.st83,.st84,.st85,.st86,.st87,.st88{fill-rule:evenodd;clip-rule:evenodd;fill:#4c81dc}.st84,.st85,.st86,.st87,.st88{fill:#7dbcf7}.st85,.st86,.st87,.st88{fill:#754a49}.st86,.st87,.st88{fill:#5b3636}.st87,.st88{fill:#6515a8}.st88{fill:#771dae}.st100,.st104,.st90,.st91,.st92,.st99{fill-rule:evenodd;clip-rule:evenodd;fill:#2e3b95}.st100,.st104,.st91,.st92,.st99{fill:#4c5ba5}.st100,.st104,.st92,.st99{fill:#390960}.st100,.st104,.st99{fill:#27317b}.st100,.st104{fill:#212a64}.st104{fill:#34459f}.st107,.st108,.st113,.st114,.st115,.st116{fill-rule:evenodd;clip-rule:evenodd;fill:#54129b}.st108,.st113,.st114,.st115,.st116{fill:#9b50c7}.st113,.st114,.st115,.st116{fill:#bf99db}.st114,.st115,.st116{fill:#6732a4}.st115,.st116{fill:#b374d6}.st116{fill:#8d45bd}</style><path d="M5001.2 3501.2H-1.2V-1.2h5002.4v3502.4zm-5000-2.4h4997.6V1.2H1.2v3497.6z" class="st0"/><g fill-rule="evenodd" clip-rule="evenodd"><ellipse cx="3643.4" cy="2540.1" fill="#fff" opacity=".6" rx="1158.6" ry="666.6"/><ellipse cx="2166.2" cy="1860.1" fill="#d0dddd" opacity=".6" rx="1552.9" ry="893.4"/><ellipse cx="2184" cy="2783.3" fill="#e0e8e8" opacity=".6" rx="968.6" ry="557.2"/></g><linearGradient id="SVGID_1_" x1="935.6213" x2="3503.2563" y1="1771.0718" y2="1771.0718" gradientUnits="userSpaceOnUse"><stop offset="0" stop-color="#1f3642"/><stop offset="1" stop-color="#1f3642"/></linearGradient><path fill="url(#SVGID_1_)" fill-rule="evenodd" d="M935.7 1506.6c-1.6-56.9 22.9-98.2 68-124.4 214.2-124.6 428.3-249.5 642.5-374.1 74.8-43.5 190.8-43.5 265.6 0 507.7 295.4 1015.6 590.6 1523.3 886 46.3 26.9 66.4 65.6 68 117.6v61.9l-2 6.9c-6.3 21.8-15.9 37-31.5 53.3l-1 1.1-1.1 1c-16.9 15.7-33 24.6-52.6 36-53.5 31.2-107.1 62.3-160.6 93.5-147.2 85.7-294.5 171.5-441.7 257.2l-20.6 12-.5.3c-53.4 29.5-114.4 36.8-174.4 29.2l-.7-.1-.7-.1c-32-5-59.4-13.2-87.8-29l-.5-.3-.5-.3c-285.6-166.2-571.2-332.3-856.9-498.4-206.3-120-412.6-239.9-618.9-360l-48.1-28-.5-.3c-19.4-11.9-33.8-23.8-47.5-42.2l-1-1.3-.9-1.4c-10.8-16.7-17.7-32.8-17.7-53.1l.3-43z" clip-rule="evenodd" opacity=".05"/><linearGradient id="SVGID_2_" x1="948.1241" x2="3490.479" y1="1771.0748" y2="1771.0748" gradientUnits="userSpaceOnUse"><stop offset="0" stop-color="#1f3642"/><stop offset="1" stop-color="#1f3642"/></linearGradient><path fill="url(#SVGID_2_)" fill-rule="evenodd" d="M948.5 1505.4c-3.6-45.2 21.1-88.6 61.7-112.2 214.2-124.6 428.3-249.5 642.5-374.1 70.9-41.2 181.9-41.2 252.8 0 507.7 295.4 1015.6 590.6 1523.3 886 42.5 24.7 60.2 59.4 61.7 107v59.7l-1.5 5.2c-5.7 19.8-14.3 33.2-28.4 48l-.8.8-.8.7c-16 15-31.6 23.5-50.3 34.3-53.5 31.2-107.1 62.3-160.6 93.5-147.2 85.7-294.5 171.5-441.7 257.2l-20.4 11.9-.4.2c-51 28.2-109.4 34.9-166.6 27.7l-.6-.1-.6-.1c-30.5-4.8-56.5-12.5-83.6-27.5l-.4-.2-.4-.2c-285.6-166.2-571.2-332.3-856.9-498.4-206.3-120-412.6-239.9-618.9-360l-48-27.9-.4-.2c-18-11-31.2-21.8-43.9-38.9l-.8-1-.7-1.1c-9.4-14.6-15.6-28.4-15.6-46.2l.3-44.1z" clip-rule="evenodd" opacity=".1"/><linearGradient id="SVGID_3_" x1="960.907" x2="3477.7019" y1="1771.077" y2="1771.077" gradientUnits="userSpaceOnUse"><stop offset="0" stop-color="#1f3642"/><stop offset="1" stop-color="#1f3642"/></linearGradient><path fill="url(#SVGID_3_)" fill-rule="evenodd" d="M961.3 1504.1c-3.4-41.3 19.3-79 55.3-99.9 214.2-124.6 428.3-249.5 642.5-374.1 66.9-38.9 173.1-38.9 239.9 0 507.7 295.4 1015.6 590.6 1523.3 886 38.6 22.5 54 53.1 55.3 96.3v57.5l-1 3.5c-5.1 17.8-12.7 29.4-25.4 42.7l-.5.5-.5.5c-15.2 14.2-30.3 22.3-48 32.6-53.5 31.2-107.1 62.3-160.6 93.5-147.2 85.7-294.5 171.5-441.7 257.2l-20.3 11.8-.2.1c-48.6 26.9-104.3 33.1-158.8 26.2h-.4l-.4-.1c-29-4.5-53.6-11.8-79.4-26.1l-.2-.1-.2-.1c-285.6-166.2-571.2-332.3-856.9-498.4-206.3-120-412.6-239.9-618.9-360l-47.8-27.8-.2-.1c-16.6-10.2-28.6-19.9-40.3-35.7l-.5-.7-.5-.7c-8-12.4-13.6-24.1-13.6-39.3v-45.3z" clip-rule="evenodd" opacity=".2"/><linearGradient id="SVGID_4_" x1="973.6573" x2="3464.9246" y1="1771.0795" y2="1771.0795" gradientUnits="userSpaceOnUse"><stop offset="0" stop-color="#1f3642"/><stop offset="1" stop-color="#1f3642"/></linearGradient><path fill="url(#SVGID_4_)" fill-rule="evenodd" d="M974 1502.8c-3.5-38.5 17.6-69.3 49-87.5 214.2-124.6 428.3-249.5 642.5-374.1 62.9-36.6 164.2-36.6 227.1 0 507.7 295.4 1015.6 590.6 1523.3 886 34.8 20.2 47.8 46.9 49 85.7V2068.2l-.5 1.7c-4.6 15.8-11.1 25.6-22.4 37.4l-.3.3-.3.2c-14.4 13.4-28.9 21.1-45.7 30.9-53.6 31.2-107.1 62.3-160.6 93.5-147.2 85.7-294.5 171.5-441.7 257.2l-20.2 11.8-.1.1c-46.2 25.5-99.2 31.2-151 24.7h-.4c-27.5-4.3-50.7-11.1-75.2-24.6l-.2-.1c-285.6-166.2-571.2-332.3-856.9-498.4-206.3-120-412.6-239.9-618.9-360l-47.7-27.8-.1-.1c-15.2-9.3-26-18-36.7-32.4l-.3-.3-.2-.4c-6.6-10.2-11.5-19.8-11.5-32.3v-46.8z" clip-rule="evenodd" opacity=".3"/><linearGradient id="SVGID_5_" x1="986.7626" x2="3452.1462" y1="1771.0941" y2="1771.0941" gradientUnits="userSpaceOnUse"><stop offset="0" stop-color="#1f3642"/><stop offset="1" stop-color="#1f3642"/></linearGradient><path fill="url(#SVGID_5_)" fill-rule="evenodd" d="M3452.1 2013.2v53.1c-4 13.8-9.4 21.8-19.3 32.2-13.9 13-26.7 19.5-43.4 29.2-53.6 31.2-107.1 62.3-160.6 93.5-147.2 85.7-294.5 171.5-441.7 257.2l-20.1 11.7c-44 24.3-94 29.4-143.2 23.2-26.4-4.1-47.5-10.2-71-23.2-285.6-166.2-571.2-332.3-856.9-498.4l-618.9-360-47.6-27.7c-14-8.6-23.3-15.9-33.1-29.1-5.1-7.9-9.5-15.6-9.5-25.4v-48.2c-.7-27 7.6-54.6 42.6-75 214.2-124.6 428.3-249.5 642.5-374.1 58.9-34.3 155.3-34.3 214.2 0 507.7 295.4 1015.6 590.6 1523.3 886 35.1 20.4 41.9 46.6 42.7 75z" clip-rule="evenodd" opacity=".3"/><g><path fill="#393a3d" fill-rule="evenodd" d="M3456.6 1971.4v53.4l-1.2 4.2-1.6 4.2-1.9 4.2-2.3 4.1-2.6 4-2.9 4-3.3 3.9-3.7 3.8-4 3.7-4.3 3.7-4.7 3.5-5.1 3.4-5.4 3.3-20.2 11.8-20.2 11.8-20.2 11.7-20.3 11.8-20.2 11.8-20.2 11.8-20.3 11.7-20.2 11.8-20.2 11.8-20.2 11.8-20.2 11.7-20.3 11.8-20.2 11.8-20.2 11.8-20.2 11.8-20.3 11.7-20.2 11.8-20.2 11.8-20.2 11.8-20.3 11.7-20.2 11.8-20.2 11.8-20.2 11.8-20.3 11.8-20.2 11.7-20.2 11.8-20.2 11.8-20.3 11.8-20.2 11.7-20.2 11.8-20.2 11.8-20.3 11.7-5.6 3.2-5.9 2.9-6.1 2.7-6.3 2.6-6.4 2.3-6.5 2.1-6.7 1.9-6.9 1.8-6.9 1.5-7.1 1.3-7.1 1.1-7.2.9-7.2.7-7.3.5-7.3.3-7.4.1-7.3-.1-7.3-.3-7.3-.5-7.3-.7-7.1-.9-7.2-1.1-7-1.3-7-1.5-6.8-1.7-6.7-2-6.6-2.1-6.4-2.3-6.2-2.6-6.1-2.7-5.9-2.9-5.7-3.2v-53.4l5.7 3.1 5.9 3 6.1 2.7 6.2 2.5 6.4 2.3 6.6 2.2 6.7 1.9 6.9 1.7 6.9 1.5 7 1.3 7.2 1.2 7.2.9 7.2.7 7.3.5 7.3.3 7.3.1 7.4-.1 7.3-.3 7.3-.5 7.2-.7 7.2-.9 7.1-1.2 7.1-1.3 6.9-1.5 6.9-1.7 6.7-1.9 6.5-2.2 6.5-2.3 6.2-2.5 6.1-2.7 5.9-3 5.6-3.1 20.3-11.8 20.2-11.7 20.2-11.8 20.2-11.8 20.3-11.8 20.2-11.7 20.2-11.8 20.2-11.8 20.3-11.8 20.2-11.8 20.2-11.7 20.2-11.8 20.3-11.8 20.2-11.8 20.2-11.7 20.2-11.8 20.3-11.8 20.2-11.8 20.2-11.8 20.2-11.7 20.3-11.8 20.2-11.8 20.2-11.8 20.2-11.7 20.3-11.8 20.2-11.8 20.2-11.8 20.2-11.7 20.3-11.8 20.2-11.8 20.2-11.8 20.2-11.7 5.4-3.3 5.1-3.5 4.7-3.5 4.3-3.6 4-3.8 3.7-3.8 3.3-3.9 2.9-4 2.6-4 2.3-4.1 1.9-4.1 1.6-4.2z" clip-rule="evenodd"/><path fill="#47484c" fill-rule="evenodd" d="M2550.6 2398.2v53.4l-47.9-27.8-48-27.9-47.9-27.9-48-27.9-47.9-27.9-48-27.9-47.9-27.9-48-27.9-47.9-27.9-48-27.9-47.9-27.9-48-27.9-47.9-27.8-48-27.9-47.9-27.9-48-27.9-47.9-27.9-48-27.9-47.9-27.9-48-27.9-47.9-27.8-48-27.9-48-27.9-47.9-27.9-48-27.9-47.9-27.9-48-27.9-47.9-27.9-48-27.9-47.9-27.9-48-27.9-47.9-27.9-5.4-3.3-5-3.4-4.7-3.5-4.4-3.7-4-3.7-3.6-3.8-3.3-3.9-3-4-2.6-4-2.3-4.1-1.9-4.2-1.5-4.2-1.3-4.2.1-53.4 1.2 4.2 1.5 4.2 1.9 4.1 2.3 4.1 2.6 4.1 3 3.9 3.3 3.9 3.6 3.9 4 3.7 4.4 3.6 4.7 3.6 5 3.4 5.4 3.3 47.9 27.9 48 27.9 47.9 27.9 48 27.9 47.9 27.9 48 27.9 47.9 27.8 48 27.9 48 27.9 47.9 27.9 48 27.9 47.9 27.9 48 27.9 47.9 27.9 48 27.9 47.9 27.8 48 27.9 47.9 27.9 48 27.9 47.9 27.9 48 27.9 47.9 27.9 48 27.9 47.9 27.8 48 27.9 47.9 27.9 48 27.9 47.9 27.9 48 27.9 47.9 27.9 48 27.9z" clip-rule="evenodd"/><path fill="#363636" fill-rule="evenodd" d="M1663.4 1003.3c59.3-34.5 156.4-34.5 215.8 0 511.4 297.6 1023 594.9 1534.4 892.5 59.3 34.5 59.3 91 0 125.5-215.8 125.5-431.4 251.3-647.2 376.8-59.3 34.5-156.4 34.5-215.8 0-511.4-297.6-1023-594.9-1534.4-892.5-59.3-34.5-59.3-91 0-125.5 215.8-125.5 431.4-251.2 647.2-376.8z" clip-rule="evenodd"/><path fill-rule="evenodd" d="M1666.3 1008.3c57.6-33.5 152.4-33.5 210 0 511.4 297.6 1023 594.9 1534.4 892.5 55.5 32.3 55.5 83.3 0 115.6-204.1 118.8-408.2 237.7-612.3 356.5-37.4 21.7-83.4 39.3-130.4 40.9-52 1.7-105-15-146.5-39.1-500.8-291.4-1001.7-582.5-1502.5-873.9-55.5-32.3-55.5-83.3 0-115.6 215.9-125.6 431.5-251.4 647.3-376.9z" clip-rule="evenodd"/><path fill="#5106a1" fill-rule="evenodd" d="M1687.1 1026.2l-59.3 34.5c-17.4 10.1-24.3 19.7-4.3 32.8 28.3 18.6 26.5 48.4-4 66.3-160 93.6-128.7 75.3-288.6 168.9-30.6 17.9-85.1 21-121.1 6.9-19.3-7.5-31.4-13.2-49.9-2.4-44.1 25.7-88.3 51.4-133.2 77.5-41.6 24.2-41.6 54.8 0 79 511 297.3 980.9 569.4 1491.9 866.7 40.5 23.5 90.3 38.4 137.4 36.9 42.6-1.4 85.8-17.3 122.4-38.6 208.3-121.2 416.5-242.6 624.8-363.8 41.6-24.2 41.6-54.8 0-79-521.9-303.6-1002.6-582-1524.5-885.7-51.7-30.1-139.9-30.1-191.6 0z" clip-rule="evenodd"/><path d="M3041.9 2267.3v-4.8c0-7.4-6-9.9-13.4-5.7-34.1 19.6-59.8 34.4-93.8 53.9-7.4 4.2-13.4 13.7-13.4 21.1v4.8c0 7.4 6 9.9 13.4 5.7 34.1-19.6 59.8-34.4 93.8-53.9 7.4-4.3 13.4-13.8 13.4-21.1z" class="st14"/><path d="M3038.9 2265.6v-4.8c0-2.6-.7-4.6-2-5.9-2.3-.5-5.2 0-8.4 1.9-34.1 19.6-59.8 34.4-93.8 53.9-7.4 4.2-13.4 13.7-13.4 21.1v4.8c0 2.6.7 4.6 2 5.9 2.3.5 5.2 0 8.4-1.9 34.1-19.6 59.8-34.4 93.8-53.9 7.4-4.2 13.4-13.7 13.4-21.1z" class="st15"/><g><path d="M3252.5 2145.1v-4.8c0-7.4-6-9.9-13.4-5.7-34.1 19.6-59.8 34.4-93.8 53.9-7.4 4.2-13.4 13.7-13.4 21.1v4.8c0 7.4 6 9.9 13.4 5.7 34.1-19.6 59.8-34.4 93.8-53.9 7.4-4.3 13.4-13.8 13.4-21.1z" class="st14"/><path d="M3249.5 2143.4v-4.8c0-2.6-.7-4.6-2-5.9-2.3-.5-5.2 0-8.4 1.9-34.1 19.6-59.8 34.4-93.8 53.9-7.4 4.2-13.4 13.7-13.4 21.1v4.8c0 2.6.7 4.6 2 5.9 2.3.5 5.2 0 8.4-1.9 34.1-19.6 59.8-34.4 93.8-53.9 7.4-4.2 13.4-13.7 13.4-21.1z" class="st15"/></g><path d="M3407.2 1988.4L1007 1425.5c4.9-5.1 11.5-10.1 19.6-14.8 44.8-26.1 89.1-51.8 133.2-77.5 18.5-10.8 30.5-5.1 49.9 2.4 36.1 14.1 90.6 11 121.1-6.9 160-93.6 128.7-75.3 288.6-168.9 30.6-17.9 32.4-47.7 4-66.3-20-13.1-13.1-22.7 4.3-32.8l59.3-34.5c51.7-30.1 139.9-30.1 191.6 0 521.9 303.6 1002.6 582 1524.5 885.7 40.2 23.3 41.6 52.7 4.1 76.5z" class="st16"/></g><g><path d="M2421.1 2061.8v7.3l.1 1 .2 1 .3 1 .3.9.5 1 .5.9.6.9.7 1 .7.9.9.8.9.9 1 .8 1.1.9 1.2.7 1.2.8 94.9 54.9 1.4.7 1.3.7 1.4.6 1.5.6 1.5.5 1.5.5 1.5.4 1.6.4 1.6.4 1.7.3 1.6.3 1.7.2 1.7.1 1.7.1 1.7.1h3.4l1.7-.1 1.7-.1 1.6-.1 1.7-.2 1.7-.3 1.6-.3 1.6-.4 1.6-.4 1.5-.4 1.6-.5 1.5-.5 1.4-.6 1.4-.6 1.4-.7 1.3-.7 444.1-256.7 1.2-.8 1.2-.8 1.1-.8 1-.8.9-.9.9-.9.7-.9.7-.9.6-.9.5-1 .5-.9.3-1 .3-1 .2-.9.1-1v-7.4l-.1 1-.2 1-.3.9-.3 1-.5 1-.5.9-.6.9-.7 1-.7.9-.9.8-.9.9-1 .8-1.1.8-1.2.8-1.2.8-444.1 256.7-1.3.7-1.4.7-1.4.6-1.4.6-1.5.5-1.6.5-1.5.5-1.6.4-1.6.3-1.6.3-1.7.3-1.7.2-1.6.2-1.7.1h-1.7l-1.7.1-1.7-.1h-1.7l-1.7-.1-1.7-.2-1.7-.2-1.6-.3-1.7-.3-1.6-.3-1.6-.4-1.5-.5-1.5-.5-1.5-.5-1.5-.6-1.4-.6-1.3-.7-1.4-.7-94.9-54.9-1.2-.7-1.2-.8-1.1-.8-1-.9-.9-.8-.9-.9-.7-.9-.7-.9-.6-1-.5-.9-.5-1-.3-.9-.3-1-.2-1zM2205.4 1937.1v7.3l.1 1 .2 1 .3 1 .3.9.5 1 .5.9.6 1 .7.9.8.9.8.9.9.8 1 .9 1.1.8 1.2.8 1.2.7 138.4 80 1.3.7 1.4.7 1.4.6 1.4.6 1.5.5 1.5.5 1.6.5 1.6.4 1.6.3 1.6.3 1.7.3 1.7.2 1.6.2 1.7.1h1.7l1.7.1 1.7-.1h1.7l1.7-.1 1.7-.2 1.7-.2 1.6-.3 1.6-.3 1.7-.3 1.5-.4 1.6-.5 1.5-.5 1.5-.5 1.5-.6 1.4-.6 1.3-.7 1.3-.7 444.1-256.7 1.3-.8 1.1-.7 1.1-.9 1-.8 1-.9.8-.8.8-.9.7-1 .6-.9.5-.9.4-1 .4-.9.3-1 .2-1 .1-1v-7.4l-.1 1-.2 1-.3 1-.4.9-.4 1-.5.9-.6 1-.7.9-.8.9-.8.9-1 .8-1 .9-1.1.8-1.1.8-1.3.7-444.1 256.7-1.3.8-1.3.6-1.4.7-1.5.5-1.5.6-1.5.5-1.6.4-1.5.4-1.7.4-1.6.3-1.6.2-1.7.2-1.7.2-1.7.1-1.7.1h-3.4l-1.7-.1-1.7-.1-1.6-.2-1.7-.2-1.7-.2-1.6-.3-1.6-.4-1.6-.4-1.6-.4-1.5-.5-1.5-.6-1.4-.5-1.4-.7-1.4-.6-1.3-.8-138.4-79.9-1.2-.8-1.2-.8-1.1-.8-1-.8-.9-.9-.8-.9-.8-.9-.7-.9-.6-.9-.5-1-.5-.9-.3-1-.3-1-.2-.9z" class="st17"/><g><path d="M2659.7 1664.9l-444.1 256.7c-13.8 8-13.8 21 0 28.9l138.4 80c13.8 8 36.3 8 50 0l444.1-256.7c13.8-8 13.8-21 0-28.9l-138.4-80c-13.7-7.9-36.2-7.9-50 0zM2875.4 1789.6l-444.1 256.7c-13.8 8-13.8 21 0 28.9l94.9 54.9c13.8 8 36.3 8 50 0l444.1-256.7c13.8-8 13.8-21 0-28.9l-94.9-54.9c-13.7-7.9-36.2-7.9-50 0z" class="st18"/></g></g><g><path d="M1361.2 1454.9l-10.9-6.9-.9-.8-.7-.9-.7-1.2-.6-1.2-.5-1.5-.3-1.5-.2-1.7-.1-1.9v-187.2l.1-2 .2-1.9.3-2 .5-1.9.6-2 .7-1.9.7-1.9.9-1.9 1-1.7 1.1-1.7 1.1-1.6 1.2-1.5 1.3-1.4 1.3-1.2 1.4-1.1 1.4-.9 395.2-231.9 1.4-.7 1.4-.5 1.3-.3 1.3-.1h1.2l1.1.3 1.1.4 10.8 6.9-1-.4-1.2-.3-1.2-.1-1.2.1-1.4.4-1.3.5-1.4.7-395.3 231.9-1.4.9-1.4 1.1-1.3 1.2-1.2 1.4-1.2 1.4-1.2 1.6-1 1.7-1 1.8-.9 1.8-.8 1.9-.7 2-.6 1.9-.4 2-.4 2-.2 1.9-.1 1.9v187.3l.1 1.8.2 1.7.4 1.6.4 1.4.6 1.3.7 1.1.8 1z" class="st17"/><path d="M1370.9 1230.4l395.3-231.9c7.6-4.4 13.8.3 13.8 10.4v187.2c0 10.2-6.2 22.1-13.8 26.6l-395.3 231.9c-7.6 4.4-13.8-.3-13.8-10.4V1257c0-10.2 6.2-22.2 13.8-26.6z" class="st18"/><path d="M1370.9 1267.5l108-63.5v23.2l-108 63.5v-23.2zm134.2-78.8l250.2-147.1v23.2l-250.2 147.1v-23.2zm-134.2 192.7l101.8-59.8v23.2l-101.8 59.8v-23.2zm128-75.2l159.2-93.6v23.2l-159.2 93.6v-23.2zm185.4-109v23.2l23.6-13.9v-23.2l-23.6 13.9zm49.7-29.2v23.2l21.3-12.5v-23.2L1734 1168zm-363.1 157.9v23.2l219.1-128.8v-23.2l-219.1 128.8zm245.3-144.2v23.2l139.1-81.8v-23.2l-139.1 81.8z" class="st19"/><g><path d="M2842.2 1670.1l10.8-6.9.9-.8.8-.9.7-1.1.6-1.3.5-1.4.3-1.6.2-1.7.1-1.9v-187.2l-.1-1.9-.2-2-.3-2-.5-1.9-.6-2-.7-1.9-.8-1.9-.9-1.8-.9-1.8-1.1-1.7-1.1-1.6-1.2-1.5-1.3-1.4-1.3-1.2-1.4-1.1-1.4-.9-395.2-231.9-1.4-.7-1.4-.5-1.3-.3-1.3-.1h-1.2l-1.1.3-1.1.5-10.8 6.8 1-.4 1.2-.3 1.2-.1 1.2.2 1.4.3 1.3.5 1.4.7 395.3 231.9 1.4.9 1.3 1.1 1.4 1.2 1.2 1.4 1.2 1.5 1.2 1.6 1 1.6 1 1.8.9 1.9.8 1.8.7 2 .6 1.9.4 2 .4 2 .2 1.9v191l-.2 1.7-.4 1.6-.4 1.4-.6 1.3-.7 1.1-.8 1z" class="st17"/><path d="M2832.5 1445.6l-395.3-231.9c-7.6-4.4-13.8.3-13.8 10.4v187.2c0 10.2 6.2 22.1 13.8 26.6l395.3 231.9c7.6 4.4 13.8-.3 13.8-10.4v-187.2c-.1-10.2-6.3-22.2-13.8-26.6z" class="st18"/><path d="M2832.4 1482.8l-315.2-185.3v23.2l315.2 185.3v-23.2zm-341.3-200.7l-43-25.3v23.2l43 25.3v-23.2zm341.3 314.5v23.2l-239.1-140.5v-23.2l239.1 140.5zm-265.2-155.9v23.2l-27.2-16v-23.2l27.2 16zm-53.3-31.3l-26-15.3v23.2l26 15.3v-23.2zm-52.2-30.7l-13.6-8v23.2l13.6 8v-23.2zm370.7 162.4v23.2l-134.7-79.2v-23.2l134.7 79.2zm-160.8-94.5v23.2l-223.5-131.4v-23.2l223.5 131.4z" class="st19"/></g></g><g><g fill="#220854" fill-rule="evenodd" clip-rule="evenodd"><ellipse cx="2021.4" cy="1587.6" opacity=".15" rx="372.4" ry="235.2"/><ellipse cx="2021.4" cy="1587.6" opacity=".2" rx="358.9" ry="222.1"/><ellipse cx="2021.4" cy="1587.6" opacity=".25" rx="345.4" ry="209.1"/><ellipse cx="2021.4" cy="1587.6" opacity=".35" rx="331.8" ry="196"/><ellipse cx="2021.4" cy="1587.6" opacity=".5" rx="318.2" ry="182.8"/></g><defs><filter id="Adobe_OpacityMaskFilter" width="634" height="1261" x="1705.2" y="193.2" filterUnits="userSpaceOnUse"><feFlood flood-color="#fff" flood-opacity="1" result="back"/><feBlend in="SourceGraphic" in2="back"/></filter></defs><mask id="SVGID_6_" width="634" height="1261" x="1705.2" y="193.2" maskUnits="userSpaceOnUse"><g filter="url(#Adobe_OpacityMaskFilter)"><defs><filter id="Adobe_OpacityMaskFilter_1_" width="634" height="1261" x="1705.2" y="193.2" filterUnits="userSpaceOnUse"><feFlood flood-color="#fff" flood-opacity="1" result="back"/><feBlend in="SourceGraphic" in2="back"/></filter></defs><linearGradient id="SVGID_7_" x1="2022.2275" x2="2022.2275" y1="1454.186" y2="193.2314" gradientUnits="userSpaceOnUse"><stop offset="0" stop-color="#666"/><stop offset=".1607" stop-color="#616161"/><stop offset=".3593" stop-color="#525252"/><stop offset=".5778" stop-color="#383838"/><stop offset=".809" stop-color="#161616"/><stop offset=".9325"/></linearGradient><path fill="url(#SVGID_7_)" fill-rule="evenodd" d="M1705.2 193.2h634v1261h-634z" clip-rule="evenodd" mask="url(#SVGID_6_)"/></g></mask><linearGradient id="SVGID_8_" x1="2022.2275" x2="2022.2275" y1="1454.186" y2="193.2314" gradientUnits="userSpaceOnUse"><stop offset="0" stop-color="#4080ff"/><stop offset=".1392" stop-color="#4585ff"/><stop offset=".3112" stop-color="#5492ff"/><stop offset=".5005" stop-color="#6ea8ff"/><stop offset=".7023" stop-color="#91c7ff"/><stop offset=".9118" stop-color="#bdefff"/><stop offset=".9325" stop-color="#c2f3ff"/></linearGradient><path fill="url(#SVGID_8_)" fill-rule="evenodd" d="M1705.2 193.2h634v1261h-634z" clip-rule="evenodd"/><g fill-rule="evenodd" clip-rule="evenodd"><path fill="#0959cc" d="M2339.2 1388.7v167.8l-1.1 8.7-1.8 8.8-2.5 8.6-3.3 8.6-4 8.6-4.8 8.4-5.4 8.3-6.2 8.2-6.9 8-7.7 7.9-8.3 7.7-9.2 7.5-9.8 7.3-10.5 7.1-11.3 6.8-11.9 6.5-12.3 6.1-12.7 5.6-13 5.2-13.4 4.8-13.8 4.4-13.9 4-14.3 3.6-14.5 3.1-14.6 2.7-14.9 2.3-15 1.9-15.1 1.5-15.1 1-15.3.6-15.2.3-15.3-.3-15.2-.6-15.2-1-15.1-1.5-15-1.9-14.8-2.3-14.7-2.7-14.5-3.1-14.2-3.6-14-4-13.7-4.4-13.4-4.8-13.1-5.2-12.7-5.6-12.3-6.1-11.8-6.5-11.3-6.8-10.6-7.1-9.8-7.3-9.1-7.5-8.4-7.7-7.6-7.9-7-8-6.1-8.2-5.5-8.3-4.7-8.4-4-8.6-3.3-8.6-2.6-8.6-1.8-8.8-1.1-8.7v-167.8l1.1 8.7 1.8 8.8 2.6 8.6 3.3 8.7 4 8.5 4.7 8.4 5.5 8.3 6.1 8.2 7 8.1 7.6 7.8 8.4 7.7 9.1 7.5 9.8 7.3 10.6 7.1 11.3 6.8 11.8 6.5 12.3 6.1 12.7 5.6 13.1 5.2 13.4 4.9 13.7 4.3 14 4 14.2 3.6 14.5 3.1 14.7 2.7 14.8 2.3 15 1.9 15.1 1.5 15.2 1 15.2.7 15.3.2 15.2-.2 15.3-.7 15.1-1 15.1-1.5 15-1.9 14.9-2.3 14.6-2.7 14.5-3.1 14.3-3.6 13.9-4 13.8-4.3 13.4-4.9 13-5.2 12.7-5.6 12.3-6.1 11.9-6.5 11.3-6.8 10.5-7.1 9.8-7.3 9.2-7.5 8.3-7.7 7.7-7.8 6.9-8.1 6.2-8.2 5.4-8.3 4.8-8.4 4-8.5 3.3-8.7 2.5-8.6 1.8-8.8z"/><ellipse cx="2021.4" cy="1379.9" fill="#4080ff" rx="318.2" ry="182.8"/></g><ellipse cx="2021.4" cy="1379.9" fill="#4080ff" fill-rule="evenodd" clip-rule="evenodd" opacity=".4" rx="519.9" ry="298.7"/></g><g><path d="M2304.3 967.4c-20.3 16.8-46 26.9 22.2 52.4s140 32.6 160.4 15.9c20.3-16.8-18.5-51-86.8-76.5-68.3-25.6-75.5-8.5-95.8 8.2z" class="st32"/><path d="M2186.7 911.7c19.8-25.5 62.8-36.1 96.1-23.7 33.3 12.4 44.3 43.2 24.5 68.7-19.8 25.5-62.8 36.1-96.1 23.7-33.3-12.4-44.3-43.2-24.5-68.7z" class="st32"/><path d="M2492.1 1027c2.7-18.2-34.1-46.2-92-67.8-38.9-14.5-57.9-15.3-70.9-10.1-1.1.9-2.1 1.8-3.2 2.8-20.3 16.8-46 26.9 22.2 52.4 55.4 20.6 113.3 29.2 143.9 22.7zM2211.8 892c21.2-10.3 48.3-12.4 70.9-4 33.3 12.4 44.3 43.2 24.5 68.7-1.1 1.4-2.2 2.7-3.5 4.1-21.2 10.3-48.3 12.4-70.9 4-33.3-12.4-44.3-43.2-24.5-68.7 1.1-1.4 2.3-2.8 3.5-4.1z" class="st33"/><path d="M2258.1 864.5c-3.6 29.2-25.7 65.6-66.4 103.8-89.2 83.7-233.8 144.1-323 134.9-40.6-4.2-62.7-22-66.3-48.1-11.1-78.5 109.2-214.4 229-264.2 118.9-49.4 237.3-13.3 226.7 73.6z" class="st34"/><path d="M2258.6 857v0zm-.1 3c-3.2 82.6-24.6 464.8-228.3 551.7-203.8 83.3-225.1-281.6-228.3-361.2 1.6 28.6 23.9 48.3 66.8 52.7 89.2 9.2 233.8-51.3 323-134.9 42.8-40.2 65.1-78.4 66.8-108.3zm-456.6 188.9v-1 1z" class="st34"/><path d="M2258.1 864.5c-3.6 29.2-25.7 65.6-66.4 103.8-89.2 83.7-233.8 144.1-323 134.9-11-1.1-20.6-3.2-28.8-6.3 22.5-190.2 152.7-324.7 310-308.7 35.1 3.6 68.8 14.3 100.3 31.1 7 13 10 28.1 7.9 45.2z" class="st35"/><path d="M2258.6 857v0zm-369.9 525.1c-33-66.6-52.2-144.5-52.2-226.1 0-20.2 1.2-39.8 3.4-59 8.3 3 17.9 5.1 28.8 6.3 89.2 9.2 233.8-51.3 323-134.9 42.8-40.2 65.1-78.4 66.8-108.3-3.2 82.6-24.6 464.8-228.3 551.7-63 25.7-108.5 8.5-141.5-29.7z" class="st35"/><g fill-rule="evenodd" clip-rule="evenodd"><path fill="#d9e4e4" d="M2258.1 864.5c-3.6 29.2-25.7 65.6-66.4 103.8-80.5 75.5-206.1 132.1-295.4 135.7.8-13.7 2.1-27.5 3.7-41.4 11.4-97.1 40.8-181.8 81.2-246 16.5-10 33.3-18.7 50.1-25.7 119-49.4 237.4-13.3 226.8 73.6z"/><path fill="#d5e2e2" d="M2258.6 857v0zm-339.7 475.4c-19.1-69.1-27.5-147.4-22.6-228.4 89.3-3.6 214.9-60.1 295.4-135.7 42.8-40.2 65.1-78.4 66.8-108.3-3 77-21.8 414.5-189.4 530.3-21.7 15-52.8 28.2-81 21-30.6-7.9-58-38.3-69.2-78.9z"/></g><g fill-rule="evenodd" clip-rule="evenodd"><path fill="#e4ecec" d="M2258.1 864.5c-3.6 29.2-25.7 65.6-66.4 103.8-73.6 69.1-185 122.3-271.8 133.6.8-14.9 2.1-29.9 3.9-44.9 12.1-103 44.4-192 88.7-257.5 6.3-3.1 12.6-5.9 18.8-8.5 119-49.5 237.4-13.4 226.8 73.5z"/><path fill="#e0e9e9" d="M2258.6 857v0zm-338.7 244.9c86.8-11.3 198.2-64.5 271.8-133.6 42.8-40.2 65.1-78.4 66.8-108.3-2.6 65.8-20.9 303.3-127.4 451.1-128.9 178.6-222-18.9-211.2-209.2z"/></g><path d="M2258.1 864.5c-3.6 29.2-25.7 65.6-66.4 103.8-32.7 30.7-72.9 58.3-115.1 80.4-53.8 28.2-98.6 27.4-63.7-64 43.7-114.5 125-186.3 218.2-176.8 4.4.4 8.8 1.1 13.1 1.9 11.2 14.8 16.5 33.2 13.9 54.7z" class="st40"/><path d="M2244.5 516.9c22.1 0 40 17.9 40 40s-17.9 40-40 40-40-17.9-40-40 17.9-40 40-40zm0-49.9c9.5 0 17.2 7.7 17.2 17.2s-7.7 17.2-17.2 17.2-17.2-7.7-17.2-17.2c.1-9.5 7.8-17.2 17.2-17.2z" class="st32"/><path d="M2253.4 528.3c-10.9 0-19.7 8.8-19.7 19.7 0 10.9 8.8 19.7 19.7 19.7 10.9 0 19.7-8.8 19.7-19.7 0-10.8-8.8-19.7-19.7-19.7zm-5.3-57.5c-4.3 0-7.8 3.5-7.8 7.8s3.5 7.8 7.8 7.8 7.8-3.5 7.8-7.8c-.1-4.4-3.5-7.8-7.8-7.8z" class="st33"/><path fill="#8f969b" fill-rule="evenodd" d="M2196.2 819.5l-97.9-70.7-2.1-1.2-2.2-1-2.3-.8-2.3-.6-2.4-.4-2.5-.1-2.5.1-2.6.3-2.6.5-2.7.8-2.7 1-2.8 1.3-2.8 1.5-2.9 1.7-136.9 88.9c-23.2 26.9-37.1 53.3-37.1 74.5 0 49.6 75.7 52.4 169.1 6.3 60.1-29.8 110.2-66.5 138.2-102.1z" clip-rule="evenodd"/><path fill="#d0dddd" fill-rule="evenodd" d="M2043.1 515.1c128.3-41.4 223.1 43.2 223.1 152.9 0 35.6-10 69.5-27.9 100.4-37.2 64.3-108.6 115.9-195.2 143.9-128.3 41.4-232.3-13.9-232.3-123.6 0-109.6 104-232.1 232.3-273.6z" clip-rule="evenodd"/><path fill="#dee9e9" fill-rule="evenodd" d="M2191.7 527.4c46.3 28.5 74.5 80.9 74.5 140.6 0 35.6-10 69.5-27.9 100.4-37.2 64.3-108.6 115.9-195.2 143.9-46.5 15-89.7 17.3-126 8.9-39.4-22.8-63.6-62.9-63.6-115.7 0-109.3 103.7-231.5 231.6-272.8 39.2-12.6 75.4-13.4 106.6-5.3z" clip-rule="evenodd"/><path d="M2227.2 616.4c-58.2 48.7-119.6 94.4-195.2 126.7-13.7 8.9-25 33.8-25 55.2v66.3c0 13 5.8 22.1 13.4 25.2 3.7 1.5 11.9 1.7 20.6-1.2 31.6-10.5 85.8-45.1 101.8-55.4 50.6-32.6 73.7-52.5 88.7-80.3 12.9-24.1 20.8-53 20.8-113.9-.1-21.3-11.4-31.5-25.1-22.6z" class="st18"/><path d="M2224.4 608.5c-58.2 48.7-119.6 94.4-195.2 126.7-13.7 8.9-25 33.8-25 55.2v66.3c0 13 5.8 22.1 13.4 25.2 3.7 1.5 11.9 1.7 20.6-1.2 31.6-10.5 85.8-45.1 101.8-55.4 68.3-44 109.4-69.2 109.4-194.2 0-21.3-11.3-31.5-25-22.6z" class="st44"/><path d="M2105.4 559.5c51.3-16.6 96.4-9.7 130 11.9-23.7-3.7-50.2-1.7-78.6 7.4-35.7 11.5-69.1 30.3-98.1 53.7-63.1 49.1-106.4 119.8-106 185.2.2 41.3-46.8 54.7-47.2-22.7-.5-94.4 89.5-199.8 199.9-235.5z" class="st40"/><path d="M1871.2 721.7c22.1 0 40 17.9 40 40s-17.9 40-40 40-40-17.9-40-40c0-22 17.9-40 40-40zm0-49.8c9.5 0 17.2 7.7 17.2 17.2s-7.7 17.2-17.2 17.2-17.2-7.7-17.2-17.2 7.7-17.2 17.2-17.2z" class="st32"/><path d="M1880 733.2c-10.9 0-19.7 8.8-19.7 19.7 0 10.9 8.8 19.7 19.7 19.7 10.9 0 19.7-8.8 19.7-19.7.1-10.9-8.8-19.7-19.7-19.7zm-5.3-57.6c-4.3 0-7.8 3.5-7.8 7.8s3.5 7.8 7.8 7.8 7.8-3.5 7.8-7.8-3.5-7.8-7.8-7.8z" class="st33"/><path d="M2224.4 608.5c-58.2 48.7-119.6 94.4-195.2 126.7-13.7 8.9-25 33.8-25 55.2v66.3c0 13 5.8 22.1 13.4 25.2.7.3 1.5.5 2.5.7-1.7-3.9-2.7-8.7-2.7-14.1v-66.3c0-21.4 11.2-46.3 25-55.2 75.6-32.3 137-78 195.2-126.7 3.5-2.2 6.8-3.3 9.8-3.2-4-11.3-12.8-15.2-23-8.6z" class="st45"/><path fill="#f2f9f9" fill-rule="evenodd" d="M2217.4 987.7c-23 21.1-46.4 38.9-70.1 53.9-23.1 14.6-46.7 26.9-70.1 38.1-9.8 4.7-17.9 18.7-17.9 31.9v46.5c0 178.1 176.1 58.5 176.1-118.5v-46.5c-.1-13.1-7.8-14.8-18-5.4z" clip-rule="evenodd"/><path d="M2213.8 980.5c-23 21.1-46.4 38.9-70.1 53.9-23.1 14.6-46.7 26.9-70.1 38.1-9.8 4.7-17.9 18.7-17.9 31.9v46.5c0 178.1 176.1 58.5 176.1-118.5v-46.5c-.1-13.1-7.8-14.8-18-5.4z" class="st45"/><path d="M2221.1 984.3c-23 21.1-46.4 38.9-70.1 53.9-23.1 14.6-46.7 26.9-70.1 38.1-9.8 4.7-17.9 18.7-17.9 31.9v46.5c0 44.6 11 70.5 27.6 81.6 51.3 19.8 141.2-77.4 141.2-203.8V986c0-3.1-.4-5.5-1.2-7.4-2.8.6-6 2.5-9.5 5.7z" class="st44"/><g><path d="M2123.3 1144.8v-59.5c2.1-1.2 4.3-2.5 6.4-3.8v24.5c8.3-5.1 16.7-10.2 25-15.5v-24.4c2.1-1.4 4.3-2.7 6.4-4.1v59.2c-2.1 1.4-4.3 2.7-6.4 4.1v-27.8c-8.3 5.3-16.7 10.4-25 15.5v27.9c-2.1 1.3-4.2 2.6-6.4 3.9zm47.9-81.1v-8.3c2-1.3 4-2.7 6-4.1v8.3c-2.1 1.4-4.1 2.7-6 4.1zm0 51v-42.9c2-1.3 4-2.7 6-4.1v43c-2.1 1.3-4.1 2.6-6 4zm18.2-27.3l-1.8-30.3v-13.2c2.5-1.8 4.9-3.6 7.4-5.5v13.3c-.6 11-1.1 22-1.7 32.9-1.4 1-2.7 1.9-3.9 2.8zm-1.6 15.9v-8.3c2.3-1.6 4.5-3.2 6.8-4.9v8.4c-2.3 1.6-4.5 3.2-6.8 4.8zM2124.2 1182v-8.3c2.3-1.4 4.5-2.8 6.8-4.2v8.3c-2.3 1.4-4.6 2.8-6.8 4.2zM2138.2 1173.2v-8.3c2.3-1.4 4.5-2.9 6.8-4.3v8.3c-2.3 1.5-4.5 2.9-6.8 4.3zM2151.9 1164.7v-8.3c2.3-1.5 4.5-2.9 6.8-4.4v8.3c-2.3 1.5-4.6 2.9-6.8 4.4zM2165.8 1155.7v-8.3c2.3-1.5 4.5-3 6.8-4.5v8.3c-2.3 1.5-4.5 3-6.8 4.5zM2179.8 1146.4v-8.3c2.3-1.5 4.5-3.1 6.8-4.7v8.3c-2.2 1.6-4.5 3.1-6.8 4.7zM2193.5 1137.1v-8.4c2.3-1.6 4.5-3.2 6.8-4.8v8.4c-2.3 1.6-4.5 3.2-6.8 4.8z" class="st47"/></g><g><path d="M1837.9 1184.8c-22.8-13.2-41.3-33.7-41.3 39.1s18.5 142.6 41.3 155.8c22.8 13.2 41.3-35.2 41.3-108.1s-18.5-73.6-41.3-86.8z" class="st32"/><path d="M1848.9 1055.2c30.8 9.6 55.8 46.1 55.8 81.7 0 35.5-25 56.6-55.8 47-30.8-9.6-55.8-46.1-55.8-81.7s25-56.6 55.8-47z" class="st32"/><g><path d="M1847.9 1381.6c18-3.9 31.3-48.1 31.3-109.9 0-41.5-6-59.6-15.4-70-1.2-.7-2.5-1.3-3.7-2.1-22.8-13.2-41.3-33.7-41.3 39.1 0 59.3 12.2 116.5 29.1 142.9zM1876.1 1071.8c17.1 16.3 28.6 40.9 28.6 65.1 0 35.5-25 56.6-55.8 47-1.7-.5-3.4-1.1-5-1.8-17.1-16.3-28.6-40.9-28.6-65.1 0-35.5 25-56.6 55.8-47 1.7.5 3.4 1.1 5 1.8z" class="st33"/></g></g><path fill="#9b9883" fill-rule="evenodd" d="M2065.9 800c-.3 5.5-5.1 10-10.7 10s-9.9-4.5-9.6-10c.9-14.8 6-30.1 15.7-42.1 9.1-11.3 22-19 36.5-19 6.3 0 12.3 1.5 17.7 4.3 5.6 2.8 10.4 6.9 14.3 11.7 3.4 4.2 2.5 10.5-1.9 14.1-4.4 3.6-10.8 3.1-14.2-1.1-2.2-2.8-5-5.2-8.2-6.8-2.7-1.4-5.7-2.1-8.8-2.1-7.9 0-14.8 4.9-19.7 10.9-7 8.5-10.5 19.6-11.1 30.1zm118.9-73.4c-.3 5.3-5 9.4-10.4 8.6-4.7-.7-7.9-5.1-7.7-9.7.7-11.9 4.5-24.7 12.5-34.3 7.5-9 18.2-14.2 29.7-12.4 5.1.8 9.8 2.9 13.9 5.8 4.3 3.1 8 7.1 10.9 11.5 2.6 4 1.9 9.7-2.2 12.7-4.3 3.2-10 1.7-12.7-2.4-1.7-2.5-3.7-4.9-6.2-6.7-1.9-1.3-4-2.3-6.3-2.7-5.3-.8-9.9 2.1-13.3 6.1-5.4 6.6-7.8 15.6-8.2 23.5z" clip-rule="evenodd"/><g><path d="M2060.5 800c-.1 2.6-2.4 4.7-5.1 4.7-2.6 0-4.7-2.1-4.5-4.7.9-15.1 6.3-28.9 14.5-38.9 8.5-10.4 19.8-16.8 32-16.8 5.5 0 10.6 1.3 15.4 3.7 4.8 2.4 9.1 6 12.7 10.4 1.6 2 1.2 5-.9 6.6-2.1 1.7-5.1 1.5-6.7-.5-2.8-3.5-6.2-6.3-9.8-8.1-3.4-1.7-7.2-2.7-11.2-2.7-9 0-17.6 5-24.2 13-6.8 8.5-11.4 20.3-12.2 33.3zM2179.4 726.6c-.1 2.2-1.9 3.7-3.9 3.4-2-.3-3.6-2.3-3.4-4.5.7-12.6 5-23.6 11.2-31 6.5-7.8 15.2-11.8 24.5-10.4 4.2.6 8.1 2.4 11.7 5 3.6 2.6 6.9 6.1 9.6 10.3 1.2 1.9.9 4.3-.7 5.5-1.6 1.2-3.9.6-5.1-1.2-2.1-3.3-4.7-6-7.4-8-2.6-1.9-5.5-3.1-8.5-3.6-6.9-1.1-13.5 2.1-18.5 8.1-5.3 6.2-8.9 15.5-9.5 26.4z" class="st47"/></g></g><g><defs><filter id="Adobe_OpacityMaskFilter_2_" width="627.5" height="325.9" x="2977.5" y="1253.1" filterUnits="userSpaceOnUse"><feFlood flood-color="#fff" flood-opacity="1" result="back"/><feBlend in="SourceGraphic" in2="back"/></filter></defs><mask id="SVGID_9_" width="627.5" height="325.9" x="2977.5" y="1253.1" maskUnits="userSpaceOnUse"><g filter="url(#Adobe_OpacityMaskFilter_2_)"><defs><filter id="Adobe_OpacityMaskFilter_3_" width="627.5" height="325.9" x="2977.5" y="1253.1" filterUnits="userSpaceOnUse"><feFlood flood-color="#fff" flood-opacity="1" result="back"/><feBlend in="SourceGraphic" in2="back"/></filter></defs><linearGradient id="SVGID_10_" x1="2977.4963" x2="3604.9946" y1="1416.0522" y2="1416.0522" gradientUnits="userSpaceOnUse"><stop offset="0" stop-color="#999"/><stop offset="1"/></linearGradient><path fill="url(#SVGID_10_)" fill-rule="evenodd" d="M3071.7 1579c8.3-25 16.6-50 24.9-75.1-39.7 1.2-79.4 2.3-119.1 3.5 18.1-25.2 36.1-50.5 54.2-75.7 672.3-394.2 836.1-39.6 40 147.3z" clip-rule="evenodd" mask="url(#SVGID_9_)"/></g></mask><linearGradient id="SVGID_11_" x1="2977.4963" x2="3604.9946" y1="1416.0522" y2="1416.0522" gradientUnits="userSpaceOnUse"><stop offset="0" stop-color="#768596"/><stop offset="1" stop-color="#768596"/></linearGradient><path fill="url(#SVGID_11_)" fill-rule="evenodd" d="M3071.7 1579c8.3-25 16.6-50 24.9-75.1-39.7 1.2-79.4 2.3-119.1 3.5 18.1-25.2 36.1-50.5 54.2-75.7 672.3-394.2 836.1-39.6 40 147.3z" clip-rule="evenodd"/><defs><filter id="Adobe_OpacityMaskFilter_4_" width="470.8" height="309.3" x="3608.5" y="2575.8" filterUnits="userSpaceOnUse"><feFlood flood-color="#fff" flood-opacity="1" result="back"/><feBlend in="SourceGraphic" in2="back"/></filter></defs><mask id="SVGID_12_" width="470.8" height="309.3" x="3608.5" y="2575.8" maskUnits="userSpaceOnUse"><g filter="url(#Adobe_OpacityMaskFilter_4_)"><defs><filter id="Adobe_OpacityMaskFilter_5_" width="470.8" height="309.3" x="3608.5" y="2575.8" filterUnits="userSpaceOnUse"><feFlood flood-color="#fff" flood-opacity="1" result="back"/><feBlend in="SourceGraphic" in2="back"/></filter></defs><linearGradient id="SVGID_13_" x1="3608.4893" x2="4079.2896" y1="2730.4558" y2="2730.4558" gradientUnits="userSpaceOnUse"><stop offset="0" stop-color="#999"/><stop offset="1"/></linearGradient><path fill="url(#SVGID_13_)" fill-rule="evenodd" d="M3647.6 2885.1c-7.5-18.6-14.9-37.1-22.4-55.7-5.6-42.3-11.2-84.7-16.7-127 527.9-309.5 704.8 26.5 39.1 182.7z" clip-rule="evenodd" mask="url(#SVGID_12_)"/></g></mask><linearGradient id="SVGID_14_" x1="3608.4893" x2="4079.2896" y1="2730.4558" y2="2730.4558" gradientUnits="userSpaceOnUse"><stop offset="0" stop-color="#768596"/><stop offset="1" stop-color="#768596"/></linearGradient><path fill="url(#SVGID_14_)" fill-rule="evenodd" d="M3647.6 2885.1c-7.5-18.6-14.9-37.1-22.4-55.7-5.6-42.3-11.2-84.7-16.7-127 527.9-309.5 704.8 26.5 39.1 182.7z" clip-rule="evenodd"/><defs><filter id="Adobe_OpacityMaskFilter_6_" width="625.1" height="299.5" x="1798.1" y="2407.9" filterUnits="userSpaceOnUse"><feFlood flood-color="#fff" flood-opacity="1" result="back"/><feBlend in="SourceGraphic" in2="back"/></filter></defs><mask id="SVGID_15_" width="625.1" height="299.5" x="1798.1" y="2407.9" maskUnits="userSpaceOnUse"><g filter="url(#Adobe_OpacityMaskFilter_6_)"><defs><filter id="Adobe_OpacityMaskFilter_7_" width="625.1" height="299.5" x="1798.1" y="2407.9" filterUnits="userSpaceOnUse"><feFlood flood-color="#fff" flood-opacity="1" result="back"/><feBlend in="SourceGraphic" in2="back"/></filter></defs><linearGradient id="SVGID_16_" x1="1798.0762" x2="2423.1582" y1="2557.6384" y2="2557.6384" gradientUnits="userSpaceOnUse"><stop offset="0" stop-color="#999"/><stop offset="1"/></linearGradient><path fill="url(#SVGID_16_)" fill-rule="evenodd" d="M1991.6 2707.4c-24.8-17.3-49.6-34.5-74.4-51.8-39.7 1.2-79.4 2.3-119.1 3.5 18.1-25.2 36.1-50.5 54.2-75.7 665.3-390.1 796.8-30.3 139.3 124z" clip-rule="evenodd" mask="url(#SVGID_15_)"/></g></mask><linearGradient id="SVGID_17_" x1="1798.0762" x2="2423.1582" y1="2557.6384" y2="2557.6384" gradientUnits="userSpaceOnUse"><stop offset="0" stop-color="#768596"/><stop offset="1" stop-color="#768596"/></linearGradient><path fill="url(#SVGID_17_)" fill-rule="evenodd" d="M1991.6 2707.4c-24.8-17.3-49.6-34.5-74.4-51.8-39.7 1.2-79.4 2.3-119.1 3.5 18.1-25.2 36.1-50.5 54.2-75.7 665.3-390.1 796.8-30.3 139.3 124z" clip-rule="evenodd"/><defs><filter id="Adobe_OpacityMaskFilter_8_" width="601.2" height="325.9" x="2415.2" y="2823.1" filterUnits="userSpaceOnUse"><feFlood flood-color="#fff" flood-opacity="1" result="back"/><feBlend in="SourceGraphic" in2="back"/></filter></defs><mask id="SVGID_18_" width="601.2" height="325.9" x="2415.2" y="2823.1" maskUnits="userSpaceOnUse"><g filter="url(#Adobe_OpacityMaskFilter_8_)"><defs><filter id="Adobe_OpacityMaskFilter_9_" width="601.2" height="325.9" x="2415.2" y="2823.1" filterUnits="userSpaceOnUse"><feFlood flood-color="#fff" flood-opacity="1" result="back"/><feBlend in="SourceGraphic" in2="back"/></filter></defs><linearGradient id="SVGID_19_" x1="2415.2407" x2="3016.405" y1="2986.0398" y2="2986.0398" gradientUnits="userSpaceOnUse"><stop offset="0" stop-color="#999"/><stop offset="1"/></linearGradient><path fill="url(#SVGID_19_)" fill-rule="evenodd" d="M2483.1 3149c-3.8-13.1-7.6-26.3-11.4-39.4-18.5 3.7-37.1 7.4-55.6 11.1-.3-11.9-.6-23.9-.8-35.8 9.3-27.7 18.6-55.4 27.8-83.1 672.3-394.3 836.1-39.7 40 147.2z" clip-rule="evenodd" mask="url(#SVGID_18_)"/></g></mask><linearGradient id="SVGID_20_" x1="2415.2407" x2="3016.405" y1="2986.0398" y2="2986.0398" gradientUnits="userSpaceOnUse"><stop offset="0" stop-color="#768596"/><stop offset="1" stop-color="#768596"/></linearGradient><path fill="url(#SVGID_20_)" fill-rule="evenodd" d="M2483.1 3149c-3.8-13.1-7.6-26.3-11.4-39.4-18.5 3.7-37.1 7.4-55.6 11.1-.3-11.9-.6-23.9-.8-35.8 9.3-27.7 18.6-55.4 27.8-83.1 672.3-394.3 836.1-39.7 40 147.2z" clip-rule="evenodd"/><defs><filter id="Adobe_OpacityMaskFilter_10_" width="627.5" height="325.9" x="3726.9" y="1374.5" filterUnits="userSpaceOnUse"><feFlood flood-color="#fff" flood-opacity="1" result="back"/><feBlend in="SourceGraphic" in2="back"/></filter></defs><mask id="SVGID_21_" width="627.5" height="325.9" x="3726.9" y="1374.5" maskUnits="userSpaceOnUse"><g filter="url(#Adobe_OpacityMaskFilter_10_)"><defs><filter id="Adobe_OpacityMaskFilter_11_" width="627.5" height="325.9" x="3726.9" y="1374.5" filterUnits="userSpaceOnUse"><feFlood flood-color="#fff" flood-opacity="1" result="back"/><feBlend in="SourceGraphic" in2="back"/></filter></defs><linearGradient id="SVGID_22_" x1="3726.9082" x2="4354.4067" y1="1537.4106" y2="1537.4106" gradientUnits="userSpaceOnUse"><stop offset="0" stop-color="#999"/><stop offset="1"/></linearGradient><path fill="url(#SVGID_22_)" fill-rule="evenodd" d="M3821.1 1700.3c8.3-25 16.6-50 24.9-75.1-39.7 1.2-79.4 2.3-119.1 3.5 18.1-25.2 36.1-50.5 54.2-75.7 672.3-394.1 836.1-39.5 40 147.3z" clip-rule="evenodd" mask="url(#SVGID_21_)"/></g></mask><linearGradient id="SVGID_23_" x1="3726.9082" x2="4354.4067" y1="1537.4106" y2="1537.4106" gradientUnits="userSpaceOnUse"><stop offset="0" stop-color="#768596"/><stop offset="1" stop-color="#768596"/></linearGradient><path fill="url(#SVGID_23_)" fill-rule="evenodd" d="M3821.1 1700.3c8.3-25 16.6-50 24.9-75.1-39.7 1.2-79.4 2.3-119.1 3.5 18.1-25.2 36.1-50.5 54.2-75.7 672.3-394.1 836.1-39.5 40 147.3z" clip-rule="evenodd"/></g><g><path d="M3023.8 1484.8c-13.3 8.1-25.6 20-34.6 22.2-5.6 1.4-24.1 4.2-30.6-.9-4.4-3.5-9.2-7.8-9.5-12.5-.1-1.3-.4-5 0-7.3-.5 5.2 4.7 10 9.5 13.8 6.5 5.1 24.9 2.3 30.6.9 9-2.2 21.2-14.1 34.6-22.2 7.9-4.8 27.6-7.3 31.4-15.1 1.5-3 2.6-6 3-9.4.7 6-.7 10.8-3 15.4-3.8 7.8-23.4 10.2-31.4 15.1z" class="st69"/><path d="M3023.8 1478.8c-13.3 8.1-25.6 20-34.6 22.2-5.6 1.4-24 4.2-30.6-.9-5.9-4.6-12.4-10.8-8.3-17.3 15.4-24.1 34.8-25.6 52.8-42.4 10.6-9.9 48.4-22.5 54.5 4.9 1.7 7.5.1 13.1-2.5 18.4-3.7 7.8-23.3 10.2-31.3 15.1z" class="st70"/><path fill="#490e92" fill-rule="evenodd" d="M3057.7 1445.3c-.2 2.2-38.1 14.8-62.5 0-1.9-60.4-.8-134.2-6.7-199.5-2-56.4-20.4-129.5-6.2-192 11.2-25.5 90.2-6.4 89.7 11.7 3.3 59.9-2.4 134-9.9 190.3 7.4 71.4-1.2 122.3-4.4 189.5z" clip-rule="evenodd"/><path d="M3040.5 1445.3c-.1 1.2-10.8 5.2-24.5 6.6-7.2-.8-14.5-2.8-20.8-6.7-1.9-60.4-.8-134.2-6.7-199.5-2-56.4-20.4-129.5-6.2-192 3.1-7.1 11.5-10.7 21.9-11.9 24.4 2.3 50.8 13.1 50.5 23.6 1.9 35.4.7 75.8-2.1 114.6-4.4 59.5-2.9 114-5.9 171.5-1.6 30.2-4.6 59.9-6.2 93.8z" class="st72"/><path d="M2887.4 1070.9l28.8-23.8 26-36.6c9-11.7 15.8-43.6-16.4-19.5l-29.6 22.2c-3.2 2.4-6 5.1-9 7.7l-13.1 11.2c-8.3 6.7-3.5 15.1 2.4 11.1l13.1-11.2.6 3c-7.1 6.1-14.3 12.2-21.4 18.3-8.4 6.8-2.9 12.9 2.3 16.9 5.2 4.1 10.2 5.9 16.3.7z" class="st73"/><path d="M3124.5 1538.3c-9 11.1-20.3 26.5-27.9 31.5-4.8 3.2-21.8 12.1-30.5 10.9-9.3-1.3-16.1-5.2-18.4-10.4-1.1-2.6-1.9-7.8-.6-11.1-1.8 8.8 6.1 14.5 18.9 16.3 8.7 1.2 25.2-8 30-11.2 7.7-5 18.5-20.2 27.7-31.2 5.2-6.2 13.2-14 14.1-20.8.1 1.1.1 2.3.1 3.5-.1 3.4-1.5 7.7-4.3 11.5s-6.4 7.6-9.1 11z" class="st69"/><path d="M3123.8 1533.1c-9.2 11-20 26.2-27.7 31.2-4.8 3.2-21.3 12.4-30 11.2-13.9-1.9-22.2-8.5-18.2-18.7 6.3-16.2 23-33.9 30.3-48.3 1.5-3 2.5-5.7 3.2-8.3 3.5-12.7 49.5-16.2 54.6-1.8 1.3 3.7 2 7.9 1.9 12.8-.1 7-8.7 15.3-14.1 21.9z" class="st70"/><path d="M3139.6 1504.3c-.2 2.4-38.1 16-62.5 0-1.9-65.5-16.7-141-22.7-211.8-2-61.1-17-158.1-2.8-225.9 7.8-19.3 90.2-42.2 95.1 27.3 1.2 17.4.1 37.2.2 47.2.6 55.7-2.1 117.9-7.9 164.9 4.2 78.9 3.8 125.5.6 198.3z" class="st72"/><path d="M3121.9 1504.3c-.1 1.2-10.7 5.6-24.3 7.1-7.2-.9-14.3-3.1-20.6-7.2-1.9-65.5-16.7-141-22.7-211.8-.9-29.3-5.9-87.6-8.2-126.2-.5-8-13.5-21.4-13.8-29.4-1.2-34.1.6-47 6.6-75.6 3.3-8.1 32.2-11.5 50.5-13.7 10.8 1.5 21 6 28.4 14.9-11.1 8.4-18.3 22.3-18.3 38 0 20.7 12.5 38.2 29.6 44.1.4 54.8-2.2 115.4-7.9 161.5 4.4 78.9 3.9 125.5.7 198.3z" class="st74"/><path d="M2981.6 800.2c-4.6 26.1 5.8 73.5-1.3 117.1-.9 5.7-.9 10.2 1.6 14 10.4 15.6 44.8 14.6 48.6-5.9 7.4-40.5 4.9-83.8 5.5-116.2.3-15.1 1.4-28.2-1.6-37.8-4.6-14.9-12-17.2-20.7-16.8-12.1.5-26 11.2-32.1 45.6z" class="st75"/><path d="M2981.6 800.2c-4.7 26.6 6.1 75.2-1.7 119.5-3.2 18.3 36 27.9 40.4 5 6.2-32.3 4.1-65.3 3.3-93.9-.4-12.2.2-50.3-7.7-58.7-5.9-6.3-16.2-7.8-21.1-2.4-5.5 5.9-10.5 15.3-13.2 30.5z" class="st76"/><path d="M2977.9 908.2c-29.5 43-63.5 74.7-77.6 95.5.2 12.3 28.4 37.7 37.4 27.3 9.3-10.8 55.3-49.5 87.7-93.7 9.6-13 3.8-25.9-11-33.5-14.2-7.3-27.4-8.8-36.5 4.4z" class="st75"/><path d="M2922.5 1023c11.4-8.6 59.3-44.8 92-89.2 4-5.4 6.1-11 6-16.3-.1-14.3-18.1-23-30.6-19.5-5 1.4-8.1 4.4-12 10.2-29.5 43-63.5 74.7-77.6 95.5.1 5.7 6.1 14.1 13.5 20.5 2.8 2.5 4.8 1.7 8.7-1.2z" class="st76"/><path fill="#4f3434" fill-rule="evenodd" d="M3123.7 667.5c0 10.4-2.3 25.8-6.8 39.8-4 12.7-6.4 20.8-13.6 29.1-2.9 3.3-8.6 3.7-12.1 3.7-14.8 0-33.8-19.1-43.7-39.3-3.7.1-7.3-.3-10.6-1-4.6-1.1-8.5-2.7-11.9-4.9 4.8.6 7.7-.6 17.4-3.4 10.2-3.1 19.8-7.1 28.5-11.9-11.3-10.1-38.1-4.4-57-4.4-24.1-69.6 109.8-87.5 109.8-7.7z" clip-rule="evenodd"/><path d="M3151.8 786.3c-10.3-5.4-28.9-12.6-49.5-19.1-32.1-10.1-71.8-16.2-89.1-13.2-25.1 4.3-24.7 34.9-25.9 62.3-3.8 86.5 13.4 130.5-7.4 237.6-2.1 10.9-3.3 13.6 2.5 18.3 20.4 16.2 49.5 22.5 75.4 23.9 15.6.8 71.5.4 85.7-5.7 5.3-2.2 7.6-6.3 7.9-15.1 2.2-55.8-15.9-51.1-14.2-93.1 1.4-36.1 14.3-75.5 21.5-105.3 10.8-44.4 34.9-68.6-6.9-90.6z" class="st78"/><path d="M2996.9 763.9l-.2.2-.4.6-.4.6-.2.3-.2.3-.3.6-.4.7-.1.2-.5.9-.1.2-.3.7v.1l-.3.6-.2.4-.4.9v.1l-.3.7-.1.2-.2.5-.2.5-.1.2-.2.7v.1l-.2.6-.1.4-.1.3-.2.7-.2.8-.1.3-.1.5-.1.6v.2l-.2.8v.1l-.1.7-.1.5-.1.3-.2.8-.1.8-.1.3-.1.5-.1.7v.2l-.1.8v.2l-.1.7-.1.5v.3l-.1.9-.1.8v.4l-.1.5-.1.7v.1l-.1.9v.2l-.1.7-.1.6v.3l-.1.9v.1l-.1.8v.9l-.1.8v.1l-.1.9V799.3l-.1.9v15.4c-3.8 86.5 13.4 130.5-7.4 237.6-2.1 10.9-3.3 13.6 2.5 18.3 20.4 16.2 49.5 22.5 75.4 23.9 10.5.6 41.7.8 62.3-1.2-8.5-96-1.1-231.3 10.1-292.9 2.8-15.2-21.4-29-45.5-34.5-35.8-8.2-80.1-13.3-87.4-3.9l-1.2 1z" class="st79"/><path d="M3036.4 786.5c5.9-8.9 6.4-17.2 2-32.5-1 .1-4.4.8-5.3.7-12.3-1.2-25.5-42.4-23.8-55.2.6-4.7 1.8-9.1 3.4-12.4 3.8-7.6.5-13.5-.1-20.3-.5-6.6.9-13 3.5-18.7 6.2-18 28.3-24.7 39.3-24.3 4.3.2 11.2.4 17.4 3 8.5 3.7 15.4 10.8 11 18.3-2.7 4.7-9.1 10.4-8.3 20.6.6 7.4 2.5 14.6 8.4 17.2-.1 2-.3 4-.5 6.2-.6 5.1-1.7 10-3.1 14.7 0 0 5 3.2 5.6 3.6 5.8-32.2 21.9-20 23.2-6.7.9 9-3.2 29.1-12.1 24.8-.6 10.5-.5 20.3.6 29.4 2.3 18.2 11.8 20.9-2.9 29.5-17.5 10.3-54.5 11.5-58.3 2.1z" class="st80"/><path d="M3036.4 786.5c5.2-7.9 6.2-15.2 3.4-27.4 10.8.1 22.8-2.5 28.9 6.1 4.4 6.1 6.6 16.7 7.1 25.9-17.3 3.4-36.7 2.1-39.4-4.6zM3012.9 669.2c.9 5.8 3.1 11.2-.2 17.9-1.6 3.3-2.8 7.7-3.4 12.4-1.6 12.2 10.4 50.6 22.3 54.8 2.8 1 8.2-.2 11.2-.6 13-1.9 27.1-4.8 33.9-16.1 4-6.6 2.6-33.2-2-39.8-2-2.9-8.3-2-9.8-4.4-1.5-2.4 1.8-8.2 2-10.3.5-4.3-.8-11-.2-17.6.6-6.5 3.1-12.8 3.1-17-.1-17.2-18.2-24.4-32.9-19.1-15.4 5.5-26.3 25.9-24 39.8z" class="st73"/><path d="M3131.5 848.8c-.4 26.5 17.4 71.6 17.4 115.8 0 5.7.7 10.2 3.8 13.5 12.7 13.7 46.6 7.2 47-13.5.9-41.2-8.5-83.5-13.1-115.6-2.1-15-3.2-28.1-7.6-37.1-6.9-14-14.6-15.1-23.1-13.3-11.8 2.5-23.8 15.3-24.4 50.2z" class="st75"/><path d="M3131.5 848.8c-.4 27 18 73.2 17.4 118.2-.3 18.6 40 21.8 40.7-1.5 1-32.9-6.4-65.1-11.8-93.2-2.3-12-7.8-49.7-17-56.7-6.8-5.2-17.2-5.1-21.2 1-4.4 6.7-7.8 16.7-8.1 32.2z" class="st76"/><path d="M3038.3 1111.9l31.5-20.3 30.1-33.3c10.3-10.5 20.8-41.4-13.9-21.3l-32 18.5c-3.4 2-6.6 4.4-9.9 6.6l-14.3 9.5c-9 5.6-5.2 14.6 1.1 11.3l14.3-9.5.2 3.1-23.4 15.6c-9.1 5.7-4.4 12.5.2 17.1 4.6 4.7 9.4 7.1 16.1 2.7z" class="st73"/><path d="M3147.8 953.1c-32.5 40.8-68.8 69.9-84.3 89.6-.7 12.3 25.6 39.7 35.4 29.9 10.1-10.1 58.7-45.4 94.3-87.1 10.5-12.3 5.7-25.6-8.5-34.2-13.8-8.2-26.9-10.8-36.9 1.8z" class="st75"/><path d="M3084.2 1063.6c12-7.7 62.4-40.4 98.2-82.3 4.4-5.1 8.9-12.4 9.2-17.6.9-14.3-16.4-24.3-29.1-21.6-5.1 1.1-10.4 5.7-14.8 11.1-32.5 40.8-68.8 69.9-84.3 89.6-.3 5.7 5.1 14.5 12 21.5 2.7 2.5 4.8 1.9 8.8-.7z" class="st76"/><path d="M3048 792.2c29.6-8.3 46.6-16.7 51.4-28.4 5.3-1 16 3.1 17.5 9.6-13.9 15.3-34.4 27.7-57.3 33.5-.1-5.7-4.4-11.4-11.6-14.7zM3048 792.2c-6-.9-10.4-2.8-11.6-5.8 3.7-5.6 5.3-10.9 4.9-17.9-22.1 6.4-31.7 32.8-12.9 38.2 3-5.6 10.6-11.2 19.6-14.5z" class="st18"/><path fill="#1c1659" fill-rule="evenodd" d="M3064.6 692l28-2c-1.1 1.1-1.9 2.7-2.7 4.2l-25.3 1.9v1c0 2.1-.8 4.1-2.4 5.5-1.6 1.4-3.7 1.9-5.8 1.5l-13.9-2.1c-2.2-.3-4.2-1.5-5.7-3.2-1.4-1.7-2.4-3.8-2.4-6v-1.3l-3.6-.7v1.2c0 2.1-.8 4.1-2.4 5.5-1.6 1.4-3.7 1.9-5.8 1.5l-13.9-2.1c-2.2-.3-4.2-1.5-5.7-3.2-1.4-1.7-2.4-3.8-2.4-6V683c0-2.1.8-4.1 2.4-5.5 1.6-1.4 3.7-1.9 5.8-1.5l13.9 2.1c2.2.3 4.2 1.5 5.7 3.2 1.3 1.5 2.1 3.4 2.3 5.3l3.7.7c.2-1.8 1-3.5 2.4-4.6 1.6-1.4 3.7-1.9 5.8-1.5l13.9 2.1c2.2.3 4.2 1.5 5.7 3.2 1.4 1.4 2.3 3.4 2.4 5.5zm-8.3-4.7l-13.9-2.1c-1-.1-1.9.1-2.7.7-.7.6-1.1 1.5-1.1 2.5v4.7c0 1.1.5 2.2 1.2 3 .7.9 1.8 1.5 2.9 1.7l13.9 2.1c1 .1 1.9 0 2.7-.7.7-.6 1.1-1.5 1.1-2.5V692c0-1.1-.5-2.2-1.2-3-.7-.9-1.8-1.5-2.9-1.7zm-33.8-5.3l-13.9-2.1c-1-.1-1.9 0-2.7.7-.7.6-1.1 1.5-1.1 2.5v4.7c0 1.1.5 2.2 1.2 3 .7.9 1.8 1.5 2.9 1.7l13.9 2.1c1 .1 1.9 0 2.7-.7.7-.6 1.1-1.5 1.1-2.5v-4.7c0-1.1-.5-2.2-1.2-3-.8-.9-1.8-1.5-2.9-1.7z" clip-rule="evenodd"/><g><path d="M2535.1 2336.3l7.3 29.4 2.1 58.9-18.8 18c-2.4-6.3-5.5-43-11-82.8-2.4-9.5-2.3-9.3-4.7-18.9-1.8-6.3.3-18.8 9.3-16.1 3.4 1 6.7 2 10.1 2.9 3.7 1.2 4.9 5.2 5.7 8.6z" class="st73"/><path fill="#d2cedb" fill-rule="evenodd" d="M2551.4 2382.1c4.1 31.2 8.3 62.4 12.4 93.6 5.3 40.2-34.9 49.9-40.8 8.5-5.3-37.3-9.6-70.1-10.9-89.9-1.7-5.5 32.5-18.8 39.3-12.2z" clip-rule="evenodd"/><path d="M2554.4 2390c5.4 40.7 9.8 99.8 18.2 138.5 10.6 34.4-42.9 42.6-47.6 10.6-8.1-55.3-13.2-105.8-15.1-134.1-1.8-6.8 36.2-23.1 44.5-15z" class="st76"/><path d="M2370.6 2787.3s-.8 16.8-6.4 44c-5.6 27.2-15.9 69.7-10.3 101.2 2.7 14.9 4.8 40.8 6.9 64.8 2.3 26.7-10.7 44-8 48.9 5.1 9.3 54.8 72.5 75.1 46.8-41.8-13.7-25.4-120.9-20.2-161.2 2.9-22.3 6.4-45.4 7.9-65 2.4-30.8 3.5-60.8-1.4-62.7l-43.6-16.8z" class="st80"/><path d="M2369.8 2797.2c-.9 7.6-2.5 19.4-5.5 34.2-5.6 27.2-15.9 69.7-10.3 101.2 2.7 14.9 4.8 40.8 6.9 64.8 2.3 26.7-10.7 44-8 48.9 3.3 6.1 26 35.6 47 47.7-5.1-12.3-7.2-26.7-9.9-38.9-9.2-41.3 3.2-92 6-118.1 2.4-22.2 5.4-45.3 6.5-64.9 1.7-30.8 2.2-60.8-2.8-62.8l-29.9-12.1z" class="st73"/><path d="M2417.4 3086.7c7.4-.3 14.9-.5 22.3-.8 3.5.3 6.2 1.4 8.3 3 4.1 3.3 2.8 3.8.2 7.2-7.1 8.9-14.5 16.3-22.3 22-9.8 7-18.4 3.5-24.6-5.7-17.6-25.8-10.5-22.6-41.1-26.9-24-8.1-21-45.7-2.9-57.1 26.4 10 32.3 45.7 48.5 68.6 12.2 6.9 21-2.6 23.4-4.1-4.7-1.5-8.7-2.8-11.8-6.2z" class="st76"/><path d="M2417.4 3086.7c7.4-.3 14.9-.5 22.3-.8 3.5.3 6.2 1.4 8.3 3 4.1 3.3 2.8 3.8.2 7.2-7.1 8.9-14.5 16.3-22.3 22-9.7 6.9-18.1 3.6-24.3-5.3-6.1-11.6-9.6-24.8-9.6-38.9v-2.3c4.2 8.9 8.4 17.9 13.7 25.4 12.2 6.9 21-2.6 23.4-4.1-4.6-1.5-8.6-2.8-11.7-6.2z" class="st83"/><path d="M2408.4 3119.5l-27-14.5-8.4-17.8c16 2.3 13.7 3.8 28.2 25.1 2.2 3.1 4.6 5.6 7.2 7.2z" class="st84"/><path d="M2361.6 3085.6v49.4h6.8v-48.5z" class="st83"/><path d="M2361.6 3085.6v49.4l-7-3.4v-48.8c1.6 1 3.5 1.9 5.5 2.6l1.5.2z" class="st84"/><path d="M2438 2814.1s-.8 16.8-6.4 44c-5.6 27.2-15.9 69.7-10.3 101.2 2.7 14.9 4.8 40.8 6.9 64.8 2.3 26.7-10.7 44-8 48.9 5.1 9.3 54.8 72.5 75.1 46.8-41.8-13.7-25.4-120.9-20.2-161.2 2.9-22.3 6.4-45.4 7.9-65 2.4-30.8 3.5-60.8-1.4-62.7l-43.6-16.8z" class="st80"/><path d="M2436.6 2828.5c-.9 7.4-2.5 17.5-5 29.7-5.6 27.2-15.9 69.7-10.3 101.2 2.7 14.9 4.8 40.8 6.9 64.8 2.3 26.7-10.7 44-8 48.9 2.9 5.3 20.1 27.8 38.2 41.7-4.1-11.1-6.3-23.4-9-34.1-10.2-41.1 1-92 3.2-118.2 1.8-22.3 4.3-45.4 4.9-65 .9-30.8.7-60.8-4.3-62.8l-16.6-6.2z" class="st73"/><path d="M2484.8 3113.5c7.4-.3 14.9-.5 22.3-.8 3.5.3 6.2 1.4 8.3 3 4.1 3.3 2.8 3.8.2 7.2-7.1 8.9-14.5 16.3-22.3 22-9.8 7-18.4 3.5-24.6-5.7-17.6-25.8-10.5-22.6-41.1-26.9-24-8.1-21-45.7-2.9-57.1 26.4 10 32.3 45.8 48.5 68.6 12.2 6.9 21-2.6 23.4-4.1-4.7-1.6-8.7-2.8-11.8-6.2z" class="st76"/><path d="M2484.8 3113.5c7.4-.3 14.9-.5 22.3-.8 3.5.3 6.2 1.4 8.3 3 4.1 3.3 2.8 3.8.2 7.2-7.1 8.9-14.5 16.3-22.3 22-1.8 1.3-3.6 2.3-5.3 2.9-23.7-14.2-39.7-40.6-39.7-70.8v-.2c9.1 14.7 15.1 33.3 24.9 47.1 12.2 6.9 21-2.6 23.4-4.1-4.7-1.7-8.7-2.9-11.8-6.3z" class="st83"/><path d="M2475.8 3146.3l-27-14.6-8.4-17.8c16 2.3 13.7 3.8 28.2 25.1 2.2 3.2 4.6 5.7 7.2 7.3z" class="st84"/><path d="M2429 3112.4v50.8h6.8v-49.9z" class="st83"/><path d="M2429 3112.4v50.8l-7-3.5v-50.1c1.6 1.1 3.5 2 5.5 2.6l1.5.2z" class="st84"/><path d="M2416.3 2612.5c-17.2 0-53.9 4.1-70.9 11.1-5 52.2 8.3 123.5 11.2 185.5 19.7 12.7 89.6 75 148.1 17.1l-8.7-200.7c-11.3-2.3-62.5-13-79.7-13z" class="st76"/><path d="M2416.3 2612.5c-17.2 0-53.9 4.1-70.9 11.1-5 52.2 8.3 123.5 11.2 185.5 13.3 8.6 49.4 39.7 89.5 41.3l-6.4-235.5c-9.6-1.3-18.1-2.4-23.4-2.4z" class="st78"/><path d="M2273.2 2475.7c-10.2 8.7-12.5 22.1 5.2 40.5 13 13.6 54.2 56.3 78.2 73.1 7.9 5.5 31.2-11.7 22.1-28.5-11.5-21.3-49.6-61.6-63.3-76-17.6-18.5-31.9-17.8-42.2-9.1z" class="st76"/><path d="M2373.6 2382.6c-12.1 22.7-44.7 103-73.4 130.4-4 3.8-13.4 3-22.2-1.6-7.3-3.8-14.9-10-12.7-21.4 6-31.9 36.3-101.9 49.4-125.8 30.8-56.6 82.4-25.5 58.9 18.4z" class="st76"/><path d="M2472 2359.8c-30.1-16.7-62.1-13.6-94-24.4-55.1-18.6-59.6 40.9-55.6 80 6.3 61.8 17 77.3 20.3 117.5 1.1 13.9-4.1 34.5-5.2 56.3-1.4 27.7-1.2 58.1-.8 93.9 11.3 6.3 26.1 14 42.9 20.2l1.8-16.9 3.4 18.8c36.4 12.6 81.3 17.4 122.2-12.9-1.8-33.3-6-63.6-11.3-92.7-4.1-22.1-14.7-43.4-14.9-63.9-.4-30.3 22.7-75.2 23.2-106.8.5-42.3 5-48.6-32-69.1z" class="st78"/><path d="M2429.8 2346.1c-17.1-3.1-34.5-4.8-51.8-10.7-55.1-18.6-59.6 40.9-55.6 80 6.3 61.8 17 77.3 20.3 117.5 1.1 13.9-4.1 34.5-5.2 56.3-1.4 27.7-1.2 58.1-.8 93.9 11.3 6.3 26.1 14 42.9 20.2l1.8-16.9 3.4 18.8c7.5 2.6 15.4 4.9 23.5 6.6-7.5-44.1-.1-118.3 13.8-165 3.9-13 2.4-25.2-.6-37.4-10-40.2-15.5-49.8-10.1-99.5 2.4-23.6 8.2-46.4 18.4-63.8z" class="st79"/><path d="M2475 2373.8c-20 9.7-25.6 24-11.3 55 10.5 22.8 42.8 100.5 71.6 127.4 4 3.7 13.8 3.1 23.2-1.4 7.7-3.7 15.8-9.7 14-20.7-5.1-31.1-35.7-98.6-46.8-122.8-14.4-31-30.7-47.2-50.7-37.5z" class="st76"/><path d="M2451.7 2352.6c-2.4-9.1-2.6-18.5 0-28.5 5.1-.7 10.3-1.5 15.7-2.2 15.6-2.1 13.9-7.5 16.5-23.5 1-6.1 1.8-12.4 2.3-18.3 1.4-16.7-4.4-17-4.6-21.8-.2-4.6 3.4-11.4 2.9-15.2-2.5-21.7-9-32.5-17.4-38.6-23.2 6.5-46.4 13.1-69.6 19.6-.8 39.3-1.6 78.5-11.2 114 17.8 13.5 40.1 17.2 65.4 14.5z" class="st73"/><path d="M2455 2276.1c-2.4 2.1-7 6.3-8.4 2.3-3.1-12.9-9.4-15.7-16.4-8.4-7.6 7.9-8.6 25.7 3.6 22.4-3 4.6-5.2 9.3-6.8 14-1.6 5-14 3.3-23.2 3.1-8.7-.2-14.3 1.3-16.2-3.2-5.3-12.7-14.6-21.6-18.2-27.9-10.7-18.6-10.6-36.8-5.6-51.7 8.1-23.9 23.3-35.2 47.6-38 19.9-2.3 48-.4 60.3 7.3 14.9 9.4 22.5 49.1-16.7 80.1z" class="st85"/><path d="M2455 2276.1c-2.4 2.1-7 6.3-8.4 2.3-3.1-12.9-9.4-15.7-16.4-8.4-7.6 7.9-8.6 25.7 3.6 22.4-3 4.6-5.2 9.3-6.8 14-1 3.2-6.3 3.7-12.3 3.5-6.6-21.8-5.9-42.7-1.6-60.3 8.1-32.9 23.3-48.6 47.7-52.4 3.6-.6 7.4-.9 11.3-1.1 14.6 9.6 21.9 49.1-17.1 80z" class="st86"/><path d="M2453.3 2335.8c-14.4-.1-53.8-5.2-64.8-14.7-2.2-.5-7.7 17.3-7.7 17.3 16.6 9.5 40.2 15.8 72.5 7.7v-10.3z" class="st18"/><path d="M2459.4 2345.4s-65.4-2.8-78.7-17.3c-2.4-.8-8 13-8 13 18.8 13.9 49.1 25.1 92.5 15.3 3.6 1.9 7.7 4.1 11.3 6-2.6-3.4-9.3-8.5-17.1-17z" class="st76"/><path d="M2449.9 2335.7c.2-3.8.8-7.7 1.8-11.6 5.1-.7 10.3-1.5 15.7-2.2-23.6-1.3-40.7-4.2-40.4-15.3-1.3 3.6-8.3 3.6-15.6 3.3-4.8 5.4-12.3 8.7-20.9 9.4-.2 1-.4 2-.6 2.9 11.9 8.2 44.3 12.8 60 13.5z" class="st80"/><path d="M2344.9 2198.3c-14.4 8.4-23.8 25-22.6 43.3 2 30.1 34.5 76.8 26.4 99.6-4.7 13.2-17 18.9-38.5 7.3 15.3 37.5 68.3 41.3 90.1 5.4 13.3-21.9 22.5-117.7 4.3-142.1-13.7-18.1-38.2-26-59.7-13.5z" class="st86"/><path d="M2344.9 2198.3c-14.4 8.4-23.8 25-22.6 43.3 2 30.1 34.5 76.8 26.4 99.6-4.7 13.2-17 18.9-38.5 7.3 3.5 8.7 9.1 15.6 15.9 20.6 19.5 3.4 41-4.3 53-24.1 13.3-21.9 22.5-117.7 4.3-142.1-2.9-3.9-6.4-7.4-10.2-10.3-9.3-1.3-19.1.3-28.3 5.7z" class="st85"/></g><g><path d="M3694.7 1070.7c22.7 41.2 33.8 81.3 44.9 101 10.4 5 44.3-6.4 39.7-17.8-4.8-11.8-16.5-64.2-38.8-108.2-6.6-13-20-13.9-32.9-5.5-12.6 8.1-19.9 17.8-12.9 30.5z" class="st87"/><path d="M3729.5 949.2c-12.2 20.6-17.4 63.5-37.1 98.2-2.6 4.5-4 8.3-2.9 12.2 4.5 16.1 35.8 25.2 45.5 9 19.1-32 30.1-69.1 40.6-96.2 4.9-12.6 9.9-23.4 10.2-32.3.5-13.9-5.5-17.9-13.5-20.1-11-3-26.8 2-42.8 29.2z" class="st87"/><path d="M3729.5 949.2c-12.4 21-17.6 65-38.2 100.1-8.5 14.5 23.8 33.9 34.8 15.8 15.5-25.4 23.7-53.8 31.8-78.1 3.4-10.4 15.7-42.3 11.1-51.6-3.4-7-12.2-11.2-18.2-8.1-6.9 3.5-14.2 9.9-21.3 21.9z" class="st88"/><path fill="#cf9c9c" fill-rule="evenodd" d="M3770.5 1218l-19.2-28-13-38c-4.8-12.3-1.7-41.2 20.4-12.2l20.4 26.8c2.2 2.9 4 6 6 9l8.6 13c5.6 7.9-1.2 13.8-5.4 8.8l-8.6-13-1.4 2.4 14.1 21.3c5.7 8-1.1 11.8-6.9 13.7-5.9 2-11 2.2-15-3.8z" clip-rule="evenodd"/><path d="M3764.3 1162.3c-2-12.6-10.8-65.3-33.2-109.7-2.7-5.4-6.5-9.4-10.9-11.6-12-6-27.4 4.5-30.1 15.7-1.1 4.6 0 8.2 3.1 13.7 22.7 41.2 33.8 81.3 44.9 101 4.8 2.3 14.6 1.1 23.2-1.9 3.3-1 3.7-3 3-7.2z" class="st88"/><path d="M3775.1 1611.6c-12.7 7.7-24.3 19-32.8 21.1-5.4 1.3-22.8 4-29-.9-4.2-3.3-8.7-7.4-9.1-11.9-.1-1.2-.4-4.8 0-6.9-.5 4.9 4.5 9.5 9.1 13.1 6.2 4.9 23.7 2.2 29 .9 8.5-2.1 20.2-13.4 32.8-21.1 7.5-4.6 26.2-6.9 29.8-14.3 1.4-2.8 2.4-5.7 2.8-8.9.7 5.7-.7 10.3-2.8 14.6-3.6 7.3-22.2 9.7-29.8 14.3z" class="st90"/><path d="M3775.1 1605.9c-12.7 7.7-24.3 19-32.8 21.1-5.4 1.3-22.8 4-29-.9-5.6-4.4-11.8-10.3-7.8-16.5 14.6-22.9 33.1-24.3 50.1-40.3 10.1-9.4 45.9-21.4 51.8 4.7 1.6 7.1.1 12.4-2.4 17.5-3.7 7.4-22.3 9.8-29.9 14.4z" class="st91"/><path d="M3807.3 1574.1c-.2 2.1-36.2 14.1-59.4 0-1.8-57.4-.7-127.5-6.4-189.5-1.9-53.6-19.3-123-5.9-182.3 10.7-24.2 85.7-6.1 85.2 11.1 3.1 56.9-2.2 127.2-9.4 180.7 7.1 67.8-1 116.1-4.1 180z" class="st92"/><path fill="#3f0c68" fill-rule="evenodd" d="M3790.9 1574.1c-.1 1.1-10.3 5-23.3 6.3-6.9-.8-13.8-2.7-19.8-6.3-1.8-57.4-.7-127.5-6.4-189.5-1.9-53.6-19.3-123-5.9-182.3 3-6.7 10.9-10.2 20.8-11.3 23.2 2.2 48.3 12.4 48 22.4 1.8 33.7.7 72-2 108.8-4.1 56.5-2.7 108.3-5.6 162.9-1.4 28.6-4.2 56.8-5.8 89z" clip-rule="evenodd"/><path d="M3870.8 1662.4c-8.5 10.6-19.3 25.2-26.5 30-4.6 3-20.7 11.5-29 10.4-8.8-1.2-15.3-5-17.4-9.8-1.1-2.4-1.8-7.4-.6-10.6-1.7 8.4 5.8 13.8 18 15.5 8.2 1.1 23.9-7.6 28.5-10.6 7.3-4.8 17.6-19.2 26.3-29.6 4.9-5.9 12.5-13.3 13.4-19.8.1 1.1.1 2.2.1 3.3-.1 3.3-1.4 7.3-4.1 10.9-2.8 3.5-6.1 7.1-8.7 10.3z" class="st90"/><path d="M3870.1 1657.5c-8.7 10.5-19 24.8-26.3 29.6-4.6 3-20.3 11.7-28.5 10.6-13.2-1.8-21-8.1-17.3-17.8 6-15.4 21.9-32.2 28.8-45.9 1.4-2.8 2.4-5.5 3-7.8 3.4-12 47-15.4 51.9-1.7 1.2 3.5 1.9 7.5 1.8 12.1-.1 6.7-8.3 14.6-13.4 20.9z" class="st91"/><path d="M3885.1 1630.2c-.2 2.2-36.2 15.2-59.4 0-1.8-62.2-15.9-133.9-21.5-201.2-1.9-58.1-16.1-150.2-2.7-214.5 7.4-18.3 85.7-40.1 90.3 26 1.2 16.5.1 35.3.2 44.8.5 52.9-2 111.9-7.5 156.6 4 74.8 3.6 119.1.6 188.3z" class="st92"/><path fill="#450e6f" fill-rule="evenodd" d="M3868.3 1630.2c-.1 1.2-10.2 5.3-23.1 6.8-6.8-.9-13.6-2.9-19.6-6.8-1.8-62.2-15.9-133.9-21.5-201.2-.9-27.8-5.6-83.2-7.8-119.9-.4-7.6-12.8-20.3-13.1-27.9-1.2-32.4.6-44.7 6.2-71.8 3.1-7.7 30.6-10.9 48-13.1 10.2 1.4 20 5.7 27 14.1-10.5 7.9-17.4 21.1-17.4 36.1 0 19.6 11.8 36.2 28.2 41.9.4 52.1-2.1 109.6-7.5 153.4 4.1 74.9 3.7 119.2.6 188.4z" clip-rule="evenodd"/><path fill="#6f3818" fill-rule="evenodd" d="M3863.9 818.4c3.8 4.1 6.1 9.6 6.1 16.9 0 9.8-2.2 24.5-6.4 37.8-3.8 12.1-6.1 19.8-12.9 27.6-2.7 3.1-8.1 3.5-11.5 3.5-14.1 0-32.1-18.2-41.5-37.3-3.5.1-6.9-.3-10-1-4.4-1-8.1-2.6-11.3-4.7 4.5.6 7.3-.5 16.5-3.3 9.7-2.9 18.8-6.7 27.1-11.3-10.8-9.6-36.2-4.1-54.2-4.1-10.7-13.3-3.8-33.5-.5-41.2 8.4-19.7 32.7-28.8 56.8-23.3 24.2 5.5 42.8 19.7 41.8 40.4z" clip-rule="evenodd"/><path d="M3896.7 948.1c-9.7-5.1-27.5-12-47-18.1-30.5-9.6-68.2-15.4-84.7-12.6-23.9 4-23.5 33.1-24.6 59.2-3.6 82.2 12.7 124-7.1 225.7-2 10.4-3.2 12.9 2.4 17.3 19.3 15.4 47.1 21.3 71.7 22.7 14.8.8 67.9.4 81.4-5.4 5-2.1 7.2-6 7.5-14.4 2.1-53-15.1-48.6-13.5-88.4 1.4-34.3 13.5-71.7 20.4-100 10.3-42 33.2-65.1-6.5-86z" class="st87"/><path d="M3749.5 926.9l-.2.2-.4.6-.3.5-.2.3-.2.3-.3.5-.4.7-.1.2-.4.9-.1.2-.3.6v.1l-.3.6-.1.3-.4.9-.3.7-.1.2-.2.5-.2.5-.1.2-.2.7v.1l-.2.6-.1.4-.1.3-.2.7-.2.7-.1.3-.1.5-.1.6v.2l-.2.8v.1l-.1.6-.1.5-.1.3-.2.8-.1.8-.1.3-.1.5-.1.6v.2l-.1.8v.2l-.1.6-.1.5v.3l-.1.8-.1.8v.4l-.1.5-.1.7v.1l-.1.8v.2l-.1.6-.1.6v.3l-.1.9v.1l-.1.8v.9l-.1.8v.1l-.1.9v1.8l-.1.9V977c-3.6 82.2 12.7 124-7.1 225.7-2 10.4-3.2 12.9 2.4 17.4 19.3 15.4 47.1 21.3 71.7 22.7 10 .5 39.6.7 59.2-1.2-2.4-27.6-3.5-58.7-3.5-90.2 0-72.5 5.7-147.3 13.1-188 2.6-14.4-20.4-27.6-43.3-32.8-34-7.8-76.1-12.6-83.1-3.7h-.9z" class="st88"/><path d="M3790.9 940.1c.5-6.2.9-12.8-1.9-22.6-.9.1-4.2.8-5 .7-11.7-1.1-24.2-40.3-22.6-52.4.6-4.4 1.7-8.7 3.2-11.8 3.6-7.2.4-12.8-.1-19.3-.5-6.3.7-12.5 3.2-17.9.5.8 1 1.5 1.6 2.3 6 7.7 36.2 11.9 48.7 7.4 4.6-1.7 5.8 2.9 6.2 7.2.6 7 2.3 13.9 8 16.3-.1 1.9-.2 3.8-.5 5.9-.6 4.8-1.6 9.5-3 14 0 0 4.8 3 5.3 3.5 5.5-30.5 20.8-19 22-6.3.8 8.5-3.1 27.7-11.5 23.5-.6 10-.5 19.3.6 27.9 1.5 11.8 6.2 16.8 4.5 21.3-2.3 6.3-39 58-58.5 61.4-2.3-27.6-2.5-35.6-.2-61.1z" class="st80"/><path d="M3790 921.6c9.8.1 18.8 1.6 24.5 8.3 6.8 8 10.3 21.7 11.1 33.7-.3 3.7-.8 7.3-1.3 10.8-11.3 13.1-24.1 25.1-33.2 26.7-2.3-27.6-2.5-35.6-.2-61.1.5-5.2.8-10.7-.9-18.4zM3767.7 816.7l-.1.3c-2.6 5.7-3.6 11.8-3.1 18 .6 6.3 3.6 11.9.1 19-1.6 3.1-2.7 7.3-3.3 11.8-1.5 11.6 9.9 48.1 21.2 52.1 2.7.9 7.7-.2 10.6-.6 12.4-1.8 25.7-4.6 32.2-15.3 3.8-6.3 2.4-31.5-1.9-37.8-1.9-2.8-7.9-1.9-9.3-4.2-1.4-2.3 1.7-7.8 1.9-9.8 1-8.6 1.6-16.5 1.2-23.4-2.6.8-5.9 1.3-9.5 1.5h-.8c-5.7.2-11.5-.3-17.1-1.2l-.3-.1c-4.1-.7-8.1-1.6-11.9-3l-.5-.2-.2-.1c-4.2-1.7-6.5-3-8.8-6.6l-.4-.4z" class="st73"/><path d="M3884.5 1008.8c7.8 23.9 37.8 58.9 51.5 98.6 1.8 5.2 3.8 9 7.6 11 15.6 8.4 44.1-7.9 38.1-26.7-11.9-37.2-33.5-72.4-47.5-99.8-6.5-12.8-11.5-24.2-18.3-30.9-10.5-10.4-17.8-9-24.9-4.8-10 5.9-16.8 21.1-6.5 52.6z" class="st87"/><path d="M3884.5 1008.8c8 24.4 38.9 60.2 52.2 100.8 5.5 16.8 42.7 7.2 36.1-14-9.3-29.8-25.9-56.5-39.4-80.1-5.8-10.1-22.4-42.2-32.8-45.7-7.7-2.6-17 .8-18.7 7.4-2 7.6-2 17.7 2.6 31.6z" class="st88"/><path fill="#834018" fill-rule="evenodd" d="M3819.9 826.1c-.6 0-1.2.1-1.9.3-12.5 4.5-42.7.2-48.7-7.4-5.5-7.1-5.2-17.4-.1-24.6 10.6-14.9 31.8-21.3 52.9-16.4 24 5.5 42.6 19.7 41.8 40.2-16.3-3.7-32.6-.6-44 7.9z" clip-rule="evenodd"/><path fill="#934c23" fill-rule="evenodd" d="M3774.1 822.5c-5.1-7.4-4.6-17.7.5-24.9 11.1-15.6 33.4-22.3 55.4-17.2.7.2 1.4.3 2.2.5 4.5 1.6 8.6 3.6 12.4 5.8-21.2-4-42.1 2.8-52.8 17.8-4.6 6.5-5.5 15.5-1.9 22.6-6.1-1-11.8-2.6-15.8-4.6z" clip-rule="evenodd"/><g><path d="M3896.3 1238l-.1-35.5-3.8-13.9c-2.4-8.7-32.1-15.3-32.9 2l-.3 6.1c-.2 3.8.1 7.5.2 11.3l.3 16.3c-.1 10.1 9 11.7 9.6 5l-.3-16.3 2.6 1.4c.2 8.9.3 17.8.5 26.8-.1 10.2 7.7 10 13.8 8.6 6.1-1.6 10.5-4.2 10.4-11.8z" class="st73"/><path d="M3931.7 1084.5c-26.9 41.6-58.5 72.5-71.3 92.6.5 11.7 27.9 35.1 36.2 25 8.6-10.5 51.3-48.4 81-91.1 8.8-12.6 3-24.7-11.2-31.5-13.8-6.6-26.4-7.8-34.7 5z" class="st87"/><path d="M3881.9 1194.9c10.6-8.4 55.2-44.1 85.1-87 3.6-5.2 7.2-12.5 7.1-17.5-.4-13.6-17.8-21.4-29.5-17.7-4.7 1.5-9.3 6.3-12.9 11.9-26.9 41.6-58.5 72.5-71.3 92.6.2 5.4 6.2 13.2 13.3 19.2 2.7 2.1 4.6 1.3 8.2-1.5z" class="st88"/></g></g><g><path fill="#a77f80" fill-rule="evenodd" d="M3649.2 2391.1l20.3-14.9 43.2-52.7-13.1-29.5c-7.6 4.1-36.9 35.8-71.5 68.6-9.7 7.1.1-.1-9.6 7.1-6.7 4.6-12.4 17.5 1.6 21.1l15.6 4.2c5.7 1.5 10-1.4 13.5-3.9z" clip-rule="evenodd"/><path d="M3654.3 2320c26.2-30.8 61.2-67.1 84-100.1 18.3-32.6 67.6 12.1 47.3 36.7-35.1 42.6-71.1 84.5-90.5 103.8-3.6 6.3-41.4-26.4-40.8-40.4z" class="st99"/><path d="M3757.1 2829c-11.6 17.6-49.1 4.1-49.1 3.9-2.4-5.6-9.5-11.3-21-17.3-11.4-6-27.1-12.3-36.8-23.9-14.9-15.5-19.4-25.6-17.5-31.7 1.4 6.1 6.7 14.5 17.5 25.7 9.7 11.6 25.4 17.9 36.8 23.9 11.5 6.1 18.7 11.7 21 17.3 0 .2 37.5 13.7 49.1-3.9.2-2.6.6-6 .8-9.9.3 6.3-.5 12-.8 15.9zM3659.5 2865.4c.4 5.6-.2 11.5-2.7 17.6.6 5.8-42.5 8.5-46.3.9-3.2-1.8-2.3-6.4-20.2-.9s-55 5.5-62.3 3.2c-28.1-8.8-35.9-16.2-32-22.2 2.9 4.7 12.6 10.2 32 16.2 7.3 2.3 44.4 2.3 62.3-3.2s17-.9 20.2.9c3.8 7.6 46.9 4.9 46.3-.9 1.6-3.9 2.4-7.8 2.7-11.6z" class="st74"/><path d="M3757.1 2823c-11.6 17.6-49.1 4.1-49.1 3.9-2.4-5.6-9.5-11.3-21-17.3-11.4-6-27.1-12.3-36.8-23.9-33.2-34.5-14.6-42.1 10-38.8 13 1.8 28.5 5.5 39.9 10.7 21.3 9.8 44.1 24.8 51.8 29.4 8.4 12.7 5.8 28.1 5.2 36zM3656.8 2845c2.7 10.2 4.6 20.6 0 32.1.6 5.8-42.5 8.5-46.3.9-3.2-1.8-2.3-6.4-20.2-.9s-55 5.5-62.3 3.2c-54.4-17-32.6-28.8 2.3-35.3 18-3.3 61.4-21.1 74.7-21.5 17.3 7.1 34.5 14.3 51.8 21.5z" class="st88"/><path d="M3662.1 2362.4h25.9c17.1 0 50.7 6.1 67.7 6.1 10.8 74-13.5 139.1-10.1 209.5 1.5 30.4 7 59.5 8.4 88.8 2.6 53.7 6.2 84.8 8.8 138.5 1.1 6.7-69 10.7-76.6-6.2-3.9-80.7-9.5-153.1-23.4-219.3-6-68.6-1.5-145.9-.7-217.4z" class="st100"/><path d="M3798.7 2112.2c1 24.7 4.1 103.5-10.9 140.9-2.1 5.2-12.1 9.6-23.5 10.5-9.4.8-23.3-2.7-27-13-10.4-29.1-8.3-103.6-9.4-129.8-1.1-28.6 14.7-52.8 32-61.3 17.2-8.2 37 6 38.8 52.7zM3569.3 2368.6c31 0 91.7 3.7 122.7 3.7 4.9 44.9-11.6 121.8-17.6 165.5-4 29.3-14.1 61.5-14.1 90.9 0 30.8 4.9 60.3 4.9 90.1 0 54.4-1.8 80.7-1.8 135.2 1.4 10.6-64.7 12.2-71.4-1.8 0-81.9-6.9-179.5-19.7-246.8-1.1-31.6-9.2-69.9-10-107.9-1-44.7 4.7-89.3 7-128.9z" class="st99"/><path d="M3614.8 2085.3c34.2-16 69.3-23.2 105.2-33.5 67.9-19.4 83.7 29.6 75.7 77.8-9.9 59-27.4 85.5-32.9 123.8-3.9 27.1-4.1 98.6 2 154.4-3.6 11.1-44.1 17.8-70.5 22.4l-2-27.3-2.8 28.1c-34.3 5.9-102.3 14.6-128.6-8.7 7.7-38.6 11.2-92.9 13.7-132.4 1.8-29-10-98.2-9.1-128.4 1.1-40.3 7.2-56.6 49.3-76.2z" class="st90"/><path d="M3646.6 2083.6c2.6-9.9 2.9-20.2 0-31.2-5.5-.8-11.2-1.6-17.1-2.4-17.1-2.3-15.2-8.2-18-25.7-1.1-6.7-1.9-13.6-2.5-20-1.5-18.3 4.8-18.6 5-23.8.2-5.1-3.7-12.4-3.2-16.7 2.7-23.7 9.9-35.6 19-42.2 25.4 7.1 50.7 14.3 76.1 21.4.9 42.9 1.7 85.8 12.3 124.6-19.6 14.9-44 19-71.6 16z" class="st73"/><path fill="#a3866f" fill-rule="evenodd" d="M3643 2000c4.7-2.2 7.2-.3 9.2 2.6 3.4-14.1 10.2-17.1 17.9-9.1 8.3 8.6 9.4 28.1-4 24.5 6.8 10.3 9.8 21.1 10.5 32.2 13.8.5 25.9-1.2 36.3-5.1 3.6-20.4 18.4-33.7 23.4-42.4 11.7-20.3 11.6-40.3 6.1-56.5-8.9-26.1-25.4-38.5-52.1-41.5-21.8-2.5-52.5-.4-65.9 8-12.5 7.8-6.2 20.6 16.5 31.1-11.4 27.1 6.6 38.2 2.1 56.2z" clip-rule="evenodd"/><path fill="#997d69" fill-rule="evenodd" d="M3643 2000c4.7-2.3 7.2-.3 9.2 2.6 3.4-14.1 10.2-17.1 17.9-9.1 8.3 8.6 9.4 28.1-4 24.5 6.8 10.3 9.8 21.1 10.5 32.2 1.9.1 3.7.1 5.5.1 5.8-13.2 13.6-22.9 16.9-30.1 11.7-25.1 11.6-49.8 6.1-69.8-6.8-24.6-18-39.4-34.8-46.6-17.7.2-36.3 2.9-45.9 9-12.5 7.8-6.2 20.6 16.5 31.1-11.4 27 6.6 38.1 2.1 56.1z" clip-rule="evenodd"/><path d="M3624.5 2048.8c25.8-1.4 49.4-3.4 49.1-15.5 1.8 5.5 2.8 11.1 3.1 16.8 13.8.5 25.9-1.2 36.3-5.1.3 2 .7 3.9 1.1 5.9-13.4 8.7-48.5 13.6-65.6 14.4-.2-4.2-.8-8.4-2-12.7-7.2-1.1-14.3-2.7-22-3.8z" class="st80"/><path fill="#907260" fill-rule="evenodd" d="M3725.5 1918.6c-2.6-2.3-5.3-4.2-8.3-6-7.1-4-13.9-6-21.9-7.4-4.5-.7-8.9-1.1-13.4-1.4-7.3-.4-14.5-.3-21.8.1-5.3.4-10.4 1-15.6 1.9-4.3.8-8.4 1.8-12.5 3.2-3.1 1.1-5.9 2.4-8.6 4.2-3.1 2.3-5.5 5.2-5.2 9.3.3 2.8 1.4 4.9 3 7.1 2.7 3.5 5.9 6 9.6 8.4 3.3 2.1 6.7 3.9 10.3 5.6 6.8-2.3 28-18.7 53.9-18.5 9.9.2 23.6-1.9 30.5-6.5z" clip-rule="evenodd"/><path d="M3626.4 2153.3c-6 24-25 100.5-49.8 132.3-3.4 4.4-14.3 5.8-25.5 3.5-9.3-1.9-21.6-9-22.3-20-1.9-30.8 20.9-101.8 27.2-127.2 6.9-27.8 28.8-46.6 47.9-49.9 18.7-3.3 33.8 15.9 22.5 61.3z" class="st104"/><path d="M3373.6 2242.3l25-3.1 67.6 8.7 10.7 30.4c-8.3 2.2-51.4-.8-99.1-.8-12 1.5.2 0-11.8 1.5-8.1 1.3-21-4.2-13.4-16.5 2.9-4.6 5.7-9.2 8.4-13.8 3.2-5 8.4-5.9 12.6-6.4z" class="st73"/><path d="M3429.5 2233.5c40.4.4 90.8 4 130.6.4 36.8-6.8 34.1 59.6 2.1 59.8-55.2.4-110.4-.4-137.7-2.9-7.1 1.1-6.1-48.9 5-57.3zM3620.2 2082.8c12.5 2.3 25.3 4.4 38 4.4 29.4.1 53-6.3 69.5-20.4.6-6.8 0-13.6-4.5-20.4-18.8 7.1-34 14.8-73.4 18.2-9.8 4.8-25.6 13.8-29.6 18.2z" class="st104"/></g><g><g fill-rule="evenodd" clip-rule="evenodd"><path fill="#e4b6b8" d="M1948.1 1877.6l19.7 15.8 40.9 54.5-14.3 28.9c-7.4-4.4-35.3-37.3-68.5-71.6-9.4-7.6.1.1-9.3-7.5-6.5-4.9-11.7-18 2.5-21.1 5.3-1.2 10.5-2.4 15.8-3.6 5.6-1.2 9.9 2 13.2 4.6z"/><path fill="#8a39bc" d="M1993.4 1911.5c27.9 29.2 60.5 67.8 90.9 93.8 30.6 21.6-18.9 66-41.4 43.2-38.8-39.3-76.7-79.4-94-100.7-5.8-4.1 30.7-38.3 44.5-36.3z"/></g><path d="M1783.7 2651.7c11.6 17.6 49.1 4.1 49.1 3.9 2.4-5.6 9.5-11.3 21-17.3 11.4-6 27.1-12.3 36.8-23.9 14.9-15.5 19.4-25.6 17.5-31.7-1.4 6.1-6.7 14.5-17.5 25.7-9.7 11.6-25.4 17.9-36.8 23.9-11.5 6.1-18.7 11.7-21 17.3 0 .2-37.5 13.7-49.1-3.9-.2-2.6-.6-6-.8-9.9-.3 6.3.5 12 .8 15.9zM1881.3 2688.1c-.4 5.6.2 11.5 2.7 17.6-.6 5.8 42.5 8.5 46.3.9 3.2-1.8 2.3-6.4 20.2-.9s55 5.5 62.3 3.2c28.1-8.8 35.9-16.2 32-22.2-2.9 4.7-12.6 10.2-32 16.2-7.3 2.3-44.4 2.3-62.3-3.2s-17-.9-20.2.9c-3.8 7.6-46.9 4.9-46.3-.9-1.6-4-2.4-7.8-2.7-11.6z" class="st88"/><path d="M1783.7 2645.7c11.6 17.6 49.1 4.1 49.1 3.9 2.4-5.6 9.5-11.3 21-17.3 11.4-6 27.1-12.3 36.8-23.9 33.2-34.5 14.6-42.1-10-38.8-13 1.8-28.5 5.5-39.9 10.7-21.3 9.8-44.1 24.8-51.8 29.4-8.4 12.7-5.9 28.1-5.2 36zM1884 2667.6c-2.7 10.2-4.6 20.6 0 32.1-.6 5.8 42.5 8.5 46.3.9 3.2-1.8 2.3-6.4 20.2-.9s55 5.5 62.3 3.2c54.4-17 32.6-28.8-2.3-35.3-18-3.3-61.4-21.1-74.7-21.5-17.3 7.2-34.5 14.4-51.8 21.5z" class="st107"/><path d="M1878.7 2185h-25.9c-17.1 0-51-22.6-68.1-22.6-2.2 15.2-2.6 58.7-2.4 73.3.8 56.4 15.6 109 12.9 165-1.5 30.4-7 59.5-8.4 88.8-2.6 53.7-6.2 84.8-8.8 138.5-1.1 6.7 69 10.7 76.6-6.2 3.9-80.7 9.5-153.1 23.4-219.3 6-68.7 1.5-145.9.7-217.5z" class="st100"/><path d="M1747.1 1934.9c1.3 24.7 5.5 103.5 23.9 140.9 2.6 5.2 13 9.6 24.4 10.5 9.5.8 23-2.7 25.8-13 7.7-29.1-1.2-103.6-2.6-129.8-1.5-28.6-19.5-52.8-37.7-61.3-17.7-8.3-36.3 6-33.8 52.7z" class="st108"/><path d="M1966.5 2158.4c-31 0-133.8-22.6-133 50.4-4.9 88.6 27 67 32.9 151.7 2.1 29.5 14.1 61.5 14.1 90.9 0 30.8-4.9 60.3-4.9 90.1 0 54.4 1.8 80.7 1.8 135.2-1.4 10.6 64.7 12.2 71.4-1.8 0-81.9 6.9-179.5 19.7-246.8 1.1-31.6 9.2-69.9 10-107.9.6-30-1.7-60.1-4-88.6-1.1-14-7.2-60.3-8-73.2z" class="st99"/><path d="M1926 1908c-34.2-16-69.3-23.2-105.2-33.5-67.9-19.4-83.7 29.6-75.7 77.8 9.9 59 27.6 85.4 32.9 123.8 2.4 17.2 3.3 71.8 2 110.1 14.1 35.2 194.9 51.7 194.3 19.1-1.9-21.2-7-74.8-8.1-92.7-1.8-29 10-98.2 9.1-128.4-1.1-40.4-7.2-56.6-49.3-76.2z" class="st108"/><path d="M1894.2 1906.3c-2.6-9.9-2.9-20.2 0-31.2 5.5-.8 11.2-1.6 17.1-2.4 17.1-2.3 15.2-8.1 18-25.7 1.1-6.7 1.9-13.6 2.5-20 1.5-18.3-4.8-18.6-5-23.8-.2-5.1 3.7-12.4 3.2-16.7-2.7-23.7-9.9-35.6-19-42.2-25.4 7.1-50.7 14.3-76.1 21.5-.9 42.9-1.7 85.8-12.3 124.6 19.6 14.8 44 18.9 71.6 15.9z" class="st73"/><path fill="#ca9d51" fill-rule="evenodd" d="M1897.8 1822.7c-4.7-2.3-7.2-.3-9.2 2.6-3.4-14.1-10.2-17.1-17.9-9.1-8.3 8.6-9.4 28.1 4 24.5-6.8 10.3-9.8 21.1-10.5 32.2-13.8.5-25.9-1.2-36.3-5.1-3.6-20.4-18.4-33.7-23.4-42.4-11.7-20.3-11.6-40.3-6.1-56.5 8.9-26.1 25.4-38.5 52.1-41.5 21.8-2.5 52.5-.4 65.9 8 12.5 7.8 6.2 20.6-16.5 31.1 11.4 27.1-6.6 38.1-2.1 56.2z" clip-rule="evenodd"/><path fill="#be924e" fill-rule="evenodd" d="M1897.8 1822.7c-4.7-2.3-7.2-.3-9.2 2.6-3.4-14.1-10.2-17.1-17.9-9.1-8.3 8.6-9.4 28.1 4 24.5-6.8 10.3-9.8 21.1-10.5 32.2-1.9.1-3.7.1-5.5.1-5.8-13.2-13.6-22.9-16.9-30.1-11.7-25.1-11.6-49.8-6.1-69.8 6.8-24.6 18-39.4 34.8-46.6 17.7.2 36.3 2.9 45.9 9 12.5 7.8 6.2 20.6-16.5 31.1 11.4 27-6.6 38-2.1 56.1z" clip-rule="evenodd"/><path d="M1916.3 1871.5c-25.8-1.4-49.4-3.4-49.1-15.5-1.8 5.5-2.8 11.1-3.1 16.8-13.8.5-25.9-1.2-36.3-5.1-.3 2-.7 3.9-1.1 5.9 13.4 8.7 48.5 13.6 65.6 14.4.2-4.2.8-8.4 2-12.7 7.2-1.2 14.2-2.7 22-3.8z" class="st80"/><path fill="#b3884c" fill-rule="evenodd" d="M1815.3 1741.3c2.6-2.3 5.3-4.2 8.3-6 7.1-4 13.9-6 21.9-7.4 4.5-.7 8.9-1.1 13.4-1.4 7.3-.4 14.5-.3 21.8.1 5.3.4 10.4 1 15.6 1.9 4.3.8 8.4 1.8 12.5 3.2 3.1 1.1 5.9 2.4 8.6 4.2 3.1 2.3 5.5 5.2 5.2 9.3-.3 2.8-1.4 4.9-3 7.1-2.7 3.5-5.9 6-9.6 8.4-3.3 2.1-6.7 3.9-10.3 5.6-6.8-2.3-28-18.7-53.9-18.5-9.9.2-23.6-1.9-30.5-6.5z" clip-rule="evenodd"/><path fill="#9345c2" fill-rule="evenodd" d="M1935.7 1997.6c19.9 14.6 80.7 64 119.9 73.5 16.8 4.1 34.6-1.4 41.7-10.3 5.9-7.4 2.2-38.2-4.3-47.1-18.3-24.9-84.1-63.6-105.2-79.1-23.1-16.9-52-17.3-68.7-7.7-16.5 9.5-21.1 43.1 16.6 70.7z" clip-rule="evenodd"/></g></g><g><path d="M2802.1 1757.9l-22.4-13.3-33.6 19.4 22.7 13.1 33.3-19.2zm-243 140.2l176.5-101.9-22.7-13.1-177.9 102.6-31.9 18.4 22.7 13.1 33.3-19.1zm-91.2-52.5l-56.4 32.6-22.7-13.1 55.1-31.8 96.6-55.8 22.7 13.1-95.3 55zm-112.4 38.7l-24.8 14.3 22.7 13.1 24.8-14.3-22.7-13.1zm-58 33.4l-18.8 10.8 22.7 13.1 18.8-10.8-22.7-13.1zm215.9-46l-166.6 96.1-22.7-13.1 165.3-95.4 42.1-24.3 22.7 13.1-40.8 23.6zm-43.4 51.6l-100.2 57.8 22.7 13.1 100.2-57.8-22.7-13.1zm240.9-217.9l-22.4-13.3-56.8 32.8 22.7 13.1 56.5-32.6zm-112.4 38.6l-24.8 14.3 22.7 13.1 24.8-14.3-22.7-13.1zm157.9-12.5l-169 97.5-22.7-13.1 169.3-97.7 22.4 13.3zM2975.3 1857.6l-22.4-13.3-33.6 19.4 22.7 13.1 33.3-19.2zm-243 140.2l176.5-101.9-22.7-13.1-177.9 102.6-31.9 18.4 22.7 13.1 33.3-19.1zm-45.7-26.4l-166.6 96.1-22.7-13.1 165.3-95.4 42.1-24.3 22.7 13.1-40.8 23.6zm-43.4 51.6l-100.2 57.8 22.7 13.1 100.2-57.8-22.7-13.1zm286.4-191.8l-169 97.5-22.7-13.1 169.3-97.7 22.4 13.3z" class="st113"/><path d="M3354.1 1552.8l16.5-10.8 1.6-.9 1.8-.6 1.9-.4 2-.1 2.1.2 2.2.6 2.3.9 2.3 1.2 205.8 118.7 2.3 1.5 2.3 1.8 2.2 2 2.1 2.2 2 2.4 1.9 2.5 1.8 2.7 1.6 2.8 1.5 2.9 1.3 3 1.2 3 1 3.1.8 3.1.6 3.1.3 3.1.1 3v130.7l-.1 2.9-.3 2.7-.6 2.4-.8 2.2-1 2-1.2 1.7-1.3 1.5-16.5 10.8 1.3-1.5 1.2-1.7 1-2 .8-2.2.6-2.4.3-2.7.1-2.9v-130.7l-.1-3-.3-3.1-.6-3.1-.8-3.1-1-3.1-1.2-3-1.3-3-1.5-2.9-1.6-2.8-1.8-2.7-1.9-2.5-2-2.4-2.1-2.2-2.2-2-2.3-1.8-2.3-1.5-205.8-118.7-2.3-1.2-2.3-.9-2.2-.6-2.1-.2-2 .1-1.9.4-1.8.6-1.6.9zm208.4 300.1l4.4 71.3 16.5-10.8-4.4-71.3-16.5 10.8z" class="st114"/><path d="M3615.1 1697.8l.3 3 .1 3v130.7l-.1 2.9-.3 2.7-.6 2.4-.8 2.2-1 2-1.2 1.7-1.3 1.5-16.5 10.8 1.3-1.5 1.2-1.7 1-2 .8-2.2.6-2.4.3-2.7.1-2.9v-130.7l-.1-3-.3-3.1-.2-1.1 16.7-9.6zm-52.6 155.1l16.5-10.8 4.4 71.3-16.5 10.8-4.4-71.3z" class="st16"/><path d="M3370.4 1553.8l205.8 118.7c12.7 7.3 23 26.2 23 42.1v130.7c0 15.9-10.4 22.8-23 15.5l-13.6-7.8 4.4 71.3-67.2-107.5-129.4-74.6c-12.7-7.3-23-26.2-23-42.1v-130.7c-.1-16 10.3-23 23-15.6z" class="st18"/><path d="M3568.4 1928.8l-69.5-111.2-129.1-74.5c-13-7.5-23.6-26.9-23.6-43.1v-130.7c0-8.4 2.9-15 8-17.9 4.7-2.7 10.6-2.2 16.8 1.3l205.8 118.7c13 7.5 23.6 26.9 23.6 43.1v130.7c0 8.4-2.9 15-8 17.9-4.7 2.7-10.6 2.2-16.8-1.3l-11.7-6.7 4.5 73.7zM3360.8 1552c-2 0-3.8.5-5.4 1.4-4.4 2.5-6.9 8.3-6.9 15.9V1700c0 15.5 10.1 33.9 22.4 41.1l129.6 74.8.2.3 64.8 103.6-4.3-68.8 15.5 8.9c5.4 3.1 10.5 3.6 14.4 1.3 4.4-2.5 6.9-8.3 6.9-15.9v-130.7c0-15.5-10.1-33.9-22.4-41.1l-205.8-118.7c-3.2-1.8-6.2-2.8-9-2.8z" class="st0"/><path d="M3495 1656.7l25.2 14.6c3.3 1.9 6 6.3 6 9.8v11.1c3.2 2.2 6.1 5.4 8.2 8.9 2.5 4 4 8.5 4 12.5v68.6c0 4-1.5 6.7-4 7.8-2.5 1.2-5.9.8-9.6-1.3l-110.2-63.8c-3.7-2.2-7.2-5.8-9.6-9.8-2.5-4-4-8.5-4-12.5V1634c0-4 1.5-6.7 4-7.9 2.5-1.2 5.9-.8 9.6 1.3l74.4 43.1v-11.1c0-3.3 2.6-4.6 6-2.7zm19.1 23.8l-13.2-7.6v4.3l13.2 7.6v-4.3zm-95.8-32.1v12.9l22.3 12.9v-12.9l-22.3-12.9zm51.3 34.5c-7.2-4.2-13.8-4.9-18.6-2.8l-.4.1c-4.8 2.3-7.9 7.7-7.9 15.5s3 16.6 7.8 24.5v.1c4.9 7.9 11.6 15 18.9 19.3 7.4 4.3 14.1 5 19 2.7s7.9-7.7 7.9-15.5-3-16.6-7.9-24.6c-4.7-7.9-11.4-15-18.8-19.3zm10.5 23.3c-2.7-4.4-6.4-8.3-10.5-10.7-4-2.3-7.6-2.8-10.2-1.6l-.3.1c-2.7 1.3-4.3 4.2-4.3 8.6 0 4.3 1.7 9.2 4.3 13.6 2.7 4.4 6.4 8.3 10.5 10.6 4.1 2.4 7.8 2.8 10.5 1.5 2.7-1.3 4.3-4.2 4.3-8.6.1-4.2-1.6-9.1-4.3-13.5zm44.6-2.2l-110.2-63.8c-.5-.3-.9-.3-1.2-.2-.3.1-.5.5-.5 1v68.6c0 .5.2 1 .5 1.5s.7.9 1.2 1.2l110.2 63.8c.5.3.9.3 1.2.2.3-.1.5-.5.5-1v-68.6c0-.5-.2-1-.5-1.5s-.7-.9-1.2-1.2z" class="st16"/><path d="M2733.1 283.6l16.5-10.8 1.6-.9 1.8-.6 1.9-.4 2-.1 2.1.2 2.2.6 2.3.9 2.3 1.2 205.8 118.7 2.3 1.5 2.3 1.8 2.2 2 2.1 2.2 2 2.4 1.9 2.5 1.8 2.7 1.6 2.8 1.5 2.9 1.3 3 1.2 3 1 3.1.8 3.1.6 3.1.3 3.1.1 3v130.7l-.1 2.9-.3 2.7-.6 2.4-.8 2.2-1 2-1.2 1.7-1.3 1.5-16.5 10.8 1.3-1.5 1.2-1.7 1-2 .8-2.2.6-2.4.3-2.7.1-2.9V445.4l-.1-3-.3-3.1-.6-3.1-.8-3.1-1-3.1-1.2-3-1.3-3-1.5-2.9-1.6-2.8-1.8-2.7-1.9-2.5-2-2.4-2.1-2.2-2.2-2-2.3-1.8-2.3-1.5-205.8-118.7-2.3-1.2-2.3-.9-2.2-.6-2.1-.2-2 .1-1.9.4-1.8.6-1.6.9zm208.5 300.1l4.4 71.3 16.5-10.8-4.4-71.3-16.5 10.8z" class="st114"/><path d="M2994.2 428.5l.3 3 .1 3v130.7l-.1 2.9-.3 2.7-.6 2.4-.8 2.2-1 2-1.2 1.7-1.3 1.5-16.5 10.8 1.3-1.5 1.2-1.7 1-2 .8-2.2.6-2.4.3-2.7.1-2.9V445.4l-.1-3-.3-3.1-.2-1.2 16.7-9.6zm-52.6 155.2l16.5-10.8 4.4 71.3L2946 655l-4.4-71.3z" class="st16"/><path d="M2749.4 284.6l205.8 118.7c12.7 7.3 23 26.2 23 42.1V576c0 15.9-10.4 22.8-23 15.5l-13.6-7.8 4.4 71.3-67.2-107.5-129.4-74.6c-12.7-7.3-23-26.2-23-42.1V300.1c0-15.9 10.3-22.8 23-15.5z" class="st18"/><path d="M2947.5 659.6L2878 548.4l-129.1-74.5c-13-7.5-23.6-26.9-23.6-43.1V300.1c0-8.4 2.9-15 8-17.9 4.7-2.7 10.6-2.2 16.8 1.3l205.8 118.7c13 7.5 23.6 26.9 23.6 43.1V576c0 8.4-2.9 15-8 17.9-4.7 2.7-10.6 2.2-16.8-1.3l-11.7-6.7 4.5 73.7zm-207.7-376.8c-2 0-3.8.5-5.4 1.4-4.4 2.5-6.9 8.3-6.9 15.9v130.7c0 15.5 10.1 33.9 22.4 41.1l129.6 74.8.2.3 64.8 103.6-4.3-68.8 15.5 8.9c5.4 3.1 10.5 3.6 14.4 1.3 4.4-2.5 6.9-8.3 6.9-15.9V445.4c0-15.5-10.1-33.9-22.4-41.1l-205.8-118.7c-3.1-1.8-6.2-2.8-9-2.8z" class="st0"/><path d="M2853.9 380.9v6.6c4.1 2.8 7.7 5.8 10.6 8.8 3 3.1 5.5 6.6 7.7 10.6 1.7 3.1 3.1 6 4 8.7.9 2.8 1.4 5 1.4 6.9 0 2-.7 3.4-2.1 4.1-1.4.7-3.1.4-5.1-.7-3.8-2.2-6.3-5.8-7.4-10.7-1.3-5.8-4.3-11-9.2-15.5v25.4c4.8 4.1 8.6 7.6 11.4 10.4 2.8 2.8 5.4 5.9 7.6 9.4 2.4 3.6 4.2 7.4 5.5 11.2 1.3 3.9 1.9 7.6 1.9 11.4 0 4.6-1 8.4-3.1 11.2-2.1 2.9-5.1 4.4-9.1 4.7-4 .2-8.8-1-14.3-3.7v15.2c0 2.4-.2 4-.7 4.9-.4.9-1.4.8-2.9 0-1.4-.8-2.3-1.8-2.9-3-.6-1.2-.8-2.8-.8-4.6v-16.5c-4.5-3.1-8.4-6.5-11.8-10.2-3.4-3.7-6.2-7.4-8.4-11.3-2.3-3.9-3.9-7.5-5-10.8-1.1-3.4-1.6-6.4-1.6-9 0-1.9.7-3.3 2.2-4 1.4-.7 3.2-.5 5.4.8 1.7 1 3.2 2.3 4.4 3.8 1.2 1.5 2 3.2 2.5 5 1 3.9 1.9 7 2.7 9.2.8 2.2 2 4.5 3.5 6.9 1.6 2.4 3.6 4.7 6.2 7v-28.4c-5.2-4.5-9.5-8.7-12.9-12.5-3.5-3.9-6.3-8.1-8.4-12.8-2.2-4.7-3.2-9.7-3.2-15.1 0-7 2.1-11.5 6.3-13.5 4.2-2 10.3-1.1 18.3 2.8v-6.5c0-3.4 1.2-4.4 3.6-3 2.4 1.1 3.7 3.5 3.7 6.8zm-7.4 37.7v-23.4c-3.2-.9-5.8-1-7.6-.4-1.8.6-2.7 2.6-2.7 6 0 3.2.8 6.1 2.5 8.8 1.8 2.7 4.4 5.7 7.8 9zm7.4 22.4v26.8c3.9 1.4 6.9 1.5 9 .3 2.1-1.3 3.2-3.5 3.2-6.9 0-3.5-1-6.9-3.1-10-2.1-3.2-5.1-6.6-9.1-10.2z" class="st16"/><g><path d="M1481.5 1425.7l16.5-10.8 1.6-.9 1.8-.6 1.9-.4 2-.1 2.1.2 2.2.6 2.3.9 2.3 1.2 205.8 118.7 2.3 1.5 2.3 1.8 2.2 2 2.1 2.2 2 2.4 1.9 2.5 1.8 2.7 1.6 2.8 1.5 2.9 1.3 3 1.2 3 1 3.1.8 3.1.6 3.1.3 3.1.1 3v130.7l-.1 2.9-.3 2.7-.6 2.4-.8 2.2-1 2-1.2 1.7-1.3 1.5-16.5 10.8 1.3-1.5 1.2-1.7 1-2 .8-2.2.6-2.4.3-2.7.1-2.9v-130.7l-.1-3-.3-3.1-.6-3.1-.8-3.1-1-3.1-1.2-3-1.3-3-1.5-2.9-1.6-2.8-1.8-2.7-1.9-2.5-2-2.4-2.1-2.2-2.2-2-2.3-1.8-2.3-1.5-205.8-118.7-2.3-1.2-2.3-.9-2.2-.6-2.1-.2-2 .1-1.9.4-1.8.6-1.6.9zm208.4 300.1l4.4 71.3 16.5-10.8-4.4-71.3-16.5 10.8z" class="st114"/><path d="M1742.9 1575.2l.1 1.4v130.7l-.1 2.9-.3 2.7-.6 2.4-.8 2.2-1 2-1.2 1.7-1.3 1.5-16.5 10.8 1.3-1.5 1.2-1.7 1-2 .8-2.2.6-2.4.3-2.7.1-2.9v-130.7l-.1-2.7 16.5-9.5zm-53 150.6l16.5-10.8 4.4 71.3-16.5 10.8-4.4-71.3z" class="st16"/><path d="M1497.7 1426.6l205.8 118.7c12.7 7.3 23 26.2 23 42.1v130.7c0 15.9-10.4 22.8-23 15.5l-13.6-7.8 4.4 71.3-67.2-107.5-129.4-74.6c-12.7-7.3-23-26.2-23-42.1v-130.7c0-15.9 10.4-22.9 23-15.6z" class="st18"/><path d="M1695.8 1801.7l-69.5-111.2-129.1-74.5c-13-7.5-23.6-26.9-23.6-43.1v-130.7c0-8.4 2.9-15 8-17.9 4.7-2.7 10.6-2.2 16.8 1.3l205.8 118.7c13 7.5 23.6 26.9 23.6 43.1v130.7c0 8.4-2.9 15-8 17.9-4.7 2.7-10.6 2.2-16.8-1.3l-11.7-6.7 4.5 73.7zm-207.6-376.8c-2 0-3.8.5-5.4 1.4-4.4 2.5-6.9 8.3-6.9 15.9v130.7c0 15.5 10.1 33.9 22.4 41.1l129.6 74.8 64.9 103.8-4.3-68.9 15.5 8.9c5.4 3.1 10.5 3.6 14.4 1.3 4.4-2.5 6.9-8.3 6.9-15.9v-130.7c0-15.5-10.1-33.9-22.4-41.1l-205.8-118.7c-3.1-1.7-6.2-2.6-8.9-2.6z" class="st0"/><path d="M1582.6 1579.5c7.9 4.6 15.1 10.5 20.7 16.5v-64.3l.3.2c10.4-3 16 1.2 21.8 8.5 11.4 14.4 6.7 16.1 25.8 25.3-12.1 9-23.5-5.7-34-18.9-.8-1-1.8-1.7-2.8-2.2v72.2c-.1 10.2-14.3 10.3-31.8.1-17.6-10.2-31.8-26.8-31.8-37.1 0-10.4 14.3-10.5 31.8-.3z" class="st16"/></g><g><path d="M3910.4 442.4l-16.5-10.8-1.6-.9-1.8-.6-1.9-.4-2-.1-2.1.2-2.2.6-2.3.9-2.3 1.2-205.8 118.7-2.3 1.5-2.3 1.8-2.2 2-2.1 2.2-2 2.4-1.9 2.5-1.8 2.7-1.6 2.8-1.5 2.9-1.3 3-1.2 3-1 3.1-.8 3.1-.6 3.1-.3 3.1-.1 3V724l.1 2.9.3 2.7.6 2.4.8 2.2 1 2 1.2 1.7 1.3 1.5 16.5 10.8-1.3-1.5-1.2-1.7-1-2-.8-2.2-.6-2.4-.3-2.7-.1-2.9V604.1l.1-3 .3-3.1.6-3.1.8-3.1 1-3.1 1.2-3 1.3-3 1.5-2.9 1.6-2.8 1.8-2.7 1.9-2.5 2-2.4 2.1-2.2 2.2-2 2.3-1.8 2.3-1.5 205.8-118.7 2.3-1.2 2.3-.9 2.2-.6 2.1-.2 2 .1 1.9.4 1.8.6 1.6 1zM3702 742.5l-4.4 71.3-16.5-10.8 4.4-71.3 16.5 10.8z" class="st115"/><path d="M3648.9 596.2V724l.1 2.9.3 2.7.6 2.4.8 2.2 1 2 1.2 1.7 1.3 1.5 16.5 10.8-1.3-1.5-1.2-1.7-1-2-.8-2.2-.6-2.4-.3-2.7-.1-2.9V605.7l-16.5-9.5zm53.1 146.3l-16.5-10.8-4.4 71.3 16.5 10.8 4.4-71.3z" class="st116"/><path d="M3894.1 443.3L3688.4 562c-12.7 7.3-23 26.2-23 42.1v130.7c0 15.9 10.4 22.8 23 15.5l13.6-7.8-4.4 71.3 67.2-107.5 129.4-74.6c12.7-7.3 23-26.2 23-42.1V458.9c-.1-15.9-10.4-22.9-23.1-15.6z" class="st18"/><path d="M3696.1 818.4l4.6-73.8-11.7 6.7c-6.2 3.6-12.1 4-16.8 1.3-5.1-2.9-8-9.5-8-17.9V604.1c0-16.3 10.6-35.6 23.6-43.1l205.8-118.7c6.2-3.6 12.1-4 16.8-1.3 5.1 2.9 8 9.5 8 17.9v130.7c0 16.3-10.6 35.6-23.6 43.1l-129.1 74.5-69.6 111.2zm7.2-78l-4.3 68.9 64.9-103.8.3-.1 129.4-74.6c12.4-7.1 22.4-25.6 22.4-41.1V458.9c0-7.6-2.5-13.3-6.9-15.9-3.9-2.2-9-1.8-14.4 1.3L3688.9 563c-12.4 7.1-22.4 25.6-22.4 41.1v130.7c0 7.6 2.5 13.3 6.9 15.9 3.9 2.2 9 1.8 14.4-1.3l15.5-9z" class="st0"/><path d="M3704.5 598.7l58.6-33.6v14.7l-58.6 33.6v-14.7zm77.4-44.5l60.2-34.5v14.7l-60.2 34.5v-14.7zm79-45.3l28.2-16.2v14.7l-28.2 16.2v-14.7zm-156.4 161.9l100-57.4v14.7l-100 57.4v-14.7zm118.9-68.2l20.6-11.8v14.7l-20.6 11.8v-14.7zm39.5-22.6l26.2-15.1v14.7l-26.2 15.1V580zm-158.4 55.6v14.7l58.6-33.6V602l-58.6 33.6zm77.4-44.4v14.7l107.2-61.5v-14.7l-107.2 61.5z" class="st16"/></g><g><path d="M2781.1 1885l-16.5-10.8-1.6-.9-1.8-.6-1.9-.4-2-.1-2.1.2-2.2.6-2.3.9-2.3 1.2-205.8 118.7-2.3 1.5-2.3 1.8-2.2 2-2.1 2.2-2 2.4-1.9 2.5-1.8 2.7-1.6 2.8-1.5 2.9-1.3 3-1.2 3-1 3.1-.8 3.1-.6 3.1-.3 3.1-.1 3v130.7l.1 2.9.3 2.7.6 2.4.8 2.2 1 2 1.2 1.7 1.3 1.5 16.5 10.8-1.3-1.5-1.2-1.7-1-2-.8-2.2-.6-2.4-.3-2.7-.1-2.9v-130.7l.1-3 .3-3.1.6-3.1.8-3.1 1-3.1 1.2-3 1.3-3 1.5-2.9 1.6-2.8 1.8-2.7 1.9-2.5 2-2.4 2.1-2.2 2.2-2 2.3-1.8 2.3-1.5 205.8-118.7 2.3-1.2 2.3-.9 2.2-.6 2.1-.2 2 .1 1.9.4 1.8.6 1.6.9zm-208.4 300.1l-4.4 71.3-16.5-10.8 4.4-71.3 16.5 10.8z" class="st115"/><path d="M2519.6 2043v123.7l.1 2.9.3 2.7.6 2.4.8 2.2 1 2 1.2 1.7 1.3 1.5 16.5 10.8-1.3-1.5-1.2-1.7-1-2-.8-2.2-.6-2.4-.3-2.7-.1-2.9v-125l-16.5-9.5zm53.1 142.1l-16.5-10.8-4.4 71.3 16.5 10.8 4.4-71.3z" class="st116"/><path d="M2764.8 1886L2559 2004.7c-12.7 7.3-23 26.2-23 42.1v130.7c0 15.9 10.4 22.8 23 15.5l13.6-7.8-4.4 71.3 67.2-107.5 129.4-74.6c12.7-7.3 23-26.2 23-42.1v-130.7c.1-16-10.3-22.9-23-15.6z" class="st18"/><path d="M2566.8 2261l4.6-73.8-11.7 6.7c-6.2 3.5-12.1 4-16.8 1.3-5.1-2.9-8-9.5-8-17.9v-130.7c0-16.3 10.6-35.6 23.6-43.1l205.8-118.7c6.2-3.5 12.1-4 16.8-1.3 5.1 2.9 8 9.5 8 17.9v130.7c0 16.3-10.6 35.6-23.6 43.1l-129.1 74.5-69.6 111.3zm7.2-78l-4.3 68.8 64.9-103.8.3-.1 129.4-74.6c12.4-7.1 22.4-25.6 22.4-41.1v-130.7c0-7.6-2.5-13.3-6.9-15.9-3.9-2.2-9-1.8-14.4 1.3l-205.8 118.7c-12.4 7.1-22.4 25.6-22.4 41.1v130.7c0 7.6 2.5 13.3 6.9 15.9 3.9 2.2 9 1.8 14.4-1.3l15.5-9z" class="st0"/><path d="M2571.1 2048.5l51.2-29.4v14.7l-51.2 29.4v-14.7zm70-40.2l114.6-65.7v14.7l-114.6 65.7v-14.7zm-70 112.4l47.6-27.3v14.7l-47.6 27.3v-14.7zm66.4-38.1l41.8-24v14.7l-41.8 24v-14.7zm60.7-34.8v14.7l57.5-33v-14.7l-57.5 33zm-127.1 37.7v14.7l129-74v-14.7l-129 74zm147.8-84.8v14.7l36.8-21.1v-14.7l-36.8 21.1z" class="st16"/></g><g><path d="M2537.9 560.9l115.3 66.5 1.9 1.2 1.9 1.2 1.9 1.4 1.8 1.5 1.8 1.5 1.8 1.7 1.7 1.7 1.7 1.8 1.6 1.9 1.6 1.9 1.6 2.1 1.5 2 1.5 2.2 1.4 2.2 1.3 2.2 1.3 2.3 1.2 2.4 1.2 2.4 1.1 2.4 1.1 2.4.9 2.4 1 2.5.8 2.5.7 2.5.7 2.5.6 2.5.5 2.5.4 2.5.3 2.5.3 2.4.1 2.5.1 2.4v144.3l-.1 2.4-.1 2.2-.3 2.2-.3 2.1-.4 2-.5 1.9-.6 1.8-.7 1.8-.7 1.6-.8 1.5-.9 1.5-1 1.3-1.1 1.2-1.1 1.2-1.1 1-1.3.9-13.5 8.9 1.2-.9 1.2-1 1.1-1.2 1-1.2 1-1.3.9-1.5.8-1.5.8-1.6.7-1.8.5-1.8.5-1.9.5-2 .3-2.1.2-2.2.2-2.2V702l-.2-2.5-.2-2.4-.3-2.5-.5-2.5-.5-2.5-.5-2.5-.7-2.5-.8-2.5-.8-2.5-.9-2.5-1-2.4-1-2.4-1.1-2.5-1.2-2.3-1.2-2.4-1.3-2.3-1.4-2.2-1.4-2.2-1.4-2.2-1.6-2-1.5-2.1-1.6-1.9-1.7-1.9-1.7-1.8-1.7-1.7-1.7-1.7-1.8-1.6-1.9-1.4-1.8-1.4-1.9-1.2-1.9-1.2-115.3-66.5-1.9-1.1-1.9-.9-1.8-.7-1.9-.7-1.8-.5-1.7-.4-1.8-.2-1.6-.2h-1.7l-1.6.1-1.6.3-1.5.3-1.4.5-1.4.5-1.4.7-1.3.8 13.5-8.9 1.3-.8 1.4-.7 1.4-.5 1.5-.5 1.5-.3 1.5-.3 1.7-.1h1.6l1.7.2 1.7.2 1.8.4 1.8.5 1.8.7 1.9.7 1.8.9z" class="st114"/><path d="M2687.2 674.5l.3 1.2.7 2.5.6 2.5.5 2.5.4 2.5.3 2.5.3 2.4.1 2.5.1 2.4v144.3l-.1 2.4-.1 2.2-.3 2.2-.3 2.1-.4 2-.5 1.9-.6 1.8-.7 1.8-.7 1.6-.8 1.5-.9 1.5-1 1.3-1.1 1.2-1.1 1.2-1.1 1-1.3.9-13.5 8.9 1.2-.9 1.2-1 1.1-1.2 1-1.2 1-1.3.9-1.5.8-1.5.8-1.6.7-1.8.5-1.8.5-1.9.5-2 .3-2.1.2-2.2.2-2.2V702l-.2-2.5-.2-2.4-.3-2.5-.5-2.5-.5-2.5-.5-2.5-.7-2.5-.6-2.1z" class="st16"/><path d="M2524.4 569.8l115.3 66.5c10.2 5.9 19.5 16.5 26.3 28.8 6.8 12.4 11 26.4 11 39.2v144.3c0 12.8-4.2 22-10.9 26.6-6.8 4.6-16.1 4.4-26.3-1.5l-115.3-66.5c-10.2-5.9-19.5-16.5-26.3-28.8-6.8-12.4-11-26.5-11-39.2V594.9c0-12.8 4.2-22 10.9-26.6 6.8-4.5 16.1-4.4 26.3 1.5z" class="st18"/><path d="M2655.1 879.7c-5 0-10.4-1.6-16-4.8l-115.3-66.5c-10.1-5.8-19.6-16.2-26.7-29.3-7.2-13.1-11.1-27.2-11.1-39.8V594.9c0-12.8 4.1-22.6 11.5-27.6 7.5-5 17.3-4.5 27.5 1.4l115.3 66.5c10.1 5.8 19.6 16.2 26.7 29.3 7.2 13.1 11.1 27.2 11.1 39.8v144.3c0 12.8-4.1 22.6-11.5 27.6-3.4 2.4-7.2 3.5-11.5 3.5zM2509 566.3c-3.7 0-7.2 1-10.2 3-6.7 4.5-10.4 13.6-10.4 25.6v144.3c0 12.2 3.8 25.9 10.8 38.7 7 12.7 16.1 22.8 25.8 28.4l115.3 66.5c9.5 5.5 18.4 6 25 1.5 6.7-4.5 10.4-13.6 10.4-25.6V704.4c0-12.2-3.8-25.9-10.8-38.7-7-12.7-16.1-22.8-25.8-28.4l-115.3-66.5c-5.2-3-10.3-4.5-14.8-4.5z" class="st0"/><path d="M2581.2 791.9c-3-1.7-5.7-4.5-7.9-8.3-2.3-3.8-3.4-7.8-3.4-12.3 0-3.9 1.1-6.6 3.3-8 2.2-1.4 4.9-1.2 8 .6 3.1 1.8 5.8 4.7 7.9 8.6 2.1 3.9 3.2 7.8 3.2 11.7 0 4.4-1.1 7.2-3.4 8.3-2.2 1.3-4.8 1.1-7.7-.6zm-36.4-123.2c0-5.9 1.5-11 4.6-15.3 3-4.3 7.5-6.8 13.3-7.4 5.8-.6 12.6 1.3 20.3 5.8 7.2 4.2 13.6 9.5 19.1 16 5.5 6.5 9.7 13.5 12.7 20.9 3 7.4 4.5 14.5 4.5 21.2 0 5.3-.9 9.4-2.6 12.4-1.7 3-3.7 5.3-6.1 6.8-2.3 1.5-6.6 4-12.7 7.3-1.7.9-3.1 1.8-4.1 2.7-1 .9-1.8 1.8-2.3 2.7-.5.9-.9 1.9-1.2 3-.3 1.1-.7 2.9-1.2 5.7-.9 5.9-3.9 7.4-8.9 4.6-2.6-1.5-4.8-3.8-6.5-6.9-1.8-3.2-2.6-6.8-2.6-11 0-5.2.6-9.4 1.9-12.4 1.3-3.1 3-5.4 5.1-7.1 2.1-1.7 5-3.4 8.6-5.3 3.2-1.6 5.5-2.9 6.9-3.9 1.4-1 2.6-2.2 3.6-3.9 1-1.6 1.4-3.7 1.4-6.3 0-5-1.5-10-4.4-15.1-3-5.1-6.8-9-11.4-11.7-5.5-3.2-9.5-3.8-12.1-1.8-2.6 2-4.8 5.8-6.5 11.5-1.7 6-4.9 7.7-9.6 5-2.8-1.6-5.1-4.2-7-7.8-1.8-3.6-2.8-6.8-2.8-9.7z" class="st16"/></g><g><path d="M1552 503.1l-115.3 66.5-1.9 1.1-1.9 1.3-1.8 1.3-1.9 1.5-1.7 1.6-1.8 1.6-1.7 1.7-1.7 1.8-1.7 1.9-1.6 2-1.5 2-1.5 2.1-1.5 2.1-1.4 2.2-1.4 2.3-1.2 2.3-1.3 2.3-1.2 2.4-1.1 2.4-1 2.4-1 2.5-.9 2.5-.8 2.4-.8 2.5-.6 2.5-.6 2.5-.5 2.5-.4 2.5-.4 2.5-.2 2.4-.2 2.5V784.2l.2 2.3.2 2.2.4 2.1.4 2 .5 1.9.6 1.8.6 1.7.8 1.6.8 1.6.9 1.4 1 1.3 1 1.3 1.1 1.1 1.2 1 1.2.9 13.6 8.9-1.3-.9-1.1-1-1.2-1.1-1-1.3-1-1.3-.9-1.4-.8-1.6-.7-1.6-.7-1.7-.6-1.8-.5-1.9-.4-2.1-.3-2-.3-2.2-.1-2.3-.1-2.3V646.5l.1-2.4.1-2.5.3-2.4.3-2.5.4-2.5.5-2.5.6-2.5.7-2.5.7-2.5.8-2.4.9-2.5 1-2.5 1.1-2.4 1.1-2.4 1.1-2.4 1.3-2.3 1.3-2.3 1.3-2.3 1.4-2.2 1.5-2.1 1.5-2.1 1.6-2 1.6-2 1.6-1.9 1.7-1.8 1.7-1.7 1.8-1.6 1.8-1.6 1.8-1.5 1.9-1.3 1.8-1.3 1.9-1.2 115.3-66.4 1.9-1.1 1.9-.9 1.8-.7 1.8-.7 1.8-.5 1.8-.4 1.7-.2 1.7-.2h1.7l1.6.1 1.5.2 1.5.4 1.5.5 1.4.5 1.4.7-13.6-8.9-1.3-.7-1.4-.5-1.5-.5-1.5-.3-1.6-.3-1.6-.1h-1.6l-1.7.2-1.7.2-1.8.4-1.8.5-1.8.7-1.9.7-1.8.9z" class="st115"/><path d="M1565.5 512l-115.2 66.5c-10.2 5.9-19.5 16.5-26.3 28.8-6.8 12.4-11 26.4-11 39.2v144.3c0 12.8 4.2 22 10.9 26.6 6.8 4.6 16.1 4.4 26.3-1.5l115.2-66.5c10.2-5.9 19.5-16.5 26.3-28.8 6.8-12.4 11-26.4 11-39.2V537.1c0-12.8-4.2-22-10.9-26.6-6.8-4.5-16.1-4.4-26.3 1.5z" class="st18"/><path d="M1434.8 821.7c-4.2 0-8.1-1.1-11.5-3.4-7.4-5-11.4-14.8-11.4-27.5V646.5c0-12.6 3.9-26.7 11.1-39.8 7.2-13.1 16.6-23.5 26.7-29.3l115.2-66.5c10.3-5.9 20.1-6.4 27.5-1.4 7.4 5 11.4 14.8 11.4 27.5v144.3c0 12.6-3.9 26.7-11.1 39.8-7.2 13.1-16.6 23.5-26.7 29.3l-115.2 66.5c-5.6 3.2-11 4.8-16 4.8zM1566.1 513l-115.2 66.5c-9.7 5.6-18.9 15.7-25.8 28.4-7 12.8-10.8 26.5-10.8 38.6v144.3c0 12 3.7 21 10.4 25.6 6.7 4.5 15.6 4 25-1.5l115.2-66.5c9.7-5.6 18.9-15.7 25.8-28.4 7-12.8 10.8-26.5 10.8-38.6V537.1c0-12-3.7-21-10.4-25.6-6.7-4.5-15.6-4-25 1.5z" class="st0"/><path d="M1559.5 571.3l-103.3 59.6c-8.9 5.1-15.4 18.9-15.9 29.9v85.1c0 3.2.6 5.9 1.8 8.1 2.9 3.6 5.3 5.6 10.5 4.1.3-.1.6-.2.8-.3.9-.4 1.8-.7 2.7-1.3l103.3-59.6c6.2-3.6 11-10.6 14.1-19 1.1-3.5 1.7-6.9 1.7-10v-85.2l-.1-3.3c-.5-4.6-2.5-7.9-5.5-9.4-2.7-1.3-6.4-.9-10.1 1.3zm-107.1 95.4l34 15.2-34 54.3v-69.5zm76.9-9.7l34-54.3v69.5l-34-15.2zm-75.1-9.1c.1-.2.3-.4.5-.6.5-.6 1.1-1 1.6-1.3l103.3-59.6c.8-.5 1.4-.5 2-.4l-49 78.4c-2.4 3.9-6.9 6.5-9.4 5.4l-49-21.9zm65.6 24.4l31.7 14.2-87.3 50.4 31.7-50.8c6.8 2.5 17.2-3.5 23.9-13.8z" class="st16"/><path d="M1401 623.6l-.3 1.7-.4 2.5-.3 2.5-.2 2.5-.1 2.4V781.9c.1 6.1.7 10.6 2.9 16.4 1.8 4 3.4 6.4 6.8 9.3l1.2.9 13.5 8.9-1.2-.9-1.2-1c-3.2-3.2-4.6-5.8-6.3-10l-.6-1.8c-1.2-4.6-1.6-8.1-1.7-12.8V644.1l.1-2.4.2-2.5.3-2.5.4-2.5.5-2.5v-.2l-13.6-7.9z" class="st116"/></g></g></svg>