<?xml version="1.0" encoding="utf-8"?>
<!-- Generator: Adobe Illustrator 23.0.3, SVG Export Plug-In . SVG Version: 6.00 Build 0)  -->
<svg version="1.1" id="Ñëîé_1" xmlns="http://www.w3.org/2000/svg" xmlns:xlink="http://www.w3.org/1999/xlink" x="0px" y="0px"
	 viewBox="0 0 3741.1 3069.7" style="enable-background:new 0 0 3741.1 3069.7;" xml:space="preserve">
<style type="text/css">
	.st0{opacity:0.6;fill-rule:evenodd;clip-rule:evenodd;fill:#FFFFFF;enable-background:new    ;}
	.st1{opacity:0.6;fill-rule:evenodd;clip-rule:evenodd;fill:#D0DDDD;enable-background:new    ;}
	.st2{opacity:0.6;fill-rule:evenodd;clip-rule:evenodd;fill:#E0E8E8;enable-background:new    ;}
	.st3{opacity:5.000000e-02;fill-rule:evenodd;clip-rule:evenodd;fill:url(#SVGID_1_);enable-background:new    ;}
	.st4{opacity:0.1;fill-rule:evenodd;clip-rule:evenodd;fill:url(#SVGID_2_);enable-background:new    ;}
	.st5{opacity:0.2;fill-rule:evenodd;clip-rule:evenodd;fill:url(#SVGID_3_);enable-background:new    ;}
	.st6{opacity:0.3;fill-rule:evenodd;clip-rule:evenodd;fill:url(#SVGID_4_);enable-background:new    ;}
	.st7{opacity:0.3;fill-rule:evenodd;clip-rule:evenodd;fill:url(#SVGID_5_);enable-background:new    ;}
	.st8{fill-rule:evenodd;clip-rule:evenodd;fill:#393A3D;}
	.st9{fill-rule:evenodd;clip-rule:evenodd;fill:#47484C;}
	.st10{fill-rule:evenodd;clip-rule:evenodd;fill:#363636;}
	.st11{fill-rule:evenodd;clip-rule:evenodd;}
	.st12{fill-rule:evenodd;clip-rule:evenodd;fill:#5106A1;}
	.st13{fill-rule:evenodd;clip-rule:evenodd;fill:#7F7F7F;}
	.st14{fill-rule:evenodd;clip-rule:evenodd;fill:#4B4E56;}
	.st15{fill-rule:evenodd;clip-rule:evenodd;fill:#3E0D87;}
	.st16{fill-rule:evenodd;clip-rule:evenodd;fill:#C2F3FF;}
	.st17{fill-rule:evenodd;clip-rule:evenodd;fill:#FFFFFF;}
	.st18{fill-rule:evenodd;clip-rule:evenodd;fill:#8C45BC;}
	.st19{opacity:0.15;fill-rule:evenodd;clip-rule:evenodd;fill:#220854;enable-background:new    ;}
	.st20{opacity:0.2;fill-rule:evenodd;clip-rule:evenodd;fill:#220854;enable-background:new    ;}
	.st21{opacity:0.25;fill-rule:evenodd;clip-rule:evenodd;fill:#220854;enable-background:new    ;}
	.st22{opacity:0.35;fill-rule:evenodd;clip-rule:evenodd;fill:#220854;enable-background:new    ;}
	.st23{opacity:0.5;fill-rule:evenodd;clip-rule:evenodd;fill:#220854;enable-background:new    ;}
	.st24{fill-rule:evenodd;clip-rule:evenodd;fill:#0959CC;}
	.st25{fill-rule:evenodd;clip-rule:evenodd;fill:#4080FF;}
	.st26{opacity:0.4;fill-rule:evenodd;clip-rule:evenodd;fill:#4080FF;enable-background:new    ;}
	.st27{fill-rule:evenodd;clip-rule:evenodd;fill:#2B45A9;}
	.st28{fill-rule:evenodd;clip-rule:evenodd;fill:#385FC6;}
	.st29{fill-rule:evenodd;clip-rule:evenodd;fill:#A9B0B8;}
	.st30{fill-rule:evenodd;clip-rule:evenodd;fill:#C4CED2;}
	.st31{fill-rule:evenodd;clip-rule:evenodd;fill:#D9E4E4;}
	.st32{fill-rule:evenodd;clip-rule:evenodd;fill:#D5E2E2;}
	.st33{fill-rule:evenodd;clip-rule:evenodd;fill:#E4ECEC;}
	.st34{fill-rule:evenodd;clip-rule:evenodd;fill:#E0E9E9;}
	.st35{fill-rule:evenodd;clip-rule:evenodd;fill:#EFF7F7;}
	.st36{fill-rule:evenodd;clip-rule:evenodd;fill:#8F969B;}
	.st37{fill-rule:evenodd;clip-rule:evenodd;fill:#D0DDDD;}
	.st38{fill-rule:evenodd;clip-rule:evenodd;fill:#DEE9E9;}
	.st39{fill-rule:evenodd;clip-rule:evenodd;fill:#191477;}
	.st40{fill-rule:evenodd;clip-rule:evenodd;fill:#181343;}
	.st41{fill-rule:evenodd;clip-rule:evenodd;fill:#F2F9F9;}
	.st42{fill-rule:evenodd;clip-rule:evenodd;fill:#FFFF99;}
	.st43{fill-rule:evenodd;clip-rule:evenodd;fill:#9B9883;}
	.st44{fill-rule:evenodd;clip-rule:evenodd;fill:url(#SVGID_6_);}
	.st45{fill-rule:evenodd;clip-rule:evenodd;fill:url(#SVGID_7_);}
	.st46{fill-rule:evenodd;clip-rule:evenodd;fill:url(#SVGID_8_);}
	.st47{fill-rule:evenodd;clip-rule:evenodd;fill:url(#SVGID_9_);}
	.st48{fill-rule:evenodd;clip-rule:evenodd;fill:url(#SVGID_10_);}
	.st49{fill-rule:evenodd;clip-rule:evenodd;fill:#666666;}
	.st50{fill-rule:evenodd;clip-rule:evenodd;fill:#525B5E;}
	.st51{fill-rule:evenodd;clip-rule:evenodd;fill:#490E92;}
	.st52{fill-rule:evenodd;clip-rule:evenodd;fill:#510E9B;}
	.st53{fill-rule:evenodd;clip-rule:evenodd;fill:#EAD0C3;}
	.st54{fill-rule:evenodd;clip-rule:evenodd;fill:#5B13A0;}
	.st55{fill-rule:evenodd;clip-rule:evenodd;fill:#5590E8;}
	.st56{fill-rule:evenodd;clip-rule:evenodd;fill:#5EA0F6;}
	.st57{fill-rule:evenodd;clip-rule:evenodd;fill:#4F3434;}
	.st58{fill-rule:evenodd;clip-rule:evenodd;fill:#6BABEF;}
	.st59{fill-rule:evenodd;clip-rule:evenodd;fill:#79B8F7;}
	.st60{fill-rule:evenodd;clip-rule:evenodd;fill:#E4C0AE;}
	.st61{fill-rule:evenodd;clip-rule:evenodd;fill:#1C1659;}
	.st62{fill-rule:evenodd;clip-rule:evenodd;fill:#D2CEDB;}
	.st63{fill-rule:evenodd;clip-rule:evenodd;fill:#4C81DC;}
	.st64{fill-rule:evenodd;clip-rule:evenodd;fill:#7DBCF7;}
	.st65{fill-rule:evenodd;clip-rule:evenodd;fill:#754A49;}
	.st66{fill-rule:evenodd;clip-rule:evenodd;fill:#5B3636;}
	.st67{fill-rule:evenodd;clip-rule:evenodd;fill:#6515A8;}
	.st68{fill-rule:evenodd;clip-rule:evenodd;fill:#771DAE;}
	.st69{fill-rule:evenodd;clip-rule:evenodd;fill:#CF9C9C;}
	.st70{fill-rule:evenodd;clip-rule:evenodd;fill:#2E3B95;}
	.st71{fill-rule:evenodd;clip-rule:evenodd;fill:#4C5BA5;}
	.st72{fill-rule:evenodd;clip-rule:evenodd;fill:#390960;}
	.st73{fill-rule:evenodd;clip-rule:evenodd;fill:#3F0C68;}
	.st74{fill-rule:evenodd;clip-rule:evenodd;fill:#450E6F;}
	.st75{fill-rule:evenodd;clip-rule:evenodd;fill:#6F3818;}
	.st76{fill-rule:evenodd;clip-rule:evenodd;fill:#834018;}
	.st77{fill-rule:evenodd;clip-rule:evenodd;fill:#934C23;}
	.st78{fill-rule:evenodd;clip-rule:evenodd;fill:#A77F80;}
	.st79{fill-rule:evenodd;clip-rule:evenodd;fill:#27317B;}
	.st80{fill-rule:evenodd;clip-rule:evenodd;fill:#212A64;}
	.st81{fill-rule:evenodd;clip-rule:evenodd;fill:#A3866F;}
	.st82{fill-rule:evenodd;clip-rule:evenodd;fill:#997D69;}
	.st83{fill-rule:evenodd;clip-rule:evenodd;fill:#907260;}
	.st84{fill-rule:evenodd;clip-rule:evenodd;fill:#34459F;}
	.st85{fill-rule:evenodd;clip-rule:evenodd;fill:#E4B6B8;}
	.st86{fill-rule:evenodd;clip-rule:evenodd;fill:#8A39BC;}
	.st87{fill-rule:evenodd;clip-rule:evenodd;fill:#54129B;}
	.st88{fill-rule:evenodd;clip-rule:evenodd;fill:#9B50C7;}
	.st89{fill-rule:evenodd;clip-rule:evenodd;fill:#CA9D51;}
	.st90{fill-rule:evenodd;clip-rule:evenodd;fill:#BE924E;}
	.st91{fill-rule:evenodd;clip-rule:evenodd;fill:#B3884C;}
	.st92{fill-rule:evenodd;clip-rule:evenodd;fill:#9345C2;}
	.st93{fill-rule:evenodd;clip-rule:evenodd;fill:#BF99DB;}
	.st94{fill-rule:evenodd;clip-rule:evenodd;fill:#6732A4;}
	.st95{fill:#E3E3E3;}
	.st96{fill-rule:evenodd;clip-rule:evenodd;fill:#B374D6;}
	.st97{fill-rule:evenodd;clip-rule:evenodd;fill:#8D45BD;}
</style>
<g>
	<ellipse class="st0" cx="2454" cy="2153.2" rx="1158.6" ry="666.6"/>
	<ellipse class="st1" cx="1552.9" cy="1589.3" rx="1552.9" ry="893.4"/>
	<ellipse class="st2" cx="1570.7" cy="2512.5" rx="968.6" ry="557.2"/>
</g>
<linearGradient id="SVGID_1_" gradientUnits="userSpaceOnUse" x1="322.0999" y1="1458.0144" x2="2889.8003" y2="1458.0144" gradientTransform="matrix(1 0 0 -1 0 2958.3999)">
	<stop  offset="0" style="stop-color:#1F3642"/>
	<stop  offset="1" style="stop-color:#1F3642"/>
</linearGradient>
<path class="st3" d="M322.4,1235.8c-1.6-56.9,22.9-98.2,68-124.4c214.2-124.6,428.3-249.5,642.5-374.1c74.8-43.5,190.8-43.5,265.6,0
	c507.7,295.4,1015.6,590.6,1523.3,886c46.3,26.9,66.4,65.6,68,117.6v61.9l-2,6.9c-6.3,21.8-15.9,37-31.5,53.3l-1,1.1l-1.1,1
	c-16.9,15.7-33,24.6-52.6,36c-53.5,31.2-107.1,62.3-160.6,93.5c-147.2,85.7-294.5,171.5-441.7,257.2l-20.6,12l-0.5,0.3
	c-53.4,29.5-114.4,36.8-174.4,29.2l-0.7-0.1l-0.7-0.1c-32-5-59.4-13.2-87.8-29l-0.5-0.3l-0.5-0.3
	c-285.6-166.2-571.2-332.3-856.9-498.4c-206.3-120-412.6-239.9-618.9-360l-48.1-28l-0.5-0.3c-19.4-11.9-33.8-23.8-47.5-42.2l-1-1.3
	l-0.9-1.4c-10.8-16.7-17.7-32.8-17.7-53.1L322.4,1235.8L322.4,1235.8z"/>
<linearGradient id="SVGID_2_" gradientUnits="userSpaceOnUse" x1="334.8534" y1="1458.1113" x2="2877.2002" y2="1458.1113" gradientTransform="matrix(1 0 0 -1 0 2958.3999)">
	<stop  offset="0" style="stop-color:#1F3642"/>
	<stop  offset="1" style="stop-color:#1F3642"/>
</linearGradient>
<path class="st4" d="M335.2,1234.6c-3.6-45.2,21.1-88.6,61.7-112.2c214.2-124.6,428.3-249.5,642.5-374.1
	c70.9-41.2,181.9-41.2,252.8,0c507.7,295.4,1015.6,590.6,1523.3,886c42.5,24.7,60.2,59.4,61.7,107v59.7l-1.5,5.2
	c-5.7,19.8-14.3,33.2-28.4,48l-0.8,0.8l-0.8,0.7c-16,15-31.6,23.5-50.3,34.3c-53.5,31.2-107.1,62.3-160.6,93.5
	c-147.2,85.7-294.5,171.5-441.7,257.2l-20.4,11.9l-0.4,0.2c-51,28.2-109.4,34.9-166.6,27.7l-0.6-0.1l-0.6-0.1
	c-30.5-4.8-56.5-12.5-83.6-27.5l-0.4-0.2l-0.4-0.2c-285.6-166.2-571.2-332.3-856.9-498.4c-206.3-120-412.6-239.9-618.9-360l-48-27.9
	l-0.4-0.2c-18-11-31.2-21.8-43.9-38.9l-0.8-1l-0.7-1.1c-9.4-14.6-15.6-28.4-15.6-46.2L335.2,1234.6L335.2,1234.6z"/>
<linearGradient id="SVGID_3_" gradientUnits="userSpaceOnUse" x1="347.6642" y1="1458.1871" x2="2864.3003" y2="1458.1871" gradientTransform="matrix(1 0 0 -1 0 2958.3999)">
	<stop  offset="0" style="stop-color:#1F3642"/>
	<stop  offset="1" style="stop-color:#1F3642"/>
</linearGradient>
<path class="st5" d="M348,1233.3c-3.4-41.3,19.3-79,55.3-99.9c214.2-124.6,428.3-249.5,642.5-374.1c66.9-38.9,173.1-38.9,239.9,0
	c507.7,295.4,1015.6,590.6,1523.3,886c38.6,22.5,54,53.1,55.3,96.3v57.5l-1,3.5c-5.1,17.8-12.7,29.4-25.4,42.7l-0.5,0.5l-0.5,0.5
	c-15.2,14.2-30.3,22.3-48,32.6c-53.5,31.2-107.1,62.3-160.6,93.5c-147.2,85.7-294.5,171.5-441.7,257.2l-20.3,11.8l-0.2,0.1
	c-48.6,26.9-104.3,33.1-158.8,26.2h-0.4l-0.4-0.1c-29-4.5-53.6-11.8-79.4-26.1l-0.2-0.1l-0.2-0.1
	c-285.6-166.2-571.2-332.3-856.9-498.4c-206.3-120-412.6-239.9-618.9-360l-47.8-27.8l-0.2-0.1c-16.6-10.2-28.6-19.9-40.3-35.7
	l-0.5-0.7l-0.5-0.7c-8-12.4-13.6-24.1-13.6-39.3L348,1233.3L348,1233.3z"/>
<linearGradient id="SVGID_4_" gradientUnits="userSpaceOnUse" x1="360.3213" y1="1458.0906" x2="2851.6001" y2="1458.0906" gradientTransform="matrix(1 0 0 -1 0 2958.3999)">
	<stop  offset="0" style="stop-color:#1F3642"/>
	<stop  offset="1" style="stop-color:#1F3642"/>
</linearGradient>
<path class="st6" d="M360.7,1232c-3.5-38.5,17.6-69.3,49-87.5C623.9,1019.9,838,895,1052.2,770.4c62.9-36.6,164.2-36.6,227.1,0
	c507.7,295.4,1015.6,590.6,1523.3,886c34.8,20.2,47.8,46.9,49,85.7v55.3l-0.5,1.7c-4.6,15.8-11.1,25.6-22.4,37.4l-0.3,0.3l-0.3,0.2
	c-14.4,13.4-28.9,21.1-45.7,30.9c-53.6,31.2-107.1,62.3-160.6,93.5c-147.2,85.7-294.5,171.5-441.7,257.2l-20.2,11.8l-0.1,0.1
	c-46.2,25.5-99.2,31.2-151,24.7h-0.4c-27.5-4.3-50.7-11.1-75.2-24.6l-0.2-0.1c-285.6-166.2-571.2-332.3-856.9-498.4
	c-206.3-120-412.6-239.9-618.9-360l-47.7-27.8l-0.1-0.1c-15.2-9.3-26-18-36.7-32.4l-0.3-0.3l-0.2-0.4c-6.6-10.2-11.5-19.8-11.5-32.3
	V1232L360.7,1232z"/>
<linearGradient id="SVGID_5_" gradientUnits="userSpaceOnUse" x1="373.4603" y1="1458.1086" x2="2838.8003" y2="1458.1086" gradientTransform="matrix(1 0 0 -1 0 2958.3999)">
	<stop  offset="0" style="stop-color:#1F3642"/>
	<stop  offset="1" style="stop-color:#1F3642"/>
</linearGradient>
<path class="st7" d="M2838.8,1742.4v53.1c-4,13.8-9.4,21.8-19.3,32.2c-13.9,13-26.7,19.5-43.4,29.2
	c-53.6,31.2-107.1,62.3-160.6,93.5c-147.2,85.7-294.5,171.5-441.7,257.2l-20.1,11.7c-44,24.3-94,29.4-143.2,23.2
	c-26.4-4.1-47.5-10.2-71-23.2c-285.6-166.2-571.2-332.3-856.9-498.4l-618.9-360l-47.6-27.7c-14-8.6-23.3-15.9-33.1-29.1
	c-5.1-7.9-9.5-15.6-9.5-25.4v-48.2c-0.7-27,7.6-54.6,42.6-75c214.2-124.6,428.3-249.5,642.5-374.1c58.9-34.3,155.3-34.3,214.2,0
	c507.7,295.4,1015.6,590.6,1523.3,886C2831.2,1687.8,2838,1714,2838.8,1742.4L2838.8,1742.4z"/>
<g>
	<path class="st8" d="M2843.3,1700.6v53.4l-1.2,4.2l-1.6,4.2l-1.9,4.2l-2.3,4.1l-2.6,4l-2.9,4l-3.3,3.9l-3.7,3.8l-4,3.7l-4.3,3.7
		l-4.7,3.5l-5.1,3.4l-5.4,3.3l-20.2,11.8l-20.2,11.8l-20.2,11.7l-20.3,11.8l-20.2,11.8l-20.2,11.8l-20.3,11.7l-20.2,11.8l-20.2,11.8
		l-20.2,11.8l-20.2,11.7l-20.3,11.8l-20.2,11.8l-20.2,11.8l-20.2,11.8l-20.3,11.7l-20.2,11.8l-20.2,11.8l-20.2,11.8l-20.3,11.7
		l-20.2,11.8l-20.2,11.8l-20.2,11.8l-20.3,11.8l-20.2,11.7l-20.2,11.8l-20.2,11.8l-20.3,11.8l-20.2,11.7l-20.2,11.8l-20.2,11.8
		l-20.3,11.7l-5.6,3.2l-5.9,2.9l-6.1,2.7l-6.3,2.6l-6.4,2.3l-6.5,2.1l-6.7,1.9l-6.9,1.8l-6.9,1.5l-7.1,1.3l-7.1,1.1l-7.2,0.9
		l-7.2,0.7l-7.3,0.5l-7.3,0.3l-7.4,0.1l-7.3-0.1l-7.3-0.3l-7.3-0.5l-7.3-0.7l-7.1-0.9l-7.2-1.1l-7-1.3l-7-1.5l-6.8-1.7l-6.7-2
		l-6.6-2.1l-6.4-2.3l-6.2-2.6l-6.1-2.7l-5.9-2.9l-5.7-3.2v-53.4l5.7,3.1l5.9,3l6.1,2.7l6.2,2.5l6.4,2.3l6.6,2.2l6.7,1.9l6.9,1.7
		l6.9,1.5l7,1.3l7.2,1.2l7.2,0.9l7.2,0.7l7.3,0.5l7.3,0.3l7.3,0.1l7.4-0.1l7.3-0.3l7.3-0.5l7.2-0.7l7.2-0.9l7.1-1.2l7.1-1.3l6.9-1.5
		l6.9-1.7l6.7-1.9l6.5-2.2l6.5-2.3l6.2-2.5l6.1-2.7l5.9-3l5.6-3.1l20.3-11.8l20.2-11.7l20.2-11.8l20.2-11.8l20.3-11.8l20.2-11.7
		l20.2-11.8l20.2-11.8l20.3-11.8l20.2-11.8l20.2-11.7l20.2-11.8l20.3-11.8l20.2-11.8l20.2-11.7l20.2-11.8l20.3-11.8l20.2-11.8
		l20.2-11.8l20.2-11.7l20.3-11.8l20.2-11.8l20.2-11.8l20.2-11.7l20.3-11.8l20.2-11.8l20.2-11.8l20.2-11.7l20.3-11.8l20.2-11.8
		l20.2-11.8l20.2-11.7l5.4-3.3l5.1-3.5l4.7-3.5l4.3-3.6l4-3.8l3.7-3.8l3.3-3.9l2.9-4l2.6-4l2.3-4.1l1.9-4.1l1.6-4.2L2843.3,1700.6z"
		/>
	<path class="st9" d="M1937.3,2127.4v53.4l-47.9-27.8l-48-27.9l-47.9-27.9l-48-27.9l-47.9-27.9l-48-27.9l-47.9-27.9l-48-27.9
		l-47.9-27.9l-48-27.9l-47.9-27.9l-48-27.9l-47.9-27.8l-48-27.9l-47.9-27.9l-48-27.9l-47.9-27.9l-48-27.9l-47.9-27.9l-48-27.9
		l-47.9-27.8l-48-27.9l-48-27.9l-47.9-27.9l-48-27.9l-47.9-27.9l-48-27.9l-47.9-27.9l-48-27.9l-47.9-27.9l-48-27.9l-47.9-27.9
		l-5.4-3.3l-5-3.4l-4.7-3.5l-4.4-3.7l-4-3.7l-3.6-3.8l-3.3-3.9l-3-4l-2.6-4l-2.3-4.1l-1.9-4.2l-1.5-4.2l-1.3-4.2l0.1-53.4l1.2,4.2
		l1.5,4.2l1.9,4.1l2.3,4.1l2.6,4.1l3,3.9l3.3,3.9l3.6,3.9l4,3.7l4.4,3.6l4.7,3.6l5,3.4l5.4,3.3l47.9,27.9l48,27.9l47.9,27.9l48,27.9
		l47.9,27.9l48,27.9l47.9,27.8l48,27.9l48,27.9l47.9,27.9l48,27.9l47.9,27.9l48,27.9l47.9,27.9l48,27.9l47.9,27.8l48,27.9l47.9,27.9
		l48,27.9l47.9,27.9l48,27.9l47.9,27.9l48,27.9l47.9,27.8l48,27.9l47.9,27.9l48,27.9l47.9,27.9l48,27.9l47.9,27.9l48,27.9
		L1937.3,2127.4z"/>
	<path class="st10" d="M1050.1,732.5c59.3-34.5,156.4-34.5,215.8,0c511.4,297.6,1023,594.9,1534.4,892.5c59.3,34.5,59.3,91,0,125.5
		c-215.8,125.5-431.4,251.3-647.2,376.8c-59.3,34.5-156.4,34.5-215.8,0c-511.4-297.6-1023-594.9-1534.4-892.5
		c-59.3-34.5-59.3-91,0-125.5C618.7,983.8,834.3,858.1,1050.1,732.5L1050.1,732.5z"/>
	<path class="st11" d="M1053,737.5c57.6-33.5,152.4-33.5,210,0c511.4,297.6,1023,594.9,1534.4,892.5c55.5,32.3,55.5,83.3,0,115.6
		c-204.1,118.8-408.2,237.7-612.3,356.5c-37.4,21.7-83.4,39.3-130.4,40.9c-52,1.7-105-15-146.5-39.1
		C1407.4,1812.5,906.5,1521.4,405.7,1230c-55.5-32.3-55.5-83.3,0-115.6C621.6,988.8,837.2,863,1053,737.5L1053,737.5z"/>
	<path class="st12" d="M1073.8,755.4l-59.3,34.5c-17.4,10.1-24.3,19.7-4.3,32.8c28.3,18.6,26.5,48.4-4,66.3
		c-160,93.6-128.7,75.3-288.6,168.9c-30.6,17.9-85.1,21-121.1,6.9c-19.3-7.5-31.4-13.2-49.9-2.4c-44.1,25.7-88.3,51.4-133.2,77.5
		c-41.6,24.2-41.6,54.8,0,79c511,297.3,980.9,569.4,1491.9,866.7c40.5,23.5,90.3,38.4,137.4,36.9c42.6-1.4,85.8-17.3,122.4-38.6
		c208.3-121.2,416.5-242.6,624.8-363.8c41.6-24.2,41.6-54.8,0-79c-521.9-303.6-1002.6-582-1524.5-885.7
		C1213.7,725.3,1125.5,725.3,1073.8,755.4z"/>
	<path class="st13" d="M2428.6,1996.5v-4.8c0-7.4-6-9.9-13.4-5.7c-34.1,19.6-59.8,34.4-93.8,53.9c-7.4,4.2-13.4,13.7-13.4,21.1v4.8
		c0,7.4,6,9.9,13.4,5.7c34.1-19.6,59.8-34.4,93.8-53.9C2422.6,2013.3,2428.6,2003.8,2428.6,1996.5z"/>
	<path class="st14" d="M2425.6,1994.8v-4.8c0-2.6-0.7-4.6-2-5.9c-2.3-0.5-5.2,0-8.4,1.9c-34.1,19.6-59.8,34.4-93.8,53.9
		c-7.4,4.2-13.4,13.7-13.4,21.1v4.8c0,2.6,0.7,4.6,2,5.9c2.3,0.5,5.2,0,8.4-1.9c34.1-19.6,59.8-34.4,93.8-53.9
		C2419.6,2011.7,2425.6,2002.2,2425.6,1994.8z"/>
	<g>
		<path class="st13" d="M2639.2,1874.3v-4.8c0-7.4-6-9.9-13.4-5.7c-34.1,19.6-59.8,34.4-93.8,53.9c-7.4,4.2-13.4,13.7-13.4,21.1v4.8
			c0,7.4,6,9.9,13.4,5.7c34.1-19.6,59.8-34.4,93.8-53.9C2633.2,1891.1,2639.2,1881.6,2639.2,1874.3z"/>
		<path class="st14" d="M2636.2,1872.6v-4.8c0-2.6-0.7-4.6-2-5.9c-2.3-0.5-5.2,0-8.4,1.9c-34.1,19.6-59.8,34.4-93.8,53.9
			c-7.4,4.2-13.4,13.7-13.4,21.1v4.8c0,2.6,0.7,4.6,2,5.9c2.3,0.5,5.2,0,8.4-1.9c34.1-19.6,59.8-34.4,93.8-53.9
			C2630.2,1889.5,2636.2,1880,2636.2,1872.6z"/>
	</g>
	<path class="st15" d="M2793.9,1717.6L393.7,1154.7c4.9-5.1,11.5-10.1,19.6-14.8c44.8-26.1,89.1-51.8,133.2-77.5
		c18.5-10.8,30.5-5.1,49.9,2.4c36.1,14.1,90.6,11,121.1-6.9c160-93.6,128.7-75.3,288.6-168.9c30.6-17.9,32.4-47.7,4-66.3
		c-20-13.1-13.1-22.7,4.3-32.8l59.3-34.5c51.7-30.1,139.9-30.1,191.6,0c521.9,303.6,1002.6,582,1524.5,885.7
		C2830,1664.4,2831.4,1693.8,2793.9,1717.6L2793.9,1717.6z"/>
</g>
<g>
	<path class="st16" d="M1807.8,1791v7.3l0.1,1l0.2,1l0.3,1l0.3,0.9l0.5,1l0.5,0.9l0.6,0.9l0.7,1l0.7,0.9l0.9,0.8l0.9,0.9l1,0.8
		l1.1,0.9l1.2,0.7l1.2,0.8l94.9,54.9l1.4,0.7l1.3,0.7l1.4,0.6l1.5,0.6l1.5,0.5l1.5,0.5l1.5,0.4l1.6,0.4l1.6,0.4l1.7,0.3l1.6,0.3
		l1.7,0.2l1.7,0.1l1.7,0.1l1.7,0.1h3.4l1.7-0.1l1.7-0.1l1.6-0.1l1.7-0.2l1.7-0.3l1.6-0.3l1.6-0.4l1.6-0.4l1.5-0.4l1.6-0.5l1.5-0.5
		l1.4-0.6l1.4-0.6l1.4-0.7l1.3-0.7l444.1-256.7l1.2-0.8l1.2-0.8l1.1-0.8l1-0.8l0.9-0.9l0.9-0.9l0.7-0.9l0.7-0.9l0.6-0.9l0.5-1
		l0.5-0.9l0.3-1l0.3-1l0.2-0.9l0.1-1v-7.4l-0.1,1l-0.2,1l-0.3,0.9l-0.3,1l-0.5,1l-0.5,0.9l-0.6,0.9l-0.7,1l-0.7,0.9l-0.9,0.8
		l-0.9,0.9l-1,0.8l-1.1,0.8l-1.2,0.8l-1.2,0.8L1963,1859.3l-1.3,0.7l-1.4,0.7l-1.4,0.6l-1.4,0.6l-1.5,0.5l-1.6,0.5l-1.5,0.5
		l-1.6,0.4l-1.6,0.3l-1.6,0.3l-1.7,0.3l-1.7,0.2l-1.6,0.2l-1.7,0.1h-1.7l-1.7,0.1l-1.7-0.1h-1.7l-1.7-0.1l-1.7-0.2l-1.7-0.2
		l-1.6-0.3l-1.7-0.3l-1.6-0.3l-1.6-0.4l-1.5-0.5l-1.5-0.5l-1.5-0.5l-1.5-0.6l-1.4-0.6l-1.3-0.7l-1.4-0.7l-94.9-54.9l-1.2-0.7
		l-1.2-0.8l-1.1-0.8l-1-0.9l-0.9-0.8l-0.9-0.9l-0.7-0.9l-0.7-0.9l-0.6-1l-0.5-0.9l-0.5-1l-0.3-0.9l-0.3-1l-0.2-1L1807.8,1791z
		 M1592.1,1666.3v7.3l0.1,1l0.2,1l0.3,1l0.3,0.9l0.5,1l0.5,0.9l0.6,1l0.7,0.9l0.8,0.9l0.8,0.9l0.9,0.8l1,0.9l1.1,0.8l1.2,0.8
		l1.2,0.7l138.4,80l1.3,0.7l1.4,0.7l1.4,0.6l1.4,0.6l1.5,0.5l1.5,0.5l1.6,0.5l1.6,0.4l1.6,0.3l1.6,0.3l1.7,0.3l1.7,0.2l1.6,0.2
		l1.7,0.1h1.7l1.7,0.1l1.7-0.1h1.7l1.7-0.1l1.7-0.2l1.7-0.2l1.6-0.3l1.6-0.3l1.7-0.3l1.5-0.4l1.6-0.5l1.5-0.5l1.5-0.5l1.5-0.6
		l1.4-0.6l1.3-0.7l1.3-0.7l444.1-256.7l1.3-0.8l1.1-0.7l1.1-0.9l1-0.8l1-0.9l0.8-0.8l0.8-0.9l0.7-1l0.6-0.9l0.5-0.9l0.4-1l0.4-0.9
		l0.3-1l0.2-1l0.1-1v-7.4l-0.1,1l-0.2,1l-0.3,1l-0.4,0.9l-0.4,1l-0.5,0.9l-0.6,1l-0.7,0.9l-0.8,0.9l-0.8,0.9l-1,0.8l-1,0.9l-1.1,0.8
		l-1.1,0.8l-1.3,0.7l-444.1,256.7l-1.3,0.8l-1.3,0.6l-1.4,0.7l-1.5,0.5l-1.5,0.6l-1.5,0.5l-1.6,0.4l-1.5,0.4l-1.7,0.4l-1.6,0.3
		l-1.6,0.2l-1.7,0.2l-1.7,0.2l-1.7,0.1l-1.7,0.1h-3.4l-1.7-0.1l-1.7-0.1l-1.6-0.2l-1.7-0.2l-1.7-0.2l-1.6-0.3l-1.6-0.4l-1.6-0.4
		l-1.6-0.4l-1.5-0.5l-1.5-0.6l-1.4-0.5l-1.4-0.7l-1.4-0.6l-1.3-0.8l-138.4-79.9l-1.2-0.8l-1.2-0.8l-1.1-0.8l-1-0.8l-0.9-0.9
		l-0.8-0.9l-0.8-0.9l-0.7-0.9l-0.6-0.9l-0.5-1l-0.5-0.9l-0.3-1l-0.3-1l-0.2-0.9L1592.1,1666.3z"/>
	<g>
		<path class="st17" d="M2046.4,1394.1l-444.1,256.7c-13.8,8-13.8,21,0,28.9l138.4,80c13.8,8,36.3,8,50,0l444.1-256.7
			c13.8-8,13.8-21,0-28.9l-138.4-80C2082.7,1386.2,2060.2,1386.2,2046.4,1394.1z M2262.1,1518.8L1818,1775.5c-13.8,8-13.8,21,0,28.9
			l94.9,54.9c13.8,8,36.3,8,50,0l444.1-256.7c13.8-8,13.8-21,0-28.9l-94.9-54.9C2298.4,1510.9,2275.9,1510.9,2262.1,1518.8
			L2262.1,1518.8z"/>
	</g>
</g>
<g>
	<path class="st16" d="M747.9,1184.1l-10.9-6.9l-0.9-0.8l-0.7-0.9l-0.7-1.2l-0.6-1.2l-0.5-1.5l-0.3-1.5l-0.2-1.7l-0.1-1.9V979.3
		l0.1-2l0.2-1.9l0.3-2l0.5-1.9l0.6-2l0.7-1.9l0.7-1.9l0.9-1.9l1-1.7l1.1-1.7l1.1-1.6l1.2-1.5l1.3-1.4l1.3-1.2l1.4-1.1l1.4-0.9
		L1142,720.8l1.4-0.7l1.4-0.5l1.3-0.3l1.3-0.1h1.2l1.1,0.3l1.1,0.4l10.8,6.9l-1-0.4l-1.2-0.3l-1.2-0.1l-1.2,0.1l-1.4,0.4l-1.3,0.5
		l-1.4,0.7L757.6,959.6l-1.4,0.9l-1.4,1.1l-1.3,1.2l-1.2,1.4l-1.2,1.4l-1.2,1.6l-1,1.7l-1,1.8l-0.9,1.8l-0.8,1.9l-0.7,2l-0.6,1.9
		l-0.4,2l-0.4,2l-0.2,1.9l-0.1,1.9v187.3l0.1,1.8l0.2,1.7l0.4,1.6l0.4,1.4l0.6,1.3l0.7,1.1l0.8,1L747.9,1184.1z"/>
	<path class="st17" d="M757.6,959.6l395.3-231.9c7.6-4.4,13.8,0.3,13.8,10.4v187.2c0,10.2-6.2,22.1-13.8,26.6l-395.3,231.9
		c-7.6,4.4-13.8-0.3-13.8-10.4V986.2C743.8,976,750,964,757.6,959.6L757.6,959.6z"/>
	<path class="st18" d="M757.6,996.7l108-63.5v23.2l-108,63.5V996.7z M891.8,917.9L1142,770.8V794L891.8,941.1V917.9z M757.6,1110.6
		l101.8-59.8v23.2l-101.8,59.8V1110.6z M885.6,1035.4l159.2-93.6V965l-159.2,93.6V1035.4z M1071,926.4v23.2l23.6-13.9v-23.2
		L1071,926.4z M1120.7,897.2v23.2l21.3-12.5v-23.2L1120.7,897.2z M757.6,1055.1v23.2l219.1-128.8v-23.2L757.6,1055.1z M1002.9,910.9
		v23.2l139.1-81.8v-23.2L1002.9,910.9z"/>
	<g>
		<path class="st16" d="M2228.9,1399.3l10.8-6.9l0.9-0.8l0.8-0.9l0.7-1.1l0.6-1.3l0.5-1.4l0.3-1.6l0.2-1.7l0.1-1.9v-187.2l-0.1-1.9
			l-0.2-2l-0.3-2l-0.5-1.9l-0.6-2l-0.7-1.9l-0.8-1.9l-0.9-1.8l-0.9-1.8l-1.1-1.7l-1.1-1.6l-1.2-1.5l-1.3-1.4l-1.3-1.2l-1.4-1.1
			l-1.4-0.9L1834.8,936l-1.4-0.7l-1.4-0.5l-1.3-0.3l-1.3-0.1h-1.2l-1.1,0.3l-1.1,0.5l-10.8,6.8l1-0.4l1.2-0.3l1.2-0.1l1.2,0.2
			l1.4,0.3l1.3,0.5l1.4,0.7l395.3,231.9l1.4,0.9l1.3,1.1l1.4,1.2l1.2,1.4l1.2,1.5l1.2,1.6l1,1.6l1,1.8l0.9,1.9l0.8,1.8l0.7,2
			l0.6,1.9l0.4,2l0.4,2l0.2,1.9v191l-0.2,1.7l-0.4,1.6l-0.4,1.4l-0.6,1.3l-0.7,1.1l-0.8,1L2228.9,1399.3z"/>
		<path class="st17" d="M2219.2,1174.8l-395.3-231.9c-7.6-4.4-13.8,0.3-13.8,10.4v187.2c0,10.2,6.2,22.1,13.8,26.6l395.3,231.9
			c7.6,4.4,13.8-0.3,13.8-10.4v-187.2C2232.9,1191.2,2226.7,1179.2,2219.2,1174.8z"/>
		<path class="st18" d="M2219.1,1212l-315.2-185.3v23.2l315.2,185.3V1212z M1877.8,1011.3l-43-25.3v23.2l43,25.3V1011.3z
			 M2219.1,1325.8v23.2L1980,1208.5v-23.2L2219.1,1325.8z M1953.9,1169.9v23.2l-27.2-16v-23.2L1953.9,1169.9z M1900.6,1138.6
			l-26-15.3v23.2l26,15.3V1138.6z M1848.4,1107.9l-13.6-8v23.2l13.6,8V1107.9z M2219.1,1270.3v23.2l-134.7-79.2v-23.2L2219.1,1270.3
			z M2058.3,1175.8v23.2l-223.5-131.4v-23.2L2058.3,1175.8z"/>
	</g>
</g>
<g>
	<g>
		<ellipse class="st19" cx="1408.1" cy="1316.8" rx="372.4" ry="235.2"/>
		<ellipse class="st20" cx="1408.1" cy="1316.8" rx="358.9" ry="222.1"/>
		<ellipse class="st21" cx="1408.1" cy="1316.8" rx="345.4" ry="209.1"/>
		<ellipse class="st22" cx="1408.1" cy="1316.8" rx="331.8" ry="196"/>
		<ellipse class="st23" cx="1408.1" cy="1316.8" rx="318.2" ry="182.8"/>
	</g>
	<g>
		<path class="st24" d="M1725.9,1117.9v167.8l-1.1,8.7l-1.8,8.8l-2.5,8.6l-3.3,8.6l-4,8.6l-4.8,8.4l-5.4,8.3l-6.2,8.2l-6.9,8
			l-7.7,7.9l-8.3,7.7l-9.2,7.5l-9.8,7.3l-10.5,7.1l-11.3,6.8l-11.9,6.5l-12.3,6.1l-12.7,5.6l-13,5.2l-13.4,4.8l-13.8,4.4l-13.9,4
			l-14.3,3.6l-14.5,3.1l-14.6,2.7l-14.9,2.3l-15,1.9l-15.1,1.5l-15.1,1l-15.3,0.6l-15.2,0.3l-15.3-0.3l-15.2-0.6l-15.2-1l-15.1-1.5
			l-15-1.9l-14.8-2.3l-14.7-2.7l-14.5-3.1l-14.2-3.6l-14-4l-13.7-4.4l-13.4-4.8l-13.1-5.2l-12.7-5.6l-12.3-6.1l-11.8-6.5l-11.3-6.8
			l-10.6-7.1l-9.8-7.3l-9.1-7.5l-8.4-7.7l-7.6-7.9l-7-8l-6.1-8.2l-5.5-8.3l-4.7-8.4l-4-8.6l-3.3-8.6l-2.6-8.6l-1.8-8.8l-1.1-8.7
			v-167.8l1.1,8.7l1.8,8.8l2.6,8.6l3.3,8.7l4,8.5l4.7,8.4l5.5,8.3l6.1,8.2l7,8.1l7.6,7.8l8.4,7.7l9.1,7.5l9.8,7.3l10.6,7.1l11.3,6.8
			l11.8,6.5l12.3,6.1l12.7,5.6l13.1,5.2l13.4,4.9l13.7,4.3l14,4l14.2,3.6l14.5,3.1l14.7,2.7l14.8,2.3l15,1.9l15.1,1.5l15.2,1
			l15.2,0.7l15.3,0.2l15.2-0.2l15.3-0.7l15.1-1l15.1-1.5l15-1.9l14.9-2.3l14.6-2.7l14.5-3.1l14.3-3.6l13.9-4l13.8-4.3l13.4-4.9
			l13-5.2l12.7-5.6l12.3-6.1l11.9-6.5l11.3-6.8l10.5-7.1l9.8-7.3l9.2-7.5l8.3-7.7l7.7-7.8l6.9-8.1l6.2-8.2l5.4-8.3l4.8-8.4l4-8.5
			l3.3-8.7l2.5-8.6l1.8-8.8L1725.9,1117.9z"/>
		<ellipse class="st25" cx="1408.1" cy="1109.1" rx="318.2" ry="182.8"/>
	</g>
	<ellipse class="st26" cx="1408.1" cy="1109.1" rx="519.9" ry="298.7"/>
</g>
<g>
	<path class="st27" d="M1691,696.6c-20.3,16.8-46,26.9,22.2,52.4s140,32.6,160.4,15.9c20.3-16.8-18.5-51-86.8-76.5
		C1718.5,662.8,1711.3,679.9,1691,696.6L1691,696.6z"/>
	<path class="st27" d="M1573.4,640.9c19.8-25.5,62.8-36.1,96.1-23.7c33.3,12.4,44.3,43.2,24.5,68.7s-62.8,36.1-96.1,23.7
		S1553.6,666.4,1573.4,640.9z"/>
	<path class="st28" d="M1878.8,756.2c2.7-18.2-34.1-46.2-92-67.8c-38.9-14.5-57.9-15.3-70.9-10.1c-1.1,0.9-2.1,1.8-3.2,2.8
		c-20.3,16.8-46,26.9,22.2,52.4C1790.3,754.1,1848.2,762.7,1878.8,756.2z M1598.5,621.2c21.2-10.3,48.3-12.4,70.9-4
		c33.3,12.4,44.3,43.2,24.5,68.7c-1.1,1.4-2.2,2.7-3.5,4.1c-21.2,10.3-48.3,12.4-70.9,4c-33.3-12.4-44.3-43.2-24.5-68.7
		C1596.1,623.9,1597.3,622.5,1598.5,621.2z"/>
	<path class="st29" d="M1644.8,593.7c-3.6,29.2-25.7,65.6-66.4,103.8c-89.2,83.7-233.8,144.1-323,134.9c-40.6-4.2-62.7-22-66.3-48.1
		c-11.1-78.5,109.2-214.4,229-264.2C1537,470.7,1655.4,506.8,1644.8,593.7L1644.8,593.7z"/>
	<path class="st29" d="M1645.3,586.2L1645.3,586.2z M1645.2,589.2c-3.2,82.6-24.6,464.8-228.3,551.7
		c-203.8,83.3-225.1-281.6-228.3-361.2c1.6,28.6,23.9,48.3,66.8,52.7c89.2,9.2,233.8-51.3,323-134.9
		C1621.2,657.3,1643.5,619.1,1645.2,589.2L1645.2,589.2z M1188.6,778.1v-1V778.1z"/>
	<path class="st30" d="M1644.8,593.7c-3.6,29.2-25.7,65.6-66.4,103.8c-89.2,83.7-233.8,144.1-323,134.9c-11-1.1-20.6-3.2-28.8-6.3
		c22.5-190.2,152.7-324.7,310-308.7c35.1,3.6,68.8,14.3,100.3,31.1C1643.9,561.5,1646.9,576.6,1644.8,593.7L1644.8,593.7z"/>
	<path class="st30" d="M1645.3,586.2L1645.3,586.2z M1275.4,1111.3c-33-66.6-52.2-144.5-52.2-226.1c0-20.2,1.2-39.8,3.4-59
		c8.3,3,17.9,5.1,28.8,6.3c89.2,9.2,233.8-51.3,323-134.9c42.8-40.2,65.1-78.4,66.8-108.3c-3.2,82.6-24.6,464.8-228.3,551.7
		C1353.9,1166.7,1308.4,1149.5,1275.4,1111.3L1275.4,1111.3z"/>
	<g>
		<path class="st31" d="M1644.8,593.7c-3.6,29.2-25.7,65.6-66.4,103.8c-80.5,75.5-206.1,132.1-295.4,135.7
			c0.8-13.7,2.1-27.5,3.7-41.4c11.4-97.1,40.8-181.8,81.2-246c16.5-10,33.3-18.7,50.1-25.7C1537,470.7,1655.4,506.8,1644.8,593.7
			L1644.8,593.7z"/>
		<path class="st32" d="M1645.3,586.2L1645.3,586.2z M1305.6,1061.6c-19.1-69.1-27.5-147.4-22.6-228.4
			c89.3-3.6,214.9-60.1,295.4-135.7c42.8-40.2,65.1-78.4,66.8-108.3c-3,77-21.8,414.5-189.4,530.3c-21.7,15-52.8,28.2-81,21
			C1344.2,1132.6,1316.8,1102.2,1305.6,1061.6L1305.6,1061.6z"/>
	</g>
	<g>
		<path class="st33" d="M1644.8,593.7c-3.6,29.2-25.7,65.6-66.4,103.8c-73.6,69.1-185,122.3-271.8,133.6c0.8-14.9,2.1-29.9,3.9-44.9
			c12.1-103,44.4-192,88.7-257.5c6.3-3.1,12.6-5.9,18.8-8.5C1537,470.7,1655.4,506.8,1644.8,593.7z"/>
		<path class="st34" d="M1645.3,586.2L1645.3,586.2z M1306.6,831.1c86.8-11.3,198.2-64.5,271.8-133.6
			c42.8-40.2,65.1-78.4,66.8-108.3c-2.6,65.8-20.9,303.3-127.4,451.1C1388.9,1218.9,1295.8,1021.4,1306.6,831.1L1306.6,831.1z"/>
	</g>
	<path class="st35" d="M1644.8,593.7c-3.6,29.2-25.7,65.6-66.4,103.8c-32.7,30.7-72.9,58.3-115.1,80.4c-53.8,28.2-98.6,27.4-63.7-64
		c43.7-114.5,125-186.3,218.2-176.8c4.4,0.4,8.8,1.1,13.1,1.9C1642.1,553.8,1647.4,572.2,1644.8,593.7z"/>
	<path class="st27" d="M1631.2,246.1c22.1,0,40,17.9,40,40s-17.9,40-40,40s-40-17.9-40-40S1609.1,246.1,1631.2,246.1z M1631.2,196.2
		c9.5,0,17.2,7.7,17.2,17.2s-7.7,17.2-17.2,17.2s-17.2-7.7-17.2-17.2C1614.1,203.9,1621.8,196.2,1631.2,196.2z"/>
	<path class="st28" d="M1640.1,257.5c-10.9,0-19.7,8.8-19.7,19.7s8.8,19.7,19.7,19.7s19.7-8.8,19.7-19.7
		C1659.8,266.4,1651,257.5,1640.1,257.5z M1634.8,200c-4.3,0-7.8,3.5-7.8,7.8s3.5,7.8,7.8,7.8s7.8-3.5,7.8-7.8
		C1642.5,203.4,1639.1,200,1634.8,200z"/>
	<path class="st36" d="M1582.9,548.7L1485,478l-2.1-1.2l-2.2-1l-2.3-0.8l-2.3-0.6l-2.4-0.4l-2.5-0.1l-2.5,0.1l-2.6,0.3l-2.6,0.5
		l-2.7,0.8l-2.7,1l-2.8,1.3l-2.8,1.5l-2.9,1.7L1312.7,570c-23.2,26.9-37.1,53.3-37.1,74.5c0,49.6,75.7,52.4,169.1,6.3
		C1504.8,621,1554.9,584.3,1582.9,548.7z"/>
	<path class="st37" d="M1429.8,244.3c128.3-41.4,223.1,43.2,223.1,152.9c0,35.6-10,69.5-27.9,100.4
		c-37.2,64.3-108.6,115.9-195.2,143.9c-128.3,41.4-232.3-13.9-232.3-123.6C1197.5,408.3,1301.5,285.8,1429.8,244.3L1429.8,244.3z"/>
	<path class="st38" d="M1578.4,256.6c46.3,28.5,74.5,80.9,74.5,140.6c0,35.6-10,69.5-27.9,100.4c-37.2,64.3-108.6,115.9-195.2,143.9
		c-46.5,15-89.7,17.3-126,8.9c-39.4-22.8-63.6-62.9-63.6-115.7c0-109.3,103.7-231.5,231.6-272.8
		C1511,249.3,1547.2,248.5,1578.4,256.6L1578.4,256.6z"/>
	<path class="st17" d="M1613.9,345.6c-58.2,48.7-119.6,94.4-195.2,126.7c-13.7,8.9-25,33.8-25,55.2v66.3c0,13,5.8,22.1,13.4,25.2
		c3.7,1.5,11.9,1.7,20.6-1.2c31.6-10.5,85.8-45.1,101.8-55.4c50.6-32.6,73.7-52.5,88.7-80.3c12.9-24.1,20.8-53,20.8-113.9
		C1638.9,346.9,1627.6,336.7,1613.9,345.6z"/>
	<path class="st39" d="M1611.1,337.7c-58.2,48.7-119.6,94.4-195.2,126.7c-13.7,8.9-25,33.8-25,55.2v66.3c0,13,5.8,22.1,13.4,25.2
		c3.7,1.5,11.9,1.7,20.6-1.2c31.6-10.5,85.8-45.1,101.8-55.4c68.3-44,109.4-69.2,109.4-194.2C1636.1,339,1624.8,328.8,1611.1,337.7z
		"/>
	<path class="st35" d="M1492.1,288.7c51.3-16.6,96.4-9.7,130,11.9c-23.7-3.7-50.2-1.7-78.6,7.4c-35.7,11.5-69.1,30.3-98.1,53.7
		c-63.1,49.1-106.4,119.8-106,185.2c0.2,41.3-46.8,54.7-47.2-22.7C1291.7,429.8,1381.7,324.4,1492.1,288.7L1492.1,288.7z"/>
	<path class="st27" d="M1257.9,450.9c22.1,0,40,17.9,40,40c0,22.1-17.9,40-40,40s-40-17.9-40-40
		C1217.9,468.9,1235.8,450.9,1257.9,450.9z M1257.9,401.1c9.5,0,17.2,7.7,17.2,17.2s-7.7,17.2-17.2,17.2s-17.2-7.7-17.2-17.2
		S1248.4,401.1,1257.9,401.1z"/>
	<path class="st28" d="M1266.7,462.4c-10.9,0-19.7,8.8-19.7,19.7s8.8,19.7,19.7,19.7c10.9,0,19.7-8.8,19.7-19.7
		C1286.5,471.2,1277.6,462.4,1266.7,462.4z M1261.4,404.8c-4.3,0-7.8,3.5-7.8,7.8s3.5,7.8,7.8,7.8s7.8-3.5,7.8-7.8
		S1265.7,404.8,1261.4,404.8z"/>
	<path class="st40" d="M1611.1,337.7c-58.2,48.7-119.6,94.4-195.2,126.7c-13.7,8.9-25,33.8-25,55.2v66.3c0,13,5.8,22.1,13.4,25.2
		c0.7,0.3,1.5,0.5,2.5,0.7c-1.7-3.9-2.7-8.7-2.7-14.1v-66.3c0-21.4,11.2-46.3,25-55.2c75.6-32.3,137-78,195.2-126.7
		c3.5-2.2,6.8-3.3,9.8-3.2C1630.1,335,1621.3,331.1,1611.1,337.7L1611.1,337.7z"/>
	<path class="st41" d="M1604.1,716.9c-23,21.1-46.4,38.9-70.1,53.9c-23.1,14.6-46.7,26.9-70.1,38.1c-9.8,4.7-17.9,18.7-17.9,31.9
		v46.5c0,178.1,176.1,58.5,176.1-118.5v-46.5C1622,709.2,1614.3,707.5,1604.1,716.9L1604.1,716.9z"/>
	<path class="st40" d="M1600.5,709.7c-23,21.1-46.4,38.9-70.1,53.9c-23.1,14.6-46.7,26.9-70.1,38.1c-9.8,4.7-17.9,18.7-17.9,31.9
		v46.5c0,178.1,176.1,58.5,176.1-118.5v-46.5C1618.4,702,1610.7,700.3,1600.5,709.7z"/>
	<path class="st39" d="M1607.8,713.5c-23,21.1-46.4,38.9-70.1,53.9c-23.1,14.6-46.7,26.9-70.1,38.1c-9.8,4.7-17.9,18.7-17.9,31.9
		v46.5c0,44.6,11,70.5,27.6,81.6c51.3,19.8,141.2-77.4,141.2-203.8v-46.5c0-3.1-0.4-5.5-1.2-7.4
		C1614.5,708.4,1611.3,710.3,1607.8,713.5z"/>
	<g>
		<path class="st42" d="M1510,874v-59.5c2.1-1.2,4.3-2.5,6.4-3.8v24.5c8.3-5.1,16.7-10.2,25-15.5v-24.4c2.1-1.4,4.3-2.7,6.4-4.1
			v59.2c-2.1,1.4-4.3,2.7-6.4,4.1v-27.8c-8.3,5.3-16.7,10.4-25,15.5v27.9C1514.3,871.4,1512.2,872.7,1510,874L1510,874z
			 M1557.9,792.9v-8.3c2-1.3,4-2.7,6-4.1v8.3C1561.8,790.2,1559.8,791.5,1557.9,792.9z M1557.9,843.9V801c2-1.3,4-2.7,6-4.1v43
			C1561.8,841.2,1559.8,842.5,1557.9,843.9z M1576.1,816.6l-1.8-30.3v-13.2c2.5-1.8,4.9-3.6,7.4-5.5v13.3c-0.6,11-1.1,22-1.7,32.9
			C1578.6,814.8,1577.3,815.7,1576.1,816.6L1576.1,816.6z M1574.5,832.5v-8.3c2.3-1.6,4.5-3.2,6.8-4.9v8.4
			C1579,829.3,1576.8,830.9,1574.5,832.5z M1510.9,911.2v-8.3c2.3-1.4,4.5-2.8,6.8-4.2v8.3C1515.4,908.4,1513.1,909.8,1510.9,911.2z
			 M1524.9,902.4v-8.3c2.3-1.4,4.5-2.9,6.8-4.3v8.3C1529.4,899.6,1527.2,901,1524.9,902.4z M1538.6,893.9v-8.3
			c2.3-1.5,4.5-2.9,6.8-4.4v8.3C1543.1,891,1540.8,892.4,1538.6,893.9z M1552.5,884.9v-8.3c2.3-1.5,4.5-3,6.8-4.5v8.3
			C1557,881.9,1554.8,883.4,1552.5,884.9z M1566.5,875.6v-8.3c2.3-1.5,4.5-3.1,6.8-4.7v8.3C1571.1,872.5,1568.8,874,1566.5,875.6z
			 M1580.2,866.3v-8.4c2.3-1.6,4.5-3.2,6.8-4.8v8.4C1584.7,863.1,1582.5,864.7,1580.2,866.3z"/>
	</g>
	<g>
		<path class="st27" d="M1224.6,914c-22.8-13.2-41.3-33.7-41.3,39.1s18.5,142.6,41.3,155.8c22.8,13.2,41.3-35.2,41.3-108.1
			S1247.4,927.2,1224.6,914z"/>
		<path class="st27" d="M1235.6,784.4c30.8,9.6,55.8,46.1,55.8,81.7c0,35.5-25,56.6-55.8,47s-55.8-46.1-55.8-81.7
			S1204.8,774.8,1235.6,784.4z"/>
		<g>
			<path class="st28" d="M1234.6,1110.8c18-3.9,31.3-48.1,31.3-109.9c0-41.5-6-59.6-15.4-70c-1.2-0.7-2.5-1.3-3.7-2.1
				c-22.8-13.2-41.3-33.7-41.3,39.1C1205.5,1027.2,1217.7,1084.4,1234.6,1110.8z M1262.8,801c17.1,16.3,28.6,40.9,28.6,65.1
				c0,35.5-25,56.6-55.8,47c-1.7-0.5-3.4-1.1-5-1.8c-17.1-16.3-28.6-40.9-28.6-65.1c0-35.5,25-56.6,55.8-47
				C1259.5,799.7,1261.2,800.3,1262.8,801z"/>
		</g>
	</g>
	<path class="st43" d="M1452.6,529.2c-0.3,5.5-5.1,10-10.7,10s-9.9-4.5-9.6-10c0.9-14.8,6-30.1,15.7-42.1c9.1-11.3,22-19,36.5-19
		c6.3,0,12.3,1.5,17.7,4.3c5.6,2.8,10.4,6.9,14.3,11.7c3.4,4.2,2.5,10.5-1.9,14.1s-10.8,3.1-14.2-1.1c-2.2-2.8-5-5.2-8.2-6.8
		c-2.7-1.4-5.7-2.1-8.8-2.1c-7.9,0-14.8,4.9-19.7,10.9C1456.7,507.6,1453.2,518.7,1452.6,529.2L1452.6,529.2z M1571.5,455.8
		c-0.3,5.3-5,9.4-10.4,8.6c-4.7-0.7-7.9-5.1-7.7-9.7c0.7-11.9,4.5-24.7,12.5-34.3c7.5-9,18.2-14.2,29.7-12.4
		c5.1,0.8,9.8,2.9,13.9,5.8c4.3,3.1,8,7.1,10.9,11.5c2.6,4,1.9,9.7-2.2,12.7c-4.3,3.2-10,1.7-12.7-2.4c-1.7-2.5-3.7-4.9-6.2-6.7
		c-1.9-1.3-4-2.3-6.3-2.7c-5.3-0.8-9.9,2.1-13.3,6.1C1574.3,438.9,1571.9,447.9,1571.5,455.8L1571.5,455.8z"/>
	<g>
		<path class="st42" d="M1447.2,529.2c-0.1,2.6-2.4,4.7-5.1,4.7c-2.6,0-4.7-2.1-4.5-4.7c0.9-15.1,6.3-28.9,14.5-38.9
			c8.5-10.4,19.8-16.8,32-16.8c5.5,0,10.6,1.3,15.4,3.7c4.8,2.4,9.1,6,12.7,10.4c1.6,2,1.2,5-0.9,6.6c-2.1,1.7-5.1,1.5-6.7-0.5
			c-2.8-3.5-6.2-6.3-9.8-8.1c-3.4-1.7-7.2-2.7-11.2-2.7c-9,0-17.6,5-24.2,13C1452.6,504.4,1448,516.2,1447.2,529.2z M1566.1,455.8
			c-0.1,2.2-1.9,3.7-3.9,3.4s-3.6-2.3-3.4-4.5c0.7-12.6,5-23.6,11.2-31c6.5-7.8,15.2-11.8,24.5-10.4c4.2,0.6,8.1,2.4,11.7,5
			c3.6,2.6,6.9,6.1,9.6,10.3c1.2,1.9,0.9,4.3-0.7,5.5c-1.6,1.2-3.9,0.6-5.1-1.2c-2.1-3.3-4.7-6-7.4-8c-2.6-1.9-5.5-3.1-8.5-3.6
			c-6.9-1.1-13.5,2.1-18.5,8.1C1570.3,435.6,1566.7,444.9,1566.1,455.8L1566.1,455.8z"/>
	</g>
</g>
<g>
	
		<linearGradient id="SVGID_6_" gradientUnits="userSpaceOnUse" x1="2364.1997" y1="1813.1306" x2="2991.6831" y2="1813.1306" gradientTransform="matrix(1 0 0 -1 0 2958.3999)">
		<stop  offset="0" style="stop-color:#768596"/>
		<stop  offset="1" style="stop-color:#768596"/>
	</linearGradient>
	<path class="st44" d="M2458.4,1308.2c8.3-25,16.6-50,24.9-75.1c-39.7,1.2-79.4,2.3-119.1,3.5c18.1-25.2,36.1-50.5,54.2-75.7
		C3090.7,766.7,3254.5,1121.3,2458.4,1308.2L2458.4,1308.2z"/>
	
		<linearGradient id="SVGID_7_" gradientUnits="userSpaceOnUse" x1="2995.2002" y1="498.7356" x2="3465.9707" y2="498.7356" gradientTransform="matrix(1 0 0 -1 0 2958.3999)">
		<stop  offset="0" style="stop-color:#768596"/>
		<stop  offset="1" style="stop-color:#768596"/>
	</linearGradient>
	<path class="st45" d="M3034.3,2614.3c-7.5-18.6-14.9-37.1-22.4-55.7c-5.6-42.3-11.2-84.7-16.7-127
		C3523.1,2122.1,3700,2458.1,3034.3,2614.3L3034.3,2614.3z"/>
	
		<linearGradient id="SVGID_8_" gradientUnits="userSpaceOnUse" x1="1184.8" y1="671.5711" x2="1809.8635" y2="671.5711" gradientTransform="matrix(1 0 0 -1 0 2958.3999)">
		<stop  offset="0" style="stop-color:#768596"/>
		<stop  offset="1" style="stop-color:#768596"/>
	</linearGradient>
	<path class="st46" d="M1378.3,2436.6c-24.8-17.3-49.6-34.5-74.4-51.8c-39.7,1.2-79.4,2.3-119.1,3.5c18.1-25.2,36.1-50.5,54.2-75.7
		C1904.3,1922.5,2035.8,2282.3,1378.3,2436.6z"/>
	
		<linearGradient id="SVGID_9_" gradientUnits="userSpaceOnUse" x1="1802.0001" y1="243.1156" x2="2403.0835" y2="243.1156" gradientTransform="matrix(1 0 0 -1 0 2958.3999)">
		<stop  offset="0" style="stop-color:#768596"/>
		<stop  offset="1" style="stop-color:#768596"/>
	</linearGradient>
	<path class="st47" d="M1869.8,2878.2c-3.8-13.1-7.6-26.3-11.4-39.4c-18.5,3.7-37.1,7.4-55.6,11.1c-0.3-11.9-0.6-23.9-0.8-35.8
		c9.3-27.7,18.6-55.4,27.8-83.1C2502.1,2336.7,2665.9,2691.3,1869.8,2878.2z"/>
	
		<linearGradient id="SVGID_10_" gradientUnits="userSpaceOnUse" x1="3113.6001" y1="1691.7974" x2="3741.083" y2="1691.7974" gradientTransform="matrix(1 0 0 -1 0 2958.3999)">
		<stop  offset="0" style="stop-color:#768596"/>
		<stop  offset="1" style="stop-color:#768596"/>
	</linearGradient>
	<path class="st48" d="M3207.8,1429.5c8.3-25,16.6-50,24.9-75.1c-39.7,1.2-79.4,2.3-119.1,3.5c18.1-25.2,36.1-50.5,54.2-75.7
		C3840.1,888.1,4003.9,1242.7,3207.8,1429.5L3207.8,1429.5z"/>
</g>
<g>
	<path class="st49" d="M2410.5,1214c-13.3,8.1-25.6,20-34.6,22.2c-5.6,1.4-24.1,4.2-30.6-0.9c-4.4-3.5-9.2-7.8-9.5-12.5
		c-0.1-1.3-0.4-5,0-7.3c-0.5,5.2,4.7,10,9.5,13.8c6.5,5.1,24.9,2.3,30.6,0.9c9-2.2,21.2-14.1,34.6-22.2c7.9-4.8,27.6-7.3,31.4-15.1
		c1.5-3,2.6-6,3-9.4c0.7,6-0.7,10.8-3,15.4C2438.1,1206.7,2418.5,1209.1,2410.5,1214z"/>
	<path class="st50" d="M2410.5,1208c-13.3,8.1-25.6,20-34.6,22.2c-5.6,1.4-24,4.2-30.6-0.9c-5.9-4.6-12.4-10.8-8.3-17.3
		c15.4-24.1,34.8-25.6,52.8-42.4c10.6-9.9,48.4-22.5,54.5,4.9c1.7,7.5,0.1,13.1-2.5,18.4C2438.1,1200.7,2418.5,1203.1,2410.5,1208
		L2410.5,1208z"/>
	<path class="st51" d="M2444.4,1174.5c-0.2,2.2-38.1,14.8-62.5,0c-1.9-60.4-0.8-134.2-6.7-199.5c-2-56.4-20.4-129.5-6.2-192
		c11.2-25.5,90.2-6.4,89.7,11.7c3.3,59.9-2.4,134-9.9,190.3C2456.2,1056.4,2447.6,1107.3,2444.4,1174.5L2444.4,1174.5z"/>
	<path class="st52" d="M2427.2,1174.5c-0.1,1.2-10.8,5.2-24.5,6.6c-7.2-0.8-14.5-2.8-20.8-6.7c-1.9-60.4-0.8-134.2-6.7-199.5
		c-2-56.4-20.4-129.5-6.2-192c3.1-7.1,11.5-10.7,21.9-11.9c24.4,2.3,50.8,13.1,50.5,23.6c1.9,35.4,0.7,75.8-2.1,114.6
		c-4.4,59.5-2.9,114-5.9,171.5C2431.8,1110.9,2428.8,1140.6,2427.2,1174.5z"/>
	<path class="st53" d="M2274.1,800.1l28.8-23.8l26-36.6c9-11.7,15.8-43.6-16.4-19.5l-29.6,22.2c-3.2,2.4-6,5.1-9,7.7l-13.1,11.2
		c-8.3,6.7-3.5,15.1,2.4,11.1l13.1-11.2l0.6,3c-7.1,6.1-14.3,12.2-21.4,18.3c-8.4,6.8-2.9,12.9,2.3,16.9
		C2263,803.5,2268,805.3,2274.1,800.1L2274.1,800.1z"/>
	<path class="st49" d="M2511.2,1267.5c-9,11.1-20.3,26.5-27.9,31.5c-4.8,3.2-21.8,12.1-30.5,10.9c-9.3-1.3-16.1-5.2-18.4-10.4
		c-1.1-2.6-1.9-7.8-0.6-11.1c-1.8,8.8,6.1,14.5,18.9,16.3c8.7,1.2,25.2-8,30-11.2c7.7-5,18.5-20.2,27.7-31.2
		c5.2-6.2,13.2-14,14.1-20.8c0.1,1.1,0.1,2.3,0.1,3.5c-0.1,3.4-1.5,7.7-4.3,11.5C2517.5,1260.3,2513.9,1264.1,2511.2,1267.5
		L2511.2,1267.5z"/>
	<path class="st50" d="M2510.5,1262.3c-9.2,11-20,26.2-27.7,31.2c-4.8,3.2-21.3,12.4-30,11.2c-13.9-1.9-22.2-8.5-18.2-18.7
		c6.3-16.2,23-33.9,30.3-48.3c1.5-3,2.5-5.7,3.2-8.3c3.5-12.7,49.5-16.2,54.6-1.8c1.3,3.7,2,7.9,1.9,12.8
		C2524.5,1247.4,2515.9,1255.7,2510.5,1262.3L2510.5,1262.3z"/>
	<path class="st52" d="M2526.3,1233.5c-0.2,2.4-38.1,16-62.5,0c-1.9-65.5-16.7-141-22.7-211.8c-2-61.1-17-158.1-2.8-225.9
		c7.8-19.3,90.2-42.2,95.1,27.3c1.2,17.4,0.1,37.2,0.2,47.2c0.6,55.7-2.1,117.9-7.9,164.9
		C2529.9,1114.1,2529.5,1160.7,2526.3,1233.5L2526.3,1233.5z"/>
	<path class="st54" d="M2508.6,1233.5c-0.1,1.2-10.7,5.6-24.3,7.1c-7.2-0.9-14.3-3.1-20.6-7.2c-1.9-65.5-16.7-141-22.7-211.8
		c-0.9-29.3-5.9-87.6-8.2-126.2c-0.5-8-13.5-21.4-13.8-29.4c-1.2-34.1,0.6-47,6.6-75.6c3.3-8.1,32.2-11.5,50.5-13.7
		c10.8,1.5,21,6,28.4,14.9c-11.1,8.4-18.3,22.3-18.3,38c0,20.7,12.5,38.2,29.6,44.1c0.4,54.8-2.2,115.4-7.9,161.5
		C2512.3,1114.1,2511.8,1160.7,2508.6,1233.5L2508.6,1233.5z"/>
	<path class="st55" d="M2368.3,529.4c-4.6,26.1,5.8,73.5-1.3,117.1c-0.9,5.7-0.9,10.2,1.6,14c10.4,15.6,44.8,14.6,48.6-5.9
		c7.4-40.5,4.9-83.8,5.5-116.2c0.3-15.1,1.4-28.2-1.6-37.8c-4.6-14.9-12-17.2-20.7-16.8C2388.3,484.3,2374.4,495,2368.3,529.4
		L2368.3,529.4z"/>
	<path class="st56" d="M2368.3,529.4c-4.7,26.6,6.1,75.2-1.7,119.5c-3.2,18.3,36,27.9,40.4,5c6.2-32.3,4.1-65.3,3.3-93.9
		c-0.4-12.2,0.2-50.3-7.7-58.7c-5.9-6.3-16.2-7.8-21.1-2.4C2376,504.8,2371,514.2,2368.3,529.4L2368.3,529.4z"/>
	<path class="st55" d="M2364.6,637.4c-29.5,43-63.5,74.7-77.6,95.5c0.2,12.3,28.4,37.7,37.4,27.3c9.3-10.8,55.3-49.5,87.7-93.7
		c9.6-13,3.8-25.9-11-33.5C2386.9,625.7,2373.7,624.2,2364.6,637.4L2364.6,637.4z"/>
	<path class="st56" d="M2309.2,752.2c11.4-8.6,59.3-44.8,92-89.2c4-5.4,6.1-11,6-16.3c-0.1-14.3-18.1-23-30.6-19.5
		c-5,1.4-8.1,4.4-12,10.2c-29.5,43-63.5,74.7-77.6,95.5c0.1,5.7,6.1,14.1,13.5,20.5C2303.3,755.9,2305.3,755.1,2309.2,752.2
		L2309.2,752.2z"/>
	<path class="st57" d="M2510.4,396.7c0,10.4-2.3,25.8-6.8,39.8c-4,12.7-6.4,20.8-13.6,29.1c-2.9,3.3-8.6,3.7-12.1,3.7
		c-14.8,0-33.8-19.1-43.7-39.3c-3.7,0.1-7.3-0.3-10.6-1c-4.6-1.1-8.5-2.7-11.9-4.9c4.8,0.6,7.7-0.6,17.4-3.4
		c10.2-3.1,19.8-7.1,28.5-11.9c-11.3-10.1-38.1-4.4-57-4.4C2376.5,334.8,2510.4,316.9,2510.4,396.7L2510.4,396.7z"/>
	<path class="st58" d="M2538.5,515.5c-10.3-5.4-28.9-12.6-49.5-19.1c-32.1-10.1-71.8-16.2-89.1-13.2c-25.1,4.3-24.7,34.9-25.9,62.3
		c-3.8,86.5,13.4,130.5-7.4,237.6c-2.1,10.9-3.3,13.6,2.5,18.3c20.4,16.2,49.5,22.5,75.4,23.9c15.6,0.8,71.5,0.4,85.7-5.7
		c5.3-2.2,7.6-6.3,7.9-15.1c2.2-55.8-15.9-51.1-14.2-93.1c1.4-36.1,14.3-75.5,21.5-105.3C2556.2,561.7,2580.3,537.5,2538.5,515.5
		L2538.5,515.5z"/>
	<path class="st59" d="M2383.6,493.1l-0.2,0.2l-0.4,0.6l-0.4,0.6l-0.2,0.3l-0.2,0.3l-0.3,0.6l-0.4,0.7l-0.1,0.2l-0.5,0.9l-0.1,0.2
		l-0.3,0.7v0.1l-0.3,0.6l-0.2,0.4l-0.4,0.9v0.1l-0.3,0.7l-0.1,0.2l-0.2,0.5l-0.2,0.5l-0.1,0.2l-0.2,0.7v0.1l-0.2,0.6l-0.1,0.4
		l-0.1,0.3l-0.2,0.7l-0.2,0.8l-0.1,0.3l-0.1,0.5l-0.1,0.6v0.2l-0.2,0.8v0.1l-0.1,0.7l-0.1,0.5l-0.1,0.3l-0.2,0.8l-0.1,0.8l-0.1,0.3
		l-0.1,0.5l-0.1,0.7v0.2l-0.1,0.8v0.2l-0.1,0.7l-0.1,0.5v0.3l-0.1,0.9l-0.1,0.8v0.4l-0.1,0.5l-0.1,0.7v0.1l-0.1,0.9v0.2l-0.1,0.7
		l-0.1,0.6v0.3l-0.1,0.9v0.1l-0.1,0.8v0.9l-0.1,0.8v0.1l-0.1,0.9v1.9l-0.1,0.9v15.4c-3.8,86.5,13.4,130.5-7.4,237.6
		c-2.1,10.9-3.3,13.6,2.5,18.3c20.4,16.2,49.5,22.5,75.4,23.9c10.5,0.6,41.7,0.8,62.3-1.2c-8.5-96-1.1-231.3,10.1-292.9
		c2.8-15.2-21.4-29-45.5-34.5c-35.8-8.2-80.1-13.3-87.4-3.9L2383.6,493.1L2383.6,493.1z"/>
	<path class="st60" d="M2423.1,515.7c5.9-8.9,6.4-17.2,2-32.5c-1,0.1-4.4,0.8-5.3,0.7c-12.3-1.2-25.5-42.4-23.8-55.2
		c0.6-4.7,1.8-9.1,3.4-12.4c3.8-7.6,0.5-13.5-0.1-20.3c-0.5-6.6,0.9-13,3.5-18.7c6.2-18,28.3-24.7,39.3-24.3
		c4.3,0.2,11.2,0.4,17.4,3c8.5,3.7,15.4,10.8,11,18.3c-2.7,4.7-9.1,10.4-8.3,20.6c0.6,7.4,2.5,14.6,8.4,17.2c-0.1,2-0.3,4-0.5,6.2
		c-0.6,5.1-1.7,10-3.1,14.7c0,0,5,3.2,5.6,3.6c5.8-32.2,21.9-20,23.2-6.7c0.9,9-3.2,29.1-12.1,24.8c-0.6,10.5-0.5,20.3,0.6,29.4
		c2.3,18.2,11.8,20.9-2.9,29.5C2463.9,523.9,2426.9,525.1,2423.1,515.7L2423.1,515.7z"/>
	<path class="st53" d="M2423.1,515.7c5.2-7.9,6.2-15.2,3.4-27.4c10.8,0.1,22.8-2.5,28.9,6.1c4.4,6.1,6.6,16.7,7.1,25.9
		C2445.2,523.7,2425.8,522.4,2423.1,515.7z M2399.6,398.4c0.9,5.8,3.1,11.2-0.2,17.9c-1.6,3.3-2.8,7.7-3.4,12.4
		c-1.6,12.2,10.4,50.6,22.3,54.8c2.8,1,8.2-0.2,11.2-0.6c13-1.9,27.1-4.8,33.9-16.1c4-6.6,2.6-33.2-2-39.8c-2-2.9-8.3-2-9.8-4.4
		s1.8-8.2,2-10.3c0.5-4.3-0.8-11-0.2-17.6c0.6-6.5,3.1-12.8,3.1-17c-0.1-17.2-18.2-24.4-32.9-19.1
		C2408.2,364.1,2397.3,384.5,2399.6,398.4L2399.6,398.4z"/>
	<path class="st55" d="M2518.2,578c-0.4,26.5,17.4,71.6,17.4,115.8c0,5.7,0.7,10.2,3.8,13.5c12.7,13.7,46.6,7.2,47-13.5
		c0.9-41.2-8.5-83.5-13.1-115.6c-2.1-15-3.2-28.1-7.6-37.1c-6.9-14-14.6-15.1-23.1-13.3C2530.8,530.3,2518.8,543.1,2518.2,578
		L2518.2,578z"/>
	<path class="st56" d="M2518.2,578c-0.4,27,18,73.2,17.4,118.2c-0.3,18.6,40,21.8,40.7-1.5c1-32.9-6.4-65.1-11.8-93.2
		c-2.3-12-7.8-49.7-17-56.7c-6.8-5.2-17.2-5.1-21.2,1C2521.9,552.5,2518.5,562.5,2518.2,578L2518.2,578z"/>
	<path class="st53" d="M2425,841.1l31.5-20.3l30.1-33.3c10.3-10.5,20.8-41.4-13.9-21.3l-32,18.5c-3.4,2-6.6,4.4-9.9,6.6l-14.3,9.5
		c-9,5.6-5.2,14.6,1.1,11.3l14.3-9.5l0.2,3.1l-23.4,15.6c-9.1,5.7-4.4,12.5,0.2,17.1C2413.5,843.1,2418.3,845.5,2425,841.1
		L2425,841.1z"/>
	<path class="st55" d="M2534.5,682.3c-32.5,40.8-68.8,69.9-84.3,89.6c-0.7,12.3,25.6,39.7,35.4,29.9c10.1-10.1,58.7-45.4,94.3-87.1
		c10.5-12.3,5.7-25.6-8.5-34.2C2557.6,672.3,2544.5,669.7,2534.5,682.3z"/>
	<path class="st56" d="M2470.9,792.8c12-7.7,62.4-40.4,98.2-82.3c4.4-5.1,8.9-12.4,9.2-17.6c0.9-14.3-16.4-24.3-29.1-21.6
		c-5.1,1.1-10.4,5.7-14.8,11.1c-32.5,40.8-68.8,69.9-84.3,89.6c-0.3,5.7,5.1,14.5,12,21.5C2464.8,796,2466.9,795.4,2470.9,792.8
		L2470.9,792.8z"/>
	<path class="st17" d="M2434.7,521.4c29.6-8.3,46.6-16.7,51.4-28.4c5.3-1,16,3.1,17.5,9.6c-13.9,15.3-34.4,27.7-57.3,33.5
		C2446.2,530.4,2441.9,524.7,2434.7,521.4L2434.7,521.4z M2434.7,521.4c-6-0.9-10.4-2.8-11.6-5.8c3.7-5.6,5.3-10.9,4.9-17.9
		c-22.1,6.4-31.7,32.8-12.9,38.2C2418.1,530.3,2425.7,524.7,2434.7,521.4z"/>
	<path class="st61" d="M2451.3,421.2l28-2c-1.1,1.1-1.9,2.7-2.7,4.2l-25.3,1.9v1c0,2.1-0.8,4.1-2.4,5.5c-1.6,1.4-3.7,1.9-5.8,1.5
		l-13.9-2.1c-2.2-0.3-4.2-1.5-5.7-3.2c-1.4-1.7-2.4-3.8-2.4-6v-1.3l-3.6-0.7v1.2c0,2.1-0.8,4.1-2.4,5.5c-1.6,1.4-3.7,1.9-5.8,1.5
		l-13.9-2.1c-2.2-0.3-4.2-1.5-5.7-3.2c-1.4-1.7-2.4-3.8-2.4-6v-4.7c0-2.1,0.8-4.1,2.4-5.5s3.7-1.9,5.8-1.5l13.9,2.1
		c2.2,0.3,4.2,1.5,5.7,3.2c1.3,1.5,2.1,3.4,2.3,5.3l3.7,0.7c0.2-1.8,1-3.5,2.4-4.6c1.6-1.4,3.7-1.9,5.8-1.5l13.9,2.1
		c2.2,0.3,4.2,1.5,5.7,3.2C2450.3,417.1,2451.2,419.1,2451.3,421.2z M2443,416.5l-13.9-2.1c-1-0.1-1.9,0.1-2.7,0.7
		c-0.7,0.6-1.1,1.5-1.1,2.5v4.7c0,1.1,0.5,2.2,1.2,3c0.7,0.9,1.8,1.5,2.9,1.7l13.9,2.1c1,0.1,1.9,0,2.7-0.7c0.7-0.6,1.1-1.5,1.1-2.5
		v-4.7c0-1.1-0.5-2.2-1.2-3C2445.2,417.3,2444.1,416.7,2443,416.5z M2409.2,411.2l-13.9-2.1c-1-0.1-1.9,0-2.7,0.7
		c-0.7,0.6-1.1,1.5-1.1,2.5v4.7c0,1.1,0.5,2.2,1.2,3c0.7,0.9,1.8,1.5,2.9,1.7l13.9,2.1c1,0.1,1.9,0,2.7-0.7c0.7-0.6,1.1-1.5,1.1-2.5
		v-4.7c0-1.1-0.5-2.2-1.2-3C2411.3,412,2410.3,411.4,2409.2,411.2z"/>
	<g>
		<path class="st53" d="M1921.8,2065.5l7.3,29.4l2.1,58.9l-18.8,18c-2.4-6.3-5.5-43-11-82.8c-2.4-9.5-2.3-9.3-4.7-18.9
			c-1.8-6.3,0.3-18.8,9.3-16.1c3.4,1,6.7,2,10.1,2.9C1919.8,2058.1,1921,2062.1,1921.8,2065.5L1921.8,2065.5z"/>
		<path class="st62" d="M1938.1,2111.3c4.1,31.2,8.3,62.4,12.4,93.6c5.3,40.2-34.9,49.9-40.8,8.5c-5.3-37.3-9.6-70.1-10.9-89.9
			C1897.1,2118,1931.3,2104.7,1938.1,2111.3L1938.1,2111.3z"/>
		<path class="st56" d="M1941.1,2119.2c5.4,40.7,9.8,99.8,18.2,138.5c10.6,34.4-42.9,42.6-47.6,10.6
			c-8.1-55.3-13.2-105.8-15.1-134.1C1894.8,2127.4,1932.8,2111.1,1941.1,2119.2L1941.1,2119.2z"/>
		<path class="st60" d="M1757.3,2516.5c0,0-0.8,16.8-6.4,44c-5.6,27.2-15.9,69.7-10.3,101.2c2.7,14.9,4.8,40.8,6.9,64.8
			c2.3,26.7-10.7,44-8,48.9c5.1,9.3,54.8,72.5,75.1,46.8c-41.8-13.7-25.4-120.9-20.2-161.2c2.9-22.3,6.4-45.4,7.9-65
			c2.4-30.8,3.5-60.8-1.4-62.7L1757.3,2516.5z"/>
		<path class="st53" d="M1756.5,2526.4c-0.9,7.6-2.5,19.4-5.5,34.2c-5.6,27.2-15.9,69.7-10.3,101.2c2.7,14.9,4.8,40.8,6.9,64.8
			c2.3,26.7-10.7,44-8,48.9c3.3,6.1,26,35.6,47,47.7c-5.1-12.3-7.2-26.7-9.9-38.9c-9.2-41.3,3.2-92,6-118.1
			c2.4-22.2,5.4-45.3,6.5-64.9c1.7-30.8,2.2-60.8-2.8-62.8L1756.5,2526.4L1756.5,2526.4z"/>
		<path class="st56" d="M1804.1,2815.9c7.4-0.3,14.9-0.5,22.3-0.8c3.5,0.3,6.2,1.4,8.3,3c4.1,3.3,2.8,3.8,0.2,7.2
			c-7.1,8.9-14.5,16.3-22.3,22c-9.8,7-18.4,3.5-24.6-5.7c-17.6-25.8-10.5-22.6-41.1-26.9c-24-8.1-21-45.7-2.9-57.1
			c26.4,10,32.3,45.7,48.5,68.6c12.2,6.9,21-2.6,23.4-4.1C1811.2,2820.6,1807.2,2819.3,1804.1,2815.9L1804.1,2815.9z"/>
		<path class="st63" d="M1804.1,2815.9c7.4-0.3,14.9-0.5,22.3-0.8c3.5,0.3,6.2,1.4,8.3,3c4.1,3.3,2.8,3.8,0.2,7.2
			c-7.1,8.9-14.5,16.3-22.3,22c-9.7,6.9-18.1,3.6-24.3-5.3c-6.1-11.6-9.6-24.8-9.6-38.9v-2.3c4.2,8.9,8.4,17.9,13.7,25.4
			c12.2,6.9,21-2.6,23.4-4.1C1811.2,2820.6,1807.2,2819.3,1804.1,2815.9L1804.1,2815.9z"/>
		<path class="st64" d="M1795.1,2848.7l-27-14.5l-8.4-17.8c16,2.3,13.7,3.8,28.2,25.1C1790.1,2844.6,1792.5,2847.1,1795.1,2848.7z"
			/>
		<path class="st63" d="M1748.3,2814.8v49.4h6.8v-48.5L1748.3,2814.8z"/>
		<path class="st64" d="M1748.3,2814.8v49.4l-7-3.4V2812c1.6,1,3.5,1.9,5.5,2.6L1748.3,2814.8z"/>
		<path class="st60" d="M1824.7,2543.3c0,0-0.8,16.8-6.4,44c-5.6,27.2-15.9,69.7-10.3,101.2c2.7,14.9,4.8,40.8,6.9,64.8
			c2.3,26.7-10.7,44-8,48.9c5.1,9.3,54.8,72.5,75.1,46.8c-41.8-13.7-25.4-120.9-20.2-161.2c2.9-22.3,6.4-45.4,7.9-65
			c2.4-30.8,3.5-60.8-1.4-62.7L1824.7,2543.3z"/>
		<path class="st53" d="M1823.3,2557.7c-0.9,7.4-2.5,17.5-5,29.7c-5.6,27.2-15.9,69.7-10.3,101.2c2.7,14.9,4.8,40.8,6.9,64.8
			c2.3,26.7-10.7,44-8,48.9c2.9,5.3,20.1,27.8,38.2,41.7c-4.1-11.1-6.3-23.4-9-34.1c-10.2-41.1,1-92,3.2-118.2
			c1.8-22.3,4.3-45.4,4.9-65c0.9-30.8,0.7-60.8-4.3-62.8L1823.3,2557.7L1823.3,2557.7z"/>
		<path class="st56" d="M1871.5,2842.7c7.4-0.3,14.9-0.5,22.3-0.8c3.5,0.3,6.2,1.4,8.3,3c4.1,3.3,2.8,3.8,0.2,7.2
			c-7.1,8.9-14.5,16.3-22.3,22c-9.8,7-18.4,3.5-24.6-5.7c-17.6-25.8-10.5-22.6-41.1-26.9c-24-8.1-21-45.7-2.9-57.1
			c26.4,10,32.3,45.8,48.5,68.6c12.2,6.9,21-2.6,23.4-4.1C1878.6,2847.3,1874.6,2846.1,1871.5,2842.7L1871.5,2842.7z"/>
		<path class="st63" d="M1871.5,2842.7c7.4-0.3,14.9-0.5,22.3-0.8c3.5,0.3,6.2,1.4,8.3,3c4.1,3.3,2.8,3.8,0.2,7.2
			c-7.1,8.9-14.5,16.3-22.3,22c-1.8,1.3-3.6,2.3-5.3,2.9c-23.7-14.2-39.7-40.6-39.7-70.8v-0.2c9.1,14.7,15.1,33.3,24.9,47.1
			c12.2,6.9,21-2.6,23.4-4.1C1878.6,2847.3,1874.6,2846.1,1871.5,2842.7L1871.5,2842.7z"/>
		<path class="st64" d="M1862.5,2875.5l-27-14.6l-8.4-17.8c16,2.3,13.7,3.8,28.2,25.1C1857.5,2871.4,1859.9,2873.9,1862.5,2875.5z"
			/>
		<path class="st63" d="M1815.7,2841.6v50.8h6.8v-49.9L1815.7,2841.6z"/>
		<path class="st64" d="M1815.7,2841.6v50.8l-7-3.5v-50.1c1.6,1.1,3.5,2,5.5,2.6L1815.7,2841.6z"/>
		<path class="st56" d="M1803,2341.7c-17.2,0-53.9,4.1-70.9,11.1c-5,52.2,8.3,123.5,11.2,185.5c19.7,12.7,89.6,75,148.1,17.1
			l-8.7-200.7C1871.4,2352.4,1820.2,2341.7,1803,2341.7L1803,2341.7z"/>
		<path class="st58" d="M1803,2341.7c-17.2,0-53.9,4.1-70.9,11.1c-5,52.2,8.3,123.5,11.2,185.5c13.3,8.6,49.4,39.7,89.5,41.3
			l-6.4-235.5C1816.8,2342.8,1808.3,2341.7,1803,2341.7L1803,2341.7z"/>
		<path class="st56" d="M1659.9,2204.9c-10.2,8.7-12.5,22.1,5.2,40.5c13,13.6,54.2,56.3,78.2,73.1c7.9,5.5,31.2-11.7,22.1-28.5
			c-11.5-21.3-49.6-61.6-63.3-76C1684.5,2195.5,1670.2,2196.2,1659.9,2204.9z"/>
		<path class="st56" d="M1760.3,2111.8c-12.1,22.7-44.7,103-73.4,130.4c-4,3.8-13.4,3-22.2-1.6c-7.3-3.8-14.9-10-12.7-21.4
			c6-31.9,36.3-101.9,49.4-125.8C1732.2,2036.8,1783.8,2067.9,1760.3,2111.8L1760.3,2111.8z"/>
		<path class="st58" d="M1858.7,2089c-30.1-16.7-62.1-13.6-94-24.4c-55.1-18.6-59.6,40.9-55.6,80c6.3,61.8,17,77.3,20.3,117.5
			c1.1,13.9-4.1,34.5-5.2,56.3c-1.4,27.7-1.2,58.1-0.8,93.9c11.3,6.3,26.1,14,42.9,20.2l1.8-16.9l3.4,18.8
			c36.4,12.6,81.3,17.4,122.2-12.9c-1.8-33.3-6-63.6-11.3-92.7c-4.1-22.1-14.7-43.4-14.9-63.9c-0.4-30.3,22.7-75.2,23.2-106.8
			C1891.2,2115.8,1895.7,2109.5,1858.7,2089L1858.7,2089z"/>
		<path class="st59" d="M1816.5,2075.3c-17.1-3.1-34.5-4.8-51.8-10.7c-55.1-18.6-59.6,40.9-55.6,80c6.3,61.8,17,77.3,20.3,117.5
			c1.1,13.9-4.1,34.5-5.2,56.3c-1.4,27.7-1.2,58.1-0.8,93.9c11.3,6.3,26.1,14,42.9,20.2l1.8-16.9l3.4,18.8
			c7.5,2.6,15.4,4.9,23.5,6.6c-7.5-44.1-0.1-118.3,13.8-165c3.9-13,2.4-25.2-0.6-37.4c-10-40.2-15.5-49.8-10.1-99.5
			C1800.5,2115.5,1806.3,2092.7,1816.5,2075.3L1816.5,2075.3z"/>
		<path class="st56" d="M1861.7,2103c-20,9.7-25.6,24-11.3,55c10.5,22.8,42.8,100.5,71.6,127.4c4,3.7,13.8,3.1,23.2-1.4
			c7.7-3.7,15.8-9.7,14-20.7c-5.1-31.1-35.7-98.6-46.8-122.8C1898,2109.5,1881.7,2093.3,1861.7,2103z"/>
		<path class="st53" d="M1838.4,2081.8c-2.4-9.1-2.6-18.5,0-28.5c5.1-0.7,10.3-1.5,15.7-2.2c15.6-2.1,13.9-7.5,16.5-23.5
			c1-6.1,1.8-12.4,2.3-18.3c1.4-16.7-4.4-17-4.6-21.8c-0.2-4.6,3.4-11.4,2.9-15.2c-2.5-21.7-9-32.5-17.4-38.6
			c-23.2,6.5-46.4,13.1-69.6,19.6c-0.8,39.3-1.6,78.5-11.2,114C1790.8,2080.8,1813.1,2084.5,1838.4,2081.8L1838.4,2081.8z"/>
		<path class="st65" d="M1841.7,2005.3c-2.4,2.1-7,6.3-8.4,2.3c-3.1-12.9-9.4-15.7-16.4-8.4c-7.6,7.9-8.6,25.7,3.6,22.4
			c-3,4.6-5.2,9.3-6.8,14c-1.6,5-14,3.3-23.2,3.1c-8.7-0.2-14.3,1.3-16.2-3.2c-5.3-12.7-14.6-21.6-18.2-27.9
			c-10.7-18.6-10.6-36.8-5.6-51.7c8.1-23.9,23.3-35.2,47.6-38c19.9-2.3,48-0.4,60.3,7.3C1873.3,1934.6,1880.9,1974.3,1841.7,2005.3
			L1841.7,2005.3z"/>
		<path class="st66" d="M1841.7,2005.3c-2.4,2.1-7,6.3-8.4,2.3c-3.1-12.9-9.4-15.7-16.4-8.4c-7.6,7.9-8.6,25.7,3.6,22.4
			c-3,4.6-5.2,9.3-6.8,14c-1,3.2-6.3,3.7-12.3,3.5c-6.6-21.8-5.9-42.7-1.6-60.3c8.1-32.9,23.3-48.6,47.7-52.4
			c3.6-0.6,7.4-0.9,11.3-1.1C1873.4,1934.9,1880.7,1974.4,1841.7,2005.3z"/>
		<path class="st17" d="M1840,2065c-14.4-0.1-53.8-5.2-64.8-14.7c-2.2-0.5-7.7,17.3-7.7,17.3c16.6,9.5,40.2,15.8,72.5,7.7V2065z"/>
		<path class="st56" d="M1846.1,2074.6c0,0-65.4-2.8-78.7-17.3c-2.4-0.8-8,13-8,13c18.8,13.9,49.1,25.1,92.5,15.3
			c3.6,1.9,7.7,4.1,11.3,6C1860.6,2088.2,1853.9,2083.1,1846.1,2074.6z"/>
		<path class="st60" d="M1836.6,2064.9c0.2-3.8,0.8-7.7,1.8-11.6c5.1-0.7,10.3-1.5,15.7-2.2c-23.6-1.3-40.7-4.2-40.4-15.3
			c-1.3,3.6-8.3,3.6-15.6,3.3c-4.8,5.4-12.3,8.7-20.9,9.4c-0.2,1-0.4,2-0.6,2.9C1788.5,2059.6,1820.9,2064.2,1836.6,2064.9
			L1836.6,2064.9z"/>
		<path class="st66" d="M1731.6,1927.5c-14.4,8.4-23.8,25-22.6,43.3c2,30.1,34.5,76.8,26.4,99.6c-4.7,13.2-17,18.9-38.5,7.3
			c15.3,37.5,68.3,41.3,90.1,5.4c13.3-21.9,22.5-117.7,4.3-142.1C1777.6,1922.9,1753.1,1915,1731.6,1927.5z"/>
		<path class="st65" d="M1731.6,1927.5c-14.4,8.4-23.8,25-22.6,43.3c2,30.1,34.5,76.8,26.4,99.6c-4.7,13.2-17,18.9-38.5,7.3
			c3.5,8.7,9.1,15.6,15.9,20.6c19.5,3.4,41-4.3,53-24.1c13.3-21.9,22.5-117.7,4.3-142.1c-2.9-3.9-6.4-7.4-10.2-10.3
			C1750.6,1920.5,1740.8,1922.1,1731.6,1927.5L1731.6,1927.5z"/>
	</g>
	<g>
		<path class="st67" d="M3081.4,799.9c22.7,41.2,33.8,81.3,44.9,101c10.4,5,44.3-6.4,39.7-17.8c-4.8-11.8-16.5-64.2-38.8-108.2
			c-6.6-13-20-13.9-32.9-5.5C3081.7,777.5,3074.4,787.2,3081.4,799.9z"/>
		<path class="st67" d="M3116.2,678.4c-12.2,20.6-17.4,63.5-37.1,98.2c-2.6,4.5-4,8.3-2.9,12.2c4.5,16.1,35.8,25.2,45.5,9
			c19.1-32,30.1-69.1,40.6-96.2c4.9-12.6,9.9-23.4,10.2-32.3c0.5-13.9-5.5-17.9-13.5-20.1C3148,646.2,3132.2,651.2,3116.2,678.4z"/>
		<path class="st68" d="M3116.2,678.4c-12.4,21-17.6,65-38.2,100.1c-8.5,14.5,23.8,33.9,34.8,15.8c15.5-25.4,23.7-53.8,31.8-78.1
			c3.4-10.4,15.7-42.3,11.1-51.6c-3.4-7-12.2-11.2-18.2-8.1C3130.6,660,3123.3,666.4,3116.2,678.4L3116.2,678.4z"/>
		<path class="st69" d="M3157.2,947.2l-19.2-28l-13-38c-4.8-12.3-1.7-41.2,20.4-12.2l20.4,26.8c2.2,2.9,4,6,6,9l8.6,13
			c5.6,7.9-1.2,13.8-5.4,8.8l-8.6-13l-1.4,2.4l14.1,21.3c5.7,8-1.1,11.8-6.9,13.7C3166.3,953,3161.2,953.2,3157.2,947.2
			L3157.2,947.2z"/>
		<path class="st68" d="M3151,891.5c-2-12.6-10.8-65.3-33.2-109.7c-2.7-5.4-6.5-9.4-10.9-11.6c-12-6-27.4,4.5-30.1,15.7
			c-1.1,4.6,0,8.2,3.1,13.7c22.7,41.2,33.8,81.3,44.9,101c4.8,2.3,14.6,1.1,23.2-1.9C3151.3,897.7,3151.7,895.7,3151,891.5z"/>
		<path class="st70" d="M3161.8,1340.8c-12.7,7.7-24.3,19-32.8,21.1c-5.4,1.3-22.8,4-29-0.9c-4.2-3.3-8.7-7.4-9.1-11.9
			c-0.1-1.2-0.4-4.8,0-6.9c-0.5,4.9,4.5,9.5,9.1,13.1c6.2,4.9,23.7,2.2,29,0.9c8.5-2.1,20.2-13.4,32.8-21.1
			c7.5-4.6,26.2-6.9,29.8-14.3c1.4-2.8,2.4-5.7,2.8-8.9c0.7,5.7-0.7,10.3-2.8,14.6C3188,1333.8,3169.4,1336.2,3161.8,1340.8
			L3161.8,1340.8z"/>
		<path class="st71" d="M3161.8,1335.1c-12.7,7.7-24.3,19-32.8,21.1c-5.4,1.3-22.8,4-29-0.9c-5.6-4.4-11.8-10.3-7.8-16.5
			c14.6-22.9,33.1-24.3,50.1-40.3c10.1-9.4,45.9-21.4,51.8,4.7c1.6,7.1,0.1,12.4-2.4,17.5C3188,1328.1,3169.4,1330.5,3161.8,1335.1
			L3161.8,1335.1z"/>
		<path class="st72" d="M3194,1303.3c-0.2,2.1-36.2,14.1-59.4,0c-1.8-57.4-0.7-127.5-6.4-189.5c-1.9-53.6-19.3-123-5.9-182.3
			c10.7-24.2,85.7-6.1,85.2,11.1c3.1,56.9-2.2,127.2-9.4,180.7C3205.2,1191.1,3197.1,1239.4,3194,1303.3L3194,1303.3z"/>
		<path class="st73" d="M3177.6,1303.3c-0.1,1.1-10.3,5-23.3,6.3c-6.9-0.8-13.8-2.7-19.8-6.3c-1.8-57.4-0.7-127.5-6.4-189.5
			c-1.9-53.6-19.3-123-5.9-182.3c3-6.7,10.9-10.2,20.8-11.3c23.2,2.2,48.3,12.4,48,22.4c1.8,33.7,0.7,72-2,108.8
			c-4.1,56.5-2.7,108.3-5.6,162.9C3182,1242.9,3179.2,1271.1,3177.6,1303.3z"/>
		<path class="st70" d="M3257.5,1391.6c-8.5,10.6-19.3,25.2-26.5,30c-4.6,3-20.7,11.5-29,10.4c-8.8-1.2-15.3-5-17.4-9.8
			c-1.1-2.4-1.8-7.4-0.6-10.6c-1.7,8.4,5.8,13.8,18,15.5c8.2,1.1,23.9-7.6,28.5-10.6c7.3-4.8,17.6-19.2,26.3-29.6
			c4.9-5.9,12.5-13.3,13.4-19.8c0.1,1.1,0.1,2.2,0.1,3.3c-0.1,3.3-1.4,7.3-4.1,10.9C3263.4,1384.8,3260.1,1388.4,3257.5,1391.6
			L3257.5,1391.6z"/>
		<path class="st71" d="M3256.8,1386.7c-8.7,10.5-19,24.8-26.3,29.6c-4.6,3-20.3,11.7-28.5,10.6c-13.2-1.8-21-8.1-17.3-17.8
			c6-15.4,21.9-32.2,28.8-45.9c1.4-2.8,2.4-5.5,3-7.8c3.4-12,47-15.4,51.9-1.7c1.2,3.5,1.9,7.5,1.8,12.1
			C3270.1,1372.5,3261.9,1380.4,3256.8,1386.7L3256.8,1386.7z"/>
		<path class="st72" d="M3271.8,1359.4c-0.2,2.2-36.2,15.2-59.4,0c-1.8-62.2-15.9-133.9-21.5-201.2c-1.9-58.1-16.1-150.2-2.7-214.5
			c7.4-18.3,85.7-40.1,90.3,26c1.2,16.5,0.1,35.3,0.2,44.8c0.5,52.9-2,111.9-7.5,156.6C3275.2,1245.9,3274.8,1290.2,3271.8,1359.4
			L3271.8,1359.4z"/>
		<path class="st74" d="M3255,1359.4c-0.1,1.2-10.2,5.3-23.1,6.8c-6.8-0.9-13.6-2.9-19.6-6.8c-1.8-62.2-15.9-133.9-21.5-201.2
			c-0.9-27.8-5.6-83.2-7.8-119.9c-0.4-7.6-12.8-20.3-13.1-27.9c-1.2-32.4,0.6-44.7,6.2-71.8c3.1-7.7,30.6-10.9,48-13.1
			c10.2,1.4,20,5.7,27,14.1c-10.5,7.9-17.4,21.1-17.4,36.1c0,19.6,11.8,36.2,28.2,41.9c0.4,52.1-2.1,109.6-7.5,153.4
			C3258.5,1245.9,3258.1,1290.2,3255,1359.4L3255,1359.4z"/>
		<path class="st75" d="M3250.6,547.6c3.8,4.1,6.1,9.6,6.1,16.9c0,9.8-2.2,24.5-6.4,37.8c-3.8,12.1-6.1,19.8-12.9,27.6
			c-2.7,3.1-8.1,3.5-11.5,3.5c-14.1,0-32.1-18.2-41.5-37.3c-3.5,0.1-6.9-0.3-10-1c-4.4-1-8.1-2.6-11.3-4.7c4.5,0.6,7.3-0.5,16.5-3.3
			c9.7-2.9,18.8-6.7,27.1-11.3c-10.8-9.6-36.2-4.1-54.2-4.1c-10.7-13.3-3.8-33.5-0.5-41.2c8.4-19.7,32.7-28.8,56.8-23.3
			C3233,512.7,3251.6,526.9,3250.6,547.6L3250.6,547.6z"/>
		<path class="st67" d="M3283.4,677.3c-9.7-5.1-27.5-12-47-18.1c-30.5-9.6-68.2-15.4-84.7-12.6c-23.9,4-23.5,33.1-24.6,59.2
			c-3.6,82.2,12.7,124-7.1,225.7c-2,10.4-3.2,12.9,2.4,17.3c19.3,15.4,47.1,21.3,71.7,22.7c14.8,0.8,67.9,0.4,81.4-5.4
			c5-2.1,7.2-6,7.5-14.4c2.1-53-15.1-48.6-13.5-88.4c1.4-34.3,13.5-71.7,20.4-100C3300.2,721.3,3323.1,698.2,3283.4,677.3
			L3283.4,677.3z"/>
		<path class="st68" d="M3136.2,656.1l-0.2,0.2l-0.4,0.6l-0.3,0.5l-0.2,0.3l-0.2,0.3l-0.3,0.5l-0.4,0.7l-0.1,0.2l-0.4,0.9l-0.1,0.2
			l-0.3,0.6v0.1l-0.3,0.6l-0.1,0.3l-0.4,0.9l-0.3,0.7l-0.1,0.2l-0.2,0.5l-0.2,0.5l-0.1,0.2l-0.2,0.7v0.1l-0.2,0.6l-0.1,0.4l-0.1,0.3
			l-0.2,0.7l-0.2,0.7l-0.1,0.3l-0.1,0.5l-0.1,0.6v0.2l-0.2,0.8v0.1l-0.1,0.6l-0.1,0.5l-0.1,0.3l-0.2,0.8l-0.1,0.8l-0.1,0.3l-0.1,0.5
			l-0.1,0.6v0.2l-0.1,0.8v0.2l-0.1,0.6l-0.1,0.5v0.3l-0.1,0.8l-0.1,0.8v0.4l-0.1,0.5l-0.1,0.7v0.1l-0.1,0.8v0.2l-0.1,0.6l-0.1,0.6
			v0.3l-0.1,0.9v0.1l-0.1,0.8v0.9l-0.1,0.8v0.1l-0.1,0.9v1.8l-0.1,0.9v15.1c-3.6,82.2,12.7,124-7.1,225.7c-2,10.4-3.2,12.9,2.4,17.4
			c19.3,15.4,47.1,21.3,71.7,22.7c10,0.5,39.6,0.7,59.2-1.2c-2.4-27.6-3.5-58.7-3.5-90.2c0-72.5,5.7-147.3,13.1-188
			c2.6-14.4-20.4-27.6-43.3-32.8c-34-7.8-76.1-12.6-83.1-3.7H3136.2L3136.2,656.1z"/>
		<path class="st60" d="M3177.6,669.3c0.5-6.2,0.9-12.8-1.9-22.6c-0.9,0.1-4.2,0.8-5,0.7c-11.7-1.1-24.2-40.3-22.6-52.4
			c0.6-4.4,1.7-8.7,3.2-11.8c3.6-7.2,0.4-12.8-0.1-19.3c-0.5-6.3,0.7-12.5,3.2-17.9c0.5,0.8,1,1.5,1.6,2.3c6,7.7,36.2,11.9,48.7,7.4
			c4.6-1.7,5.8,2.9,6.2,7.2c0.6,7,2.3,13.9,8,16.3c-0.1,1.9-0.2,3.8-0.5,5.9c-0.6,4.8-1.6,9.5-3,14c0,0,4.8,3,5.3,3.5
			c5.5-30.5,20.8-19,22-6.3c0.8,8.5-3.1,27.7-11.5,23.5c-0.6,10-0.5,19.3,0.6,27.9c1.5,11.8,6.2,16.8,4.5,21.3
			c-2.3,6.3-39,58-58.5,61.4C3175.5,702.8,3175.3,694.8,3177.6,669.3L3177.6,669.3z"/>
		<path class="st53" d="M3176.7,650.8c9.8,0.1,18.8,1.6,24.5,8.3c6.8,8,10.3,21.7,11.1,33.7c-0.3,3.7-0.8,7.3-1.3,10.8
			c-11.3,13.1-24.1,25.1-33.2,26.7c-2.3-27.6-2.5-35.6-0.2-61.1C3178.1,664,3178.4,658.5,3176.7,650.8L3176.7,650.8z M3154.4,545.9
			l-0.1,0.3c-2.6,5.7-3.6,11.8-3.1,18c0.6,6.3,3.6,11.9,0.1,19c-1.6,3.1-2.7,7.3-3.3,11.8c-1.5,11.6,9.9,48.1,21.2,52.1
			c2.7,0.9,7.7-0.2,10.6-0.6c12.4-1.8,25.7-4.6,32.2-15.3c3.8-6.3,2.4-31.5-1.9-37.8c-1.9-2.8-7.9-1.9-9.3-4.2
			c-1.4-2.3,1.7-7.8,1.9-9.8c1-8.6,1.6-16.5,1.2-23.4c-2.6,0.8-5.9,1.3-9.5,1.5h-0.8c-5.7,0.2-11.5-0.3-17.1-1.2l-0.3-0.1
			c-4.1-0.7-8.1-1.6-11.9-3l-0.5-0.2l-0.2-0.1c-4.2-1.7-6.5-3-8.8-6.6L3154.4,545.9L3154.4,545.9z"/>
		<path class="st67" d="M3271.2,738c7.8,23.9,37.8,58.9,51.5,98.6c1.8,5.2,3.8,9,7.6,11c15.6,8.4,44.1-7.9,38.1-26.7
			c-11.9-37.2-33.5-72.4-47.5-99.8c-6.5-12.8-11.5-24.2-18.3-30.9c-10.5-10.4-17.8-9-24.9-4.8C3267.7,691.3,3260.9,706.5,3271.2,738
			L3271.2,738z"/>
		<path class="st68" d="M3271.2,738c8,24.4,38.9,60.2,52.2,100.8c5.5,16.8,42.7,7.2,36.1-14c-9.3-29.8-25.9-56.5-39.4-80.1
			c-5.8-10.1-22.4-42.2-32.8-45.7c-7.7-2.6-17,0.8-18.7,7.4C3266.6,714,3266.6,724.1,3271.2,738L3271.2,738z"/>
		<path class="st76" d="M3206.6,555.3c-0.6,0-1.2,0.1-1.9,0.3c-12.5,4.5-42.7,0.2-48.7-7.4c-5.5-7.1-5.2-17.4-0.1-24.6
			c10.6-14.9,31.8-21.3,52.9-16.4c24,5.5,42.6,19.7,41.8,40.2C3234.3,543.7,3218,546.8,3206.6,555.3z"/>
		<path class="st77" d="M3160.8,551.7c-5.1-7.4-4.6-17.7,0.5-24.9c11.1-15.6,33.4-22.3,55.4-17.2c0.7,0.2,1.4,0.3,2.2,0.5
			c4.5,1.6,8.6,3.6,12.4,5.8c-21.2-4-42.1,2.8-52.8,17.8c-4.6,6.5-5.5,15.5-1.9,22.6C3170.5,555.3,3164.8,553.7,3160.8,551.7
			L3160.8,551.7z"/>
		<g>
			<path class="st53" d="M3283,967.2l-0.1-35.5l-3.8-13.9c-2.4-8.7-32.1-15.3-32.9,2l-0.3,6.1c-0.2,3.8,0.1,7.5,0.2,11.3l0.3,16.3
				c-0.1,10.1,9,11.7,9.6,5l-0.3-16.3l2.6,1.4c0.2,8.9,0.3,17.8,0.5,26.8c-0.1,10.2,7.7,10,13.8,8.6
				C3278.7,977.4,3283.1,974.8,3283,967.2z"/>
			<path class="st67" d="M3318.4,813.7c-26.9,41.6-58.5,72.5-71.3,92.6c0.5,11.7,27.9,35.1,36.2,25c8.6-10.5,51.3-48.4,81-91.1
				c8.8-12.6,3-24.7-11.2-31.5C3339.3,802.1,3326.7,800.9,3318.4,813.7z"/>
			<path class="st68" d="M3268.6,924.1c10.6-8.4,55.2-44.1,85.1-87c3.6-5.2,7.2-12.5,7.1-17.5c-0.4-13.6-17.8-21.4-29.5-17.7
				c-4.7,1.5-9.3,6.3-12.9,11.9c-26.9,41.6-58.5,72.5-71.3,92.6c0.2,5.4,6.2,13.2,13.3,19.2C3263.1,927.7,3265,926.9,3268.6,924.1
				L3268.6,924.1z"/>
		</g>
	</g>
	<g>
		<path class="st78" d="M3035.9,2120.3l20.3-14.9l43.2-52.7l-13.1-29.5c-7.6,4.1-36.9,35.8-71.5,68.6c-9.7,7.1,0.1-0.1-9.6,7.1
			c-6.7,4.6-12.4,17.5,1.6,21.1l15.6,4.2C3028.1,2125.7,3032.4,2122.8,3035.9,2120.3L3035.9,2120.3z"/>
		<path class="st79" d="M3041,2049.2c26.2-30.8,61.2-67.1,84-100.1c18.3-32.6,67.6,12.1,47.3,36.7c-35.1,42.6-71.1,84.5-90.5,103.8
			C3078.2,2095.9,3040.4,2063.2,3041,2049.2z"/>
		<path class="st54" d="M3143.8,2558.2c-11.6,17.6-49.1,4.1-49.1,3.9c-2.4-5.6-9.5-11.3-21-17.3c-11.4-6-27.1-12.3-36.8-23.9
			c-14.9-15.5-19.4-25.6-17.5-31.7c1.4,6.1,6.7,14.5,17.5,25.7c9.7,11.6,25.4,17.9,36.8,23.9c11.5,6.1,18.7,11.7,21,17.3
			c0,0.2,37.5,13.7,49.1-3.9c0.2-2.6,0.6-6,0.8-9.9C3144.9,2548.6,3144.1,2554.3,3143.8,2558.2z M3046.2,2594.6
			c0.4,5.6-0.2,11.5-2.7,17.6c0.6,5.8-42.5,8.5-46.3,0.9c-3.2-1.8-2.3-6.4-20.2-0.9s-55,5.5-62.3,3.2c-28.1-8.8-35.9-16.2-32-22.2
			c2.9,4.7,12.6,10.2,32,16.2c7.3,2.3,44.4,2.3,62.3-3.2c17.9-5.5,17-0.9,20.2,0.9c3.8,7.6,46.9,4.9,46.3-0.9
			C3045.1,2602.3,3045.9,2598.4,3046.2,2594.6z"/>
		<path class="st68" d="M3143.8,2552.2c-11.6,17.6-49.1,4.1-49.1,3.9c-2.4-5.6-9.5-11.3-21-17.3c-11.4-6-27.1-12.3-36.8-23.9
			c-33.2-34.5-14.6-42.1,10-38.8c13,1.8,28.5,5.5,39.9,10.7c21.3,9.8,44.1,24.8,51.8,29.4C3147,2528.9,3144.4,2544.3,3143.8,2552.2
			L3143.8,2552.2z M3043.5,2574.2c2.7,10.2,4.6,20.6,0,32.1c0.6,5.8-42.5,8.5-46.3,0.9c-3.2-1.8-2.3-6.4-20.2-0.9s-55,5.5-62.3,3.2
			c-54.4-17-32.6-28.8,2.3-35.3c18-3.3,61.4-21.1,74.7-21.5C3009,2559.8,3026.2,2567,3043.5,2574.2z"/>
		<path class="st80" d="M3048.8,2091.6h25.9c17.1,0,50.7,6.1,67.7,6.1c10.8,74-13.5,139.1-10.1,209.5c1.5,30.4,7,59.5,8.4,88.8
			c2.6,53.7,6.2,84.8,8.8,138.5c1.1,6.7-69,10.7-76.6-6.2c-3.9-80.7-9.5-153.1-23.4-219.3C3043.5,2240.4,3048,2163.1,3048.8,2091.6
			L3048.8,2091.6z"/>
		<path class="st79" d="M3185.4,1841.4c1,24.7,4.1,103.5-10.9,140.9c-2.1,5.2-12.1,9.6-23.5,10.5c-9.4,0.8-23.3-2.7-27-13
			c-10.4-29.1-8.3-103.6-9.4-129.8c-1.1-28.6,14.7-52.8,32-61.3C3163.8,1780.5,3183.6,1794.7,3185.4,1841.4L3185.4,1841.4z
			 M2956,2097.8c31,0,91.7,3.7,122.7,3.7c4.9,44.9-11.6,121.8-17.6,165.5c-4,29.3-14.1,61.5-14.1,90.9c0,30.8,4.9,60.3,4.9,90.1
			c0,54.4-1.8,80.7-1.8,135.2c1.4,10.6-64.7,12.2-71.4-1.8c0-81.9-6.9-179.5-19.7-246.8c-1.1-31.6-9.2-69.9-10-107.9
			C2948,2182,2953.7,2137.4,2956,2097.8L2956,2097.8z"/>
		<path class="st70" d="M3001.5,1814.5c34.2-16,69.3-23.2,105.2-33.5c67.9-19.4,83.7,29.6,75.7,77.8c-9.9,59-27.4,85.5-32.9,123.8
			c-3.9,27.1-4.1,98.6,2,154.4c-3.6,11.1-44.1,17.8-70.5,22.4l-2-27.3l-2.8,28.1c-34.3,5.9-102.3,14.6-128.6-8.7
			c7.7-38.6,11.2-92.9,13.7-132.4c1.8-29-10-98.2-9.1-128.4C2953.3,1850.4,2959.4,1834.1,3001.5,1814.5L3001.5,1814.5z"/>
		<path class="st53" d="M3033.3,1812.8c2.6-9.9,2.9-20.2,0-31.2c-5.5-0.8-11.2-1.6-17.1-2.4c-17.1-2.3-15.2-8.2-18-25.7
			c-1.1-6.7-1.9-13.6-2.5-20c-1.5-18.3,4.8-18.6,5-23.8c0.2-5.1-3.7-12.4-3.2-16.7c2.7-23.7,9.9-35.6,19-42.2
			c25.4,7.1,50.7,14.3,76.1,21.4c0.9,42.9,1.7,85.8,12.3,124.6C3085.3,1811.7,3060.9,1815.8,3033.3,1812.8L3033.3,1812.8z"/>
		<path class="st81" d="M3029.7,1729.2c4.7-2.2,7.2-0.3,9.2,2.6c3.4-14.1,10.2-17.1,17.9-9.1c8.3,8.6,9.4,28.1-4,24.5
			c6.8,10.3,9.8,21.1,10.5,32.2c13.8,0.5,25.9-1.2,36.3-5.1c3.6-20.4,18.4-33.7,23.4-42.4c11.7-20.3,11.6-40.3,6.1-56.5
			c-8.9-26.1-25.4-38.5-52.1-41.5c-21.8-2.5-52.5-0.4-65.9,8c-12.5,7.8-6.2,20.6,16.5,31.1
			C3016.2,1700.1,3034.2,1711.2,3029.7,1729.2L3029.7,1729.2z"/>
		<path class="st82" d="M3029.7,1729.2c4.7-2.3,7.2-0.3,9.2,2.6c3.4-14.1,10.2-17.1,17.9-9.1c8.3,8.6,9.4,28.1-4,24.5
			c6.8,10.3,9.8,21.1,10.5,32.2c1.9,0.1,3.7,0.1,5.5,0.1c5.8-13.2,13.6-22.9,16.9-30.1c11.7-25.1,11.6-49.8,6.1-69.8
			c-6.8-24.6-18-39.4-34.8-46.6c-17.7,0.2-36.3,2.9-45.9,9c-12.5,7.8-6.2,20.6,16.5,31.1C3016.2,1700.1,3034.2,1711.2,3029.7,1729.2
			z"/>
		<path class="st60" d="M3011.2,1778c25.8-1.4,49.4-3.4,49.1-15.5c1.8,5.5,2.8,11.1,3.1,16.8c13.8,0.5,25.9-1.2,36.3-5.1
			c0.3,2,0.7,3.9,1.1,5.9c-13.4,8.7-48.5,13.6-65.6,14.4c-0.2-4.2-0.8-8.4-2-12.7C3026,1780.7,3018.9,1779.1,3011.2,1778
			L3011.2,1778z"/>
		<path class="st83" d="M3112.2,1647.8c-2.6-2.3-5.3-4.2-8.3-6c-7.1-4-13.9-6-21.9-7.4c-4.5-0.7-8.9-1.1-13.4-1.4
			c-7.3-0.4-14.5-0.3-21.8,0.1c-5.3,0.4-10.4,1-15.6,1.9c-4.3,0.8-8.4,1.8-12.5,3.2c-3.1,1.1-5.9,2.4-8.6,4.2
			c-3.1,2.3-5.5,5.2-5.2,9.3c0.3,2.8,1.4,4.9,3,7.1c2.7,3.5,5.9,6,9.6,8.4c3.3,2.1,6.7,3.9,10.3,5.6c6.8-2.3,28-18.7,53.9-18.5
			C3091.6,1654.5,3105.3,1652.4,3112.2,1647.8L3112.2,1647.8z"/>
		<path class="st84" d="M3013.1,1882.5c-6,24-25,100.5-49.8,132.3c-3.4,4.4-14.3,5.8-25.5,3.5c-9.3-1.9-21.6-9-22.3-20
			c-1.9-30.8,20.9-101.8,27.2-127.2c6.9-27.8,28.8-46.6,47.9-49.9C3009.3,1817.9,3024.4,1837.1,3013.1,1882.5L3013.1,1882.5z"/>
		<path class="st53" d="M2760.3,1971.5l25-3.1l67.6,8.7l10.7,30.4c-8.3,2.2-51.4-0.8-99.1-0.8c-12,1.5,0.2,0-11.8,1.5
			c-8.1,1.3-21-4.2-13.4-16.5c2.9-4.6,5.7-9.2,8.4-13.8C2750.9,1972.9,2756.1,1972,2760.3,1971.5L2760.3,1971.5z"/>
		<path class="st84" d="M2816.2,1962.7c40.4,0.4,90.8,4,130.6,0.4c36.8-6.8,34.1,59.6,2.1,59.8c-55.2,0.4-110.4-0.4-137.7-2.9
			C2804.1,2021.1,2805.1,1971.1,2816.2,1962.7L2816.2,1962.7z M3006.9,1812c12.5,2.3,25.3,4.4,38,4.4c29.4,0.1,53-6.3,69.5-20.4
			c0.6-6.8,0-13.6-4.5-20.4c-18.8,7.1-34,14.8-73.4,18.2C3026.7,1798.6,3010.9,1807.6,3006.9,1812z"/>
	</g>
	<g>
		<g>
			<path class="st85" d="M1334.8,1606.8l19.7,15.8l40.9,54.5l-14.3,28.9c-7.4-4.4-35.3-37.3-68.5-71.6c-9.4-7.6,0.1,0.1-9.3-7.5
				c-6.5-4.9-11.7-18,2.5-21.1c5.3-1.2,10.5-2.4,15.8-3.6C1327.2,1601,1331.5,1604.2,1334.8,1606.8L1334.8,1606.8z"/>
			<path class="st86" d="M1380.1,1640.7c27.9,29.2,60.5,67.8,90.9,93.8c30.6,21.6-18.9,66-41.4,43.2c-38.8-39.3-76.7-79.4-94-100.7
				C1329.8,1672.9,1366.3,1638.7,1380.1,1640.7z"/>
		</g>
		<path class="st68" d="M1170.4,2380.9c11.6,17.6,49.1,4.1,49.1,3.9c2.4-5.6,9.5-11.3,21-17.3c11.4-6,27.1-12.3,36.8-23.9
			c14.9-15.5,19.4-25.6,17.5-31.7c-1.4,6.1-6.7,14.5-17.5,25.7c-9.7,11.6-25.4,17.9-36.8,23.9c-11.5,6.1-18.7,11.7-21,17.3
			c0,0.2-37.5,13.7-49.1-3.9c-0.2-2.6-0.6-6-0.8-9.9C1169.3,2371.3,1170.1,2377,1170.4,2380.9z M1268,2417.3
			c-0.4,5.6,0.2,11.5,2.7,17.6c-0.6,5.8,42.5,8.5,46.3,0.9c3.2-1.8,2.3-6.4,20.2-0.9s55,5.5,62.3,3.2c28.1-8.8,35.9-16.2,32-22.2
			c-2.9,4.7-12.6,10.2-32,16.2c-7.3,2.3-44.4,2.3-62.3-3.2s-17-0.9-20.2,0.9c-3.8,7.6-46.9,4.9-46.3-0.9
			C1269.1,2424.9,1268.3,2421.1,1268,2417.3z"/>
		<path class="st87" d="M1170.4,2374.9c11.6,17.6,49.1,4.1,49.1,3.9c2.4-5.6,9.5-11.3,21-17.3c11.4-6,27.1-12.3,36.8-23.9
			c33.2-34.5,14.6-42.1-10-38.8c-13,1.8-28.5,5.5-39.9,10.7c-21.3,9.8-44.1,24.8-51.8,29.4C1167.2,2351.6,1169.7,2367,1170.4,2374.9
			L1170.4,2374.9z M1270.7,2396.8c-2.7,10.2-4.6,20.6,0,32.1c-0.6,5.8,42.5,8.5,46.3,0.9c3.2-1.8,2.3-6.4,20.2-0.9s55,5.5,62.3,3.2
			c54.4-17,32.6-28.8-2.3-35.3c-18-3.3-61.4-21.1-74.7-21.5C1305.2,2382.5,1288,2389.7,1270.7,2396.8z"/>
		<path class="st80" d="M1265.4,1914.2h-25.9c-17.1,0-51-22.6-68.1-22.6c-2.2,15.2-2.6,58.7-2.4,73.3c0.8,56.4,15.6,109,12.9,165
			c-1.5,30.4-7,59.5-8.4,88.8c-2.6,53.7-6.2,84.8-8.8,138.5c-1.1,6.7,69,10.7,76.6-6.2c3.9-80.7,9.5-153.1,23.4-219.3
			C1270.7,2063,1266.2,1985.8,1265.4,1914.2L1265.4,1914.2z"/>
		<path class="st88" d="M1133.8,1664.1c1.3,24.7,5.5,103.5,23.9,140.9c2.6,5.2,13,9.6,24.4,10.5c9.5,0.8,23-2.7,25.8-13
			c7.7-29.1-1.2-103.6-2.6-129.8c-1.5-28.6-19.5-52.8-37.7-61.3C1149.9,1603.1,1131.3,1617.4,1133.8,1664.1L1133.8,1664.1z"/>
		<path class="st79" d="M1353.2,1887.6c-31,0-133.8-22.6-133,50.4c-4.9,88.6,27,67,32.9,151.7c2.1,29.5,14.1,61.5,14.1,90.9
			c0,30.8-4.9,60.3-4.9,90.1c0,54.4,1.8,80.7,1.8,135.2c-1.4,10.6,64.7,12.2,71.4-1.8c0-81.9,6.9-179.5,19.7-246.8
			c1.1-31.6,9.2-69.9,10-107.9c0.6-30-1.7-60.1-4-88.6C1360.1,1946.8,1354,1900.5,1353.2,1887.6L1353.2,1887.6z"/>
		<path class="st88" d="M1312.7,1637.2c-34.2-16-69.3-23.2-105.2-33.5c-67.9-19.4-83.7,29.6-75.7,77.8c9.9,59,27.6,85.4,32.9,123.8
			c2.4,17.2,3.3,71.8,2,110.1c14.1,35.2,194.9,51.7,194.3,19.1c-1.9-21.2-7-74.8-8.1-92.7c-1.8-29,10-98.2,9.1-128.4
			C1360.9,1673,1354.8,1656.8,1312.7,1637.2L1312.7,1637.2z"/>
		<path class="st53" d="M1280.9,1635.5c-2.6-9.9-2.9-20.2,0-31.2c5.5-0.8,11.2-1.6,17.1-2.4c17.1-2.3,15.2-8.1,18-25.7
			c1.1-6.7,1.9-13.6,2.5-20c1.5-18.3-4.8-18.6-5-23.8c-0.2-5.1,3.7-12.4,3.2-16.7c-2.7-23.7-9.9-35.6-19-42.2
			c-25.4,7.1-50.7,14.3-76.1,21.5c-0.9,42.9-1.7,85.8-12.3,124.6C1228.9,1634.4,1253.3,1638.5,1280.9,1635.5L1280.9,1635.5z"/>
		<path class="st89" d="M1284.5,1551.9c-4.7-2.3-7.2-0.3-9.2,2.6c-3.4-14.1-10.2-17.1-17.9-9.1c-8.3,8.6-9.4,28.1,4,24.5
			c-6.8,10.3-9.8,21.1-10.5,32.2c-13.8,0.5-25.9-1.2-36.3-5.1c-3.6-20.4-18.4-33.7-23.4-42.4c-11.7-20.3-11.6-40.3-6.1-56.5
			c8.9-26.1,25.4-38.5,52.1-41.5c21.8-2.5,52.5-0.4,65.9,8c12.5,7.8,6.2,20.6-16.5,31.1C1298,1522.8,1280,1533.8,1284.5,1551.9
			L1284.5,1551.9z"/>
		<path class="st90" d="M1284.5,1551.9c-4.7-2.3-7.2-0.3-9.2,2.6c-3.4-14.1-10.2-17.1-17.9-9.1c-8.3,8.6-9.4,28.1,4,24.5
			c-6.8,10.3-9.8,21.1-10.5,32.2c-1.9,0.1-3.7,0.1-5.5,0.1c-5.8-13.2-13.6-22.9-16.9-30.1c-11.7-25.1-11.6-49.8-6.1-69.8
			c6.8-24.6,18-39.4,34.8-46.6c17.7,0.2,36.3,2.9,45.9,9c12.5,7.8,6.2,20.6-16.5,31.1C1298,1522.8,1280,1533.8,1284.5,1551.9
			L1284.5,1551.9z"/>
		<path class="st60" d="M1303,1600.7c-25.8-1.4-49.4-3.4-49.1-15.5c-1.8,5.5-2.8,11.1-3.1,16.8c-13.8,0.5-25.9-1.2-36.3-5.1
			c-0.3,2-0.7,3.9-1.1,5.9c13.4,8.7,48.5,13.6,65.6,14.4c0.2-4.2,0.8-8.4,2-12.7C1288.2,1603.3,1295.2,1601.8,1303,1600.7
			L1303,1600.7z"/>
		<path class="st91" d="M1202,1470.5c2.6-2.3,5.3-4.2,8.3-6c7.1-4,13.9-6,21.9-7.4c4.5-0.7,8.9-1.1,13.4-1.4
			c7.3-0.4,14.5-0.3,21.8,0.1c5.3,0.4,10.4,1,15.6,1.9c4.3,0.8,8.4,1.8,12.5,3.2c3.1,1.1,5.9,2.4,8.6,4.2c3.1,2.3,5.5,5.2,5.2,9.3
			c-0.3,2.8-1.4,4.9-3,7.1c-2.7,3.5-5.9,6-9.6,8.4c-3.3,2.1-6.7,3.9-10.3,5.6c-6.8-2.3-28-18.7-53.9-18.5
			C1222.6,1477.2,1208.9,1475.1,1202,1470.5L1202,1470.5z"/>
		<path class="st92" d="M1322.4,1726.8c19.9,14.6,80.7,64,119.9,73.5c16.8,4.1,34.6-1.4,41.7-10.3c5.9-7.4,2.2-38.2-4.3-47.1
			c-18.3-24.9-84.1-63.6-105.2-79.1c-23.1-16.9-52-17.3-68.7-7.7C1289.3,1665.6,1284.7,1699.2,1322.4,1726.8L1322.4,1726.8z"/>
	</g>
</g>
<g>
	<path class="st93" d="M2188.8,1487.1l-22.4-13.3l-33.6,19.4l22.7,13.1L2188.8,1487.1z M1945.8,1627.3l176.5-101.9l-22.7-13.1
		l-177.9,102.6l-31.9,18.4l22.7,13.1L1945.8,1627.3L1945.8,1627.3z M1854.6,1574.8l-56.4,32.6l-22.7-13.1l55.1-31.8l96.6-55.8
		l22.7,13.1L1854.6,1574.8L1854.6,1574.8z M1742.2,1613.5l-24.8,14.3l22.7,13.1l24.8-14.3L1742.2,1613.5z M1684.2,1646.9l-18.8,10.8
		l22.7,13.1l18.8-10.8L1684.2,1646.9z M1900.1,1600.9l-166.6,96.1l-22.7-13.1l165.3-95.4l42.1-24.3l22.7,13.1L1900.1,1600.9
		L1900.1,1600.9z M1856.7,1652.5l-100.2,57.8l22.7,13.1l100.2-57.8L1856.7,1652.5z M2097.6,1434.6l-22.4-13.3l-56.8,32.8l22.7,13.1
		L2097.6,1434.6z M1985.2,1473.2l-24.8,14.3l22.7,13.1l24.8-14.3L1985.2,1473.2z M2143.1,1460.7l-169,97.5l-22.7-13.1l169.3-97.7
		L2143.1,1460.7L2143.1,1460.7z M2362,1586.8l-22.4-13.3l-33.6,19.4l22.7,13.1L2362,1586.8z M2119,1727l176.5-101.9l-22.7-13.1
		l-177.9,102.6L2063,1733l22.7,13.1L2119,1727L2119,1727z M2073.3,1700.6l-166.6,96.1l-22.7-13.1l165.3-95.4l42.1-24.3l22.7,13.1
		L2073.3,1700.6L2073.3,1700.6z M2029.9,1752.2l-100.2,57.8l22.7,13.1l100.2-57.8L2029.9,1752.2z M2316.3,1560.4l-169,97.5
		l-22.7-13.1l169.3-97.7L2316.3,1560.4L2316.3,1560.4z"/>
	<path class="st94" d="M2740.8,1282l16.5-10.8l1.6-0.9l1.8-0.6l1.9-0.4l2-0.1l2.1,0.2l2.2,0.6l2.3,0.9l2.3,1.2l205.8,118.7l2.3,1.5
		l2.3,1.8l2.2,2l2.1,2.2l2,2.4l1.9,2.5l1.8,2.7l1.6,2.8l1.5,2.9l1.3,3l1.2,3l1,3.1l0.8,3.1l0.6,3.1l0.3,3.1l0.1,3v130.7l-0.1,2.9
		l-0.3,2.7l-0.6,2.4l-0.8,2.2l-1,2l-1.2,1.7l-1.3,1.5l-16.5,10.8l1.3-1.5l1.2-1.7l1-2l0.8-2.2l0.6-2.4l0.3-2.7l0.1-2.9v-130.7
		l-0.1-3l-0.3-3.1l-0.6-3.1l-0.8-3.1l-1-3.1l-1.2-3l-1.3-3l-1.5-2.9l-1.6-2.8l-1.8-2.7l-1.9-2.5l-2-2.4l-2.1-2.2l-2.2-2l-2.3-1.8
		l-2.3-1.5L2757,1282.9l-2.3-1.2l-2.3-0.9l-2.2-0.6l-2.1-0.2l-2,0.1l-1.9,0.4l-1.8,0.6L2740.8,1282z M2949.2,1582.1l4.4,71.3
		l16.5-10.8l-4.4-71.3L2949.2,1582.1z"/>
	<path class="st15" d="M3001.8,1427l0.3,3l0.1,3v130.7l-0.1,2.9l-0.3,2.7l-0.6,2.4l-0.8,2.2l-1,2l-1.2,1.7l-1.3,1.5l-16.5,10.8
		l1.3-1.5l1.2-1.7l1-2l0.8-2.2l0.6-2.4l0.3-2.7l0.1-2.9v-130.7l-0.1-3l-0.3-3.1l-0.2-1.1L3001.8,1427L3001.8,1427z M2949.2,1582.1
		l16.5-10.8l4.4,71.3l-16.5,10.8L2949.2,1582.1z"/>
	<path class="st17" d="M2757.1,1283l205.8,118.7c12.7,7.3,23,26.2,23,42.1v130.7c0,15.9-10.4,22.8-23,15.5l-13.6-7.8l4.4,71.3
		l-67.2-107.5l-129.4-74.6c-12.7-7.3-23-26.2-23-42.1v-130.7C2734,1282.6,2744.4,1275.6,2757.1,1283z"/>
	<path class="st95" d="M2955.1,1658l-69.5-111.2l-129.1-74.5c-13-7.5-23.6-26.9-23.6-43.1v-130.7c0-8.4,2.9-15,8-17.9
		c4.7-2.7,10.6-2.2,16.8,1.3l205.8,118.7c13,7.5,23.6,26.9,23.6,43.1v130.7c0,8.4-2.9,15-8,17.9c-4.7,2.7-10.6,2.2-16.8-1.3
		l-11.7-6.7L2955.1,1658z M2747.5,1281.2c-2,0-3.8,0.5-5.4,1.4c-4.4,2.5-6.9,8.3-6.9,15.9v130.7c0,15.5,10.1,33.9,22.4,41.1
		l129.6,74.8l0.2,0.3l64.8,103.6l-4.3-68.8l15.5,8.9c5.4,3.1,10.5,3.6,14.4,1.3c4.4-2.5,6.9-8.3,6.9-15.9v-130.7
		c0-15.5-10.1-33.9-22.4-41.1L2756.5,1284C2753.3,1282.2,2750.3,1281.2,2747.5,1281.2L2747.5,1281.2z"/>
	<path class="st15" d="M2881.7,1385.9l25.2,14.6c3.3,1.9,6,6.3,6,9.8v11.1c3.2,2.2,6.1,5.4,8.2,8.9c2.5,4,4,8.5,4,12.5v68.6
		c0,4-1.5,6.7-4,7.8c-2.5,1.2-5.9,0.8-9.6-1.3l-110.2-63.8c-3.7-2.2-7.2-5.8-9.6-9.8c-2.5-4-4-8.5-4-12.5v-68.6c0-4,1.5-6.7,4-7.9
		c2.5-1.2,5.9-0.8,9.6,1.3l74.4,43.1v-11.1C2875.7,1385.3,2878.3,1384,2881.7,1385.9L2881.7,1385.9z M2900.8,1409.7l-13.2-7.6v4.3
		l13.2,7.6V1409.7z M2805,1377.6v12.9l22.3,12.9v-12.9L2805,1377.6z M2856.3,1412.1c-7.2-4.2-13.8-4.9-18.6-2.8l-0.4,0.1
		c-4.8,2.3-7.9,7.7-7.9,15.5s3,16.6,7.8,24.5v0.1c4.9,7.9,11.6,15,18.9,19.3c7.4,4.3,14.1,5,19,2.7s7.9-7.7,7.9-15.5
		s-3-16.6-7.9-24.6C2870.4,1423.5,2863.7,1416.4,2856.3,1412.1L2856.3,1412.1z M2866.8,1435.4c-2.7-4.4-6.4-8.3-10.5-10.7
		c-4-2.3-7.6-2.8-10.2-1.6l-0.3,0.1c-2.7,1.3-4.3,4.2-4.3,8.6c0,4.3,1.7,9.2,4.3,13.6c2.7,4.4,6.4,8.3,10.5,10.6
		c4.1,2.4,7.8,2.8,10.5,1.5c2.7-1.3,4.3-4.2,4.3-8.6C2871.2,1444.7,2869.5,1439.8,2866.8,1435.4z M2911.4,1433.2l-110.2-63.8
		c-0.5-0.3-0.9-0.3-1.2-0.2c-0.3,0.1-0.5,0.5-0.5,1v68.6c0,0.5,0.2,1,0.5,1.5c0.3,0.5,0.7,0.9,1.2,1.2l110.2,63.8
		c0.5,0.3,0.9,0.3,1.2,0.2c0.3-0.1,0.5-0.5,0.5-1v-68.6c0-0.5-0.2-1-0.5-1.5C2912.3,1433.9,2911.9,1433.5,2911.4,1433.2z"/>
	<path class="st94" d="M2119.8,12.8L2136.3,2l1.6-0.9l1.8-0.6l1.9-0.4l2-0.1l2.1,0.2l2.2,0.6l2.3,0.9l2.3,1.2l205.8,118.7l2.3,1.5
		l2.3,1.8l2.2,2l2.1,2.2l2,2.4l1.9,2.5l1.8,2.7l1.6,2.8l1.5,2.9l1.3,3l1.2,3l1,3.1l0.8,3.1l0.6,3.1l0.3,3.1l0.1,3v130.7l-0.1,2.9
		l-0.3,2.7l-0.6,2.4l-0.8,2.2l-1,2l-1.2,1.7l-1.3,1.5l-16.5,10.8l1.3-1.5l1.2-1.7l1-2l0.8-2.2l0.6-2.4l0.3-2.7l0.1-2.9V174.6l-0.1-3
		l-0.3-3.1l-0.6-3.1l-0.8-3.1l-1-3.1l-1.2-3l-1.3-3l-1.5-2.9l-1.6-2.8l-1.8-2.7l-1.9-2.5l-2-2.4l-2.1-2.2l-2.2-2l-2.3-1.8l-2.3-1.5
		L2136,13.7l-2.3-1.2l-2.3-0.9l-2.2-0.6l-2.1-0.2l-2,0.1l-1.9,0.4l-1.8,0.6L2119.8,12.8L2119.8,12.8z M2328.3,312.9l4.4,71.3
		l16.5-10.8l-4.4-71.3L2328.3,312.9z"/>
	<path class="st15" d="M2380.9,157.7l0.3,3l0.1,3v130.7l-0.1,2.9l-0.3,2.7l-0.6,2.4l-0.8,2.2l-1,2l-1.2,1.7l-1.3,1.5l-16.5,10.8
		l1.3-1.5l1.2-1.7l1-2l0.8-2.2l0.6-2.4l0.3-2.7l0.1-2.9V174.6l-0.1-3l-0.3-3.1l-0.2-1.2L2380.9,157.7L2380.9,157.7z M2328.3,312.9
		l16.5-10.8l4.4,71.3l-16.5,10.8L2328.3,312.9L2328.3,312.9z"/>
	<path class="st17" d="M2136.1,13.8l205.8,118.7c12.7,7.3,23,26.2,23,42.1v130.6c0,15.9-10.4,22.8-23,15.5l-13.6-7.8l4.4,71.3
		l-67.2-107.5l-129.4-74.6c-12.7-7.3-23-26.2-23-42.1V29.3C2113.1,13.4,2123.4,6.5,2136.1,13.8z"/>
	<path class="st95" d="M2334.2,388.8l-69.5-111.2l-129.1-74.5c-13-7.5-23.6-26.9-23.6-43.1V29.3c0-8.4,2.9-15,8-17.9
		c4.7-2.7,10.6-2.2,16.8,1.3l205.8,118.7c13,7.5,23.6,26.9,23.6,43.1v130.7c0,8.4-2.9,15-8,17.9c-4.7,2.7-10.6,2.2-16.8-1.3
		l-11.7-6.7L2334.2,388.8L2334.2,388.8z M2126.5,12c-2,0-3.8,0.5-5.4,1.4c-4.4,2.5-6.9,8.3-6.9,15.9V160c0,15.5,10.1,33.9,22.4,41.1
		l129.6,74.8l0.2,0.3l64.8,103.6l-4.3-68.8l15.5,8.9c5.4,3.1,10.5,3.6,14.4,1.3c4.4-2.5,6.9-8.3,6.9-15.9V174.6
		c0-15.5-10.1-33.9-22.4-41.1L2135.5,14.8C2132.4,13,2129.3,12,2126.5,12z"/>
	<path class="st15" d="M2240.6,110.1v6.6c4.1,2.8,7.7,5.8,10.6,8.8c3,3.1,5.5,6.6,7.7,10.6c1.7,3.1,3.1,6,4,8.7
		c0.9,2.8,1.4,5,1.4,6.9c0,2-0.7,3.4-2.1,4.1c-1.4,0.7-3.1,0.4-5.1-0.7c-3.8-2.2-6.3-5.8-7.4-10.7c-1.3-5.8-4.3-11-9.2-15.5v25.4
		c4.8,4.1,8.6,7.6,11.4,10.4s5.4,5.9,7.6,9.4c2.4,3.6,4.2,7.4,5.5,11.2c1.3,3.9,1.9,7.6,1.9,11.4c0,4.6-1,8.4-3.1,11.2
		c-2.1,2.9-5.1,4.4-9.1,4.7c-4,0.2-8.8-1-14.3-3.7v15.2c0,2.4-0.2,4-0.7,4.9c-0.4,0.9-1.4,0.8-2.9,0c-1.4-0.8-2.3-1.8-2.9-3
		c-0.6-1.2-0.8-2.8-0.8-4.6v-16.5c-4.5-3.1-8.4-6.5-11.8-10.2s-6.2-7.4-8.4-11.3c-2.3-3.9-3.9-7.5-5-10.8c-1.1-3.4-1.6-6.4-1.6-9
		c0-1.9,0.7-3.3,2.2-4c1.4-0.7,3.2-0.5,5.4,0.8c1.7,1,3.2,2.3,4.4,3.8c1.2,1.5,2,3.2,2.5,5c1,3.9,1.9,7,2.7,9.2
		c0.8,2.2,2,4.5,3.5,6.9c1.6,2.4,3.6,4.7,6.2,7v-28.4c-5.2-4.5-9.5-8.7-12.9-12.5c-3.5-3.9-6.3-8.1-8.4-12.8
		c-2.2-4.7-3.2-9.7-3.2-15.1c0-7,2.1-11.5,6.3-13.5c4.2-2,10.3-1.1,18.3,2.8v-6.5c0-3.4,1.2-4.4,3.6-3
		C2239.3,104.4,2240.6,106.8,2240.6,110.1L2240.6,110.1z M2233.2,147.8v-23.4c-3.2-0.9-5.8-1-7.6-0.4c-1.8,0.6-2.7,2.6-2.7,6
		c0,3.2,0.8,6.1,2.5,8.8C2227.2,141.5,2229.8,144.5,2233.2,147.8z M2240.6,170.2V197c3.9,1.4,6.9,1.5,9,0.3c2.1-1.3,3.2-3.5,3.2-6.9
		c0-3.5-1-6.9-3.1-10C2247.6,177.2,2244.6,173.8,2240.6,170.2L2240.6,170.2z"/>
	<g>
		<path class="st94" d="M868.2,1154.9l16.5-10.8l1.6-0.9l1.8-0.6l1.9-0.4l2-0.1l2.1,0.2l2.2,0.6l2.3,0.9l2.3,1.2l205.8,118.7
			l2.3,1.5l2.3,1.8l2.2,2l2.1,2.2l2,2.4l1.9,2.5l1.8,2.7l1.6,2.8l1.5,2.9l1.3,3l1.2,3l1,3.1l0.8,3.1l0.6,3.1l0.3,3.1l0.1,3v130.7
			l-0.1,2.9l-0.3,2.7l-0.6,2.4l-0.8,2.2l-1,2l-1.2,1.7l-1.3,1.5l-16.5,10.8l1.3-1.5l1.2-1.7l1-2l0.8-2.2l0.6-2.4l0.3-2.7l0.1-2.9
			v-130.7l-0.1-3l-0.3-3.1l-0.6-3.1l-0.8-3.1l-1-3.1l-1.2-3l-1.3-3l-1.5-2.9l-1.6-2.8l-1.8-2.7l-1.9-2.5l-2-2.4l-2.1-2.2l-2.2-2
			l-2.3-1.8l-2.3-1.5l-205.8-118.7l-2.3-1.2l-2.3-0.9l-2.2-0.6l-2.1-0.2l-2,0.1l-1.9,0.4l-1.8,0.6L868.2,1154.9z M1076.6,1455
			l4.4,71.3l16.5-10.8l-4.4-71.3L1076.6,1455z"/>
		<path class="st15" d="M1129.6,1304.4l0.1,1.4v130.7l-0.1,2.9l-0.3,2.7l-0.6,2.4l-0.8,2.2l-1,2l-1.2,1.7l-1.3,1.5l-16.5,10.8
			l1.3-1.5l1.2-1.7l1-2l0.8-2.2l0.6-2.4l0.3-2.7l0.1-2.9v-130.7l-0.1-2.7L1129.6,1304.4L1129.6,1304.4z M1076.6,1455l16.5-10.8
			l4.4,71.3l-16.5,10.8L1076.6,1455z"/>
		<path class="st17" d="M884.4,1155.8l205.8,118.7c12.7,7.3,23,26.2,23,42.1v130.7c0,15.9-10.4,22.8-23,15.5l-13.6-7.8l4.4,71.3
			l-67.2-107.5l-129.4-74.6c-12.7-7.3-23-26.2-23-42.1v-130.7C861.4,1155.5,871.8,1148.5,884.4,1155.8L884.4,1155.8z"/>
		<path class="st95" d="M1082.5,1530.9l-69.5-111.2l-129.1-74.5c-13-7.5-23.6-26.9-23.6-43.1v-130.7c0-8.4,2.9-15,8-17.9
			c4.7-2.7,10.6-2.2,16.8,1.3l205.8,118.7c13,7.5,23.6,26.9,23.6,43.1v130.7c0,8.4-2.9,15-8,17.9c-4.7,2.7-10.6,2.2-16.8-1.3
			l-11.7-6.7L1082.5,1530.9L1082.5,1530.9z M874.9,1154.1c-2,0-3.8,0.5-5.4,1.4c-4.4,2.5-6.9,8.3-6.9,15.9v130.7
			c0,15.5,10.1,33.9,22.4,41.1l129.6,74.8l64.9,103.8l-4.3-68.9l15.5,8.9c5.4,3.1,10.5,3.6,14.4,1.3c4.4-2.5,6.9-8.3,6.9-15.9
			v-130.7c0-15.5-10.1-33.9-22.4-41.1l-205.8-118.7C880.7,1155,877.6,1154.1,874.9,1154.1L874.9,1154.1z"/>
		<path class="st15" d="M969.3,1308.7c7.9,4.6,15.1,10.5,20.7,16.5v-64.3l0.3,0.2c10.4-3,16,1.2,21.8,8.5
			c11.4,14.4,6.7,16.1,25.8,25.3c-12.1,9-23.5-5.7-34-18.9c-0.8-1-1.8-1.7-2.8-2.2v72.2c-0.1,10.2-14.3,10.3-31.8,0.1
			c-17.6-10.2-31.8-26.8-31.8-37.1C937.5,1298.6,951.8,1298.5,969.3,1308.7L969.3,1308.7z"/>
	</g>
	<g>
		<path class="st96" d="M3297.1,171.6l-16.5-10.8l-1.6-0.9l-1.8-0.6l-1.9-0.4l-2-0.1l-2.1,0.2l-2.2,0.6l-2.3,0.9l-2.3,1.2
			l-205.8,118.7l-2.3,1.5l-2.3,1.8l-2.2,2l-2.1,2.2l-2,2.4l-1.9,2.5l-1.8,2.7l-1.6,2.8l-1.5,2.9l-1.3,3l-1.2,3l-1,3.1l-0.8,3.1
			l-0.6,3.1l-0.3,3.1l-0.1,3v130.6l0.1,2.9l0.3,2.7l0.6,2.4l0.8,2.2l1,2l1.2,1.7l1.3,1.5l16.5,10.8l-1.3-1.5l-1.2-1.7l-1-2l-0.8-2.2
			l-0.6-2.4l-0.3-2.7l-0.1-2.9V333.3l0.1-3l0.3-3.1l0.6-3.1l0.8-3.1l1-3.1l1.2-3l1.3-3l1.5-2.9l1.6-2.8l1.8-2.7l1.9-2.5l2-2.4
			l2.1-2.2l2.2-2l2.3-1.8l2.3-1.5l205.8-118.7l2.3-1.2l2.3-0.9l2.2-0.6l2.1-0.2l2,0.1l1.9,0.4l1.8,0.6L3297.1,171.6z M3088.7,471.7
			l-4.4,71.3l-16.5-10.8l4.4-71.3L3088.7,471.7z"/>
		<path class="st97" d="M3035.6,325.4v127.8l0.1,2.9l0.3,2.7l0.6,2.4l0.8,2.2l1,2l1.2,1.7l1.3,1.5l16.5,10.8l-1.3-1.5l-1.2-1.7l-1-2
			l-0.8-2.2l-0.6-2.4l-0.3-2.7l-0.1-2.9V334.9L3035.6,325.4z M3088.7,471.7l-16.5-10.8l-4.4,71.3l16.5,10.8L3088.7,471.7z"/>
		<path class="st17" d="M3280.8,172.5l-205.7,118.7c-12.7,7.3-23,26.2-23,42.1V464c0,15.9,10.4,22.8,23,15.5l13.6-7.8l-4.4,71.3
			l67.2-107.5l129.4-74.6c12.7-7.3,23-26.2,23-42.1V188.1C3303.8,172.2,3293.5,165.2,3280.8,172.5L3280.8,172.5z"/>
		<path class="st95" d="M3082.8,547.6l4.6-73.8l-11.7,6.7c-6.2,3.6-12.1,4-16.8,1.3c-5.1-2.9-8-9.5-8-17.9V333.3
			c0-16.3,10.6-35.6,23.6-43.1l205.8-118.7c6.2-3.6,12.1-4,16.8-1.3c5.1,2.9,8,9.5,8,17.9v130.7c0,16.3-10.6,35.6-23.6,43.1
			l-129.1,74.5L3082.8,547.6L3082.8,547.6z M3090,469.6l-4.3,68.9l64.9-103.8l0.3-0.1l129.4-74.6c12.4-7.1,22.4-25.6,22.4-41.1
			V188.1c0-7.6-2.5-13.3-6.9-15.9c-3.9-2.2-9-1.8-14.4,1.3l-205.8,118.7c-12.4,7.1-22.4,25.6-22.4,41.1V464c0,7.6,2.5,13.3,6.9,15.9
			c3.9,2.2,9,1.8,14.4-1.3L3090,469.6L3090,469.6z"/>
		<path class="st15" d="M3091.2,327.9l58.6-33.6V309l-58.6,33.6V327.9z M3168.6,283.4l60.2-34.5v14.7l-60.2,34.5V283.4z
			 M3247.6,238.1l28.2-16.2v14.7l-28.2,16.2V238.1z M3091.2,400l100-57.4v14.7l-100,57.4V400z M3210.1,331.8l20.6-11.8v14.7
			l-20.6,11.8V331.8z M3249.6,309.2l26.2-15.1v14.7l-26.2,15.1V309.2L3249.6,309.2z M3091.2,364.8v14.7l58.6-33.6v-14.7
			L3091.2,364.8L3091.2,364.8z M3168.6,320.4v14.7l107.2-61.5v-14.7L3168.6,320.4z"/>
	</g>
	<g>
		<path class="st96" d="M2167.8,1614.2l-16.5-10.8l-1.6-0.9l-1.8-0.6l-1.9-0.4l-2-0.1l-2.1,0.2l-2.2,0.6l-2.3,0.9l-2.3,1.2
			L1929.3,1723l-2.3,1.5l-2.3,1.8l-2.2,2l-2.1,2.2l-2,2.4l-1.9,2.5l-1.8,2.7l-1.6,2.8l-1.5,2.9l-1.3,3l-1.2,3l-1,3.1l-0.8,3.1
			l-0.6,3.1l-0.3,3.1l-0.1,3v130.7l0.1,2.9l0.3,2.7l0.6,2.4l0.8,2.2l1,2l1.2,1.7l1.3,1.5l16.5,10.8l-1.3-1.5l-1.2-1.7l-1-2l-0.8-2.2
			l-0.6-2.4l-0.3-2.7l-0.1-2.9V1776l0.1-3l0.3-3.1l0.6-3.1l0.8-3.1l1-3.1l1.2-3l1.3-3l1.5-2.9l1.6-2.8l1.8-2.7l1.9-2.5l2-2.4
			l2.1-2.2l2.2-2l2.3-1.8l2.3-1.5l205.8-118.7l2.3-1.2l2.3-0.9l2.2-0.6l2.1-0.2l2,0.1l1.9,0.4l1.8,0.6L2167.8,1614.2z
			 M1959.4,1914.3l-4.4,71.3l-16.5-10.8l4.4-71.3L1959.4,1914.3z"/>
		<path class="st97" d="M1906.3,1772.2v123.7l0.1,2.9l0.3,2.7l0.6,2.4l0.8,2.2l1,2l1.2,1.7l1.3,1.5l16.5,10.8l-1.3-1.5l-1.2-1.7
			l-1-2l-0.8-2.2l-0.6-2.4l-0.3-2.7l-0.1-2.9v-125L1906.3,1772.2z M1959.4,1914.3l-16.5-10.8l-4.4,71.3l16.5,10.8L1959.4,1914.3z"/>
		<path class="st17" d="M2151.5,1615.2l-205.8,118.7c-12.7,7.3-23,26.2-23,42.1v130.7c0,15.9,10.4,22.8,23,15.5l13.6-7.8l-4.4,71.3
			l67.2-107.5l129.4-74.6c12.7-7.3,23-26.2,23-42.1v-130.7C2174.6,1614.8,2164.2,1607.9,2151.5,1615.2z"/>
		<path class="st95" d="M1953.5,1990.2l4.6-73.8l-11.7,6.7c-6.2,3.5-12.1,4-16.8,1.3c-5.1-2.9-8-9.5-8-17.9v-130.7
			c0-16.3,10.6-35.6,23.6-43.1L2151,1614c6.2-3.5,12.1-4,16.8-1.3c5.1,2.9,8,9.5,8,17.9v130.7c0,16.3-10.6,35.6-23.6,43.1
			l-129.1,74.5L1953.5,1990.2L1953.5,1990.2z M1960.7,1912.2l-4.3,68.8l64.9-103.8l0.3-0.1l129.4-74.6c12.4-7.1,22.4-25.6,22.4-41.1
			v-130.7c0-7.6-2.5-13.3-6.9-15.9c-3.9-2.2-9-1.8-14.4,1.3l-205.8,118.7c-12.4,7.1-22.4,25.6-22.4,41.1v130.7
			c0,7.6,2.5,13.3,6.9,15.9c3.9,2.2,9,1.8,14.4-1.3L1960.7,1912.2L1960.7,1912.2z"/>
		<path class="st15" d="M1957.8,1777.7l51.2-29.4v14.7l-51.2,29.4V1777.7z M2027.8,1737.5l114.6-65.7v14.7l-114.6,65.7V1737.5z
			 M1957.8,1849.9l47.6-27.3v14.7l-47.6,27.3V1849.9z M2024.2,1811.8l41.8-24v14.7l-41.8,24V1811.8z M2084.9,1777v14.7l57.5-33V1744
			L2084.9,1777z M1957.8,1814.7v14.7l129-74v-14.7L1957.8,1814.7z M2105.6,1729.9v14.7l36.8-21.1v-14.7L2105.6,1729.9z"/>
	</g>
	<g>
		<path class="st94" d="M1924.6,290.1l115.3,66.5l1.9,1.2l1.9,1.2l1.9,1.4l1.8,1.5l1.8,1.5l1.8,1.7l1.7,1.7l1.7,1.8l1.6,1.9l1.6,1.9
			l1.6,2.1l1.5,2l1.5,2.2l1.4,2.2l1.3,2.2l1.3,2.3l1.2,2.4l1.2,2.4l1.1,2.4l1.1,2.4l0.9,2.4l1,2.5l0.8,2.5l0.7,2.5l0.7,2.5l0.6,2.5
			l0.5,2.5l0.4,2.5l0.3,2.5l0.3,2.4l0.1,2.5l0.1,2.4V569l-0.1,2.4l-0.1,2.2l-0.3,2.2l-0.3,2.1l-0.4,2l-0.5,1.9l-0.6,1.8l-0.7,1.8
			l-0.7,1.6l-0.8,1.5l-0.9,1.5l-1,1.3l-1.1,1.2l-1.1,1.2l-1.1,1l-1.3,0.9l-13.5,8.9l1.2-0.9l1.2-1l1.1-1.2l1-1.2l1-1.3l0.9-1.5
			l0.8-1.5l0.8-1.6l0.7-1.8l0.5-1.8l0.5-1.9l0.5-2l0.3-2.1l0.2-2.2l0.2-2.2V431.2l-0.2-2.5l-0.2-2.4l-0.3-2.5l-0.5-2.5l-0.5-2.5
			l-0.5-2.5l-0.7-2.5l-0.8-2.5l-0.8-2.5l-0.9-2.5l-1-2.4l-1-2.4l-1.1-2.5l-1.2-2.3l-1.2-2.4l-1.3-2.3l-1.4-2.2l-1.4-2.2l-1.4-2.2
			l-1.6-2l-1.5-2.1l-1.6-1.9l-1.7-1.9l-1.7-1.8l-1.7-1.7l-1.7-1.7l-1.8-1.6l-1.9-1.4l-1.8-1.4l-1.9-1.2l-1.9-1.2L1911.1,299
			l-1.9-1.1l-1.9-0.9l-1.8-0.7l-1.9-0.7l-1.8-0.5l-1.7-0.4l-1.8-0.2l-1.6-0.2h-1.7l-1.6,0.1l-1.6,0.3l-1.5,0.3l-1.4,0.5l-1.4,0.5
			l-1.4,0.7l-1.3,0.8l13.5-8.9l1.3-0.8l1.4-0.7l1.4-0.5l1.5-0.5l1.5-0.3l1.5-0.3l1.7-0.1h1.6l1.7,0.2l1.7,0.2l1.8,0.4l1.8,0.5
			l1.8,0.7l1.9,0.7l1.8,0.9L1924.6,290.1z"/>
		<path class="st15" d="M2073.9,403.7l0.3,1.2l0.7,2.5l0.6,2.5l0.5,2.5l0.4,2.5l0.3,2.5l0.3,2.4l0.1,2.5l0.1,2.4V569l-0.1,2.4
			l-0.1,2.2l-0.3,2.2l-0.3,2.1l-0.4,2l-0.5,1.9l-0.6,1.8l-0.7,1.8l-0.7,1.6l-0.8,1.5l-0.9,1.5l-1,1.3l-1.1,1.2l-1.1,1.2l-1.1,1
			l-1.3,0.9l-13.5,8.9l1.2-0.9l1.2-1l1.1-1.2l1-1.2l1-1.3l0.9-1.5l0.8-1.5l0.8-1.6l0.7-1.8l0.5-1.8l0.5-1.9l0.5-2l0.3-2.1l0.2-2.2
			l0.2-2.2V431.2l-0.2-2.5l-0.2-2.4l-0.3-2.5l-0.5-2.5l-0.5-2.5l-0.5-2.5l-0.7-2.5l-0.6-2.1L2073.9,403.7z"/>
		<path class="st17" d="M1911.1,299l115.3,66.5c10.2,5.9,19.5,16.5,26.3,28.8c6.8,12.4,11,26.4,11,39.2v144.3
			c0,12.8-4.2,22-10.9,26.6c-6.8,4.6-16.1,4.4-26.3-1.5l-115.3-66.5c-10.2-5.9-19.5-16.5-26.3-28.8c-6.8-12.4-11-26.5-11-39.2V324.1
			c0-12.8,4.2-22,10.9-26.6C1891.6,293,1900.9,293.1,1911.1,299L1911.1,299z"/>
		<path class="st95" d="M2041.8,608.9c-5,0-10.4-1.6-16-4.8l-115.3-66.5c-10.1-5.8-19.6-16.2-26.7-29.3
			c-7.2-13.1-11.1-27.2-11.1-39.8V324.1c0-12.8,4.1-22.6,11.5-27.6c7.5-5,17.3-4.5,27.5,1.4l115.3,66.5
			c10.1,5.8,19.6,16.2,26.7,29.3c7.2,13.1,11.1,27.2,11.1,39.8v144.3c0,12.8-4.1,22.6-11.5,27.6
			C2049.9,607.8,2046.1,608.9,2041.8,608.9z M1895.7,295.5c-3.7,0-7.2,1-10.2,3c-6.7,4.5-10.4,13.6-10.4,25.6v144.3
			c0,12.2,3.8,25.9,10.8,38.7c7,12.7,16.1,22.8,25.8,28.4L2027,602c9.5,5.5,18.4,6,25,1.5c6.7-4.5,10.4-13.6,10.4-25.6V433.6
			c0-12.2-3.8-25.9-10.8-38.7c-7-12.7-16.1-22.8-25.8-28.4L1910.5,300C1905.3,297,1900.2,295.5,1895.7,295.5z"/>
		<path class="st15" d="M1967.9,521.1c-3-1.7-5.7-4.5-7.9-8.3c-2.3-3.8-3.4-7.8-3.4-12.3c0-3.9,1.1-6.6,3.3-8s4.9-1.2,8,0.6
			s5.8,4.7,7.9,8.6c2.1,3.9,3.2,7.8,3.2,11.7c0,4.4-1.1,7.2-3.4,8.3C1973.4,523,1970.8,522.8,1967.9,521.1L1967.9,521.1z
			 M1931.5,397.9c0-5.9,1.5-11,4.6-15.3c3-4.3,7.5-6.8,13.3-7.4c5.8-0.6,12.6,1.3,20.3,5.8c7.2,4.2,13.6,9.5,19.1,16
			s9.7,13.5,12.7,20.9s4.5,14.5,4.5,21.2c0,5.3-0.9,9.4-2.6,12.4c-1.7,3-3.7,5.3-6.1,6.8c-2.3,1.5-6.6,4-12.7,7.3
			c-1.7,0.9-3.1,1.8-4.1,2.7s-1.8,1.8-2.3,2.7s-0.9,1.9-1.2,3s-0.7,2.9-1.2,5.7c-0.9,5.9-3.9,7.4-8.9,4.6c-2.6-1.5-4.8-3.8-6.5-6.9
			c-1.8-3.2-2.6-6.8-2.6-11c0-5.2,0.6-9.4,1.9-12.4c1.3-3.1,3-5.4,5.1-7.1c2.1-1.7,5-3.4,8.6-5.3c3.2-1.6,5.5-2.9,6.9-3.9
			s2.6-2.2,3.6-3.9c1-1.6,1.4-3.7,1.4-6.3c0-5-1.5-10-4.4-15.1c-3-5.1-6.8-9-11.4-11.7c-5.5-3.2-9.5-3.8-12.1-1.8s-4.8,5.8-6.5,11.5
			c-1.7,6-4.9,7.7-9.6,5c-2.8-1.6-5.1-4.2-7-7.8C1932.5,404,1931.5,400.8,1931.5,397.9z"/>
	</g>
	<g>
		<path class="st96" d="M938.7,232.3l-115.3,66.5l-1.9,1.1l-1.9,1.3l-1.8,1.3l-1.9,1.5l-1.7,1.6l-1.8,1.6l-1.7,1.7l-1.7,1.8
			l-1.7,1.9l-1.6,2l-1.5,2l-1.5,2.1l-1.5,2.1l-1.4,2.2l-1.4,2.3l-1.2,2.3l-1.3,2.3l-1.2,2.4l-1.1,2.4l-1,2.4l-1,2.5l-0.9,2.5
			l-0.8,2.4l-0.8,2.5l-0.6,2.5l-0.6,2.5l-0.5,2.5L787,357l-0.4,2.5l-0.2,2.4l-0.2,2.5v149l0.2,2.3l0.2,2.2l0.4,2.1l0.4,2l0.5,1.9
			l0.6,1.8l0.6,1.7l0.8,1.6l0.8,1.6l0.9,1.4l1,1.3l1,1.3l1.1,1.1l1.2,1l1.2,0.9l13.6,8.9l-1.3-0.9l-1.1-1l-1.2-1.1l-1-1.3l-1-1.3
			l-0.9-1.4l-0.8-1.6l-0.7-1.6l-0.7-1.7l-0.6-1.8l-0.5-1.9l-0.4-2.1l-0.3-2l-0.3-2.2l-0.1-2.3l-0.1-2.3V375.7l0.1-2.4l0.1-2.5
			l0.3-2.4l0.3-2.5l0.4-2.5l0.5-2.5l0.6-2.5l0.7-2.5l0.7-2.5l0.8-2.4l0.9-2.5l1-2.5l1.1-2.4l1.1-2.4l1.1-2.4l1.3-2.3l1.3-2.3
			l1.3-2.3l1.4-2.2l1.5-2.1l1.5-2.1l1.6-2l1.6-2l1.6-1.9l1.7-1.8l1.7-1.7l1.8-1.6l1.8-1.6l1.8-1.5l1.9-1.3l1.8-1.3l1.9-1.2
			l115.3-66.4l1.9-1.1l1.9-0.9l1.8-0.7l1.8-0.7l1.8-0.5l1.8-0.4l1.7-0.2l1.7-0.2h1.7l1.6,0.1l1.5,0.2l1.5,0.4l1.5,0.5l1.4,0.5
			l1.4,0.7l-13.6-8.9l-1.3-0.7l-1.4-0.5l-1.5-0.5l-1.5-0.3l-1.6-0.3l-1.6-0.1h-1.6l-1.7,0.2l-1.7,0.2l-1.8,0.4l-1.8,0.5l-1.8,0.7
			l-1.9,0.7l-1.8,0.9L938.7,232.3z"/>
		<path class="st17" d="M952.2,241.2L837,307.7c-10.2,5.9-19.5,16.5-26.3,28.8c-6.8,12.4-11,26.4-11,39.2V520
			c0,12.8,4.2,22,10.9,26.6c6.8,4.6,16.1,4.4,26.3-1.5l115.2-66.5c10.2-5.9,19.5-16.5,26.3-28.8c6.8-12.4,11-26.4,11-39.2V266.3
			c0-12.8-4.2-22-10.9-26.6C971.7,235.2,962.4,235.3,952.2,241.2L952.2,241.2z"/>
		<path class="st95" d="M821.5,550.9c-4.2,0-8.1-1.1-11.5-3.4c-7.4-5-11.4-14.8-11.4-27.5V375.7c0-12.6,3.9-26.7,11.1-39.8
			s16.6-23.5,26.7-29.3l115.2-66.5c10.3-5.9,20.1-6.4,27.5-1.4c7.4,5,11.4,14.8,11.4,27.5v144.3c0,12.6-3.9,26.7-11.1,39.8
			s-16.6,23.5-26.7,29.3l-115.2,66.5C831.9,549.3,826.5,550.9,821.5,550.9L821.5,550.9z M952.8,242.2l-115.2,66.5
			c-9.7,5.6-18.9,15.7-25.8,28.4c-7,12.8-10.8,26.5-10.8,38.6V520c0,12,3.7,21,10.4,25.6c6.7,4.5,15.6,4,25-1.5l115.2-66.5
			c9.7-5.6,18.9-15.7,25.8-28.4c7-12.8,10.8-26.5,10.8-38.6V266.3c0-12-3.7-21-10.4-25.6C971.1,236.2,962.2,236.7,952.8,242.2z"/>
		<path class="st15" d="M946.2,300.5l-103.3,59.6C834,365.2,827.5,379,827,390v85.1c0,3.2,0.6,5.9,1.8,8.1c2.9,3.6,5.3,5.6,10.5,4.1
			c0.3-0.1,0.6-0.2,0.8-0.3c0.9-0.4,1.8-0.7,2.7-1.3l103.3-59.6c6.2-3.6,11-10.6,14.1-19c1.1-3.5,1.7-6.9,1.7-10v-85.2l-0.1-3.3
			c-0.5-4.6-2.5-7.9-5.5-9.4C953.6,297.9,949.9,298.3,946.2,300.5L946.2,300.5z M839.1,395.9l34,15.2l-34,54.3V395.9z M916,386.2
			l34-54.3v69.5L916,386.2z M840.9,377.1c0.1-0.2,0.3-0.4,0.5-0.6c0.5-0.6,1.1-1,1.6-1.3l103.3-59.6c0.8-0.5,1.4-0.5,2-0.4l-49,78.4
			c-2.4,3.9-6.9,6.5-9.4,5.4L840.9,377.1L840.9,377.1z M906.5,401.5l31.7,14.2l-87.3,50.4l31.7-50.8
			C889.4,417.8,899.8,411.8,906.5,401.5L906.5,401.5z"/>
		<path class="st97" d="M787.7,352.8l-0.3,1.7L787,357l-0.3,2.5l-0.2,2.5l-0.1,2.4v146.7c0.1,6.1,0.7,10.6,2.9,16.4
			c1.8,4,3.4,6.4,6.8,9.3l1.2,0.9l13.5,8.9l-1.2-0.9l-1.2-1c-3.2-3.2-4.6-5.8-6.3-10l-0.6-1.8c-1.2-4.6-1.6-8.1-1.7-12.8V373.3
			l0.1-2.4l0.2-2.5l0.3-2.5l0.4-2.5l0.5-2.5v-0.2L787.7,352.8L787.7,352.8z"/>
	</g>
</g>
</svg>
