<svg xmlns="http://www.w3.org/2000/svg" width="541" height="360" viewBox="0 0 541 360">
    <g fill="none" fill-rule="evenodd">
        <path fill="#000" d="M192.803 126.916h4.394V1.659h-4.394z"/>
        <path stroke="#FFF" stroke-width="2.087" d="M155.802 132.724h197.209V7.5H155.802z"/>
        <path fill="#FFF" stroke="#FFF" stroke-width="2.087" d="M309.489 127.142H160.763V1.918h196.214v125.224z"/>
        <path stroke="#FFF" stroke-width="2.087" d="M280.06 132.997v13.05M241.183 146.047v-13.05M284.757 151.66H214.57v-5.48h93.482v5.74"/>
        <text fill="#000" font-family="HelveticaNeue-Thin, Helvetica Neue" font-size="72.8" font-weight="300" transform="translate(155.802 1.918)">
            <tspan x="11.728" y="111.852">404</tspan>
        </text>
        <path fill="#F4F1F7" d="M121.653 174.914H376.55l10.657-23.655H121.653z"/>
        <path stroke="#FFF" stroke-width="2.087" d="M374.516 240.308H465.8c28.171 0 51.005-22.832 51.005-50.997v-65.878H441.03c-36.734 0-66.514 29.776-66.514 66.502v50.373zM40.776 151.92h346.431M24.217 183.83v-20.871M24.217 202.352v-2.957M312.363 343.93H24.217V220.004"/>
        <g stroke="#FFF" stroke-width="2.087">
            <path d="M539.105 151.914V343.93H312.363M517.536 151.92h21.368M517.36 174.878h20.353"/>
        </g>
        <path stroke="#FFF" stroke-width="2.087" d="M23.522 174.878H376.55M123.021 292.618v51.312M123.021 250.354v25.306M123.021 153.312v79.041"/>
        <g stroke="#FFF" stroke-width="2.087">
            <path d="M516.988 123.398H440.38c-36.164 0-65.483 29.313-65.483 65.473v50.706h91.093c28.468 0 51.546-23.073 51.546-51.534v-43.426M395.724 247.925h38.364c15.92 0 28.827 12.906 28.827 28.824v81.79h-96.02v-81.79c0-15.918 12.908-28.824 28.829-28.824z"/>
            <path d="M446.865 247.925h38.364c15.92 0 28.826 12.906 28.826 28.824v81.79h-96.02v-81.79c0-15.918 12.91-28.824 28.83-28.824zM439.433 342.886V240.098M125.506 253.79l-5.413 5.413a7.654 7.654 0 0 0 10.826 10.821l5.412-5.41a7.653 7.653 0 0 0 0-10.823 7.656 7.656 0 0 0-10.825 0zM135.286 283.203l-5.412-5.412a7.653 7.653 0 1 0-10.823 10.824l5.41 5.412a7.656 7.656 0 0 0 10.825 0 7.65 7.65 0 0 0 0-10.824zM32.116 197.5l5.413-5.413a7.654 7.654 0 0 0-10.826-10.821l-5.412 5.41a7.657 7.657 0 0 0 0 10.823 7.652 7.652 0 0 0 10.825 0zM95.975 191.548l-5.413-5.412A7.653 7.653 0 1 0 79.74 196.96l5.41 5.411a7.653 7.653 0 1 0 10.825-10.824zM82.16 174.574a7.614 7.614 0 0 0 2.102 3.949l5.413 5.41a7.65 7.65 0 0 0 10.823 0 7.652 7.652 0 0 0 1.37-8.96M67.663 149.9c8.268 0 14.97-6.701 14.97-14.968v-9.686H52.694v9.686c0 8.267 6.7 14.968 14.969 14.968zM84.727 109.38h-7.655a7.654 7.654 0 0 0-7.654 7.65 7.654 7.654 0 0 0 7.654 7.654h7.655a7.654 7.654 0 0 0 7.652-7.653 7.654 7.654 0 0 0-7.652-7.651zM61.068 109.031h-7.652a7.654 7.654 0 0 0-7.654 7.653 7.654 7.654 0 0 0 7.654 7.652h7.652a7.654 7.654 0 0 0 7.655-7.652 7.654 7.654 0 0 0-7.655-7.653z"/>
            <path d="M76.377 102.075v-7.653a7.654 7.654 0 0 0-15.309 0v7.653a7.655 7.655 0 0 0 15.309 0zM102.237 133.11l-5.413-5.412a7.653 7.653 0 1 0-10.823 10.824l5.41 5.411a7.653 7.653 0 1 0 10.825-10.824zM100.729 207.472h-7.653a7.654 7.654 0 0 0-7.654 7.651 7.654 7.654 0 0 0 7.654 7.653h7.653a7.654 7.654 0 0 0 7.654-7.653 7.654 7.654 0 0 0-7.654-7.651zM110.297 224.515h-7.654a7.654 7.654 0 0 0 0 15.306h7.654a7.654 7.654 0 0 0 0-15.306zM123.419 231.877l-5.413 5.411a7.654 7.654 0 0 0 10.825 10.822l5.413-5.41a7.653 7.653 0 0 0 0-10.823 7.656 7.656 0 0 0-10.825 0zM86.89 88.566l-5.413 5.412a7.654 7.654 0 0 0 10.825 10.821l5.413-5.41a7.653 7.653 0 0 0 0-10.823 7.656 7.656 0 0 0-10.825 0zM117.892 195.025l-5.412-5.412a7.653 7.653 0 1 0-10.823 10.824l5.41 5.411a7.656 7.656 0 0 0 10.825 0 7.653 7.653 0 0 0 0-10.823zM42.726 143.757l5.413-5.412a7.65 7.65 0 0 0 0-10.821 7.656 7.656 0 0 0-10.825 0l-5.413 5.41a7.657 7.657 0 0 0 0 10.823 7.652 7.652 0 0 0 10.825 0zM26.802 163.468h7.652a7.654 7.654 0 0 0 7.655-7.651 7.654 7.654 0 0 0-7.655-7.653h-7.652a7.654 7.654 0 0 0-7.655 7.653 7.654 7.654 0 0 0 7.655 7.651zM14.2 153.324l5.413-5.411A7.654 7.654 0 0 0 8.787 137.09l-5.412 5.41a7.653 7.653 0 0 0 0 10.823 7.656 7.656 0 0 0 10.825 0zM6.507 172.782l5.413 5.412a7.653 7.653 0 1 0 10.823-10.823l-5.41-5.412a7.66 7.66 0 0 0-10.826 0 7.65 7.65 0 0 0 0 10.823zM39.208 99.91l5.413 5.412a7.657 7.657 0 0 0 10.823 0 7.65 7.65 0 0 0 0-10.823l-5.41-5.412a7.653 7.653 0 1 0-10.825 10.824zM19.726 215.22l5.413 5.413a7.653 7.653 0 1 0 10.823-10.824l-5.41-5.412a7.653 7.653 0 1 0-10.825 10.824z"/>
        </g>
    </g>
</svg>
