<svg xmlns="http://www.w3.org/2000/svg" width="38" height="38" viewBox="0 0 38 38">
    <path fill="#FFF" fill-rule="nonzero" d="M18.999 7C12.096 7 6.5 12.509 6.5 19.304c0 5.436 3.581 10.047 8.548 11.675.626.112.854-.267.854-.594 0-.291-.011-1.065-.017-2.092-3.477.743-4.21-1.65-4.21-1.65-.57-1.42-1.389-1.799-1.389-1.799-1.135-.763.086-.748.086-.748 1.255.087 1.915 1.268 1.915 1.268 1.115 1.88 2.926 1.337 3.638 1.023.113-.796.436-1.338.793-1.645-2.775-.31-5.694-1.367-5.694-6.081 0-1.343.488-2.442 1.287-3.302-.129-.311-.558-1.562.122-3.256 0 0 1.05-.33 3.438 1.261.997-.272 2.067-.41 3.13-.414a12.17 12.17 0 0 1 3.129.414c2.386-1.592 3.434-1.261 3.434-1.261.682 1.694.253 2.945.124 3.256.801.86 1.285 1.959 1.285 3.302 0 4.726-2.923 5.766-5.707 6.07.449.38.848 1.131.848 2.28 0 1.644-.015 2.97-.015 3.374 0 .33.225.713.86.592 4.963-1.63 8.541-6.238 8.541-11.673C31.5 12.51 25.903 7 18.999 7"/>
</svg>
