<svg xmlns="http://www.w3.org/2000/svg" width="57" height="56" viewBox="0 0 57 56">
    <path fill="#000" fill-rule="evenodd" d="M0 0h56.875v56H0V0zm42.657 17.841c-1.074.499-2.148.845-3.333.999 1.185-.73 2.11-1.959 2.518-3.38-1.11.691-2.333 1.229-3.666 1.498C37.103 15.767 35.584 15 33.881 15c-3.221 0-5.813 2.726-5.813 6.067 0 .461.074.96.148 1.382-4.85-.23-9.147-2.688-12.034-6.336a6.614 6.614 0 0 0-.778 3.073c0 1.988.962 3.857 2.592 5.03-.963-.038-1.814-.307-2.629-.73v.077c0 2.919 2 5.339 4.703 5.876a5.285 5.285 0 0 1-1.555.23c-.37 0-.778-.038-1.111-.115.74 2.381 2.85 4.186 5.442 4.225-2 1.612-4.48 2.611-7.22 2.611-.481 0-.962-.077-1.407-.116 2.593 1.69 5.665 2.727 8.96 2.727 10.739 0 16.59-9.216 16.59-17.205 0-.268 0-.537-.038-.806a12.953 12.953 0 0 0 2.926-3.149z"/>
</svg>
