<svg xmlns="http://www.w3.org/2000/svg" width="56" height="56" viewBox="0 0 56 56">
    <path fill="#000" fill-rule="evenodd" d="M0 0h56v56H0V0zm17.001 16.982c0 1.636 1.286 2.925 2.87 2.925 1.634 0 2.97-1.289 2.97-2.925 0-1.587-1.336-2.975-2.97-2.975-1.584 0-2.87 1.388-2.87 2.975zm7.969 20.379c0 .298.346.645.593.645h4.307c.346 0 .693-.298.693-.645V29.13c0-1.934.544-3.372 2.722-3.372 1.732 0 2.178.844 2.178 2.381v9.222c0 .298.247.645.594.645h4.356c.296 0 .593-.298.593-.645V27.147c0-4.066-2.474-5.901-6.335-5.901-1.584 0-3.118.297-4.307 1.487 0-.446 0-1.14-.593-1.14h-4.208c-.247 0-.593.298-.593.645v15.123zm-7.87 0c0 .298.297.645.593.645H22a.656.656 0 0 0 .643-.645V22.238c0-.397-.247-.645-.643-.645h-4.307c-.247 0-.593.298-.593.645v15.123z"/>
</svg>
