<svg xmlns="http://www.w3.org/2000/svg" width="87" height="59" viewBox="0 0 87 59">
    <path fill="none" fill-rule="nonzero" stroke="#000" stroke-width="1.1" d="M37.677 58.45V34.166H17.358v-.55c0-2.63.291-5.3.874-8.005.59-2.745 1.714-5.22 3.37-7.419 1.658-2.201 3.789-3.97 6.387-5.303 2.49-1.278 5.605-1.942 9.344-2V.551c-6.136.051-11.512.954-16.13 2.706-4.753 1.804-8.648 4.203-11.691 7.196-3.042 2.993-5.293 6.468-6.758 10.432C1.285 24.864.55 29.106.55 33.616V58.45h37.127zm48.773 0V34.166H66.131v-.55c0-2.63.291-5.3.873-8.005.591-2.745 1.715-5.22 3.37-7.419 1.658-2.201 3.79-3.97 6.388-5.303 2.489-1.278 5.604-1.942 9.344-2V.551c-6.136.051-11.513.954-16.13 2.706-4.753 1.804-8.649 4.203-11.691 7.196-3.042 2.993-5.294 6.468-6.758 10.432-1.47 3.978-2.204 8.22-2.204 12.73V58.45H86.45z"/>
</svg>
