<svg xmlns="http://www.w3.org/2000/svg" width="38" height="38" viewBox="0 0 38 38">
    <path fill="#FFF" fill-rule="nonzero" d="M13.667 7A6.667 6.667 0 0 0 7 13.667v10.666A6.667 6.667 0 0 0 13.667 31h10.666A6.667 6.667 0 0 0 31 24.333V13.667A6.667 6.667 0 0 0 24.333 7H13.667zM27 9.667c.733 0 1.333.6 1.333 1.333s-.6 1.333-1.333 1.333-1.333-.6-1.333-1.333.6-1.333 1.333-1.333zm-8 2.666a6.667 6.667 0 1 1 0 13.334 6.667 6.667 0 0 1 0-13.334zM19 15a4.001 4.001 0 1 0 .003 8.003A4.001 4.001 0 0 0 19 15z"/>
</svg>
