<svg id="Capa_1" data-name="Capa 1" xmlns="http://www.w3.org/2000/svg" viewBox="0 0 90.47 48.35"><title>github-logo</title><path d="M52.78,12.67h2.6c1.14,2,.69,4.43.73,6.66,0,6.11,0,12.22,0,18.33-.09,1,.12,2.44-1,2.79a3,3,0,0,1-2.69-.34,4.44,4.44,0,0,1-.49-2.44q.08-11.07,0-22.12A4.52,4.52,0,0,1,52.78,12.67Z" transform="translate(-7.13 -12.67)"/><path d="M67.52,19.46c.86-.19,2-.42,2.67.37,1,1,.92,2.39.93,3.65-.06,3.61,0,7.23,0,10.84a6.9,6.9,0,0,1-.75,3.83,2.34,2.34,0,0,1-3,.33c-.95-.64-.81-1.91-.86-2.91.05-4.45,0-8.9,0-13.35C66.53,21.25,66.41,19.91,67.52,19.46Z" transform="translate(-7.13 -12.67)"/><path d="M38.36,21.08c1.25-.42,3.25-.08,3.16,1.59.08,5.54,0,11.09,0,16.64a16.7,16.7,0,0,1-.16,3.16c-1.11,1.55-4,.86-4-1.1-.08-5.82,0-11.65,0-17.48C37.36,22.88,37.25,21.57,38.36,21.08Z" transform="translate(-7.13 -12.67)"/><path d="M60.43,23.16c1.24-.42,3.24-.07,3.15,1.59.08,5.41,0,10.81,0,16.22a20.4,20.4,0,0,1-.16,3.58c-1.12,1.55-4,.87-4-1.09-.08-5.83,0-11.66-.05-17.49C59.42,25,59.31,23.66,60.43,23.16Z" transform="translate(-7.13 -12.67)"/><path d="M30.87,27.32c1.07-.25,2.55-.29,3.07.9a51.51,51.51,0,0,1,.1,6.09,54,54,0,0,1-.1,6.1c-.67,1.28-2.48,1.23-3.5.44-.77-.52-.47-1.58-.57-2.36.05-3.19-.05-6.38,0-9.58A1.72,1.72,0,0,1,30.87,27.32Z" transform="translate(-7.13 -12.67)"/><path d="M45.44,28.57c1.07-.25,2.55-.29,3.06.9a51.06,51.06,0,0,1,.14,5.67,10,10,0,0,1-.31,3.46c-1.13.82-3.23.86-3.73-.68a49.83,49.83,0,0,1-.17-6.11C44.48,30.69,44.18,29.15,45.44,28.57Z" transform="translate(-7.13 -12.67)"/><path d="M7.21,47.64c0-.65.68-.93,1.22-.88,2.64,0,5.43-.28,7.91.81,1.77.73,2.53,2.8,2.51,4.59,0,1.56-1.08,2.79-2,3.93.94,1.53,2.37,2.87,2.5,4.75-1.32,0-2.73.3-4-.19-1.56-1.11-1.93-3.51-3.93-4.08-.06,1.26,0,2.53-.18,3.79-.91,1-2.64.54-3.85.34a25.21,25.21,0,0,1-.21-5.21c.07-2.61-.11-5.24,0-7.85m4.13,2.78c0,.87,0,1.73,0,2.6a10,10,0,0,0,3.13-.24,15.69,15.69,0,0,0,.29-1.8A28,28,0,0,0,11.34,50.42Z" transform="translate(-7.13 -12.67)"/><path d="M21.3,47a25.08,25.08,0,0,1,5.2-.21,21.9,21.9,0,0,1,4.79.2,12.67,12.67,0,0,1,.22,3.53l-6.26,0v1.63l5.42,0v3.31l-5.42,0v1.64c2,.08,4.09-.14,6.11.11,1.18.83.33,2.49.13,3.63-2.91,0-5.83,0-8.74,0-.63,0-1.68,0-1.61-.9-.17-2.62,0-5.24-.05-7.85A24.41,24.41,0,0,1,21.3,47Z" transform="translate(-7.13 -12.67)"/><path d="M33.46,52.51a7.19,7.19,0,0,1,5.24-5.62,9.3,9.3,0,0,1,5.75.72c.6.37,1.44.85,1.25,1.68-.13,1-1.09,1.69-1.71,2.44-1.32-.59-2.78-1.68-4.27-.95-1.7.54-2.94,2.73-2,4.38a3.41,3.41,0,0,0,4.6,1.65c.08-1.15-.2-2.43.32-3.49,1.1-.64,2.52-.17,3.74-.15.05,1.87.59,4-.31,5.68-3.17,3.38-9.61,2.73-11.88-1.38A7.9,7.9,0,0,1,33.46,52.51Z" transform="translate(-7.13 -12.67)"/><path d="M48.22,47c1.07-.24,2.66-.67,3.44.33.49,3.07-.7,6.53,1.07,9.3,1.15,1.35,3.2,0,3.17-1.52.11-2.62-.07-5.25.06-7.87a6.82,6.82,0,0,1,3.57-.39c.94.78.42,2.2.56,3.27-.17,2.88.63,6.21-1.36,8.64-2,2.82-6.38,2.86-9,.82-1.72-1.52-1.87-4-1.78-6.13S47.74,49.11,48.22,47Z" transform="translate(-7.13 -12.67)"/><path d="M61.79,47.35c.91-1.13,2.65-.35,3.91-.39.34,3.4,0,6.82.17,10.23l5.4,0c-.16,1.18.49,2.79-.54,3.64-2,.23-4.09,0-6.13.11A7.14,7.14,0,0,1,62,60.7c-.47-1.24-.21-2.62-.27-3.92C61.81,53.64,61.53,50.48,61.79,47.35Z" transform="translate(-7.13 -12.67)"/><path d="M73.29,47.34c.29-.62,1-.57,1.58-.59s1.6-.15,2,.59c.48,3.07-.71,6.53,1.07,9.3,1.14,1.35,3.19,0,3.16-1.53.12-2.62-.06-5.24.06-7.86a6.92,6.92,0,0,1,3.57-.39c1,.77.42,2.2.57,3.27-.17,3,.66,6.45-1.56,8.87-2,2.47-5.77,2.52-8.29.94-1.85-1.2-2.34-3.58-2.26-5.64C73.26,52,73.05,49.65,73.29,47.34Z" transform="translate(-7.13 -12.67)"/><path d="M89.86,46.94a8.43,8.43,0,0,1,6.84,1.2c1.14.94-.19,2.4-.94,3.14-1.71-.11-3.33-.84-5.07-.78.94,1.39,2.73,1.36,4.12,2a5.49,5.49,0,0,1,2.79,3.15v1.82c-1.61,4.62-8.25,4.38-11.12,1.16-.56-1.41,1-2.3,1.87-3.18C90,56.29,92,58,93.7,56.51c-2.08-.92-4.67-1.12-6.2-3A4.36,4.36,0,0,1,89.86,46.94Z" transform="translate(-7.13 -12.67)"/></svg>