<svg xmlns="http://www.w3.org/2000/svg" width="38" height="38" viewBox="0 0 38 38">
    <path fill="#FFF" fill-rule="nonzero" d="M9.068 12.709a.989.989 0 0 0-.322-.834L6.363 9.003v-.429h7.4l5.721 12.546 5.03-12.546h7.055v.43l-2.038 1.953a.596.596 0 0 0-.226.572v14.357a.596.596 0 0 0 .226.572l1.99 1.954v.429h-10.01v-.429l2.061-2.002c.203-.202.203-.262.203-.571V14.234l-5.733 14.56h-.774l-6.674-14.56v9.758c-.056.41.08.823.37 1.12l2.68 3.252v.43H6.042v-.43l2.682-3.252c.286-.297.415-.713.345-1.12V12.709z"/>
</svg>
