<?xml version="1.0" standalone="no"?>
<!DOCTYPE svg PUBLIC "-//W3C//DTD SVG 20010904//EN"
 "http://www.w3.org/TR/2001/REC-SVG-20010904/DTD/svg10.dtd">
<svg version="1.0" xmlns="http://www.w3.org/2000/svg"
 width="700.000000pt" height="700.000000pt" viewBox="0 0 700.000000 700.000000"
 preserveAspectRatio="xMidYMid meet">
<g transform="translate(0.000000,700.000000) scale(0.100000,-0.100000)"
fill="#000000" stroke="none">
<path d="M3278 6996 c-1 -2 -41 -6 -88 -10 -87 -7 -105 -9 -225 -27 -116 -18
-122 -19 -192 -34 -450 -100 -835 -262 -1198 -503 -543 -359 -963 -842 -1239
-1424 -35 -73 -80 -178 -100 -233 -21 -55 -42 -109 -46 -120 -67 -158 -153
-563 -177 -825 -16 -169 -8 -587 12 -730 3 -19 7 -53 10 -75 3 -22 12 -78 21
-125 129 -704 465 -1339 980 -1854 107 -107 231 -214 238 -205 2 2 76 102 166
221 l162 218 -145 142 c-159 157 -219 225 -324 368 -184 249 -334 541 -432
840 -31 95 -84 310 -96 385 -3 22 -10 67 -15 100 -30 197 -33 596 -6 765 3 14
7 48 11 75 53 428 267 937 550 1314 106 139 110 144 245 284 286 297 622 525
1005 680 98 40 307 110 360 121 11 3 58 13 105 24 47 11 105 23 130 27 25 4
67 11 94 16 121 23 534 33 686 16 311 -33 571 -96 835 -204 104 -42 321 -147
338 -162 4 -4 -68 -63 -160 -132 -92 -68 -217 -161 -277 -206 -61 -46 -120
-89 -131 -97 -24 -18 -465 -346 -503 -374 -15 -11 -79 -59 -142 -106 -63 -46
-151 -112 -195 -144 -194 -144 -612 -455 -633 -470 -13 -9 -47 -35 -76 -57
-29 -22 -65 -49 -80 -60 -16 -11 -52 -38 -82 -60 -29 -22 -179 -134 -334 -249
-154 -115 -278 -211 -276 -215 3 -3 218 -218 478 -478 l473 -472 21 22 c19 20
203 263 1159 1537 143 190 263 350 267 355 4 6 25 33 46 60 21 28 310 412 643
855 332 443 606 807 609 810 8 8 85 113 95 129 6 11 -135 -88 -195 -136 -8 -7
-59 -45 -114 -86 l-99 -74 -56 38 c-357 238 -882 438 -1326 505 -27 4 -52 8
-55 9 -3 1 -41 5 -85 10 -44 4 -89 10 -100 12 -25 4 -532 13 -537 9z"/>
<path d="M5805 5938 c-44 -61 -84 -115 -90 -122 -27 -30 -155 -207 -155 -213
0 -5 21 -30 48 -58 140 -147 291 -340 388 -498 54 -88 164 -295 196 -372 9
-22 25 -58 34 -80 43 -103 121 -352 140 -450 2 -11 8 -42 14 -70 17 -84 20
-98 26 -140 6 -50 13 -107 23 -210 8 -88 7 -426 -3 -490 -3 -22 -8 -65 -11
-96 -3 -31 -8 -67 -10 -80 -3 -13 -8 -40 -11 -59 -22 -143 -121 -496 -164
-585 -5 -11 -30 -67 -55 -124 -65 -147 -181 -357 -211 -382 -8 -6 -14 -15 -14
-20 0 -10 -81 -126 -143 -204 -159 -202 -370 -405 -577 -556 -151 -109 -239
-163 -402 -244 -73 -37 -141 -71 -150 -76 -33 -17 -223 -87 -305 -112 -205
-65 -420 -107 -633 -124 -164 -13 -496 -7 -600 11 -14 3 -45 7 -70 10 -25 3
-56 8 -70 11 -14 3 -41 8 -60 11 -67 12 -236 55 -330 85 -125 40 -330 121
-330 131 0 4 84 69 186 145 324 240 569 422 579 430 9 8 524 390 845 628 82
61 309 229 505 375 197 146 431 320 522 387 90 67 164 125 163 130 -4 24 -949
958 -959 947 -6 -5 -125 -162 -265 -349 -140 -187 -259 -344 -263 -350 -5 -5
-132 -174 -283 -375 -150 -201 -423 -563 -605 -805 -182 -242 -558 -741 -834
-1110 -277 -369 -511 -679 -520 -690 -45 -57 -73 -97 -60 -90 14 9 151 110
179 132 8 7 78 59 155 116 l140 104 155 -78 c85 -42 199 -95 253 -118 220 -91
535 -180 762 -215 22 -4 54 -9 70 -11 176 -29 596 -40 800 -22 536 49 1062
222 1510 497 356 218 698 524 951 850 350 451 583 981 683 1550 11 63 23 142
26 175 4 33 9 71 11 85 9 46 11 524 4 605 -15 153 -21 210 -25 225 -2 8 -7 35
-10 60 -13 100 -71 348 -107 460 -120 376 -270 682 -481 985 -38 55 -72 102
-76 105 -3 3 -19 23 -36 45 -16 22 -31 42 -34 45 -4 3 -28 32 -55 65 -56 67
-267 285 -275 284 -4 0 -42 -50 -86 -111z"/>
</g>
</svg>
