<svg xmlns="http://www.w3.org/2000/svg" xmlns:xlink="http://www.w3.org/1999/xlink" width="318" height="226" viewBox="0 0 318 226">
    <defs>
        <path id="a" d="M.6 0h317v195.2H.6z"/>
    </defs>
    <g fill="none" fill-rule="evenodd">
        <mask id="b" fill="#fff">
            <use xlink:href="#a"/>
        </mask>
        <use fill="#C8D1C5" xlink:href="#a"/>
        <path fill="#FFF" d="M-179.684 90.448c20.97-2.014 20.422-19.441 40.07-19.441 26.872 0 26.662 8.594 57.163 1.894C-57.765 67.48-45.377 49-11.823 49c24.002 0 36.937 16.649 38.399 17.191 7.887 2.93 13.757-7.89 37.771 9.346 14.488 10.397 42.311 50.444-10.104 72.763-63.859 27.192-118.343-5.045-143.779 2.114-13.987 3.937-27.403-24.395-90.148-30.64-6.998-.696-51.97-15.246-30.609-28.343l30.61-.983z" mask="url(#b)" transform="rotate(1 -65.6 104.2)"/>
        <path fill="#FFF" d="M262.031 80.419c6.553-3.371 8.27 3.411 13.532 3.73 1.745.105 8.632-4.213 10.241-4.895 4.123-1.748 16.344-6.944 18.49 1.165.897 3.391.41 5.868 0 9.353-.174 1.474-1.246 2.721-2.146 3.9-10.649 13.96-61.995 16.045-62.147-2.229-.152-18.274 17.321-8.602 22.03-11.024zM114.237 25.517c-9.177-1.699-9.239 1.198-23.505 1.198-12.145 0-27.089-7.491-39.036-1.198-3.551 1.87-6.341 5.118-10.073 6.596-.2.08-22.228 1.608-18.11 9.114 4.136 7.539 22.551 14.27 28.662 14.017 4.814-.2 9.659-.476 14.453 0 15.683 1.557 31.844-2.298 47.61-7.422 13.948-4.533 9.177-20.606 0-22.305z" mask="url(#b)" opacity=".614"/>
        <path fill="#FFF" d="M289.791 155.63c24.133-2.315 23.501-22.34 46.112-22.34 30.923 0 30.681 9.875 65.78 2.176C430.091 129.235 444.347 108 482.96 108c27.62 0 42.506 19.132 44.188 19.756 9.077 3.367 15.831-9.067 43.466 10.739 16.673 11.948 17.082 35.351 5.044 35.574-45.626.844-136.185-5.798-165.456 2.43-16.096 4.524-48.205 20.008-120.41 12.832-8.054-.8-59.805-17.521-35.224-32.571l35.223-1.13z" mask="url(#b)" transform="scale(-1 1) rotate(1 0 -47519.277)"/>
        <path fill="#C8D1C5" d="M154.594 191.822l11.49 2.847-23.031 30.518z"/>
        <path fill="#F1F1F1" fill-rule="nonzero" d="M141.62 225.438l-30.463-44.921a.8.8 0 0 0-.548-.343l-26.78-3.867a1.6 1.6 0 0 1-.44-3.036l132.275-61.012a1.6 1.6 0 0 1 2.261 1.621l-9.355 88.682a2.4 2.4 0 0 1-2.972 2.076l-49.581-12.459a1.6 1.6 0 0 0-1.902 1.03l-11.077 32.041a.8.8 0 0 1-1.418.188z"/>
        <path fill="#C8D1C5" fill-opacity=".407" d="M111.911 179.349l99.732-62.323a.8.8 0 0 1 1.051 1.174l-57.7 72.985a1.6 1.6 0 0 0-.258.474l-11.46 33.448a.8.8 0 0 1-1.413.198l-30.417-43.685a1.6 1.6 0 0 1 .465-2.271z"/>
    </g>
</svg>
