<svg xmlns="http://www.w3.org/2000/svg" xmlns:xlink="http://www.w3.org/1999/xlink" width="924" height="284" viewBox="0 0 924 284">
    <defs>
        <path id="a" d="M0 0h924v244H0z"/>
    </defs>
    <g fill="none" fill-rule="evenodd">
        <mask id="b" fill="#fff">
            <use xlink:href="#a"/>
        </mask>
        <use fill="#C8D1C5" xlink:href="#a"/>
        <path fill="#FFF" d="M-154.605 143.81c26.214-2.518 25.528-24.302 50.088-24.302 33.59 0 33.327 10.743 71.453 2.369C-2.206 115.098 13.279 92 55.221 92c30.003 0 46.172 20.81 47.999 21.49 9.86 3.662 17.196-9.863 47.214 11.68 18.11 12.998 52.889 63.057-12.63 90.955-79.824 33.99-147.929-6.306-179.723 2.643-17.484 4.921-34.254-30.494-112.686-38.3-8.747-.87-64.962-19.058-38.26-35.43l38.26-1.228z" mask="url(#b)" transform="rotate(1 -12 161)"/>
        <path fill="#FFF" d="M650.539 118.524c8.19-4.214 10.336 4.264 16.915 4.661 2.18.132 10.79-5.265 12.801-6.117 5.154-2.185 20.43-8.68 23.112 1.456 1.121 4.239.514 7.335 0 11.69-.217 1.843-1.557 3.402-2.682 4.877-13.311 17.448-77.494 20.056-77.684-2.787-.19-22.843 21.652-10.752 27.538-13.78zM367.351 75.782c-17.437-3.228-17.554 2.276-44.66 2.276-23.075 0-51.468-14.233-74.169-2.276-6.747 3.554-12.048 9.725-19.138 12.533-.38.15-42.234 3.055-34.41 17.316 7.86 14.324 42.848 8.113 54.459 7.632 9.145-.379 18.351-.904 27.46 0 29.797 2.958 60.504 14.635 90.458 4.9 26.502-8.613 17.437-39.152 0-42.38z" mask="url(#b)" opacity=".614"/>
        <path fill="#FFF" d="M688.24 176.538c30.165-2.894 29.375-27.927 57.639-27.927 38.653 0 38.351 12.346 82.225 2.722C863.614 143.543 881.434 117 929.7 117c34.526 0 53.133 23.915 55.235 24.695 11.346 4.208 19.789-11.333 54.333 13.423 20.84 14.936 21.352 44.19 6.305 44.468-57.033 1.055-170.232-7.247-206.82 3.037-20.12 5.655-60.257 25.01-150.514 16.041-10.066-1-74.756-21.902-44.03-40.714l44.03-1.412z" mask="url(#b)" transform="rotate(1 846 169)"/>
        <path fill="#C8D1C5" d="M465.742 241.027l14.364 3.56-28.79 38.146z"/>
        <path fill="#F1F1F1" fill-rule="nonzero" d="M449.525 283.048l-38.079-56.152a1 1 0 0 0-.684-.428l-33.475-4.834a2 2 0 0 1-.552-3.795l165.345-76.265a2 2 0 0 1 2.827 2.026l-11.694 110.852a3 3 0 0 1-3.715 2.595l-61.977-15.573a2 2 0 0 0-2.378 1.286l-13.845 40.053a1 1 0 0 1-1.773.235z"/>
        <path fill="#C8D1C5" fill-opacity=".407" d="M412.39 225.436l124.663-77.904a1 1 0 0 1 1.315 1.469l-72.125 91.23a2 2 0 0 0-.323.593l-14.325 41.81a1 1 0 0 1-1.766.247l-38.021-54.606a2 2 0 0 1 .581-2.839z"/>
    </g>
</svg>
