<?xml version="1.0" standalone="no"?>
<!DOCTYPE svg PUBLIC "-//W3C//DTD SVG 20010904//EN"
 "http://www.w3.org/TR/2001/REC-SVG-20010904/DTD/svg10.dtd">
<svg version="1.0" xmlns="http://www.w3.org/2000/svg"
 width="656.000000pt" height="656.000000pt" viewBox="0 0 656.000000 656.000000"
 preserveAspectRatio="xMidYMid meet">
<metadata>
Created by potrace 1.11, written by Peter Selinger 2001-2013
</metadata>
<g transform="translate(0.000000,656.000000) scale(0.100000,-0.100000)"
fill="#000000" stroke="none">
<path d="M3617 5843 c-50 -80 -87 -178 -103 -275 -4 -23 -6 -250 -4 -503 3
-537 3 -2150 0 -2835 -1 -261 0 -486 3 -500 8 -49 40 -151 48 -156 5 -3 9 -14
9 -24 0 -51 161 -113 290 -112 44 1 115 12 135 22 3 1 8 3 13 5 33 9 63 28 90
59 43 49 62 122 67 261 5 156 8 3731 3 3741 -3 5 -9 29 -12 54 -3 25 -9 56
-12 70 -3 14 -6 30 -8 37 -1 7 -5 16 -9 19 -4 4 -7 14 -7 23 -1 9 -9 34 -20
56 -11 22 -19 45 -20 51 0 6 -8 18 -18 27 -16 15 -47 17 -220 17 l-202 0 -23
-37z"/>
<path d="M6040 4814 c-36 -8 -83 -26 -105 -42 -49 -34 -92 -116 -102 -192 -4
-30 -7 -611 -7 -1290 1 -1351 0 -1337 57 -1428 128 -202 480 -189 577 22 29
62 59 145 66 181 2 11 6 31 9 45 3 14 9 48 14 75 4 28 7 538 5 1135 -3 1196
-2 1177 -65 1305 -35 71 -107 152 -154 174 -16 7 -37 17 -45 20 -26 13 -182 9
-250 -5z"/>
<path d="M1405 4559 c-48 -11 -114 -46 -137 -74 -23 -27 -55 -93 -64 -130 -4
-16 -8 -109 -10 -205 -6 -264 -6 -2808 -1 -2860 22 -207 274 -336 494 -252 30
11 72 39 97 63 46 46 48 51 62 189 8 84 11 2988 3 3049 -16 114 -81 180 -211
214 -62 16 -171 19 -233 6z"/>
<path d="M4920 4230 c-110 -21 -176 -86 -207 -201 -15 -59 -17 -187 -16 -1559
0 -822 1 -1508 3 -1524 14 -150 177 -269 357 -261 90 4 92 4 156 33 43 19 116
81 118 100 0 4 2 14 4 23 13 70 28 311 26 429 -2 52 -2 369 -2 620 0 25 0 69
-1 98 -1 29 1 55 5 58 3 3 2 18 -2 32 -4 15 -5 38 -1 52 4 14 5 34 4 45 -5 25
-5 60 -3 140 4 137 3 1505 -1 1505 -3 0 -5 51 -5 113 -1 104 -3 116 -30 165
-15 28 -31 52 -35 52 -3 0 -15 8 -26 18 -20 18 -61 39 -109 54 -37 12 -188 17
-235 8z"/>
<path d="M308 3575 c-2 -2 -31 -5 -64 -8 -77 -7 -131 -34 -178 -88 -70 -82
-67 -39 -65 -1006 0 -477 5 -894 10 -926 15 -93 64 -150 173 -197 85 -38 208
-46 288 -20 80 28 154 89 171 145 15 48 21 316 22 965 0 748 -6 944 -31 992
-35 67 -118 122 -201 134 -47 7 -122 12 -125 9z"/>
<path d="M2587 3374 c-1 -1 -25 -6 -52 -10 -66 -8 -83 -16 -125 -56 -46 -43
-75 -103 -87 -178 -4 -26 -7 -674 -4 -905 0 -11 0 -24 0 -30 0 -15 10 -170 16
-250 7 -86 11 -100 43 -148 88 -132 303 -162 500 -70 20 9 42 22 49 29 12 12
40 133 51 224 14 119 6 950 -12 1182 -4 54 -39 121 -72 139 -13 7 -24 16 -24
20 0 19 -118 51 -197 53 -46 2 -84 2 -86 0z"/>
</g>
</svg>
